<?xml version="1.0" encoding="utf-8"?>
<!-- Generator: Adobe Illustrator 26.4.1, SVG Export Plug-In . SVG Version: 6.00 Build 0)  -->
<svg version="1.1" id="Layer_1" xmlns="http://www.w3.org/2000/svg" xmlns:xlink="http://www.w3.org/1999/xlink" x="0px" y="0px"
	 viewBox="0 0 58.7 40" style="enable-background:new 0 0 58.7 40;" xml:space="preserve">
<style type="text/css">
	.st0{fill:#003B70;}
	.st1{fill-rule:evenodd;clip-rule:evenodd;fill:#D9261C;}
	.st2{fill:#EE3023;}
	.st3{fill:#FFFFFF;}
	.st4{fill:#003662;}
	.st5{fill:none;}
	.st6{fill:#CCCCCC;}
	.st7{fill:#4E6176;}
	.st8{fill:#5D9BC7;}
	.st9{fill:#1F3F5A;}
	.st10{fill:#D6253A;}
	.st11{fill-rule:evenodd;clip-rule:evenodd;fill:#CCCCCC;}
</style>
<g>
	<path class="st6" d="M30.6,21.2c0,0.9-1.2,0.9-1.2,0.9h-1.2v-1.7h1.2C30.6,20.4,30.6,21.2,30.6,21.2 M28.2,17.7h0.9
		c0.9,0.1,0.9,0.7,0.9,0.7c0,0.9-1,0.9-1,0.9h-0.8V17.7z M30.4,19.7c0.5-0.2,0.8-0.7,0.8-1.3c0,0,0.1-1.5-1.9-1.7h-2.2V23h2.5
		c0,0,2.1,0,2.1-1.8C31.8,21.3,31.8,20.1,30.4,19.7 M24.7,15.5H34v8.7h-9.3V15.5z"/>
	<path class="st6" d="M19.9,21.2c0,0.9-1.2,0.9-1.2,0.9h-1.2v-1.7h1.2C20,20.4,19.9,21.2,19.9,21.2 M17.6,17.7h0.9
		c0.9,0.1,0.9,0.7,0.9,0.7c0,0.9-1,0.9-1,0.9h-0.8V17.7z M19.7,19.7c0.5-0.2,0.8-0.7,0.8-1.3c0,0,0.1-1.5-1.9-1.7h-2.2V23H19
		c0,0,2.1,0,2.1-1.8C21.1,21.3,21.1,20.1,19.7,19.7 M14,15.5h9.3v8.7H14V15.5z"/>
	<path class="st6" d="M42.8,17.2v1.2c-0.7-0.4-1.5-0.7-2.4-0.7c0,0-2.3,0-2.4,2.2c0,0-0.1,2.1,2.4,2.2c0,0,1,0.1,2.5-0.8v1.2
		c-1.3,0.7-2.8,0.8-4.1,0.3c-1.2-0.5-1.9-1.6-1.9-2.9c0-1.4,1-2.7,2.4-3c0.6-0.2,1.2-0.2,1.8-0.1C41.6,16.8,42.2,17,42.8,17.2
		 M35.4,24.3h9.3v-8.7h-9.3V24.3z"/>
</g>
</svg>
