<svg width="53" height="40" viewBox="0 0 53 40" fill="none" xmlns="http://www.w3.org/2000/svg">
<path d="M21.5108 24.8642C20.8108 25.5642 20.0108 25.9642 19.1108 26.0642C17.4108 26.0642 16.1108 24.7642 16.0108 23.0642C16.0108 22.9642 16.0108 22.9642 16.0108 22.8642C15.9108 21.1642 17.2108 19.7642 18.9108 19.7642C19.0108 19.7642 19.0108 19.7642 19.1108 19.7642C20.0108 19.7642 20.9108 20.1642 21.5108 20.8642L22.6108 19.4642C21.8108 18.3642 20.5108 17.7642 19.1108 17.7642C17.8108 17.7642 16.5108 18.1642 15.5108 19.0642C14.5108 20.0642 13.9108 21.3642 14.0108 22.8642C13.9108 24.2642 14.5108 25.6642 15.5108 26.6642C16.5108 27.5642 17.8108 28.0642 19.1108 27.9642C20.5108 27.9642 21.7108 27.3642 22.6108 26.2642L21.5108 24.8642Z" fill="#CCCCCC"/>
<path d="M23.8108 27.7642H25.8108V17.9642H23.8108V27.7642Z" fill="#CCCCCC"/>
<path d="M33.7108 25.6642C33.3108 25.9642 32.7108 26.1642 32.2108 26.1642C31.6108 26.1642 31.3108 25.8642 31.3108 25.0642V19.8642H33.3108V18.0642H31.3108V14.9642L29.3108 15.9642V17.9642H27.6108V19.7642H29.3108V25.2642C29.3108 26.7642 30.2108 27.7642 31.5108 27.8642C32.1108 27.8642 32.7108 27.7642 33.3108 27.3642L33.8108 25.4642L33.7108 25.6642Z" fill="#CCCCCC"/>
<path d="M35.4108 27.7642H37.4108V17.9642H35.4108V27.7642Z" fill="#CCCCCC"/>
<path fill-rule="evenodd" clip-rule="evenodd" d="M38.6108 16.1642C35.5108 11.7642 29.4108 10.6642 24.9108 13.7642C24.0108 14.4642 23.2108 15.2642 22.5108 16.1642L22.4108 16.2642H24.7108C27.7108 13.0642 32.7108 12.9642 35.9108 15.8642C36.0108 15.9642 36.1108 16.0642 36.3108 16.2642H38.6108V16.1642Z" fill="#CCCCCC"/>
</svg>