<?xml version="1.0" encoding="utf-8"?>
<!-- Generator: Adobe Illustrator 26.4.1, SVG Export Plug-In . SVG Version: 6.00 Build 0)  -->
<svg version="1.1" id="Layer_1" xmlns="http://www.w3.org/2000/svg" xmlns:xlink="http://www.w3.org/1999/xlink" x="0px" y="0px"
	 viewBox="0 0 52.7 40" style="enable-background:new 0 0 52.7 40;" xml:space="preserve">
<style type="text/css">
	.st0{fill:#003B70;}
	.st1{fill-rule:evenodd;clip-rule:evenodd;fill:#D9261C;}
	.st2{fill:#EE3023;}
	.st3{fill:#FFFFFF;}
	.st4{fill:#003662;}
	.st5{fill:none;}
	.st6{fill:#CCCCCC;}
	.st7{fill:#4E6176;}
	.st8{fill:#5D9BC7;}
	.st9{fill:#1F3F5A;}
	.st10{fill:#D6253A;}
	.st11{fill-rule:evenodd;clip-rule:evenodd;fill:#CCCCCC;}
</style>
<g>
	<path class="st6" d="M21.5,21.2L21.5,21.2c-0.7,0.7-1.5,1.1-2.4,1.2c-1.7,0-3-1.3-3.1-3c0-0.1,0-0.1,0-0.2
		c-0.1-1.7,1.2-3.1,2.9-3.1c0.1,0,0.1,0,0.2,0c0.9,0,1.8,0.4,2.4,1.1l0,0l1.1-1.4l0,0c-0.8-1.1-2.1-1.7-3.5-1.7
		c-1.3,0-2.6,0.4-3.6,1.3c-1,1-1.6,2.3-1.5,3.8c-0.1,1.4,0.5,2.8,1.5,3.8c1,0.9,2.3,1.4,3.6,1.3c1.4,0,2.6-0.6,3.5-1.7l0,0
		L21.5,21.2z"/>
	<path class="st6" d="M23.8,24.1h2v-9.8h-2V24.1z"/>
	<path class="st6" d="M33.7,22c-0.4,0.3-1,0.5-1.5,0.5c-0.6,0-0.9-0.3-0.9-1.1v-5.2h2v-1.8h-2v-3.1l-2,1v2h-1.7v1.8h1.7v5.5
		c0,1.5,0.9,2.5,2.2,2.6c0.6,0,1.2-0.1,1.8-0.5l0,0l0.5-1.9L33.7,22L33.7,22z"/>
	<path class="st6" d="M35.4,24.1h2v-9.8h-2V24.1z"/>
	<path class="st11" d="M38.6,12.5c-3.1-4.4-9.2-5.5-13.7-2.4c-0.9,0.7-1.7,1.5-2.4,2.4l-0.1,0.1h2.3l0,0c3-3.2,8-3.3,11.2-0.4
		c0.1,0.1,0.2,0.2,0.4,0.4v0h2.3L38.6,12.5z"/>
</g>
</svg>
