<svg width="96" height="40" viewBox="0 0 96 40" fill="none" xmlns="http://www.w3.org/2000/svg">
<path d="M43.8 21.2H39.4V22.2H39.5C39.6 22 39.9 21.8 40.1 21.8H41.1V27H42.1V21.8H43.1C43.4 21.8 43.6 21.9 43.7 22.2H43.8V21.2Z" fill="#CCCCCC"/>
<path d="M15 20.9C14.3 21.6 14 22.5 14 23.4C14 24.4 14.4 25.4 15.2 26C16 26.7 16.9 27 17.9 27C18.8 27 19.7 26.7 20.5 26.3L20.6 24.8H20.4V24.9C19.6 26.5 18.5 26.5 18 26.5C16 26.5 15.1 24.8 15.1 23.3C15.1 21.8 16 20.3 18 20.3C19 20.3 20 20.9 20.3 21.9V22L20.5 21.9L20.4 20.4C19.7 20 18.9 19.8 18 19.8C16.9 19.7 15.8 20.1 15 20.9Z" fill="#CCCCCC"/>
<path d="M21.7 21.2V21.3C21.8 21.4 21.9 21.6 21.9 21.8V26.9H22.8V24.3H23.2C23.6 24.3 23.7 24.6 23.9 24.9L24 25.1C24.2 25.4 24.5 25.9 24.8 26.3C25 26.6 25.3 26.8 25.6 26.8C25.9 26.8 26.2 26.8 26.5 26.8H26.7H26.8H26.4C26.2 26.7 26 26.6 25.9 26.4C25.8 26.2 25.5 25.8 25.1 25.2L24.7 24.6C24.6 24.4 24.4 24.2 24.2 24.1C24.8 23.9 25.2 23.4 25.3 22.7C25.3 22.3 25.2 22 24.9 21.8C24.4 21.4 23.8 21.3 23.2 21.3L21.7 21.2ZM23.3 21.8C23.8 21.8 24.3 22.2 24.3 22.7C24.3 23.3 23.9 23.8 23.3 23.8H23.2H22.8V21.8C23 21.8 23.1 21.8 23.3 21.8Z" fill="#CCCCCC"/>
<path d="M31.4 21.2V21.3C31.5 21.4 31.6 21.6 31.5 21.7V26.9H33.1C34.1 26.9 35 26.6 35.7 25.9C36.2 25.4 36.5 24.6 36.5 23.9C36.5 23.3 36.3 22.7 35.9 22.2C35.2 21.4 34.3 21 33.3 21.1L31.4 21.2ZM32.5 21.8H33C33.2 21.8 33.5 21.8 33.7 21.8C34.8 21.9 35.6 22.9 35.5 24C35.5 24.6 35.3 25.2 35 25.7C34.5 26.2 33.9 26.5 33.1 26.5H32.5V21.8Z" fill="#CCCCCC"/>
<path d="M38.5 21.2H37.4V21.3C37.5 21.3 37.6 21.6 37.6 21.8V26.9H38.5V21.2Z" fill="#CCCCCC"/>
<path d="M57.8 21.2H56.7V21.3C56.8 21.3 56.9 21.6 56.9 21.8V26.9H57.8V21.2Z" fill="#CCCCCC"/>
<path d="M30.2 21.2H27V21.3C27.1 21.4 27.2 21.6 27.2 21.8V26.9H30.4L30.6 25.9H30.5V26C30.2 26.4 30 26.5 29 26.5C28.7 26.5 28.3 26.5 28.1 26.5V24.2H29.7V23.7H28.1V21.8H29.4C29.7 21.8 29.9 22 30.1 22.3H30.2V21.2Z" fill="#CCCCCC"/>
<path d="M71.1 21.2H67.9V21.3C68 21.4 68.1 21.6 68.1 21.8V26.9H71.3L71.5 25.9H71.4V26C71.1 26.4 70.9 26.5 69.9 26.5C69.6 26.5 69.2 26.5 69 26.5V24.2H70.6V23.7H69V21.8H70.3C70.6 21.8 70.9 22 70.9 22.3H71L71.1 21.2Z" fill="#CCCCCC"/>
<path d="M46.6 20.2C46.1 20.5 45.9 21.1 45.8 21.7C45.8 22.6 46.4 23.1 47.3 23.6C47.4 23.7 47.5 23.7 47.7 23.8C48.5 24.2 49 24.5 49 25.3C49 25.7 48.9 26 48.6 26.3C48.3 26.6 48 26.7 47.6 26.7C46.7 26.7 46 26 45.9 25.2V25.1H45.7L45.8 26.6H45.9C46.5 27 47.2 27.2 47.9 27.2C48.6 27.2 49.2 27 49.7 26.5C50.1 26.1 50.3 25.6 50.3 25C50.3 23.8 49.4 23.3 48.5 22.9L48.3 22.8C47.4 22.3 46.9 22 46.9 21.5C46.9 20.9 47.4 20.4 48 20.4C48.7 20.4 49.4 20.9 49.6 21.6V21.7H49.8L49.7 20.4C49.2 20.1 48.7 20 48.2 20C47.7 19.7 47.1 19.9 46.6 20.2Z" fill="#CCCCCC"/>
<path d="M59.3 22.7C59.3 23.5 59.8 23.9 60.5 24.3L60.8 24.4C61.4 24.7 61.8 24.9 61.8 25.5C61.8 25.8 61.7 26 61.5 26.2C61.3 26.4 61 26.5 60.7 26.5C60 26.5 59.5 26 59.3 25.4V25.3H59.1V26.5C59.6 26.8 60.1 27 60.7 27C61.2 27 61.7 26.8 62.1 26.4C62.4 26.1 62.6 25.7 62.6 25.2C62.6 24.2 61.9 23.8 61.2 23.5L61.1 23.4C60.3 23 60 22.8 60 22.4C60 22 60.3 21.6 60.8 21.6H60.9C61.4 21.6 61.9 21.9 62.1 22.5V22.6H62.3L62.2 21.5C61.8 21.3 61.4 21.2 61 21.2C60.2 21.2 59.3 21.7 59.3 22.7Z" fill="#CCCCCC"/>
<path d="M63.6 22.7C63.6 23.5 64.1 23.9 64.8 24.3L65.1 24.4C65.7 24.7 66.1 24.9 66.1 25.5C66.1 25.8 66 26 65.8 26.2C65.6 26.4 65.3 26.5 65 26.5C64.3 26.5 63.8 26 63.6 25.4V25.3H63.4V26.5C63.9 26.8 64.4 27 65 27C65.5 27 66 26.8 66.4 26.4C66.7 26.1 66.9 25.7 66.9 25.2C66.9 24.2 66.2 23.8 65.5 23.5L65.4 23.4C64.6 23 64.3 22.8 64.3 22.4C64.3 22.2 64.4 22 64.5 21.9C64.7 21.7 64.9 21.7 65.1 21.7C65.6 21.7 66.1 22 66.3 22.6V22.7H66.5L66.4 21.6C66 21.4 65.6 21.3 65.2 21.3C64.5 21.2 63.6 21.7 63.6 22.7Z" fill="#CCCCCC"/>
<path d="M55.4 21.2H54.6V21.3C54.6 21.3 54.7 21.4 54.7 21.8V25.1C54.8 25.8 54.3 26.4 53.7 26.5C53.6 26.5 53.5 26.5 53.4 26.5C52.3 26.5 52.1 25.9 52.1 24.9V21.2H51V21.3C51.2 21.4 51.2 21.6 51.2 21.8V24.8C51.2 26.7 52.4 26.9 53.4 26.9C54.4 27 55.3 26.2 55.4 25.2C55.4 25.1 55.4 25 55.4 24.9V21.2Z" fill="#CCCCCC"/>
<path d="M79.3 19.6C80 19.8 80.8 20.1 81.4 20.5C79.2 17.1 76.4 14.2 73.1 12C74.3 13.3 75.2 14.8 75.6 16.6C76.9 17.6 78.1 18.5 79.3 19.6Z" fill="#CCCCCC"/>
<path d="M79.3 19.6C78 19.2 76.7 19 75.4 19.2C75.7 18.4 75.8 17.5 75.7 16.7C73.3 15 70.7 13.5 68 12.3C69.9 13.6 72 17.3 72.9 21.3C75.7 20.5 78.7 20.6 81.4 21.6C80.7 20.9 80 20.2 79.3 19.6Z" fill="#CCCCCC"/>
</svg>