<?xml version="1.0" encoding="utf-8"?>
<!-- Generator: Adobe Illustrator 26.4.1, SVG Export Plug-In . SVG Version: 6.00 Build 0)  -->
<svg version="1.1" id="Layer_1" xmlns="http://www.w3.org/2000/svg" xmlns:xlink="http://www.w3.org/1999/xlink" x="0px" y="0px"
	 viewBox="0 0 95.4 40" style="enable-background:new 0 0 95.4 40;" xml:space="preserve">
<style type="text/css">
	.st0{fill:#003B70;}
	.st1{fill-rule:evenodd;clip-rule:evenodd;fill:#D9261C;}
	.st2{fill:#EE3023;}
	.st3{fill:#FFFFFF;}
	.st4{fill:#003662;}
	.st5{fill:none;}
	.st6{fill:#CCCCCC;}
	.st7{fill:#4E6176;}
	.st8{fill:#5D9BC7;}
	.st9{fill:#1F3F5A;}
	.st10{fill:#D6253A;}
	.st11{fill-rule:evenodd;clip-rule:evenodd;fill:#CCCCCC;}
</style>
<g>
	<path class="st6" d="M43.8,18.4h-4.4v1h0.1c0.1-0.2,0.4-0.4,0.6-0.4h1v5.2h1V19h1c0.3,0,0.5,0.1,0.6,0.4v0h0.1L43.8,18.4z"/>
	<path class="st6" d="M15,18.1L15,18.1c-0.7,0.7-1,1.6-1,2.5c0,1,0.4,2,1.2,2.6c0.8,0.7,1.7,1,2.7,1c0.9,0,1.8-0.3,2.6-0.7l0,0
		l0.1-1.5l-0.2,0l0,0.1c-0.8,1.6-1.9,1.6-2.4,1.6c-2,0-2.9-1.7-2.9-3.2s0.9-3,2.9-3c1,0,2,0.6,2.3,1.6l0,0.1l0.2-0.1l-0.1-1.5l0,0
		C19.7,17.2,18.9,17,18,17C16.9,16.9,15.8,17.3,15,18.1z"/>
	<path class="st6" d="M21.7,18.4L21.7,18.4l0,0.1l0,0c0.1,0.1,0.2,0.3,0.2,0.5v5.1h0.9v-2.6h0.4c0.4,0,0.5,0.3,0.7,0.6l0,0l0.1,0.2
		c0.2,0.3,0.5,0.8,0.8,1.2c0.2,0.3,0.5,0.5,0.8,0.5c0.3,0,0.6,0,0.9,0l0.2,0l0.1,0L26.4,24c-0.2-0.1-0.4-0.2-0.5-0.4
		c-0.1-0.2-0.4-0.6-0.8-1.2l-0.4-0.6l0,0c-0.1-0.2-0.3-0.4-0.5-0.5c0.6-0.2,1-0.7,1.1-1.4c0-0.4-0.1-0.7-0.4-0.9
		c-0.5-0.4-1.1-0.5-1.7-0.5L21.7,18.4z M23.3,19c0.5,0,1,0.4,1,0.9c0,0,0,0,0,0c0,0.6-0.4,1.1-1,1.1c0,0-0.1,0-0.1,0h-0.4v-2
		C23,19,23.1,19,23.3,19z"/>
	<path class="st6" d="M31.4,18.4L31.4,18.4v0.1l0,0c0.1,0.1,0.2,0.3,0.1,0.4v5.2h1.6c1,0,1.9-0.3,2.6-1c0.5-0.5,0.8-1.3,0.8-2
		c0-0.6-0.2-1.2-0.6-1.7c-0.7-0.8-1.6-1.2-2.6-1.1L31.4,18.4z M32.5,19H33c0.2,0,0.5,0,0.7,0c1.1,0.1,1.9,1.1,1.8,2.2
		c0,0.6-0.2,1.2-0.5,1.7c-0.5,0.5-1.1,0.8-1.9,0.8h-0.6V19z"/>
	<path class="st6" d="M38.5,18.4h-1.1v0.1l0,0c0.1,0,0.2,0.3,0.2,0.5v5.1h0.9V18.4z"/>
	<path class="st6" d="M57.8,18.4h-1.1v0.1l0,0c0.1,0,0.2,0.3,0.2,0.5v5.1h0.9V18.4z"/>
	<path class="st6" d="M30.2,18.4H27l0,0.1l0,0c0.1,0.1,0.2,0.3,0.2,0.5v5.1h3.2l0.2-1l-0.1,0l0,0.1c-0.3,0.4-0.5,0.5-1.5,0.5
		c-0.3,0-0.7,0-0.9,0v-2.3h1.6v-0.5h-1.6V19h1.3c0.3,0,0.5,0.2,0.7,0.5v0h0.1L30.2,18.4z"/>
	<path class="st6" d="M71.1,18.4h-3.2v0.1l0,0c0.1,0.1,0.2,0.3,0.2,0.5v5.1h3.2l0.2-1l-0.1,0l0,0.1c-0.3,0.4-0.5,0.5-1.5,0.5
		c-0.3,0-0.7,0-0.9,0v-2.3h1.6v-0.5H69V19h1.3c0.3,0,0.6,0.2,0.6,0.5v0H71L71.1,18.4z"/>
	<path class="st6" d="M46.6,17.4c-0.5,0.3-0.7,0.9-0.8,1.5v0c0,0.9,0.6,1.4,1.5,1.9l0,0c0.1,0.1,0.2,0.1,0.4,0.2
		c0.8,0.4,1.3,0.7,1.3,1.5c0,0.4-0.1,0.7-0.4,1c-0.3,0.3-0.6,0.4-1,0.4c-0.9,0-1.6-0.7-1.7-1.5l0-0.1l-0.2,0l0.1,1.5l0.1,0
		c0.6,0.4,1.3,0.6,2,0.6c0.7,0,1.3-0.2,1.8-0.7c0.4-0.4,0.6-0.9,0.6-1.5c0-1.2-0.9-1.7-1.8-2.1l-0.2-0.1c-0.9-0.5-1.4-0.8-1.4-1.3
		c0-0.6,0.5-1.1,1.1-1.1c0.7,0,1.4,0.5,1.6,1.2l0,0.1l0.2,0l-0.1-1.3l0,0c-0.5-0.3-1-0.4-1.5-0.4C47.7,16.9,47.1,17.1,46.6,17.4z"/>
	<path class="st6" d="M59.3,19.9L59.3,19.9c0,0.8,0.5,1.2,1.2,1.6l0.3,0.1c0.6,0.3,1,0.5,1,1.1c0,0.3-0.1,0.5-0.3,0.7
		c-0.2,0.2-0.5,0.3-0.8,0.3c-0.7,0-1.2-0.5-1.4-1.1l0-0.1l-0.2,0l0,1.2l0,0c0.5,0.3,1,0.5,1.6,0.5c0.5,0,1-0.2,1.4-0.6
		c0.3-0.3,0.5-0.7,0.5-1.2c0-1-0.7-1.4-1.4-1.7l-0.1-0.1c-0.8-0.4-1.1-0.6-1.1-1c0-0.4,0.3-0.8,0.8-0.8c0,0,0.1,0,0.1,0
		c0.5,0,1,0.3,1.2,0.9l0,0.1l0.2,0l-0.1-1.1l0,0c-0.4-0.2-0.8-0.3-1.2-0.3C60.2,18.4,59.3,18.9,59.3,19.9L59.3,19.9z"/>
	<path class="st6" d="M63.6,19.9c0,0.8,0.5,1.2,1.2,1.6l0.3,0.1c0.6,0.3,1,0.5,1,1.1c0,0.3-0.1,0.5-0.3,0.7
		c-0.2,0.2-0.5,0.3-0.8,0.3c-0.7,0-1.2-0.5-1.4-1.1l0-0.1l-0.2,0l0,1.2l0,0c0.5,0.3,1,0.5,1.6,0.5c0.5,0,1-0.2,1.4-0.6
		c0.3-0.3,0.5-0.7,0.5-1.2c0-1-0.7-1.4-1.4-1.7l-0.1-0.1c-0.8-0.4-1.1-0.6-1.1-1c0-0.2,0.1-0.4,0.2-0.5c0.2-0.2,0.4-0.2,0.6-0.2
		c0.5,0,1,0.3,1.2,0.9l0,0.1l0.2,0l-0.1-1.1l0,0c-0.4-0.2-0.8-0.3-1.2-0.3C64.5,18.4,63.6,18.9,63.6,19.9L63.6,19.9z"/>
	<path class="st6" d="M55.4,18.4h-0.8v0.1l0,0c0,0,0.1,0.1,0.1,0.5v3.3c0.1,0.7-0.4,1.3-1,1.4c-0.1,0-0.2,0-0.3,0
		c-1.1,0-1.3-0.6-1.3-1.6v-3.7H51v0.1l0,0c0.2,0.1,0.2,0.3,0.2,0.5v3c0,1.9,1.2,2.1,2.2,2.1c1,0.1,1.9-0.7,2-1.7c0-0.1,0-0.2,0-0.3
		L55.4,18.4z"/>
	<path class="st6" d="M79.3,16.8c0.7,0.2,1.5,0.5,2.1,0.9c-2.2-3.4-5-6.3-8.3-8.5c1.2,1.3,2.1,2.8,2.5,4.6
		C76.9,14.8,78.1,15.7,79.3,16.8z"/>
	<path class="st6" d="M79.3,16.8c-1.3-0.4-2.6-0.6-3.9-0.4c0.3-0.8,0.4-1.7,0.3-2.5c-2.4-1.7-5-3.2-7.7-4.4c1.9,1.3,4,5,4.9,9
		c2.8-0.8,5.8-0.7,8.5,0.3C80.7,18.1,80,17.4,79.3,16.8L79.3,16.8z"/>
	<path class="st5" d="M75.6,13.8c0.2,0.9,0.1,1.7-0.2,2.5c1.3-0.1,2.7,0,3.9,0.4C78.1,15.7,76.9,14.7,75.6,13.8z"/>
</g>
</svg>
