<?xml version="1.0" encoding="utf-8"?>
<!-- Generator: Adobe Illustrator 27.5.0, SVG Export Plug-In . SVG Version: 6.00 Build 0)  -->
<svg version="1.1"
	 id="svg4711" xmlns:dc="http://purl.org/dc/elements/1.1/" xmlns:sodipodi="http://sodipodi.sourceforge.net/DTD/sodipodi-0.dtd" xmlns:inkscape="http://www.inkscape.org/namespaces/inkscape" xmlns:rdf="http://www.w3.org/1999/02/22-rdf-syntax-ns#" xmlns:cc="http://creativecommons.org/ns#" xmlns:svg="http://www.w3.org/2000/svg" inkscape:version="0.92.0 r15299" sodipodi:docname="gresham.svg"
	 xmlns="http://www.w3.org/2000/svg" xmlns:xlink="http://www.w3.org/1999/xlink" x="0px" y="0px" viewBox="0 0 173.1 30.1"
	 style="enable-background:new 0 0 173.1 30.1;" xml:space="preserve">
<style type="text/css">
	.st0{fill:#FFFFFF;}
</style>
<sodipodi:namedview  bordercolor="#666666" borderopacity="1.0" fit-margin-bottom="0" fit-margin-left="0" fit-margin-right="0" fit-margin-top="0" id="base" inkscape:current-layer="layer1" inkscape:cx="86.036696" inkscape:cy="14.54508" inkscape:document-units="mm" inkscape:pageopacity="0.0" inkscape:pageshadow="2" inkscape:window-height="744" inkscape:window-maximized="1" inkscape:window-width="1280" inkscape:window-x="-4" inkscape:window-y="-4" inkscape:zoom="5.2128919" pagecolor="#ffffff" showgrid="false" units="px">
	</sodipodi:namedview>
<g id="layer1" transform="translate(-66.438567,-206.70827)" inkscape:groupmode="layer" inkscape:label="Layer 1">
	<g id="g4859" transform="translate(0.13229194,-0.13228797)">
		<path id="path4466" inkscape:connector-curvature="0" class="st0" d="M146.8,215.8c-2.2,0-3.8,0.5-4.8,1l-0.3,0.1v-9.6h-4.1
			l0,28.1v0h4.1l0-16l0.1-0.1c1-0.5,2.5-0.8,3.8-0.8c2.9,0,4.4,1,4.4,2.8v14h4.1v-14C154.1,219.7,153.4,215.8,146.8,215.8"/>
		<path id="path4470" inkscape:connector-curvature="0" class="st0" d="M198.7,215.8c-2.8,0-5.1,0.7-6.9,2.1l-0.1,0.1l-0.1-0.1
			c-1.5-1.4-3.6-2.1-6.7-2.1c-3,0-5.7,0.5-8,1.3h0l0,18.3v0h4.2v-16.2l0.1,0c0.2-0.1,0.4-0.2,0.7-0.3c0.9-0.4,1.8-0.8,3-0.8
			c3,0,4.5,1.9,4.5,3.7l0,13.6v0h4.2v-15.4l0.1-0.1c1.1-0.9,2.5-1.4,4.1-1.4c3,0,4.1,1.7,4.1,3.3l0,11.2l0,2.3h4.2l0-14
			C206.1,218.8,204.2,215.8,198.7,215.8"/>
		<path id="path4474" inkscape:connector-curvature="0" class="st0" d="M78.6,221.5v2.3h4.5v8.3l-0.1,0.1c-0.6,0.3-2.4,0.5-4,0.5
			c-4.7,0-7.7-3.8-7.7-9.6c0-6.1,3.2-9.5,8.7-9.5c1.3,0,2.6,0.1,3.7,0.4l1.8,0.6l0.9-2.6l-0.9-0.3c-0.1,0-0.2-0.1-0.2-0.1
			c-0.2-0.1-0.4-0.1-0.6-0.2l0,0c-1.5-0.4-3.1-0.6-5.1-0.6c-7.6,0-12.6,4.9-12.6,12.2c0,7.8,4.6,12.5,12.4,12.5c2.8,0,5.2-0.3,7-1
			c0.5-0.2,0.8-0.6,0.8-1.1v-11.8L78.6,221.5z"/>
		<path id="path4478" inkscape:connector-curvature="0" class="st0" d="M129.7,224.5l-0.4-0.1c-1.9-0.7-3.9-1.4-3.9-3.2
			c0-1.3,1.6-2.7,4.1-2.7c1.6,0,2.9,0.6,3.5,0.9l0,0v-2.7l0,0c-1.3-0.5-2.8-0.8-4.4-0.8c-4.4,0-7,2.7-7,5.4c0,3.2,2.6,4.2,4.9,5
			l0.4,0.2c2,0.7,4,1.4,4,3.3c0,1.7-2.4,3-4.5,3c-1.8,0-3.4-0.5-4.3-1l0,0v2.9l0,0c0.8,0.3,2.6,0.8,4.9,0.8c4.9,0,7.9-2.9,7.9-5.7
			C134.9,226.3,132,225.3,129.7,224.5"/>
		<path id="path4482" inkscape:connector-curvature="0" class="st0" d="M100.4,216c-0.4,0-0.9,0-1.2,0c-3.6,0-5.9,0.4-8.3,1.3l0,0
			v18.2h4l0-2.1l0-14.4l0.1-0.1c0.7-0.3,1.7-0.5,2.8-0.5c0.7,0,1.8,0.1,2.6,0.3l0,0L100.4,216L100.4,216z"/>
		<path id="path4486" inkscape:connector-curvature="0" class="st0" d="M115.8,223.7l-10.1,1.3l0-0.2c0-2.2,0.5-3.8,1.7-5
			c0.9-0.9,2.2-1.4,3.6-1.4c3.2,0,4.8,1.8,4.8,5.2L115.8,223.7z M119,225.4L119,225.4c0-6.5-2.4-9.4-7.8-9.4c-5.7,0-9.2,3.7-9.2,9.7
			c0,6.1,3.8,9.8,10.1,9.8c3,0,5.2-0.6,6.1-0.9l0,0v-2.8l0,0c-0.6,0.2-2.6,1-5.7,1c-3.8,0-6-1.9-6.4-5.5l0-0.2L119,225.4L119,225.4z
			"/>
		<path id="path4490" inkscape:connector-curvature="0" class="st0" d="M169.5,232.7l-0.1,0.1c-0.9,0.4-2.1,0.6-3.3,0.6
			c-2.3,0-5.1-0.6-5.1-3.7c0-3.5,3.1-4.1,8.3-4.6l0.2,0L169.5,232.7z M165.1,216c-2.6,0-4.8,0.5-6.1,0.9l0,0v2.5l0,0
			c1.2-0.5,3.2-1,5.3-1c4.4,0,5.3,1.8,5.3,3.4v1.1l-0.2,0c-6.1,0.5-12.3,1.7-12.3,6.8c0,2.6,1.5,5.7,8.7,5.7c3.1,0,5.9-0.5,7.7-1.3
			h0v-11.8C173.5,216.8,168.2,216,165.1,216"/>
	</g>
	<g id="g4850" transform="translate(0.13229194,-0.13228797)">
		<path id="path4494" inkscape:connector-curvature="0" class="st0" d="M237.7,229.7c-0.7-0.7-1.7-1.1-2.8-1.1h0
			c-1.5,0-2.9-0.6-4-1.6c-1-1.1-1.6-2.5-1.7-3.9v-0.1c0-1.5,0.6-3,1.7-4c0.7-0.7,1.7-1.2,2.8-1.5l0,0c0.4-0.1,0.8-0.1,1.2-0.1h0
			c1,0,2-0.4,2.8-1.1c1.5-1.5,1.5-4,0-5.5c-1.6-1.5-4-1.5-5.6,0c-0.7,0.7-1.1,1.7-1.1,2.7v0.1c0,1.5-0.6,2.9-1.7,4
			c-1,1-2.4,1.6-3.9,1.7c-0.1,0-0.1,0-0.1,0c-0.1,0-0.1,0-0.2,0c0,0-0.1,0-0.1,0c-1.5-0.1-2.9-0.7-3.9-1.7c-1.1-1-1.7-2.4-1.7-3.9
			v-0.1c0-1-0.4-2-1.1-2.7c-1.6-1.5-4-1.5-5.6,0c-1.5,1.5-1.5,4,0,5.5c0.7,0.7,1.7,1.1,2.8,1.1h0c0.4,0,0.8,0.1,1.2,0.1l0,0
			c1.1,0.3,2,0.8,2.8,1.5c1,1,1.6,2.4,1.7,3.9v0.1c0,1.5-0.6,2.9-1.7,3.9c-1.1,1-2.5,1.6-4,1.6h0c-1,0-2,0.4-2.8,1.1
			c-1.5,1.5-1.5,4,0,5.6c1.6,1.5,4,1.5,5.6,0c0.7-0.7,1.1-1.7,1.1-2.8c0-1.5,0.6-2.9,1.7-4c1-1.1,2.4-1.7,3.9-1.7c0,0,0.1,0,0.1,0
			l0.1,0l0.1,0c0,0,0.1,0,0.1,0c1.5,0,2.9,0.6,3.9,1.7c1.1,1,1.7,2.5,1.7,3.9c0,1.1,0.4,2.1,1.1,2.8c1.6,1.5,4,1.5,5.6,0
			C239.3,233.7,239.3,231.2,237.7,229.7"/>
		<path id="path4498" inkscape:connector-curvature="0" class="st0" d="M218.2,220.3L218.2,220.3c-0.7-0.7-1.6-1.1-2.6-1.1
			c-1,0-1.9,0.4-2.6,1.1c-1.4,1.4-1.4,3.8,0,5.2c1.5,1.4,3.8,1.4,5.2,0C219.6,224.1,219.6,221.8,218.2,220.3"/>
		<path id="path4502" inkscape:connector-curvature="0" class="st0" d="M237.8,220.3L237.8,220.3c-0.7-0.7-1.6-1.1-2.6-1.1
			c-1,0-1.9,0.4-2.6,1.1c-1.4,1.4-1.4,3.8,0,5.2c1.5,1.4,3.8,1.4,5.2,0C239.2,224.1,239.2,221.8,237.8,220.3"/>
		<path id="path4506" inkscape:connector-curvature="0" class="st0" d="M227.8,229.9c-0.7-0.7-1.6-1.1-2.6-1.1c-1,0-1.9,0.4-2.6,1.1
			c-1.4,1.4-1.4,3.8,0,5.2c1.5,1.4,3.8,1.4,5.2,0C229.2,233.7,229.2,231.4,227.8,229.9"/>
		<path id="path4510" inkscape:connector-curvature="0" class="st0" d="M227.8,210.6c-0.7-0.7-1.6-1.1-2.6-1.1c-1,0-1.9,0.4-2.6,1.1
			c-1.4,1.4-1.4,3.8,0,5.2c1.5,1.4,3.8,1.4,5.2,0C229.2,214.4,229.2,212,227.8,210.6"/>
	</g>
</g>
</svg>
