<?xml version="1.0" encoding="UTF-8"?><svg id="Layer_1" xmlns="http://www.w3.org/2000/svg" viewBox="0 0 95.43 40"><defs><style>.cls-1{fill:#ccc;stroke-width:0px;}</style></defs><g id="Layer_1-2"><path class="cls-1" d="m65,18.43c-1.67-1.14-3.95-.71-5.08.96-1.14,1.67-.71,3.95.96,5.08,1.24.85,2.88.85,4.12,0v.44h2.08v-6.93h-2.08v.44Zm-1.89,4.81c-.99-.05-1.74-.89-1.69-1.88.05-.99.89-1.74,1.88-1.69.95.05,1.69.83,1.69,1.78-.03,1.01-.87,1.81-1.88,1.78Z"/><rect class="cls-1" x="34.35" y="14.89" width="2.17" height="10.02"/><path class="cls-1" d="m55.59,17.8c-.83-.05-1.63.31-2.14.97v-.78h-2.07v6.93h2.09v-3.64c-.06-.81.54-1.51,1.35-1.57.07,0,.14,0,.21,0,.91,0,1.44.55,1.44,1.56v3.66h2.07v-4.41c0-1.61-1.28-2.71-2.96-2.71Z"/><path class="cls-1" d="m43.09,18.43c-1.67-1.14-3.95-.71-5.08.96-1.14,1.67-.71,3.95.96,5.08,1.24.85,2.88.85,4.12,0v.44h2.08v-6.93h-2.08v.44Zm-1.89,4.81c-.99-.05-1.74-.89-1.69-1.88.05-.99.89-1.74,1.88-1.69.95.05,1.69.83,1.69,1.78-.03,1.01-.87,1.81-1.88,1.78h0Z"/><path class="cls-1" d="m48.38,18.89v-.9h-2.13v6.93h2.13v-3.24c0-1.09,1.18-1.68,2.01-1.68,0,0,.02,0,.02,0v-2.02c-.78-.02-1.53.31-2.03.9Z"/><path class="cls-1" d="m69.28,22.46c-.72,0-1.3.58-1.3,1.3,0,.72.58,1.3,1.3,1.3.72,0,1.3-.58,1.3-1.3,0-.72-.58-1.3-1.3-1.3h0Z"/><path class="cls-1" d="m32.85,14.89h-2.25c0,1.83-.86,3.56-2.33,4.65l-.89.67,3.46,4.71h2.84l-3.18-4.34c1.52-1.51,2.36-3.56,2.35-5.69Z"/><rect class="cls-1" x="24.85" y="14.89" width="2.26" height="10.03"/></g></svg>