<?xml version="1.0" encoding="utf-8"?>
<!-- Generator: Adobe Illustrator 27.5.0, SVG Export Plug-In . SVG Version: 6.00 Build 0)  -->
<svg version="1.1" id="Layer_1" xmlns="http://www.w3.org/2000/svg" xmlns:xlink="http://www.w3.org/1999/xlink" x="0px" y="0px"
	 viewBox="0 0 2500 558" style="enable-background:new 0 0 2500 558;" xml:space="preserve">
<style type="text/css">
	.st0{fill:#FFFFFF;}
</style>
<path class="st0" d="M440,0H317c0,101-46.4,193.2-126.9,253.9l-48.6,36.4l188.8,257.2h155.1L311.4,310.7
	C393.7,229.1,440,118.7,440,0z M0.2,0H126v547.5H0.2V0z M521.7,0h118.7v547.5H521.7V0z M1681.3,158.4c-45.3,0-88.3,13.8-117,53
	v-42.5h-112.6v378.6H1566V348.8c0-57.4,38.6-85.5,85-85.5c49.7,0,78.4,29.8,78.4,85v199.8h113.1V306.9
	C1842.5,218.6,1772.4,158.4,1681.3,158.4L1681.3,158.4z M999.1,168.9v24.3c-32-22.1-70.6-34.8-112.6-34.8
	c-110.4,0-199.8,89.4-199.8,199.8S776.2,558,886.6,558c41.9,0,80.6-12.7,112.6-34.8v24.3h113.1V168.9H999.1z M895.9,455.3
	c-56.8,0-102.7-43.6-102.7-97.1s45.8-97.1,102.7-97.1s102.7,43.6,102.7,97.1S952.8,455.3,895.9,455.3z M1287.8,218v-49.1h-115.9
	v378.6h116.5V370.9c0-59.6,64.6-91.6,109.3-91.6h1.1V168.9C1352.9,168.9,1310.4,188.8,1287.8,218z M2194.6,168.9v24.3
	c-32-22.1-70.6-34.8-112.6-34.8c-110.4,0-199.8,89.4-199.8,199.8S1971.6,558,2082,558c41.9,0,80.6-12.7,112.6-34.8v24.3h113.1V168.9
	H2194.6z M2091.4,455.3c-56.8,0-102.7-43.6-102.7-97.1s45.8-97.1,102.7-97.1c56.8,0,102.7,43.6,102.7,97.1
	C2194.6,411.7,2148.3,455.3,2091.4,455.3z M2395.5,179.9c0-5.5-3.9-8.8-9.9-8.8h-10.5v28.7h5v-10.5h5.5l4.4,10.5h5.5l-5-11.6
	C2393.9,186.6,2395.5,183.8,2395.5,179.9z M2385.6,184.3h-5.5v-8.8h5.5c3.3,0,5,1.7,5,4.4S2389.5,184.3,2385.6,184.3z"/>
<path class="st0" d="M2383.9,159c-14.9,0-27,12.1-27,27c0.6,14.9,12.1,27,27,27c14.9,0,27-12.1,27-27S2398.8,159,2383.9,159
	L2383.9,159z M2383.9,208.1c-12.1,0-21.5-9.9-21.5-22.1c0-12.1,9.9-22.1,21.5-22.1c12.1,0,21.5,9.9,21.5,22.1
	C2405.5,198.1,2395.5,208.1,2383.9,208.1z M2428.6,413.4c-39.2,0-71.2,32-71.2,71.2s32,71.2,71.2,71.2s71.2-32,71.2-71.2
	C2499.8,444.9,2467.8,413.4,2428.6,413.4z"/>
</svg>
