<?xml version="1.0" encoding="UTF-8"?><svg id="Layer_1" xmlns="http://www.w3.org/2000/svg" viewBox="0 0 95.43 40"><defs><style>.cls-1{fill:#ccc;stroke-width:0px;}</style></defs><path class="cls-1" d="m29.76,13.63h3.05v5.95l2.37-2.91h3.46l-3.03,3.48,3.11,5.21h-3.36l-1.75-2.96-.79.92v2.04h-3.05v-11.74Z"/><path class="cls-1" d="m57.06,22.67v-8.2h3.06v2.21h2.03v2.46h-2.03v2.94c0,.61.27.87.84.87.4,0,.8-.11,1.16-.29v2.4c-.55.3-1.27.5-2.12.5-1.84,0-2.93-.81-2.93-2.88Z"/><path class="cls-1" d="m63.18,13.63h3.06v4.23c.56-.72,1.37-1.38,2.6-1.38,1.85,0,2.96,1.22,2.96,3.2v5.69h-3.06v-4.71c0-.95-.5-1.46-1.22-1.46s-1.29.51-1.29,1.46v4.71h-3.05v-11.74Z"/><path class="cls-1" d="m49.69,25.18c1.16.46,2.45.46,3.61,0,.31-.13.6-.29.87-.49v1.56h-2.81l-1.13,2.29v-2.29h-2.26v-2.39c.1.13.2.25.31.37.4.41.88.73,1.41.95Z"/><path class="cls-1" d="m55.63,19.25c-.21-.53-.52-1.02-.92-1.43-.4-.41-.88-.73-1.41-.95-1.16-.46-2.45-.46-3.61,0-.53.22-1.01.54-1.41.95-.4.41-.71.9-.92,1.43-.44,1.15-.44,2.41,0,3.56.15.38.36.74.61,1.06v-3.1h6.21v3.93c.19-.14.37-.29.54-.46.4-.41.71-.9.92-1.43.44-1.15.44-2.41,0-3.56h0Z"/><ellipse class="cls-1" cx="52.06" cy="22.13" rx=".42" ry=".56"/><ellipse class="cls-1" cx="49.85" cy="22.13" rx=".42" ry=".56"/><path class="cls-1" d="m42.14,24.79c.52,0,1.04-.09,1.52-.29.45-.18.85-.46,1.19-.8.09-.1.18-.2.26-.31v2.02h-5.24v-1.32c.23.17.48.31.74.42.48.2,1,.3,1.52.29Z"/><path class="cls-1" d="m45.63,19.48c-.18-.45-.44-.86-.78-1.21-.34-.35-.74-.62-1.19-.8-.98-.39-2.07-.39-3.05,0-.45.18-.85.46-1.19.8-.33.35-.6.76-.78,1.21-.38.97-.38,2.04,0,3.01.18.45.44.86.78,1.21.14.14.29.27.45.39v-3.31h1.91v-1.93l.96,1.93h2.38v2.62c.21-.27.38-.58.51-.9.38-.97.38-2.04,0-3.01Z"/><path class="cls-1" d="m41.54,21.44c.2,0,.36.21.36.48s-.16.48-.36.48-.36-.21-.36-.48.16-.48.36-.48Z"/><path class="cls-1" d="m43.34,21.44c.2,0,.36.21.36.48s-.16.48-.36.48-.36-.21-.36-.48.16-.48.36-.48Z"/></svg>