<?xml version="1.0" encoding="utf-8"?>
<!-- Generator: Adobe Illustrator 26.4.1, SVG Export Plug-In . SVG Version: 6.00 Build 0)  -->
<svg version="1.1" id="Layer_1" xmlns="http://www.w3.org/2000/svg" xmlns:xlink="http://www.w3.org/1999/xlink" x="0px" y="0px"
	 viewBox="0 0 81.4 40" style="enable-background:new 0 0 81.4 40;" xml:space="preserve">
<style type="text/css">
	.st0{fill:#003B70;}
	.st1{fill-rule:evenodd;clip-rule:evenodd;fill:#D9261C;}
	.st2{fill:#EE3023;}
	.st3{fill:#FFFFFF;}
	.st4{fill:#003662;}
	.st5{fill:none;}
	.st6{fill:#CCCCCC;}
	.st7{fill:#4E6176;}
	.st8{fill:#5D9BC7;}
	.st9{fill:#1F3F5A;}
	.st10{fill:#D6253A;}
	.st11{fill-rule:evenodd;clip-rule:evenodd;fill:#CCCCCC;}
</style>
<g>
	<path class="st6" d="M20.8,19.6v-0.1v-1.9c0,0,0-0.2,0.2-0.1v2.1H20.8z M20.9,22.6c-0.1,0-0.1,0-0.1-0.1c0,0,0,0,0,0v-1.4H21v1.6
		L20.9,22.6z M18.5,19.6l-0.8,1.2v-3.3l0.9,0.5c0,0,0.1-0.1,0.1,0.1v1.4L18.5,19.6L18.5,19.6z M17.3,22.8
		C17.3,22.8,17.2,22.9,17.3,22.8l-0.1-5.1c0,0,0-0.2,0.3-0.2l0,5.4L17.3,22.8z M24.9,23c-0.3-0.2-0.5-0.5-0.6-0.8v-4.9
		c0,0,0.1,0-0.1-0.1l-1.8-1.1c0,0,0-0.1-0.2,0.1l-1.5,1l-1.6-0.8c0,0-0.1,0-0.1,0l-1.9,1l-1.3-0.8c0,0-0.1-0.1-0.1,0l-1.5,0.9
		c0,0-0.2,0.1,0.1,0.2h0.1l1,0.7v4.3l-0.5,0.3c0,0-0.2,0.1,0,0.2l1.9,1l1.4-0.8c0.1,0,0.1-0.1,0-0.2c0,0,0,0,0,0L17.7,23v-1.9h1v1.5
		l-0.5,0.3c0,0-0.1,0.1,0,0.2l2.1,1.1l1.4-0.9c0,0,0.1,0,0-0.1l-0.7-0.5V21l1-1.4h-1v-2.1l0.9,0.5c0,0,0.1,0,0.1,0.2v4.7
		c0.1,0.7,0.6,1.2,1.3,1.4l1.4-1C24.9,23.2,25,23.1,24.9,23"/>
	<path class="st6" d="M28.1,22.9c-0.5-0.3-0.9-0.7-1.2-1.1c-0.2-0.4-0.3-0.9-0.2-1.4c0.1-0.5,0.4-0.9,0.8-1l1.1,0.7v2.8
		C28.6,22.8,28.5,23.1,28.1,22.9 M31.8,23l-0.9-0.6V20c0,0,0-0.1,0.1-0.1l0.3-0.3c0-0.1,0-0.2-0.1-0.2c-0.1-0.1-2.2-1.1-2.2-1.1
		s-0.1-0.1-0.3,0c0,0-2.3,0.9-3.2,2.1c0,0-0.7,0.4-0.6,2.2l0,0v0c0,0.2,0.3,1.4,2,1.6l1.2-1c0,0,0.1-0.1,0.1,0c0,0,0,0,0,0l2.1,1
		l1.3-1C31.9,23.1,31.9,23,31.8,23"/>
	<path class="st6" d="M32.9,18.5c-0.5,0.3-0.9,0.6-1.3,0.9c-0.1,0.1,0,0.2,0,0.2c0.2,0.1,0.4,0.3,0.7,0.4c0.1,0,0.1,0.1,0.1,0.1
		l0,2.5c0,0.1,0,0.2,0,0.2c0,0-0.2,0.2-0.3,0.3c-0.1,0-0.1,0.1-0.1,0.2c0,0,0,0,0,0l1.9,1c0,0,1.3-0.9,1.4-1c0.1-0.1,0-0.1,0-0.1
		s-0.5-0.3-0.6-0.4c-0.1,0-0.1-0.1-0.1-0.1c0,0-0.1-2.4,0-2.6c0.1-0.2,0.1-0.1,0.1-0.1c0.1,0,0.2-0.1,0.3-0.1c0.1-0.1,0-0.2,0-0.2
		s-1.8-0.9-1.9-1C33.1,18.4,33,18.4,32.9,18.5"/>
	<path class="st6" d="M33.3,18.1c0,0.1,0.1,0.1,0.2,0.1c0.5-0.2,0.8-0.6,1.1-1c0.2-0.7-0.3-0.9-0.3-0.9c-0.2-0.2-0.5-0.2-0.7-0.1
		c-0.3,0.2-0.5,0.4-0.6,0.7C33,17.4,33.1,17.8,33.3,18.1"/>
	<path class="st6" d="M35.6,17.1c0,0,2.1-0.7,2.4-0.7c0.3-0.1,0.3,0.1,0.3,0.1s-0.1,5.9,0,6.1s0.1,0.2,0.1,0.2s0.5,0.3,0.6,0.4
		c0.1,0,0.1,0.1,0.1,0.1c0,0,0,0,0,0l-1.2,0.9c0,0-1.9-0.8-2.1-0.9s-0.1-0.2-0.1-0.2l0.3-0.3c0,0,0.1-4.8,0-5.1
		c-0.1-0.2-0.2-0.3-0.4-0.3C35.5,17.1,35.6,17.1,35.6,17.1"/>
	<path class="st6" d="M45.7,20.5c0-2.1-0.7-3.2-2.2-3.2c-1.4,0-2.2,1-2.2,3.2v0.2c0,2.2,0.8,3.1,2.2,3.1s2.2-0.8,2.2-3.1V20.5z
		 M43.5,24.2c-1.7,0-2.8-1.1-2.8-3.5v-0.4c0-2.3,1-3.5,2.8-3.5c1.9,0,2.8,1.3,2.8,3.5v0.4C46.3,23.1,45.3,24.3,43.5,24.2"/>
	<path class="st6" d="M51.1,24.1V20c0-0.6-0.5-1-1.3-1c-0.8,0-1.5,0.5-1.8,1.2v4h-0.6v-5.4H48v1c0.4-0.7,1.2-1.2,2-1.2
		c0.8-0.1,1.6,0.5,1.7,1.3c0,0.1,0,0.2,0,0.3v4H51.1z"/>
	<rect x="53.1" y="16.9" class="st6" width="0.6" height="7.2"/>
	<path class="st6" d="M55.2,24.1h0.6v-5.5h-0.6V24.1z M55.1,18h0.7v-0.8h-0.7V18z"/>
	<path class="st6" d="M60.9,24.1V20c0-0.6-0.5-1-1.3-1c-0.8,0-1.5,0.5-1.8,1.2v4h-0.6v-5.4h0.5v1c0.4-0.7,1.2-1.2,2-1.2
		c0.8-0.1,1.6,0.5,1.7,1.3c0,0.1,0,0.2,0,0.3v4H60.9z"/>
	<path class="st6" d="M65.1,19c-1,0-1.8,0.7-1.8,2.1h3.6C66.8,19.7,66.2,19,65.1,19 M63.3,21.6c0,1.5,0.8,2.2,2,2.2
		c0.6,0,1.2-0.1,1.8-0.4v0.5c-0.6,0.3-1.2,0.5-1.9,0.4c-1.1,0-2.5-0.6-2.5-2.6v-0.4c0-1.7,1-2.7,2.4-2.7c1.5,0,2.3,1,2.3,2.7v0.4
		L63.3,21.6z"/>
</g>
</svg>
