<svg width="95" height="40" viewBox="0 0 95 40" fill="none" xmlns="http://www.w3.org/2000/svg">
<path d="M26.2 17.8C26.2 17.6 26.3 17.3 26.6 17.3C26.8 17.3 27.1 17.4001 27.1 17.7001V17.8V18C27.7 17.2 28.9 17.1001 29.7 17.7001C30.2 18.1001 30.4 18.7 30.4 19.3V22.3C30.4 22.5 30.3 22.8 30 22.8C29.7 22.8 29.5 22.7 29.5 22.4V22.3V19.4C29.6 18.7 29.1 18.1 28.4 18.1C27.7 18 27.1 18.5001 27.1 19.2001C27.1 19.3001 27.1 19.4 27.1 19.4V22.3C27.1 22.5 27 22.8 26.7 22.8C26.5 22.8 26.2 22.7 26.2 22.4V22.3V17.8Z" fill="#CCCCCC"/>
<path d="M31.9 16.4001H30.6C30.4 16.4001 30.2 16.3001 30.2 16.1001V16.0001C30.2 15.8001 30.3 15.6001 30.6 15.6001C30.6 15.6001 30.6 15.6001 30.7 15.6001H34.3C34.5 15.6001 34.7 15.7001 34.7 15.9001V16.0001C34.7 16.2001 34.6 16.4001 34.3 16.4001H34.2H32.9V22.3001C32.9 22.5001 32.7 22.7001 32.5 22.7001C32.3 22.7001 32.1 22.5001 32.1 22.3001L31.9 16.4001Z" fill="#CCCCCC"/>
<path d="M38.2 19.4001C38.2 18.7001 37.7 18.1001 37 18.1001C36.3 18.1001 35.7 18.6001 35.7 19.3001C35.7 19.4001 35.7 19.4001 35.7 19.5001V22.4001C35.7 22.6001 35.5 22.8001 35.3 22.8001C35.1 22.8001 34.9 22.6001 34.9 22.4001V15.5001C34.9 15.3001 35.1 15.1001 35.3 15.1001C35.5 15.1001 35.7 15.3001 35.7 15.5001V18.1001C36.1 17.6001 36.6 17.4001 37.2 17.4001C38 17.4001 39.1 17.9001 39.1 19.4001V22.4001C39.1 22.6001 38.9 22.8001 38.7 22.8001C38.5 22.8001 38.3 22.6001 38.3 22.4001L38.2 19.4001Z" fill="#CCCCCC"/>
<path d="M40.4 20.3999C40.3 21.1999 41 21.9999 41.8 21.9999C41.9 21.9999 41.9 21.9999 42 21.9999C43.2 21.9999 43.5 21.2999 43.8 21.2999C44 21.2999 44.1 21.4999 44.1 21.6999C44.1 22.0999 43 22.7999 42 22.7999C40.3 22.7999 39.6 21.4999 39.6 20.0999C39.6 18.6999 40.5 17.3999 42 17.3999C43.5 17.3999 44.3 18.6999 44.3 19.9999C44.3 20.2999 44.2 20.4999 43.8 20.4999L40.4 20.3999ZM43.3 19.7999C43.4 18.9999 42.8 18.1999 42 18.1999C42 18.1999 42 18.1999 41.9 18.1999C40.8 18.1999 40.4 18.9999 40.4 19.7999H43.3Z" fill="#CCCCCC"/>
<path d="M45.3 22.4C45.3 22.6 45.1 22.8 44.9 22.8C44.7 22.8 44.5 22.6 44.5 22.4V22.3C44.5 22.2 44.5 22 44.5 21.9L45.5 16.2C45.6 15.7 45.9 15.5 46.2 15.5C46.5 15.5 46.8 15.7 46.8 16L48.3 21.2L49.8 16C49.9 15.7 50.1 15.5 50.4 15.5C50.7 15.5 51 15.7 51.1 16.2L52.1 21.9C52.1 22 52.1 22.2 52.1 22.3C52.1 22.5 52 22.7 51.8 22.7H51.7C51.5 22.7 51.3 22.6 51.2 22.3L50.5 16.7L48.8 22.4C48.7 22.6 48.5 22.8 48.3 22.8C48.1 22.8 48 22.6 47.9 22.4L46.2 16.7L45.3 22.4Z" fill="#CCCCCC"/>
<path d="M57 22.3999C57 22.5999 56.8 22.7999 56.6 22.7999C56.4 22.7999 56.2 22.5999 56.2 22.3999V21.9999C55.9 22.4999 55.3 22.7999 54.7 22.7999C53.2 22.7999 52.4 21.4999 52.4 20.0999C52.4 18.6999 53.2 17.3999 54.7 17.3999C55.3 17.3999 55.8 17.6999 56.2 18.0999V17.7999C56.2 17.5999 56.4 17.3999 56.6 17.3999C56.8 17.3999 57 17.5999 57 17.7999V22.3999ZM54.7 21.9999C55.8 21.9999 56.2 20.9999 56.2 19.9999C56.2 18.9999 55.8 17.9999 54.7 17.9999C53.6 17.9999 53.2 18.9999 53.2 19.9999C53.2 20.9999 53.6 21.9999 54.7 21.9999Z" fill="#CCCCCC"/>
<path d="M57.7 17.8C57.7 17.6 57.8 17.3 58.1 17.3C58.3 17.3 58.6 17.4001 58.6 17.7001V17.8V18.3C58.8 17.8 59.3 17.5 59.8 17.4C60 17.4 60.3 17.6 60.3 17.8C60.3 17.8 60.3 17.8 60.3 17.9C60.3 18.2 60.1 18.3 59.8 18.4C59.1 18.5 58.6 19.2 58.6 19.9V22.4C58.6 22.6 58.5 22.9 58.2 22.9C58 22.9 57.7 22.8 57.7 22.5V22.4V17.8Z" fill="#CCCCCC"/>
<path d="M60.7 15.5001C60.7 15.3001 60.9 15.1001 61.1 15.1001C61.3 15.1001 61.5 15.3001 61.5 15.5001V19.3001L63.4 17.7001C63.5 17.6001 63.7 17.5001 63.9 17.4001C64.1 17.4001 64.3 17.6001 64.3 17.8001C64.3 18.0001 64.2 18.1001 64.1 18.2001L62.1 19.8001L64.4 22.1001C64.5 22.2001 64.6 22.4001 64.6 22.6001C64.6 22.8001 64.4 23.0001 64.2 23.0001C64 23.0001 63.9 22.9001 63.7 22.7001L61.5 20.4001V22.5001C61.5 22.7001 61.3 22.9001 61.1 22.9001C60.9 22.9001 60.7 22.7001 60.7 22.5001V15.5001Z" fill="#CCCCCC"/>
<path d="M65.4 20.3999C65.3 21.1999 66 21.9999 66.8 21.9999C66.9 21.9999 66.9 21.9999 67 21.9999C68.2 21.9999 68.5 21.2999 68.8 21.2999C69 21.2999 69.1 21.4999 69.1 21.6999C69.1 22.0999 68 22.7999 67 22.7999C65.3 22.7999 64.6 21.4999 64.6 20.0999C64.6 18.6999 65.5 17.3999 67 17.3999C68.5 17.3999 69.3 18.6999 69.3 19.9999C69.3 20.2999 69.2 20.4999 68.8 20.4999L65.4 20.3999ZM68.4 19.7999C68.5 18.9999 67.9 18.1999 67.1 18.1999C67.1 18.1999 67.1 18.1999 67 18.1999C65.9 18.1999 65.5 18.9999 65.5 19.7999H68.4Z" fill="#CCCCCC"/>
<path d="M70 16.2999C70 16.0999 70.2 15.8999 70.4 15.8999C70.6 15.8999 70.8 16.0999 70.8 16.2999V17.4999H71.2C71.5 17.4999 71.6 17.5999 71.6 17.8999C71.6 18.0999 71.4 18.2999 71.2 18.2999H70.8V22.4999C70.8 22.6999 70.6 22.8999 70.4 22.8999C70.2 22.8999 70 22.6999 70 22.4999V18.2999H69.6C69.3 18.2999 69.2 18.1999 69.2 17.8999C69.2 17.6999 69.4 17.4999 69.6 17.4999H70V16.2999Z" fill="#CCCCCC"/>
<path d="M72 22.2C72.1 22.2 72.3 22.3 72.3 22.5C72.3 22.7 72.2 22.7999 72 22.7999C71.9 22.7999 71.7 22.7 71.7 22.5C71.8 22.4 71.9 22.2 72 22.2Z" fill="#CCCCCC"/>
<path d="M73.9 19.8999C74.4 19.8999 74.6 20.0999 74.6 20.2999C74.6 20.3999 74.5 20.4999 74.4 20.4999C74.2 20.4999 74.2 20.3999 73.8 20.3999C73.2 20.3999 73 20.9999 73 21.3999C73 21.8999 73.2 22.3999 73.8 22.3999C74.1 22.3999 74.2 22.1999 74.3 22.1999C74.4 22.1999 74.5 22.2999 74.5 22.3999C74.5 22.5999 74.2 22.7999 73.8 22.7999C73.1 22.7999 72.6 22.1999 72.6 21.4999V21.3999C72.5 20.6999 73 20.0999 73.7 19.9999C73.9 19.9999 73.9 19.9999 73.9 19.8999Z" fill="#CCCCCC"/>
<path d="M76.1 19.8999C76.8 19.8999 77.4 20.4999 77.3 21.1999V21.2999C77.4 21.9999 77 22.5999 76.3 22.6999C75.6 22.7999 75 22.3999 74.9 21.6999C74.9 21.5999 74.9 21.3999 74.9 21.2999C74.8 20.6999 75.3 19.9999 76.1 19.8999C76.1 19.9999 76.1 19.9999 76.1 19.8999ZM76.1 22.3999C76.7 22.3999 76.9 21.7999 76.9 21.3999C76.9 20.9999 76.7 20.3999 76.1 20.3999C75.5 20.3999 75.3 20.8999 75.3 21.3999C75.3 21.7999 75.5 22.3999 76.1 22.3999Z" fill="#CCCCCC"/>
<path d="M79.5 21C79.5 20.7 79.2 20.4 78.9 20.4C78.6 20.4 78.3 20.7 78.3 21V22.6C78.3 22.7 78.2 22.8 78.1 22.8C78 22.8 77.9 22.7 77.9 22.6V20.2C77.9 20.1 78 20 78.1 20C78.2 20 78.3 20.1 78.3 20.2V20.3C78.5 20.1 78.7 19.9 79 20C79.3 20 79.6 20.2 79.8 20.5C80.1 20 80.7 19.9 81.1 20.2C81.4 20.4 81.6 20.7 81.6 21.1V22.7C81.6 22.8 81.5 22.9 81.4 23C81.3 23 81.2 22.9 81.1 22.8C81.1 22.8 81.1 22.8 81.1 22.7V21.1C81.1 20.8 80.8 20.5 80.5 20.5C80.2 20.5 79.9 20.8 79.9 21.1V22.7C79.9 22.8 79.8 22.9 79.7 22.9C79.6 22.9 79.5 22.8 79.5 22.7V21Z" fill="#CCCCCC"/>
<path d="M20.3 14C17.4 14 15 16.4 15 19.3C15 21 15.8 22.6 17.2 23.6L20.2 27.7L23.2 23.7C25.6 22.1 26.3 18.8 24.7 16.4C23.7 14.9 22.1 14 20.3 14ZM20.3 23.1C18.2 23.1 16.5 21.4 16.5 19.3C16.5 17.2 18.2 15.5 20.3 15.5C22.4 15.5 24.1 17.2 24.1 19.3C24.1 21.4 22.4 23.1 20.3 23.1Z" fill="#CCCCCC"/>
<path d="M17.6 19.3001C17.6 17.8001 18.8 16.6001 20.3 16.6001C21.8 16.6001 23 17.8001 23 19.3001C23 20.8001 21.8 22.0001 20.3 22.0001C18.8 22.0001 17.6 20.8001 17.6 19.3001Z" fill="#CCCCCC"/>
</svg>
