<?xml version="1.0" encoding="utf-8"?>
<!-- Generator: Adobe Illustrator 26.4.1, SVG Export Plug-In . SVG Version: 6.00 Build 0)  -->
<svg version="1.1" id="Layer_1" xmlns="http://www.w3.org/2000/svg" xmlns:xlink="http://www.w3.org/1999/xlink" x="0px" y="0px"
	 viewBox="0 0 94.6 40" style="enable-background:new 0 0 94.6 40;" xml:space="preserve">
<style type="text/css">
	.st0{fill:#003B70;}
	.st1{fill-rule:evenodd;clip-rule:evenodd;fill:#D9261C;}
	.st2{fill:#EE3023;}
	.st3{fill:#FFFFFF;}
	.st4{fill:#003662;}
	.st5{fill:none;}
	.st6{fill:#CCCCCC;}
	.st7{fill:#4E6176;}
	.st8{fill:#5D9BC7;}
	.st9{fill:#1F3F5A;}
	.st10{fill:#D6253A;}
	.st11{fill-rule:evenodd;clip-rule:evenodd;fill:#CCCCCC;}
</style>
<g>
	<path class="st6" d="M25.2,19.1c0-0.2,0.1-0.5,0.4-0.5c0.2,0,0.5,0.1,0.5,0.4c0,0,0,0.1,0,0.1v0.2l0,0c0.6-0.8,1.8-0.9,2.6-0.3
		c0.5,0.4,0.7,1,0.7,1.6v3c0,0.2-0.1,0.5-0.4,0.5s-0.5-0.1-0.5-0.4c0,0,0-0.1,0-0.1v-2.9c0.1-0.7-0.4-1.3-1.1-1.3
		c-0.7-0.1-1.3,0.4-1.3,1.1c0,0.1,0,0.2,0,0.2v2.9c0,0.2-0.1,0.5-0.4,0.5c-0.2,0-0.5-0.1-0.5-0.4c0,0,0-0.1,0-0.1L25.2,19.1z"/>
	<path class="st6" d="M30.9,17.7h-1.3c-0.2,0-0.4-0.1-0.4-0.3c0,0,0-0.1,0-0.1c0-0.2,0.1-0.4,0.4-0.4c0,0,0,0,0.1,0h3.6
		c0.2,0,0.4,0.1,0.4,0.3c0,0,0,0.1,0,0.1c0,0.2-0.1,0.4-0.4,0.4c0,0-0.1,0-0.1,0h-1.3v5.9c0,0.2-0.2,0.4-0.4,0.4s-0.4-0.2-0.4-0.4
		L30.9,17.7z"/>
	<path class="st6" d="M37.2,20.7c0-0.7-0.5-1.3-1.2-1.3c-0.7,0-1.3,0.5-1.3,1.2c0,0.1,0,0.1,0,0.2v2.9c0,0.2-0.2,0.4-0.4,0.4
		c-0.2,0-0.4-0.2-0.4-0.4v-6.9c0-0.2,0.2-0.4,0.4-0.4c0.2,0,0.4,0.2,0.4,0.4v2.6l0,0c0.4-0.5,0.9-0.7,1.5-0.7c0.8,0,1.9,0.5,1.9,2v3
		c0,0.2-0.2,0.4-0.4,0.4c-0.2,0-0.4-0.2-0.4-0.4L37.2,20.7z"/>
	<path class="st6" d="M39.4,21.7c-0.1,0.8,0.6,1.6,1.4,1.6c0.1,0,0.1,0,0.2,0c1.2,0,1.5-0.7,1.8-0.7c0.2,0,0.3,0.2,0.3,0.4
		c0,0,0,0,0,0c0,0.4-1.1,1.1-2.1,1.1c-1.7,0-2.4-1.3-2.4-2.7c0-1.4,0.9-2.7,2.4-2.7s2.3,1.3,2.3,2.6c0,0.3-0.1,0.5-0.5,0.5
		L39.4,21.7z M42.3,21.1c0.1-0.8-0.5-1.6-1.3-1.6c0,0,0,0-0.1,0c-1.1,0-1.5,0.8-1.5,1.6H42.3z"/>
	<path class="st6" d="M44.3,23.7c0,0.2-0.2,0.4-0.4,0.4c0,0,0,0,0,0c-0.2,0-0.4-0.2-0.4-0.4c0,0,0-0.1,0-0.1c0-0.1,0-0.3,0-0.4
		l1-5.7c0.1-0.5,0.4-0.7,0.7-0.7c0.3,0,0.6,0.2,0.6,0.5l1.5,5.2l0,0l1.5-5.2c0.1-0.3,0.3-0.5,0.6-0.5c0.3,0,0.6,0.2,0.7,0.7l1,5.7
		c0,0.1,0,0.3,0,0.4c0,0.2-0.1,0.4-0.3,0.4c0,0-0.1,0-0.1,0c-0.2,0-0.4-0.1-0.5-0.4L49.5,18l0,0l-1.7,5.7c-0.1,0.2-0.3,0.4-0.5,0.4
		c-0.2,0-0.3-0.2-0.4-0.4L45.2,18l0,0L44.3,23.7z"/>
	<path class="st6" d="M56,23.7c0,0.2-0.2,0.4-0.4,0.4c0,0,0,0,0,0c-0.2,0-0.4-0.2-0.4-0.4c0,0,0,0,0,0v-0.4l0,0
		c-0.3,0.5-0.9,0.8-1.5,0.8c-1.5,0-2.3-1.3-2.3-2.7s0.8-2.7,2.3-2.7c0.6,0,1.1,0.3,1.5,0.7l0,0v-0.3c0-0.2,0.2-0.4,0.4-0.4
		c0,0,0,0,0,0c0.2,0,0.4,0.2,0.4,0.4c0,0,0,0,0,0L56,23.7z M53.7,23.3c1.1,0,1.5-1,1.5-2s-0.4-2-1.5-2s-1.5,1-1.5,2
		S52.6,23.3,53.7,23.3"/>
	<path class="st6" d="M56.7,19.1c0-0.2,0.1-0.5,0.4-0.5c0.2,0,0.5,0.1,0.5,0.4c0,0,0,0.1,0,0.1v0.5l0,0c0.2-0.5,0.7-0.8,1.2-0.9
		c0.2,0,0.5,0.2,0.5,0.4c0,0,0,0,0,0.1c0,0.3-0.2,0.4-0.5,0.5c-0.7,0.1-1.2,0.8-1.2,1.5v2.5c0,0.2-0.1,0.5-0.4,0.5
		c-0.2,0-0.5-0.1-0.5-0.4c0,0,0-0.1,0-0.1V19.1z"/>
	<path class="st6" d="M59.7,16.8c0-0.2,0.2-0.4,0.4-0.4c0.2,0,0.4,0.2,0.4,0.4v3.8l1.9-1.6c0.1-0.1,0.3-0.2,0.5-0.3
		c0.2,0,0.4,0.2,0.4,0.4c0,0,0,0,0,0c0,0.2-0.1,0.3-0.2,0.4l-2,1.6l2.3,2.3c0.1,0.1,0.2,0.3,0.2,0.5c0,0.2-0.2,0.4-0.4,0.4
		c-0.2,0-0.3-0.1-0.5-0.3l-2.2-2.3v2.1c0,0.2-0.2,0.4-0.4,0.4c-0.2,0-0.4-0.2-0.4-0.4L59.7,16.8z"/>
	<path class="st6" d="M64.4,21.7c-0.1,0.8,0.6,1.6,1.4,1.6c0.1,0,0.1,0,0.2,0c1.2,0,1.5-0.7,1.8-0.7c0.2,0,0.3,0.2,0.3,0.4
		c0,0,0,0,0,0c0,0.4-1.1,1.1-2.1,1.1c-1.7,0-2.4-1.3-2.4-2.7c0-1.4,0.9-2.7,2.4-2.7c1.5,0,2.3,1.3,2.3,2.6c0,0.3-0.1,0.5-0.5,0.5
		L64.4,21.7z M67.4,21.1c0.1-0.8-0.5-1.6-1.3-1.6c0,0,0,0-0.1,0c-1.1,0-1.5,0.8-1.5,1.6H67.4z"/>
	<path class="st6" d="M69,17.6c0-0.2,0.2-0.4,0.4-0.4c0.2,0,0.4,0.2,0.4,0.4v1.2h0.4c0.3,0,0.4,0.1,0.4,0.4c0,0.2-0.2,0.4-0.4,0.4
		h-0.4v4.2c0,0.2-0.2,0.4-0.4,0.4c-0.2,0-0.4-0.2-0.4-0.4v-4.2h-0.4c-0.3,0-0.4-0.1-0.4-0.4c0-0.2,0.2-0.4,0.4-0.4H69V17.6z"/>
	<path class="st6" d="M71,23.5c0.1,0,0.3,0.1,0.3,0.3s-0.1,0.3-0.3,0.3c-0.1,0-0.3-0.1-0.3-0.3c0,0,0,0,0,0
		C70.8,23.7,70.9,23.5,71,23.5"/>
	<path class="st6" d="M72.9,21.2c0.5,0,0.7,0.2,0.7,0.4c0,0.1-0.1,0.2-0.2,0.2c-0.2,0-0.2-0.1-0.6-0.1c-0.6,0-0.8,0.6-0.8,1
		c0,0.5,0.2,1,0.8,1c0.3,0,0.4-0.2,0.5-0.2c0.1,0,0.2,0.1,0.2,0.2c0,0,0,0,0,0c0,0.2-0.3,0.4-0.7,0.4c-0.7,0-1.2-0.6-1.2-1.3
		c0,0,0-0.1,0-0.1c-0.1-0.7,0.4-1.3,1.1-1.4C72.9,21.3,72.9,21.3,72.9,21.2"/>
	<path class="st6" d="M75.1,21.2c0.7,0,1.3,0.6,1.2,1.3c0,0,0,0.1,0,0.1c0.1,0.7-0.3,1.3-1,1.4c-0.7,0.1-1.3-0.3-1.4-1
		c0-0.1,0-0.3,0-0.4C73.8,22,74.3,21.3,75.1,21.2C75.1,21.3,75.1,21.3,75.1,21.2 M75.1,23.7c0.6,0,0.8-0.6,0.8-1s-0.2-1-0.8-1
		c-0.6,0-0.8,0.5-0.8,1C74.3,23.1,74.5,23.7,75.1,23.7"/>
	<path class="st6" d="M78.5,22.3c0-0.3-0.3-0.6-0.6-0.6c-0.3,0-0.6,0.3-0.6,0.6v1.6c0,0.1-0.1,0.2-0.2,0.2c-0.1,0-0.2-0.1-0.2-0.2
		c0,0,0,0,0,0v-2.4c0-0.1,0.1-0.2,0.2-0.2c0.1,0,0.2,0.1,0.2,0.2c0,0,0,0,0,0v0.1l0,0c0.2-0.2,0.4-0.4,0.7-0.3
		c0.3,0,0.6,0.2,0.8,0.5c0.3-0.5,0.9-0.6,1.3-0.3c0.3,0.2,0.5,0.5,0.5,0.9v1.6c0,0.1-0.1,0.2-0.2,0.3c-0.1,0-0.2-0.1-0.3-0.2
		c0,0,0,0,0-0.1v-1.6c0-0.3-0.3-0.6-0.6-0.6c-0.3,0-0.6,0.3-0.6,0.6v1.6c0,0.1-0.1,0.2-0.2,0.2c-0.1,0-0.2-0.1-0.2-0.2c0,0,0,0,0,0
		L78.5,22.3z"/>
	<path class="st6" d="M19.3,15.3c-2.9,0-5.3,2.4-5.3,5.3c0,1.7,0.8,3.3,2.2,4.3l3,4.1l3-4c2.4-1.6,3.1-4.9,1.5-7.3
		C22.7,16.2,21.1,15.3,19.3,15.3 M19.3,24.4c-2.1,0-3.8-1.7-3.8-3.8s1.7-3.8,3.8-3.8c2.1,0,3.8,1.7,3.8,3.8c0,0,0,0,0,0
		C23.1,22.7,21.4,24.4,19.3,24.4"/>
	<path class="st6" d="M16.6,20.6c0-1.5,1.2-2.7,2.7-2.7c1.5,0,2.7,1.2,2.7,2.7c0,1.5-1.2,2.7-2.7,2.7c0,0,0,0,0,0
		C17.8,23.3,16.6,22.1,16.6,20.6"/>
</g>
</svg>
