<svg width="95" height="40" viewBox="0 0 95 40" fill="none" xmlns="http://www.w3.org/2000/svg">
<path d="M25.2 16.8C25.2 16.6 25.3 16.3 25.6 16.3C25.8 16.3 26.1 16.4 26.1 16.7V16.8V17C26.7 16.2 27.9 16.1 28.7 16.7C29.2 17.1 29.4 17.7 29.4 18.3V21.3C29.4 21.5 29.3 21.8 29 21.8C28.7 21.8 28.5 21.7 28.5 21.4V21.3V18.4C28.6 17.7 28.1 17.1 27.4 17.1C26.7 17 26.1 17.5 26.1 18.2C26.1 18.3 26.1 18.4 26.1 18.4V21.3C26.1 21.5 26 21.8 25.7 21.8C25.5 21.8 25.2 21.7 25.2 21.4V21.3V16.8Z" fill="#CCCCCC"/>
<path d="M30.9 15.4001H29.6C29.4 15.4001 29.2 15.3001 29.2 15.1001V15.0001C29.2 14.8001 29.3 14.6001 29.6 14.6001C29.6 14.6001 29.6 14.6001 29.7 14.6001H33.3C33.5 14.6001 33.7 14.7001 33.7 14.9001V15.0001C33.7 15.2001 33.6 15.4001 33.3 15.4001H33.2H31.9V21.3001C31.9 21.5001 31.7 21.7001 31.5 21.7001C31.3 21.7001 31.1 21.5001 31.1 21.3001L30.9 15.4001Z" fill="#CCCCCC"/>
<path d="M37.2 18.4001C37.2 17.7001 36.7 17.1001 36 17.1001C35.3 17.1001 34.7 17.6001 34.7 18.3001C34.7 18.4001 34.7 18.4001 34.7 18.5001V21.4001C34.7 21.6001 34.5 21.8001 34.3 21.8001C34.1 21.8001 33.9 21.6001 33.9 21.4001V14.5001C33.9 14.3001 34.1 14.1001 34.3 14.1001C34.5 14.1001 34.7 14.3001 34.7 14.5001V17.1001C35.1 16.6001 35.6 16.4001 36.2 16.4001C37 16.4001 38.1 16.9001 38.1 18.4001V21.4001C38.1 21.6001 37.9 21.8001 37.7 21.8001C37.5 21.8001 37.3 21.6001 37.3 21.4001L37.2 18.4001Z" fill="#CCCCCC"/>
<path d="M39.4 19.3999C39.3 20.1999 40 20.9999 40.8 20.9999C40.9 20.9999 40.9 20.9999 41 20.9999C42.2 20.9999 42.5 20.2999 42.8 20.2999C43 20.2999 43.1 20.4999 43.1 20.6999C43.1 21.0999 42 21.7999 41 21.7999C39.3 21.7999 38.6 20.4999 38.6 19.0999C38.6 17.6999 39.5 16.3999 41 16.3999C42.5 16.3999 43.3 17.6999 43.3 18.9999C43.3 19.2999 43.2 19.4999 42.8 19.4999L39.4 19.3999ZM42.3 18.7999C42.4 17.9999 41.8 17.1999 41 17.1999C41 17.1999 41 17.1999 40.9 17.1999C39.8 17.1999 39.4 17.9999 39.4 18.7999H42.3Z" fill="#CCCCCC"/>
<path d="M44.3 21.4C44.3 21.6 44.1 21.8 43.9 21.8C43.7 21.8 43.5 21.6 43.5 21.4V21.3C43.5 21.2 43.5 21 43.5 20.9L44.5 15.2C44.6 14.7 44.9 14.5 45.2 14.5C45.5 14.5 45.8 14.7 45.8 15L47.3 20.2L48.8 15C48.9 14.7 49.1 14.5 49.4 14.5C49.7 14.5 50 14.7 50.1 15.2L51.1 20.9C51.1 21 51.1 21.2 51.1 21.3C51.1 21.5 51 21.7 50.8 21.7H50.7C50.5 21.7 50.3 21.6 50.2 21.3L49.5 15.7L47.8 21.4C47.7 21.6 47.5 21.8 47.3 21.8C47.1 21.8 47 21.6 46.9 21.4L45.2 15.7L44.3 21.4Z" fill="#CCCCCC"/>
<path d="M56 21.3999C56 21.5999 55.8 21.7999 55.6 21.7999C55.4 21.7999 55.2 21.5999 55.2 21.3999V20.9999C54.9 21.4999 54.3 21.7999 53.7 21.7999C52.2 21.7999 51.4 20.4999 51.4 19.0999C51.4 17.6999 52.2 16.3999 53.7 16.3999C54.3 16.3999 54.8 16.6999 55.2 17.0999V16.7999C55.2 16.5999 55.4 16.3999 55.6 16.3999C55.8 16.3999 56 16.5999 56 16.7999V21.3999ZM53.7 20.9999C54.8 20.9999 55.2 19.9999 55.2 18.9999C55.2 17.9999 54.8 16.9999 53.7 16.9999C52.6 16.9999 52.2 17.9999 52.2 18.9999C52.2 19.9999 52.6 20.9999 53.7 20.9999Z" fill="#CCCCCC"/>
<path d="M56.7 16.8C56.7 16.6 56.8 16.3 57.1 16.3C57.3 16.3 57.6 16.4 57.6 16.7V16.8V17.3C57.8 16.8 58.3 16.5 58.8 16.4C59 16.4 59.3 16.6 59.3 16.8C59.3 16.8 59.3 16.8 59.3 16.9C59.3 17.2 59.1 17.3 58.8 17.4C58.1 17.5 57.6 18.2 57.6 18.9V21.4C57.6 21.6 57.5 21.9 57.2 21.9C57 21.9 56.7 21.8 56.7 21.5V21.4V16.8Z" fill="#CCCCCC"/>
<path d="M59.7 14.5001C59.7 14.3001 59.9 14.1001 60.1 14.1001C60.3 14.1001 60.5 14.3001 60.5 14.5001V18.3001L62.4 16.7001C62.5 16.6001 62.7 16.5001 62.9 16.4001C63.1 16.4001 63.3 16.6001 63.3 16.8001C63.3 17.0001 63.2 17.1001 63.1 17.2001L61.1 18.8001L63.4 21.1001C63.5 21.2001 63.6 21.4001 63.6 21.6001C63.6 21.8001 63.4 22.0001 63.2 22.0001C63 22.0001 62.9 21.9001 62.7 21.7001L60.5 19.4001V21.5001C60.5 21.7001 60.3 21.9001 60.1 21.9001C59.9 21.9001 59.7 21.7001 59.7 21.5001V14.5001Z" fill="#CCCCCC"/>
<path d="M64.4 19.3999C64.3 20.1999 65 20.9999 65.8 20.9999C65.9 20.9999 65.9 20.9999 66 20.9999C67.2 20.9999 67.5 20.2999 67.8 20.2999C68 20.2999 68.1 20.4999 68.1 20.6999C68.1 21.0999 67 21.7999 66 21.7999C64.3 21.7999 63.6 20.4999 63.6 19.0999C63.6 17.6999 64.5 16.3999 66 16.3999C67.5 16.3999 68.3 17.6999 68.3 18.9999C68.3 19.2999 68.2 19.4999 67.8 19.4999L64.4 19.3999ZM67.4 18.7999C67.5 17.9999 66.9 17.1999 66.1 17.1999C66.1 17.1999 66.1 17.1999 66 17.1999C64.9 17.1999 64.5 17.9999 64.5 18.7999H67.4Z" fill="#CCCCCC"/>
<path d="M69 15.2999C69 15.0999 69.2 14.8999 69.4 14.8999C69.6 14.8999 69.8 15.0999 69.8 15.2999V16.4999H70.2C70.5 16.4999 70.6 16.5999 70.6 16.8999C70.6 17.0999 70.4 17.2999 70.2 17.2999H69.8V21.4999C69.8 21.6999 69.6 21.8999 69.4 21.8999C69.2 21.8999 69 21.6999 69 21.4999V17.2999H68.6C68.3 17.2999 68.2 17.1999 68.2 16.8999C68.2 16.6999 68.4 16.4999 68.6 16.4999H69V15.2999Z" fill="#CCCCCC"/>
<path d="M71 21.2C71.1 21.2 71.3 21.3 71.3 21.5C71.3 21.7 71.2 21.8 71 21.8C70.9 21.8 70.7 21.7 70.7 21.5C70.8 21.4 70.9 21.2 71 21.2Z" fill="#CCCCCC"/>
<path d="M72.9 18.8999C73.4 18.8999 73.6 19.0999 73.6 19.2999C73.6 19.3999 73.5 19.4999 73.4 19.4999C73.2 19.4999 73.2 19.3999 72.8 19.3999C72.2 19.3999 72 19.9999 72 20.3999C72 20.8999 72.2 21.3999 72.8 21.3999C73.1 21.3999 73.2 21.1999 73.3 21.1999C73.4 21.1999 73.5 21.2999 73.5 21.3999C73.5 21.5999 73.2 21.7999 72.8 21.7999C72.1 21.7999 71.6 21.1999 71.6 20.4999V20.3999C71.5 19.6999 72 19.0999 72.7 18.9999C72.9 18.9999 72.9 18.9999 72.9 18.8999Z" fill="#CCCCCC"/>
<path d="M75.1 18.8999C75.8 18.8999 76.4 19.4999 76.3 20.1999V20.2999C76.4 20.9999 76 21.5999 75.3 21.6999C74.6 21.7999 74 21.3999 73.9 20.6999C73.9 20.5999 73.9 20.3999 73.9 20.2999C73.8 19.6999 74.3 18.9999 75.1 18.8999C75.1 18.9999 75.1 18.9999 75.1 18.8999ZM75.1 21.3999C75.7 21.3999 75.9 20.7999 75.9 20.3999C75.9 19.9999 75.7 19.3999 75.1 19.3999C74.5 19.3999 74.3 19.8999 74.3 20.3999C74.3 20.7999 74.5 21.3999 75.1 21.3999Z" fill="#CCCCCC"/>
<path d="M78.5 20C78.5 19.7 78.2 19.4 77.9 19.4C77.6 19.4 77.3 19.7 77.3 20V21.6C77.3 21.7 77.2 21.8 77.1 21.8C77 21.8 76.9 21.7 76.9 21.6V19.2C76.9 19.1 77 19 77.1 19C77.2 19 77.3 19.1 77.3 19.2V19.3C77.5 19.1 77.7 18.9 78 19C78.3 19 78.6 19.2 78.8 19.5C79.1 19 79.7 18.9 80.1 19.2C80.4 19.4 80.6 19.7 80.6 20.1V21.7C80.6 21.8 80.5 21.9 80.4 22C80.3 22 80.2 21.9 80.1 21.8C80.1 21.8 80.1 21.8 80.1 21.7V20.1C80.1 19.8 79.8 19.5 79.5 19.5C79.2 19.5 78.9 19.8 78.9 20.1V21.7C78.9 21.8 78.8 21.9 78.7 21.9C78.6 21.9 78.5 21.8 78.5 21.7V20Z" fill="#CCCCCC"/>
<path d="M19.3 13C16.4 13 14 15.4 14 18.3C14 20 14.8 21.6 16.2 22.6L19.2 26.7L22.2 22.7C24.6 21.1 25.3 17.8 23.7 15.4C22.7 13.9 21.1 13 19.3 13ZM19.3 22.1C17.2 22.1 15.5 20.4 15.5 18.3C15.5 16.2 17.2 14.5 19.3 14.5C21.4 14.5 23.1 16.2 23.1 18.3C23.1 20.4 21.4 22.1 19.3 22.1Z" fill="#CCCCCC"/>
<path d="M16.6 18.3001C16.6 16.8001 17.8 15.6001 19.3 15.6001C20.8 15.6001 22 16.8001 22 18.3001C22 19.8001 20.8 21.0001 19.3 21.0001C17.8 21.0001 16.6 19.8001 16.6 18.3001Z" fill="#CCCCCC"/>
</svg>