<?xml version="1.0" encoding="UTF-8"?><svg id="Layer_1" xmlns="http://www.w3.org/2000/svg" viewBox="0 0 95.43 40"><defs><style>.cls-1{fill:#ccc;stroke-width:0px;}</style></defs><path class="cls-1" d="m44.21,23.1v-8.56s.09,0,.13,0c.99,0,1.98,0,2.96,0,.6,0,1.2.08,1.75.33.68.31,1.06.84,1.13,1.59.03.36.04.71-.09,1.05-.21.53-.58.89-1.12,1.09-.03.01-.07.02-.13.05.09.02.15.04.21.05.83.23,1.4.97,1.41,1.83,0,.5-.06.99-.34,1.42-.35.54-.87.83-1.48.99-.39.11-.79.15-1.19.15-1.05,0-2.1,0-3.15,0-.03,0-.06,0-.1,0Zm1.5-1.32c.56,0,1.1,0,1.64,0,.2,0,.4-.02.6-.05.6-.1.93-.4,1-.93.06-.43-.02-.82-.4-1.09-.29-.21-.62-.28-.97-.3-.61-.02-1.22-.02-1.83-.03-.02,0-.03,0-.05.01v2.39Zm0-3.7c.38,0,.76,0,1.14,0,.3,0,.6-.02.9-.06.27-.03.53-.13.73-.33.32-.34.33-.74.19-1.15-.04-.14-.16-.27-.27-.36-.24-.21-.55-.26-.85-.27-.59-.02-1.17-.02-1.76-.02-.02,0-.05,0-.07.01v2.19Z"/><path class="cls-1" d="m66.46,22.64c-.2-.11-.33-.28-.39-.5-.09-.36.05-.66.26-.93.13-.17.31-.3.46-.44-.38-.27-.66-.63-.8-1.1-.32-1.06.13-2.12,1.14-2.57.91-.41,1.84-.42,2.75.03.14.07.27.16.4.25.07.05.11.05.18,0,.43-.3.92-.47,1.44-.53.01,0,.02,0,.04,0v1.23c-.34.05-.68.09-1.04.14.19.35.23.68.2,1.03-.08.8-.48,1.37-1.21,1.71-.68.32-1.4.36-2.13.17-.11-.03-.29.11-.33.24-.04.15,0,.27.15.31.17.05.35.08.53.1.5.04,1,.06,1.5.11.42.04.82.12,1.21.28.7.3.95.85.88,1.56-.06.68-.49,1.09-1.08,1.36-.48.22-1,.31-1.53.35-.65.04-1.31.03-1.96-.1-.38-.07-.74-.18-1.06-.41-.61-.43-.64-1.14-.35-1.67.15-.27.38-.47.67-.59.02,0,.03-.01.05-.02,0,0,.01-.01.02-.02Zm3.25-3.56c0-.06,0-.12-.01-.19-.03-.43-.27-.74-.68-.86-.21-.06-.43-.07-.64-.08-.24-.01-.46.07-.65.22-.38.29-.46.69-.39,1.14.07.43.32.7.73.8.2.05.41.06.62.05.64-.03,1.02-.45,1.02-1.09Zm-1.17,5.29c.33-.03.58-.04.83-.07.28-.04.56-.11.79-.29.29-.23.25-.62-.09-.75-.21-.08-.44-.13-.66-.15-.53-.05-1.05-.08-1.58-.12-.14,0-.28-.04-.41-.02-.27.06-.5.39-.51.7,0,.25.14.43.45.53.05.02.11.04.17.05.37.05.73.09,1.02.12Z"/><path class="cls-1" d="m63.17,17.51v-2.98h1.5s0,.09,0,.14c0,2.27,0,4.53,0,6.8,0,.41-.02.82.08,1.22.03.14.08.27.11.41h-1.55c-.05-.24-.1-.48-.15-.71-.16.13-.31.28-.48.39-.83.54-1.7.56-2.57.13-.51-.25-.81-.7-1.01-1.21-.24-.62-.28-1.26-.27-1.92.02-.56.11-1.1.36-1.61.42-.85,1.12-1.28,2.07-1.35.73-.05,1.36.17,1.91.69Zm0,2.49c0-.37,0-.73,0-1.1,0-.06-.03-.14-.07-.19-.35-.4-.79-.63-1.33-.64-.71-.02-1.16.32-1.33,1.01-.06.24-.09.48-.1.73-.03.46,0,.92.18,1.35.19.44.52.73,1.01.77.63.05,1.16-.19,1.58-.65.04-.04.06-.11.06-.16,0-.37,0-.74,0-1.11Z"/><path class="cls-1" d="m40.14,23.08h-1.55c-.05-.23-.1-.47-.15-.7-.15.13-.31.27-.48.39-.51.35-1.08.46-1.7.4-.5-.05-.94-.23-1.31-.58-.39-.37-.61-.84-.72-1.36-.19-.9-.2-1.8.08-2.69.22-.69.63-1.24,1.31-1.52.93-.37,1.83-.32,2.65.32.03.02.06.05.08.07.02.02.05.04.09.08v-2.96h1.49s0,.08,0,.13c0,2.27,0,4.55,0,6.82,0,.43-.02.85.09,1.26.03.11.06.21.1.33Zm-1.68-3.07c0-.37,0-.73,0-1.1,0-.06-.03-.14-.07-.19-.39-.47-.9-.67-1.5-.64-.55.04-.94.31-1.11.85-.07.23-.12.48-.14.72-.04.47-.03.95.13,1.41.18.52.54.84,1.1.88.63.04,1.14-.22,1.55-.68.03-.03.04-.1.04-.15,0-.37,0-.73,0-1.1Z"/><path class="cls-1" d="m25.82,23.07h-1.5c0-.05,0-.1,0-.15,0-1.27,0-2.54,0-3.81,0-.14,0-.29-.04-.43-.08-.35-.31-.56-.68-.57-.68-.03-1.25.23-1.72.71-.03.03-.04.11-.04.16,0,1.31,0,2.62,0,3.94,0,.05,0,.1,0,.16h-1.51v-8.54h1.51v3.14c.12-.1.22-.18.33-.26.65-.47,1.38-.68,2.18-.58.75.09,1.26.53,1.43,1.31.04.2.06.4.06.61,0,1.4,0,2.8,0,4.2,0,.04,0,.07,0,.12Z"/><path class="cls-1" d="m77.96,20.5h-4.15c-.01.34.07.64.27.9.32.43.75.62,1.29.61.31,0,.61-.05.91-.16.27-.1.5-.25.7-.44.04-.04.07-.09.11-.15.28.3.54.56.8.84-.21.23-.47.46-.77.64-1.06.6-2.15.66-3.25.15-.83-.38-1.27-1.08-1.45-1.95-.12-.6-.15-1.22,0-1.82.28-1.16,1.08-2.04,2.31-2.26.59-.11,1.17-.07,1.73.18.67.31,1.06.85,1.29,1.53.14.42.22.85.23,1.3,0,.21,0,.41,0,.63Zm-1.4-1.15c-.01-.09-.02-.16-.03-.24-.09-.6-.45-.96-1.02-1.05-.7-.11-1.35.25-1.58.89-.05.12-.06.26-.09.4h2.73Z"/><path class="cls-1" d="m16.69,23.07h-1.52v-7.12h-2.61v-1.42h6.73v1.41h-2.61v7.13Z"/><path class="cls-1" d="m30.01,16.93h1.48v.87s.01.01.02.02c.58-.74,1.33-1.1,2.29-1.03-.02.46-.03.91-.05,1.39-.23,0-.44-.01-.66,0-.7.06-1.22.4-1.58,1-.03.04-.02.1-.02.16,0,1.2,0,2.39,0,3.59,0,.05,0,.1,0,.15h-1.49v-6.15Z"/><path class="cls-1" d="m52.98,23.09h-1.49v-6.15h1.48v.92c.6-.76,1.35-1.12,2.3-1.05-.02.46-.03.91-.05,1.37-.19,0-.36,0-.53,0-.74.03-1.29.36-1.68.99-.03.05-.03.11-.03.17,0,1.2,0,2.41,0,3.61,0,.05,0,.1,0,.15Z"/><path class="cls-1" d="m56.27,23.09v-6.15h1.49v6.15h-1.49Z"/><path class="cls-1" d="m27.12,16.93h1.49v6.14h-1.49v-6.14Z"/><path class="cls-1" d="m80.9,19.6s-1.4,1.48-1.92,3.35c0,0,1.92.64,3.89,0,0,0-.63-2.15-1.97-3.35Z"/></svg>