<svg width="94" height="40" viewBox="0 0 94 40" fill="none" xmlns="http://www.w3.org/2000/svg">
<path d="M25.5 12.8C24 13.1 22.9 14.5 22.9 16V16.1C25.3 16.7 26.5 18.2 26.5 20.2C26.5 22.6 24.6 24.5 22.2 24.5C20 24.5 17.7 22.6 17.7 19.6C17.7 17.6 18.6 15.8 20.1 14.5C21.5 13.4 23.2 12.7 25 12.7C25.1 12.8 25.3 12.8 25.5 12.8C24.4 12.3 23.3 12 22.1 12C17.7 12 14.1 15.6 14.1 20C14.1 24.4 17.7 28 22.1 28C26.5 28 30.1 24.4 30.1 20C30.1 16.9 28.2 14.1 25.5 12.8Z" fill="#CCCCCC"/>
<path d="M35.3 23.4L32.8 17.5H34.4L35.9 21.4L37.4 17.5H39L36.6 23.4H35.3Z" fill="#CCCCCC"/>
<path d="M43.3 20.4999C43.3 20.2999 43.3 19.9999 43.2 19.7999C43.1 19.5999 43.1 19.3999 42.9 19.2999C42.8 19.0999 42.6 18.9999 42.5 18.8999C42.1 18.6999 41.7 18.6999 41.4 18.8999C41.2 18.9999 41.1 19.0999 41 19.2999C40.9 19.4999 40.8 19.6999 40.7 19.7999C40.6 19.9999 40.6 20.2999 40.6 20.4999C40.6 20.6999 40.6 20.9999 40.7 21.1999C40.8 21.3999 40.8 21.5999 40.9 21.6999C41 21.8999 41.1 21.9999 41.3 22.0999C41.5 22.1999 41.7 22.1999 41.9 22.1999C42.1 22.1999 42.3 22.1999 42.4 22.0999C42.6 21.9999 42.7 21.8999 42.8 21.6999C42.9 21.4999 43 21.2999 43.1 21.1999C43.2 20.8999 43.3 20.6999 43.3 20.4999ZM44.8 20.4999C44.8 20.8999 44.7 21.2999 44.6 21.5999C44.5 21.9999 44.3 22.2999 44.1 22.5999C43.9 22.8999 43.6 23.0999 43.2 23.2999C42.4 23.6999 41.5 23.6999 40.7 23.2999C40.4 23.0999 40.1 22.8999 39.8 22.5999C39.6 22.2999 39.4 21.9999 39.3 21.5999C39.2 21.1999 39.1 20.8999 39.1 20.4999C39.1 20.0999 39.2 19.7999 39.3 19.3999C39.4 18.9999 39.6 18.6999 39.8 18.3999C40 18.0999 40.3 17.8999 40.7 17.6999C41.1 17.4999 41.5 17.3999 41.9 17.3999C42.7 17.3999 43.5 17.6999 44 18.3999C44.2 18.6999 44.4 18.9999 44.5 19.3999C44.7 19.6999 44.7 20.0999 44.8 20.4999Z" fill="#CCCCCC"/>
<path d="M49.3 18.9C49 18.8 48.8 18.7 48.5 18.7C48.3 18.7 48 18.7 47.8 18.8C47.6 18.9 47.5 19 47.3 19.2C47.2 19.4 47.1 19.6 47 19.7C47 20 47 20.2 47 20.4C47 20.6 47 20.9 47.1 21.1C47.1 21.3 47.2 21.5 47.3 21.7C47.4 21.9 47.5 22 47.7 22.1C47.9 22.2 48.1 22.3 48.3 22.3C48.5 22.3 48.7 22.2 48.8 22.1C49 22 49.1 21.9 49.2 21.7L49.3 18.9ZM49.4 23.4L49.3 22.9C49.1 23.1 49 23.2 48.8 23.3C48.6 23.4 48.3 23.5 48 23.5C47.6 23.5 47.2 23.4 46.9 23.2C46.6 23 46.3 22.8 46.1 22.5C45.9 22.2 45.7 21.9 45.6 21.5C45.5 21.1 45.4 20.7 45.4 20.3C45.4 19.9 45.5 19.6 45.6 19.2C45.7 18.8 45.9 18.5 46.1 18.2C46.3 17.9 46.6 17.7 47 17.5C47.4 17.3 47.8 17.2 48.2 17.2C48.5 17.2 48.9 17.3 49.2 17.4V15.3H50.7V23.4H49.4Z" fill="#CCCCCC"/>
<path d="M55.1 20.7001C54.9 20.7001 54.8 20.7001 54.6 20.7001C54.4 20.7001 54.3 20.7001 54.1 20.8001C53.8 20.8001 53.6 20.9001 53.4 21.1001C53.3 21.2001 53.2 21.4001 53.2 21.6001C53.2 21.8001 53.3 22.0001 53.4 22.1001C53.6 22.3001 53.8 22.3001 54 22.3001C54.2 22.3001 54.4 22.3001 54.5 22.2001C54.7 22.1001 54.8 22.0001 55 21.9001L55.1 20.7001ZM55.2 23.4001L55.1 23.0001C54.9 23.2001 54.7 23.3001 54.5 23.4001C54.2 23.5001 54 23.6001 53.7 23.6001C53.5 23.6001 53.2 23.6001 53 23.5001C52.3 23.3001 51.8 22.5001 51.8 21.8001C51.8 21.5001 51.8 21.3001 51.9 21.0001C52 20.8001 52.2 20.6001 52.4 20.5001C52.6 20.3001 52.8 20.2001 53.1 20.1001C53.4 20.0001 53.6 19.9001 53.9 19.9001C54.1 19.9001 54.3 19.8001 54.5 19.8001L55.1 19.7001V19.6001C55.1 19.3001 55 19.1001 54.8 18.9001C54.6 18.8001 54.4 18.7001 54.1 18.7001C53.9 18.7001 53.8 18.7001 53.6 18.8001C53.5 18.8001 53.3 18.9001 53.2 19.0001C53.1 19.1001 53 19.1001 52.9 19.2001C52.8 19.2001 52.7 19.3001 52.7 19.4001L52.2 18.3001C52.3 18.2001 52.4 18.2001 52.5 18.1001C52.7 18.0001 52.8 17.9001 53 17.9001C53.2 17.8001 53.4 17.8001 53.6 17.7001C53.9 17.6001 54.1 17.6001 54.4 17.6001C54.7 17.6001 55 17.6001 55.3 17.7001C55.6 17.8001 55.8 17.9001 56 18.1001C56.2 18.3001 56.4 18.5001 56.5 18.8001C56.6 19.1001 56.7 19.5001 56.7 19.8001V23.6001L55.2 23.4001Z" fill="#CCCCCC"/>
<path d="M61.2 16.6C61.1 16.6 61 16.5 60.9 16.5C60.7 16.5 60.5 16.4 60.4 16.4C60.2 16.4 60 16.5 59.9 16.6C59.7 16.8 59.7 17 59.7 17.2V17.5H61V18.7H59.8V23.4H58.3V18.8H57.5V17.6H58.3V17.3C58.3 17 58.3 16.6 58.4 16.3C58.5 16.1 58.6 15.8 58.8 15.7C59 15.5 59.2 15.4 59.4 15.3C59.6 15.2 59.9 15.2 60.2 15.2C60.5 15.2 60.8 15.2 61.1 15.3C61.2 15.3 61.4 15.4 61.5 15.4L61.2 16.6Z" fill="#CCCCCC"/>
<path d="M65.4 20.4999C65.4 20.2999 65.4 19.9999 65.3 19.7999C65.2 19.5999 65.2 19.3999 65 19.2999C64.9 19.0999 64.8 18.9999 64.6 18.8999C64.4 18.7999 64.2 18.7999 64.1 18.7999C63.9 18.7999 63.7 18.8999 63.6 18.8999C63.4 18.9999 63.3 19.0999 63.2 19.2999C63.1 19.4999 63 19.6999 62.9 19.7999C62.8 19.9999 62.8 20.2999 62.8 20.4999C62.8 20.6999 62.8 20.9999 62.9 21.1999C63 21.3999 63 21.5999 63.2 21.6999C63.3 21.8999 63.4 21.9999 63.6 22.0999C63.8 22.1999 64 22.1999 64.2 22.1999C64.4 22.1999 64.6 22.1999 64.7 22.0999C64.9 21.9999 65 21.8999 65.1 21.6999C65.2 21.4999 65.3 21.2999 65.4 21.1999C65.4 20.8999 65.4 20.6999 65.4 20.4999ZM66.9 20.4999C66.9 20.8999 66.8 21.2999 66.7 21.5999C66.6 21.9999 66.4 22.2999 66.2 22.5999C66 22.8999 65.7 23.0999 65.3 23.2999C64.5 23.6999 63.6 23.6999 62.8 23.2999C62.5 23.0999 62.2 22.8999 61.9 22.5999C61.7 22.2999 61.5 21.9999 61.4 21.5999C61.3 21.1999 61.2 20.8999 61.2 20.4999C61.2 20.0999 61.3 19.7999 61.4 19.3999C61.5 18.9999 61.7 18.6999 61.9 18.3999C62.1 18.0999 62.4 17.8999 62.8 17.6999C63.9 17.0999 65.3 17.3999 66.1 18.3999C66.3 18.6999 66.5 18.9999 66.6 19.3999C66.8 19.6999 66.9 20.0999 66.9 20.4999Z" fill="#CCCCCC"/>
<path d="M71.5 23.4V20.1C71.5 19.7 71.4 19.4 71.2 19.1C71 18.9 70.7 18.7 70.4 18.7C70.2 18.7 69.9 18.8 69.8 18.9C69.6 19 69.4 19.1 69.3 19.3V23.5H67.8V17.6H69.2L69.3 18.1C69.8 17.7 70.4 17.5 71 17.5C71.3 17.5 71.6 17.5 71.9 17.6C72.2 17.7 72.4 17.8 72.6 18C72.8 18.2 72.9 18.5 73 18.8C73.1 19.2 73.2 19.6 73.2 20V23.5L71.5 23.4Z" fill="#CCCCCC"/>
<path d="M77.8 19.7999C77.8 19.5999 77.7 19.3999 77.7 19.2999C77.6 19.1999 77.6 18.9999 77.4 18.8999C77.3 18.7999 77.2 18.6999 77.1 18.6999C77 18.6999 76.9 18.5999 76.7 18.5999C76.4 18.5999 76.2 18.6999 75.9 18.8999C75.6 19.0999 75.5 19.3999 75.5 19.7999H77.8ZM75.5 20.8999C75.5 21.2999 75.7 21.6999 76 21.9999C76.3 22.1999 76.7 22.3999 77.1 22.2999C77.3 22.2999 77.5 22.2999 77.6 22.1999C77.8 22.1999 77.9 22.0999 78.1 22.0999C78.2 22.0999 78.3 21.9999 78.5 21.8999C78.6 21.8999 78.7 21.7999 78.7 21.6999L79.1 22.8999C79 22.9999 78.9 22.9999 78.8 23.0999C78.7 23.1999 78.5 23.1999 78.3 23.2999C78.1 23.3999 77.9 23.3999 77.6 23.4999C77.3 23.4999 77 23.5999 76.8 23.5999C76.4 23.5999 76.1 23.4999 75.7 23.3999C75.4 23.2999 75.1 23.0999 74.8 22.8999C74.5 22.5999 74.3 22.2999 74.2 21.8999C74 21.4999 74 20.9999 74 20.4999C74 20.0999 74.1 19.5999 74.2 19.1999C74.3 18.7999 74.5 18.4999 74.8 18.1999C75 17.8999 75.3 17.6999 75.7 17.5999C76 17.4999 76.4 17.3999 76.8 17.3999C77.2 17.3999 77.5 17.4999 77.8 17.5999C78.1 17.6999 78.4 17.8999 78.6 18.0999C78.9 18.3999 79 18.6999 79.1 19.0999C79.2 19.5999 79.3 20.0999 79.3 20.4999V20.7999L75.5 20.8999Z" fill="#CCCCCC"/>
</svg>