<?xml version="1.0" encoding="utf-8"?>
<!-- Generator: Adobe Illustrator 26.4.1, SVG Export Plug-In . SVG Version: 6.00 Build 0)  -->
<svg version="1.1" id="Layer_1" xmlns="http://www.w3.org/2000/svg" xmlns:xlink="http://www.w3.org/1999/xlink" x="0px" y="0px"
	 viewBox="0 0 93.3 40" style="enable-background:new 0 0 93.3 40;" xml:space="preserve">
<style type="text/css">
	.st0{fill:#003B70;}
	.st1{fill-rule:evenodd;clip-rule:evenodd;fill:#D9261C;}
	.st2{fill:#EE3023;}
	.st3{fill:#FFFFFF;}
	.st4{fill:#003662;}
	.st5{fill:none;}
	.st6{fill:#CCCCCC;}
	.st7{fill:#4E6176;}
	.st8{fill:#5D9BC7;}
	.st9{fill:#1F3F5A;}
	.st10{fill:#D6253A;}
	.st11{fill-rule:evenodd;clip-rule:evenodd;fill:#CCCCCC;}
</style>
<g>
	<path class="st6" d="M25.5,13.5c-1.5,0.3-2.6,1.7-2.6,3.2c0,0,0,0.1,0,0.1c2.4,0.6,3.6,2.1,3.6,4.1c0,2.4-1.9,4.3-4.3,4.3
		c0,0,0,0,0,0h0c-2.2,0-4.5-1.9-4.5-4.9c0-2,0.9-3.8,2.4-5.1c1.4-1.1,3.1-1.8,4.9-1.8C25.1,13.5,25.3,13.5,25.5,13.5
		c-1.1-0.5-2.2-0.8-3.4-0.8c-4.4,0-8,3.6-8,8s3.6,8,8,8c4.4,0,8-3.6,8-8C30.1,17.6,28.2,14.8,25.5,13.5z"/>
	<path class="st3" d="M25.5,13.5C25.5,13.5,25.5,13.5,25.5,13.5C25.5,13.5,25.5,13.5,25.5,13.5C25.5,13.5,25.5,13.5,25.5,13.5z"/>
	<path class="st6" d="M35.3,24.1l-2.5-5.9h1.6l1.5,3.9l1.5-3.9H39l-2.4,5.9H35.3z"/>
	<path class="st6" d="M43.3,21.2c0-0.2,0-0.5-0.1-0.7c-0.1-0.2-0.1-0.4-0.3-0.5c-0.1-0.2-0.3-0.3-0.4-0.4c-0.4-0.2-0.8-0.2-1.1,0
		c-0.2,0.1-0.3,0.2-0.4,0.4c-0.1,0.2-0.2,0.4-0.3,0.5c-0.1,0.2-0.1,0.5-0.1,0.7c0,0.2,0,0.5,0.1,0.7c0.1,0.2,0.1,0.4,0.2,0.5
		c0.1,0.2,0.2,0.3,0.4,0.4c0.2,0.1,0.4,0.1,0.6,0.1c0.2,0,0.4,0,0.5-0.1c0.2-0.1,0.3-0.2,0.4-0.4c0.1-0.2,0.2-0.4,0.3-0.5
		C43.2,21.6,43.3,21.4,43.3,21.2 M44.8,21.2c0,0.4-0.1,0.8-0.2,1.1c-0.1,0.4-0.3,0.7-0.5,1c-0.2,0.3-0.5,0.5-0.9,0.7
		c-0.8,0.4-1.7,0.4-2.5,0c-0.3-0.2-0.6-0.4-0.9-0.7c-0.2-0.3-0.4-0.6-0.5-1c-0.1-0.4-0.2-0.7-0.2-1.1c0-0.4,0.1-0.7,0.2-1.1
		c0.1-0.4,0.3-0.7,0.5-1c0.2-0.3,0.5-0.5,0.9-0.7c0.4-0.2,0.8-0.3,1.2-0.3c0.8,0,1.6,0.3,2.1,1c0.2,0.3,0.4,0.6,0.5,1
		C44.7,20.4,44.7,20.8,44.8,21.2"/>
	<path class="st6" d="M49.3,19.6c-0.3-0.1-0.5-0.2-0.8-0.2c-0.2,0-0.5,0-0.7,0.1c-0.2,0.1-0.3,0.2-0.5,0.4c-0.1,0.2-0.2,0.4-0.3,0.5
		C47,20.7,47,20.9,47,21.1c0,0.2,0,0.5,0.1,0.7c0,0.2,0.1,0.4,0.2,0.6c0.1,0.2,0.2,0.3,0.4,0.4c0.2,0.1,0.4,0.2,0.6,0.2
		c0.2,0,0.4-0.1,0.5-0.2c0.2-0.1,0.3-0.2,0.4-0.4L49.3,19.6z M49.4,24.1l-0.1-0.5c-0.2,0.2-0.3,0.3-0.5,0.4
		c-0.2,0.1-0.5,0.2-0.8,0.2c-0.4,0-0.8-0.1-1.1-0.3c-0.3-0.2-0.6-0.4-0.8-0.7c-0.2-0.3-0.4-0.6-0.5-1c-0.1-0.4-0.2-0.8-0.2-1.2
		c0-0.4,0.1-0.7,0.2-1.1c0.1-0.4,0.3-0.7,0.5-1c0.2-0.3,0.5-0.5,0.9-0.7c0.4-0.2,0.8-0.3,1.2-0.3c0.3,0,0.7,0.1,1,0.2V16h1.5v8.1
		H49.4z"/>
	<path class="st6" d="M55.1,21.4c-0.2,0-0.3,0-0.5,0c-0.2,0-0.3,0-0.5,0.1c-0.3,0-0.5,0.1-0.7,0.3c-0.1,0.1-0.2,0.3-0.2,0.5
		c0,0.2,0.1,0.4,0.2,0.5C53.6,23,53.8,23,54,23c0.2,0,0.4,0,0.5-0.1c0.2-0.1,0.3-0.2,0.5-0.3L55.1,21.4z M55.2,24.1l-0.1-0.4
		c-0.2,0.2-0.4,0.3-0.6,0.4c-0.3,0.1-0.5,0.2-0.8,0.2c-0.2,0-0.5,0-0.7-0.1c-0.7-0.2-1.2-1-1.2-1.7c0-0.3,0-0.5,0.1-0.8
		c0.1-0.2,0.3-0.4,0.5-0.5c0.2-0.2,0.4-0.3,0.7-0.4c0.3-0.1,0.5-0.2,0.8-0.2c0.2,0,0.4-0.1,0.6-0.1l0.6-0.1v-0.1
		c0-0.3-0.1-0.5-0.3-0.7c-0.2-0.1-0.4-0.2-0.7-0.2c-0.2,0-0.3,0-0.5,0.1c-0.1,0-0.3,0.1-0.4,0.2c-0.1,0.1-0.2,0.1-0.3,0.2
		c-0.1,0-0.2,0.1-0.2,0.2l-0.5-1.1c0.1-0.1,0.2-0.1,0.3-0.2c0.2-0.1,0.3-0.2,0.5-0.2c0.2-0.1,0.4-0.1,0.6-0.2
		c0.3-0.1,0.5-0.1,0.8-0.1c0.3,0,0.6,0,0.9,0.1c0.3,0.1,0.5,0.2,0.7,0.4c0.2,0.2,0.4,0.4,0.5,0.7c0.1,0.3,0.2,0.7,0.2,1v3.8
		L55.2,24.1z"/>
	<path class="st6" d="M61.2,17.3c-0.1,0-0.2-0.1-0.3-0.1c-0.2,0-0.4-0.1-0.5-0.1c-0.2,0-0.4,0.1-0.5,0.2c-0.2,0.2-0.2,0.4-0.2,0.6
		v0.3h1.3v1.2h-1.2v4.7h-1.5v-4.6h-0.8v-1.2h0.8v-0.3c0-0.3,0-0.7,0.1-1c0.1-0.2,0.2-0.5,0.4-0.6c0.2-0.2,0.4-0.3,0.6-0.4
		c0.2-0.1,0.5-0.1,0.8-0.1c0.3,0,0.6,0,0.9,0.1c0.1,0,0.3,0.1,0.4,0.1L61.2,17.3z"/>
	<path class="st6" d="M65.4,21.2c0-0.2,0-0.5-0.1-0.7c-0.1-0.2-0.1-0.4-0.3-0.5c-0.1-0.2-0.2-0.3-0.4-0.4c-0.2-0.1-0.4-0.1-0.5-0.1
		c-0.2,0-0.4,0.1-0.5,0.1c-0.2,0.1-0.3,0.2-0.4,0.4c-0.1,0.2-0.2,0.4-0.3,0.5c-0.1,0.2-0.1,0.5-0.1,0.7c0,0.2,0,0.5,0.1,0.7
		c0.1,0.2,0.1,0.4,0.3,0.5c0.1,0.2,0.2,0.3,0.4,0.4c0.2,0.1,0.4,0.1,0.6,0.1c0.2,0,0.4,0,0.5-0.1c0.2-0.1,0.3-0.2,0.4-0.4
		c0.1-0.2,0.2-0.4,0.3-0.5C65.4,21.6,65.4,21.4,65.4,21.2 M66.9,21.2c0,0.4-0.1,0.8-0.2,1.1c-0.1,0.4-0.3,0.7-0.5,1
		c-0.2,0.3-0.5,0.5-0.9,0.7c-0.8,0.4-1.7,0.4-2.5,0c-0.3-0.2-0.6-0.4-0.9-0.7c-0.2-0.3-0.4-0.6-0.5-1c-0.1-0.4-0.2-0.7-0.2-1.1
		c0-0.4,0.1-0.7,0.2-1.1c0.1-0.4,0.3-0.7,0.5-1c0.2-0.3,0.5-0.5,0.9-0.7c1.1-0.6,2.5-0.3,3.3,0.7c0.2,0.3,0.4,0.6,0.5,1
		C66.8,20.4,66.9,20.8,66.9,21.2"/>
	<path class="st6" d="M71.5,24.1v-3.3c0-0.4-0.1-0.7-0.3-1c-0.2-0.2-0.5-0.4-0.8-0.4c-0.2,0-0.5,0.1-0.6,0.2
		c-0.2,0.1-0.4,0.2-0.5,0.4v4.2h-1.5v-5.9h1.4l0.1,0.5c0.5-0.4,1.1-0.6,1.7-0.6c0.3,0,0.6,0,0.9,0.1c0.3,0.1,0.5,0.2,0.7,0.4
		c0.2,0.2,0.3,0.5,0.4,0.8c0.1,0.4,0.2,0.8,0.2,1.2v3.5L71.5,24.1z"/>
	<path class="st6" d="M77.8,20.5c0-0.2-0.1-0.4-0.1-0.5c-0.1-0.1-0.1-0.3-0.3-0.4c-0.1-0.1-0.2-0.2-0.3-0.2c-0.1,0-0.2-0.1-0.4-0.1
		c-0.3,0-0.5,0.1-0.8,0.3c-0.3,0.2-0.4,0.5-0.4,0.9L77.8,20.5z M75.5,21.6c0,0.4,0.2,0.8,0.5,1.1c0.3,0.2,0.7,0.4,1.1,0.3
		c0.2,0,0.4,0,0.5-0.1c0.2,0,0.3-0.1,0.5-0.1c0.1,0,0.2-0.1,0.4-0.2c0.1,0,0.2-0.1,0.2-0.2l0.4,1.2c-0.1,0.1-0.2,0.1-0.3,0.2
		c-0.1,0.1-0.3,0.1-0.5,0.2c-0.2,0.1-0.4,0.1-0.7,0.2c-0.3,0-0.6,0.1-0.8,0.1c-0.4,0-0.7-0.1-1.1-0.2c-0.3-0.1-0.6-0.3-0.9-0.5
		c-0.3-0.3-0.5-0.6-0.6-1c-0.2-0.4-0.2-0.9-0.2-1.4c0-0.4,0.1-0.9,0.2-1.3c0.1-0.4,0.3-0.7,0.6-1c0.2-0.3,0.5-0.5,0.9-0.6
		c0.3-0.1,0.7-0.2,1.1-0.2c0.4,0,0.7,0.1,1,0.2c0.3,0.1,0.6,0.3,0.8,0.5c0.3,0.3,0.4,0.6,0.5,1c0.1,0.5,0.2,1,0.2,1.4v0.3L75.5,21.6
		z"/>
</g>
</svg>
