<svg width="198" height="81" viewBox="0 0 198 81" fill="none" xmlns="http://www.w3.org/2000/svg">
<path d="M13.5162 45.7002C19.2798 45.7512 22.7991 44.4251 24.0742 41.6708C25.3493 38.9166 26.0124 35.0912 26.0124 30.1438V0H37.9985V32.592C37.9985 33.204 37.9985 33.7651 37.9475 34.3261C37.8964 34.8362 37.8965 35.3972 37.8965 35.9583C37.7434 38.3555 37.3354 40.7017 36.6213 42.9969C35.9073 45.2921 34.7342 47.3323 33.102 49.1685C30.8068 51.7697 28.1546 53.3509 25.1453 53.9629C22.136 54.524 19.0247 54.83 15.8114 54.83C15.6584 54.83 15.5054 54.83 15.4034 54.83C15.3014 54.83 15.1484 54.83 15.0464 54.83H0V45.7002H13.5162Z" fill="#333333"/>
<path d="M59.8795 32.949C59.8795 37.5394 60.6955 40.9567 62.2767 43.2009C63.9088 45.4451 67.1731 46.6182 72.0696 46.6182C77.017 46.6182 80.2813 45.4961 81.8625 43.2009C83.4436 40.9057 84.2597 37.5394 84.2597 33V0.459043H95.6847V33.204C95.6847 33.8671 95.6847 34.5301 95.6847 35.1422C95.6847 35.8052 95.6337 36.4173 95.6337 37.0294C95.5827 38.9675 95.3277 40.8037 94.9196 42.6399C94.5116 44.476 93.6955 46.2102 92.5224 47.7913C90.8903 49.9845 88.8501 51.6167 86.2999 52.6878C83.7496 53.7589 81.1484 54.422 78.3941 54.728C77.323 54.881 76.3029 54.983 75.2319 55.034C74.1608 55.085 73.1407 55.085 72.1206 55.085C71.1515 55.085 70.1824 55.034 69.1623 55.034C68.1422 54.983 67.0711 54.881 66.051 54.728C63.2968 54.473 60.5935 53.8099 58.0433 52.7898C55.4931 51.7187 53.3509 50.0866 51.7187 47.7913C50.5456 46.1592 49.7805 44.476 49.3725 42.6399C48.9645 40.8037 48.7604 38.9165 48.7094 37.0294C48.6584 36.4173 48.6584 35.8052 48.6584 35.1422C48.6584 34.4791 48.6584 33.8671 48.6584 33.255V0.408035H59.9815L59.8795 32.949Z" fill="#333333"/>
<path d="M147.964 9.9969L154.187 0.459038H198V9.9969H180.199V55.187H168.315V9.9969H147.964Z" fill="#333333"/>
<path d="M119.453 27.8485L100.377 55.289H113.944L126.134 36.2133L137.662 55.289H150.821L113.383 0.459038H100.989L119.453 27.8485Z" fill="#333333"/>
<path d="M126.951 15.8114L133.632 24.7882L150.209 0.459038H136.896L126.951 15.8114Z" fill="#F7941E"/>
<path d="M189.206 71.417H191.423L193.557 75.4483H193.649L195.783 71.417H198L194.586 77.4685V80.7776H192.62V77.4685L189.206 71.417Z" fill="#333333"/>
<path d="M187.624 71.417V80.7776H185.915L181.843 74.8861H181.774V80.7776H179.795V71.417H181.532L185.572 77.304H185.655V71.417H187.624Z" fill="#333333"/>
<path d="M171.285 80.7776H169.165L172.396 71.417H174.946L178.173 80.7776H176.053L173.708 73.5561H173.635L171.285 80.7776ZM171.153 77.0983H176.162V78.6431H171.153V77.0983Z" fill="#333333"/>
<path d="M161.925 80.7776V71.417H165.618C166.328 71.417 166.932 71.5526 167.432 71.8238C167.932 72.0919 168.313 72.4652 168.575 72.9436C168.84 73.4189 168.972 73.9674 168.972 74.589C168.972 75.2106 168.838 75.7591 168.57 76.2344C168.302 76.7098 167.914 77.08 167.405 77.3451C166.899 77.6102 166.286 77.7427 165.567 77.7427H163.213V76.1567H165.247C165.628 76.1567 165.942 76.0912 166.189 75.9602C166.439 75.8261 166.625 75.6418 166.747 75.4071C166.871 75.1695 166.934 74.8968 166.934 74.589C166.934 74.2782 166.871 74.007 166.747 73.7754C166.625 73.5408 166.439 73.3595 166.189 73.2315C165.939 73.1005 165.622 73.035 165.238 73.035H163.904V80.7776H161.925Z" fill="#333333"/>
<path d="M149.652 71.417H152.093L154.671 77.7062H154.78L157.358 71.417H159.799V80.7776H157.879V74.685H157.802L155.379 80.7319H154.072L151.65 74.6621H151.572V80.7776H149.652V71.417Z" fill="#333333"/>
<path d="M147.691 76.0973C147.691 77.1181 147.498 77.9865 147.111 78.7026C146.727 79.4186 146.203 79.9656 145.538 80.3434C144.877 80.7182 144.134 80.9056 143.308 80.9056C142.476 80.9056 141.73 80.7167 141.068 80.3388C140.407 79.961 139.885 79.4141 139.501 78.698C139.117 77.9819 138.925 77.115 138.925 76.0973C138.925 75.0765 139.117 74.2081 139.501 73.4921C139.885 72.776 140.407 72.2306 141.068 71.8558C141.73 71.478 142.476 71.289 143.308 71.289C144.134 71.289 144.877 71.478 145.538 71.8558C146.203 72.2306 146.727 72.776 147.111 73.4921C147.498 74.2081 147.691 75.0765 147.691 76.0973ZM145.685 76.0973C145.685 75.4361 145.586 74.8785 145.388 74.4245C145.193 73.9705 144.917 73.6261 144.56 73.3915C144.204 73.1569 143.786 73.0396 143.308 73.0396C142.83 73.0396 142.412 73.1569 142.056 73.3915C141.699 73.6261 141.422 73.9705 141.224 74.4245C141.029 74.8785 140.931 75.4361 140.931 76.0973C140.931 76.7585 141.029 77.3161 141.224 77.7702C141.422 78.2242 141.699 78.5685 142.056 78.8031C142.412 79.0377 142.83 79.1551 143.308 79.1551C143.786 79.1551 144.204 79.0377 144.56 78.8031C144.917 78.5685 145.193 78.2242 145.388 77.7702C145.586 77.3161 145.685 76.7585 145.685 76.0973Z" fill="#333333"/>
<path d="M137.175 74.6941H135.173C135.137 74.4351 135.062 74.2051 134.949 74.004C134.836 73.7998 134.692 73.6261 134.515 73.4829C134.338 73.3397 134.134 73.23 133.902 73.1538C133.674 73.0777 133.426 73.0396 133.157 73.0396C132.673 73.0396 132.251 73.1599 131.891 73.4007C131.532 73.6383 131.253 73.9857 131.055 74.4428C130.857 74.8968 130.758 75.4483 130.758 76.0973C130.758 76.7646 130.857 77.3253 131.055 77.7793C131.256 78.2333 131.536 78.5761 131.896 78.8077C132.256 79.0393 132.671 79.1551 133.144 79.1551C133.409 79.1551 133.654 79.12 133.88 79.0499C134.108 78.9798 134.311 78.8778 134.488 78.7437C134.664 78.6066 134.811 78.4405 134.926 78.2455C135.045 78.0505 135.127 77.8281 135.173 77.5782L137.175 77.5873C137.123 78.017 136.994 78.4314 136.787 78.8305C136.582 79.2267 136.307 79.5816 135.959 79.8955C135.615 80.2063 135.204 80.4531 134.725 80.6359C134.25 80.8157 133.712 80.9056 133.112 80.9056C132.277 80.9056 131.53 80.7167 130.872 80.3388C130.217 79.961 129.699 79.4141 129.318 78.698C128.94 77.9819 128.751 77.115 128.751 76.0973C128.751 75.0765 128.943 74.2081 129.327 73.4921C129.711 72.776 130.232 72.2306 130.89 71.8558C131.549 71.478 132.289 71.289 133.112 71.289C133.654 71.289 134.157 71.3652 134.62 71.5176C135.086 71.6699 135.499 71.8924 135.859 72.1849C136.218 72.4743 136.511 72.8293 136.736 73.2498C136.965 73.6703 137.111 74.1518 137.175 74.6941Z" fill="#333333"/>
<path d="M121.591 74.1091C121.554 73.7404 121.398 73.454 121.12 73.2498C120.843 73.0457 120.467 72.9436 119.991 72.9436C119.668 72.9436 119.396 72.9893 119.173 73.0807C118.951 73.1691 118.78 73.2925 118.661 73.4509C118.545 73.6094 118.488 73.7892 118.488 73.9903C118.481 74.1579 118.517 74.3041 118.593 74.429C118.672 74.554 118.78 74.6621 118.917 74.7536C119.054 74.8419 119.213 74.9196 119.393 74.9867C119.572 75.0506 119.764 75.1055 119.968 75.1512L120.809 75.3523C121.218 75.4437 121.593 75.5656 121.934 75.718C122.275 75.8703 122.571 76.0577 122.821 76.2801C123.07 76.5026 123.264 76.7646 123.401 77.0663C123.541 77.3679 123.613 77.7138 123.616 78.1038C123.613 78.6767 123.466 79.1733 123.177 79.5938C122.891 80.0113 122.476 80.3358 121.934 80.5674C121.394 80.7959 120.744 80.9102 119.982 80.9102C119.226 80.9102 118.568 80.7944 118.008 80.5628C117.45 80.3312 117.014 79.9884 116.7 79.5344C116.39 79.0773 116.227 78.5121 116.211 77.8387H118.126C118.148 78.1526 118.238 78.4146 118.396 78.6249C118.558 78.8321 118.772 78.989 119.041 79.0956C119.312 79.1992 119.618 79.251 119.959 79.251C120.294 79.251 120.585 79.2023 120.832 79.1048C121.082 79.0073 121.276 78.8717 121.413 78.698C121.55 78.5243 121.618 78.3247 121.618 78.0992C121.618 77.889 121.556 77.7123 121.431 77.569C121.309 77.4258 121.129 77.304 120.892 77.2034C120.657 77.1028 120.369 77.0114 120.028 76.9292L119.009 76.6732C118.219 76.4812 117.596 76.1811 117.139 75.7728C116.682 75.3645 116.455 74.8145 116.458 74.1228C116.455 73.5561 116.606 73.0609 116.911 72.6374C117.218 72.2138 117.64 71.8832 118.177 71.6455C118.713 71.4079 119.322 71.289 120.005 71.289C120.7 71.289 121.306 71.4079 121.824 71.6455C122.345 71.8832 122.75 72.2138 123.04 72.6374C123.329 73.0609 123.479 73.5515 123.488 74.1091H121.591Z" fill="#333333"/>
<path d="M114.599 74.6941H112.597C112.56 74.4351 112.486 74.2051 112.373 74.004C112.26 73.7998 112.116 73.6261 111.939 73.4829C111.762 73.3397 111.558 73.23 111.326 73.1538C111.098 73.0777 110.849 73.0396 110.581 73.0396C110.097 73.0396 109.675 73.1599 109.315 73.4007C108.956 73.6383 108.677 73.9857 108.479 74.4428C108.281 74.8968 108.182 75.4483 108.182 76.0973C108.182 76.7646 108.281 77.3253 108.479 77.7793C108.68 78.2333 108.96 78.5761 109.32 78.8077C109.679 79.0393 110.095 79.1551 110.568 79.1551C110.833 79.1551 111.078 79.12 111.303 79.0499C111.532 78.9798 111.735 78.8778 111.911 78.7437C112.088 78.6066 112.234 78.4405 112.35 78.2455C112.469 78.0505 112.551 77.8281 112.597 77.5782L114.599 77.5873C114.547 78.017 114.418 78.4314 114.21 78.8305C114.006 79.2267 113.73 79.5816 113.383 79.8955C113.039 80.2063 112.627 80.4531 112.149 80.6359C111.674 80.8157 111.136 80.9056 110.536 80.9056C109.701 80.9056 108.954 80.7167 108.296 80.3388C107.641 79.961 107.123 79.4141 106.742 78.698C106.364 77.9819 106.175 77.115 106.175 76.0973C106.175 75.0765 106.367 74.2081 106.751 73.4921C107.135 72.776 107.656 72.2306 108.314 71.8558C108.972 71.478 109.713 71.289 110.536 71.289C111.078 71.289 111.581 71.3652 112.044 71.5176C112.51 71.6699 112.923 71.8924 113.283 72.1849C113.642 72.4743 113.935 72.8293 114.16 73.2498C114.389 73.6703 114.535 74.1518 114.599 74.6941Z" fill="#333333"/>
<path d="M104.216 71.417V80.7776H102.237V71.417H104.216Z" fill="#333333"/>
<path d="M89.9651 71.417H92.4058L94.9836 77.7062H95.0933L97.6711 71.417H100.112V80.7776H98.1922V74.685H98.1145L95.692 80.7319H94.3848L91.9624 74.6621H91.8847V80.7776H89.9651V71.417Z" fill="#333333"/>
<path d="M81.4554 80.7776H79.3347L82.5661 71.417H85.1165L88.3434 80.7776H86.2226L83.8779 73.5561H83.8047L81.4554 80.7776ZM81.3229 77.0983H86.3323V78.6431H81.3229V77.0983Z" fill="#333333"/>
<path d="M77.7119 71.417V80.7776H76.0025L71.9301 74.8861H71.8615V80.7776H69.8824V71.417H71.6193L75.6597 77.304H75.7419V71.417H77.7119Z" fill="#333333"/>
<path d="M59.5126 71.417H61.7293L63.8638 75.4483H63.9552L66.0897 71.417H68.3065L64.8922 77.4685V80.7776H62.9268V77.4685L59.5126 71.417Z" fill="#333333"/>
<path d="M54.0858 80.7776H50.7676V71.417H54.1133C55.0548 71.417 55.8653 71.6044 56.5448 71.9792C57.2243 72.3509 57.7469 72.8857 58.1125 73.5835C58.4812 74.2813 58.6656 75.1162 58.6656 76.0882C58.6656 77.0632 58.4812 77.9012 58.1125 78.602C57.7469 79.3028 57.2213 79.8406 56.5357 80.2154C55.8531 80.5902 55.0365 80.7776 54.0858 80.7776ZM52.7467 79.0819H54.0036C54.5886 79.0819 55.0807 78.9783 55.4799 78.7711C55.8821 78.5609 56.1838 78.2364 56.3849 77.7976C56.589 77.3558 56.6911 76.7859 56.6911 76.0882C56.6911 75.3965 56.589 74.8313 56.3849 74.3925C56.1838 73.9537 55.8836 73.6307 55.4844 73.4235C55.0853 73.2163 54.5932 73.1127 54.0081 73.1127H52.7467V79.0819Z" fill="#333333"/>
<path d="M40.7528 80.7776H37.4346V71.417H40.7803C41.7218 71.417 42.5323 71.6044 43.2118 71.9792C43.8913 72.3509 44.4139 72.8857 44.7796 73.5835C45.1483 74.2813 45.3326 75.1162 45.3326 76.0882C45.3326 77.0632 45.1483 77.9012 44.7796 78.602C44.4139 79.3028 43.8883 79.8406 43.2027 80.2154C42.5202 80.5902 41.7035 80.7776 40.7528 80.7776ZM39.4137 79.0819H40.6706C41.2556 79.0819 41.7477 78.9783 42.1469 78.7711C42.5491 78.5609 42.8508 78.2364 43.0519 77.7976C43.256 77.3558 43.3581 76.7859 43.3581 76.0882C43.3581 75.3965 43.256 74.8313 43.0519 74.3925C42.8508 73.9537 42.5506 73.6307 42.1515 73.4235C41.7523 73.2163 41.2602 73.1127 40.6751 73.1127H39.4137V79.0819Z" fill="#333333"/>
<path d="M35.3113 71.417V80.7776H33.3322V71.417H35.3113Z" fill="#333333"/>
<path d="M24.3907 80.7776V71.417H28.0838C28.7907 71.417 29.394 71.5435 29.8937 71.7964C30.3965 72.0462 30.7789 72.4012 31.0409 72.8613C31.306 73.3184 31.4386 73.8562 31.4386 74.4747C31.4386 75.0963 31.3045 75.6311 31.0364 76.079C30.7682 76.5239 30.3797 76.8652 29.8709 77.1028C29.365 77.3405 28.7526 77.4594 28.0335 77.4594H25.5608V75.8688H27.7135C28.0914 75.8688 28.4052 75.817 28.6551 75.7134C28.9049 75.6098 29.0908 75.4544 29.2127 75.2472C29.3376 75.04 29.4001 74.7825 29.4001 74.4747C29.4001 74.1639 29.3376 73.9019 29.2127 73.6886C29.0908 73.4753 28.9034 73.3138 28.6505 73.2041C28.4006 73.0914 28.0853 73.035 27.7044 73.035H26.3698V80.7776H24.3907ZM29.4458 76.5178L31.7722 80.7776H29.5875L27.3113 76.5178H29.4458Z" fill="#333333"/>
<path d="M20.3112 74.4428C20.2472 74.2203 20.1573 74.0238 20.0415 73.8531C19.9257 73.6795 19.784 73.5332 19.6164 73.4144C19.4519 73.2925 19.263 73.1995 19.0497 73.1356C18.8394 73.0716 18.6063 73.0396 18.3504 73.0396C17.872 73.0396 17.4515 73.1584 17.0889 73.3961C16.7293 73.6338 16.449 73.9796 16.2479 74.4336C16.0468 74.8846 15.9462 75.4361 15.9462 76.0882C15.9462 76.7402 16.0453 77.2948 16.2433 77.7519C16.4414 78.2089 16.7217 78.5578 17.0843 78.7985C17.4469 79.0362 17.875 79.1551 18.3686 79.1551C18.8166 79.1551 19.199 79.0758 19.5159 78.9174C19.8358 78.7559 20.0796 78.5289 20.2472 78.2364C20.4178 77.9438 20.5031 77.598 20.5031 77.1988L20.9053 77.2582H18.4921V75.7682H22.4091V76.9474C22.4091 77.7702 22.2354 78.4771 21.888 79.0682C21.5406 79.6563 21.0623 80.1103 20.4528 80.4303C19.8434 80.7471 19.1456 80.9056 18.3595 80.9056C17.4819 80.9056 16.711 80.7121 16.0468 80.3251C15.3825 79.9351 14.8645 79.3821 14.4928 78.666C14.1241 77.9469 13.9397 77.0937 13.9397 76.1065C13.9397 75.3477 14.0494 74.6713 14.2688 74.0771C14.4912 73.4799 14.802 72.9741 15.2012 72.5597C15.6004 72.1453 16.0651 71.8299 16.5953 71.6135C17.1254 71.3972 17.6998 71.289 18.3184 71.289C18.8486 71.289 19.3422 71.3667 19.7992 71.5221C20.2563 71.6745 20.6616 71.8908 21.015 72.1712C21.3715 72.4515 21.6625 72.7851 21.888 73.1721C22.1135 73.5561 22.2582 73.9796 22.3222 74.4428H20.3112Z" fill="#333333"/>
<path d="M2.12076 80.7776H0L3.23142 71.417H5.78182L9.00867 80.7776H6.88791L4.54319 73.5561H4.47006L2.12076 80.7776ZM1.98821 77.0983H6.9976V78.6431H1.98821V77.0983Z" fill="#333333"/>
</svg>
