<svg width="678" height="94" viewBox="0 0 678 94" fill="none" xmlns="http://www.w3.org/2000/svg">
<path d="M315.432 47H306.909L316.511 17.9091H327.307L336.909 47H328.386L322.023 25.9205H321.795L315.432 47ZM313.841 35.5227H329.864V41.4318H313.841V35.5227ZM366.572 27.5114C366.449 27.0095 366.254 26.5691 365.989 26.1903C365.724 25.8021 365.393 25.4754 364.995 25.2102C364.607 24.9356 364.152 24.732 363.631 24.5994C363.12 24.4574 362.557 24.3864 361.941 24.3864C360.615 24.3864 359.484 24.7036 358.546 25.3381C357.618 25.9725 356.908 26.8864 356.415 28.0795C355.933 29.2727 355.691 30.7121 355.691 32.3977C355.691 34.1023 355.923 35.5606 356.387 36.7727C356.851 37.9848 357.542 38.9129 358.461 39.5568C359.379 40.2008 360.521 40.5227 361.884 40.5227C363.087 40.5227 364.086 40.3475 364.881 39.9972C365.686 39.6468 366.288 39.1496 366.685 38.5057C367.083 37.8617 367.282 37.1042 367.282 36.233L368.646 36.375H361.998V30.75H374.896V34.7841C374.896 37.4356 374.332 39.7036 373.205 41.5881C372.088 43.4631 370.544 44.9025 368.575 45.9062C366.614 46.9006 364.365 47.3977 361.827 47.3977C358.996 47.3977 356.51 46.7964 354.37 45.5938C352.23 44.3911 350.558 42.6771 349.356 40.4517C348.163 38.2263 347.566 35.5795 347.566 32.5114C347.566 30.1061 347.931 27.9754 348.66 26.1193C349.398 24.2633 350.421 22.696 351.728 21.4176C353.035 20.1297 354.545 19.1591 356.259 18.5057C357.973 17.8428 359.81 17.5114 361.771 17.5114C363.494 17.5114 365.094 17.7576 366.572 18.25C368.058 18.733 369.37 19.4242 370.506 20.3239C371.652 21.214 372.576 22.2699 373.276 23.4915C373.977 24.7131 374.403 26.053 374.555 27.5114H366.572ZM378.578 47V17.9091H391.135C393.294 17.9091 395.183 18.3021 396.803 19.0881C398.422 19.8741 399.681 21.0057 400.581 22.483C401.481 23.9602 401.93 25.7311 401.93 27.7955C401.93 29.8788 401.466 31.6354 400.538 33.0653C399.62 34.4953 398.327 35.5748 396.661 36.304C395.003 37.0331 393.067 37.3977 390.851 37.3977H383.351V31.2614H389.26C390.188 31.2614 390.979 31.1477 391.632 30.9205C392.295 30.6837 392.802 30.3097 393.152 29.7983C393.512 29.2869 393.692 28.6193 393.692 27.7955C393.692 26.9621 393.512 26.285 393.152 25.7642C392.802 25.2339 392.295 24.8456 391.632 24.5994C390.979 24.3437 390.188 24.2159 389.26 24.2159H386.476V47H378.578ZM395.624 33.6477L402.896 47H394.317L387.214 33.6477H395.624ZM413.195 17.9091V47H405.297V17.9091H413.195ZM428.131 47H416.938V17.9091H428.017C431.009 17.9091 433.595 18.4915 435.773 19.6562C437.96 20.8116 439.646 22.4782 440.83 24.6562C442.023 26.8248 442.619 29.4242 442.619 32.4545C442.619 35.4848 442.027 38.089 440.844 40.267C439.66 42.4356 437.984 44.1023 435.815 45.267C433.647 46.4223 431.085 47 428.131 47ZM424.835 40.2955H427.847C429.286 40.2955 430.512 40.0634 431.526 39.5994C432.548 39.1354 433.325 38.3352 433.855 37.1989C434.395 36.0625 434.665 34.4811 434.665 32.4545C434.665 30.428 434.39 28.8466 433.841 27.7102C433.301 26.5739 432.506 25.7737 431.455 25.3097C430.413 24.8456 429.134 24.6136 427.619 24.6136H424.835V40.2955ZM465.435 47H454.242V17.9091H465.322C468.314 17.9091 470.899 18.4915 473.077 19.6562C475.265 20.8116 476.951 22.4782 478.134 24.6562C479.327 26.8248 479.924 29.4242 479.924 32.4545C479.924 35.4848 479.332 38.089 478.148 40.267C476.965 42.4356 475.289 44.1023 473.12 45.267C470.951 46.4223 468.39 47 465.435 47ZM462.14 40.2955H465.151C466.591 40.2955 467.817 40.0634 468.83 39.5994C469.853 39.1354 470.629 38.3352 471.16 37.1989C471.7 36.0625 471.969 34.4811 471.969 32.4545C471.969 30.428 471.695 28.8466 471.146 27.7102C470.606 26.5739 469.81 25.7737 468.759 25.3097C467.718 24.8456 466.439 24.6136 464.924 24.6136H462.14V40.2955ZM480.354 17.9091H489.161L494.842 29.7273H495.07L500.751 17.9091H509.558L498.876 37.8523V47H491.036V37.8523L480.354 17.9091ZM537.303 17.9091V47H530.712L520.201 31.7159H520.031V47H512.133V17.9091H518.837L529.178 33.1364H529.406V17.9091H537.303ZM548.596 47H540.073L549.675 17.9091H560.471L570.073 47H561.55L555.187 25.9205H554.96L548.596 47ZM547.005 35.5227H563.028V41.4318H547.005V35.5227ZM572.875 17.9091H582.705L589.466 34.3864H589.807L596.568 17.9091H606.398V47H598.67V30.1818H598.443L591.966 46.7727H587.307L580.83 30.0682H580.602V47H572.875V17.9091ZM618.038 17.9091V47H610.141V17.9091H618.038ZM648.94 28.8182H640.929C640.872 28.1553 640.721 27.554 640.474 27.0142C640.238 26.4744 639.906 26.0104 639.48 25.6222C639.063 25.2244 638.557 24.9214 637.96 24.7131C637.364 24.4953 636.687 24.3864 635.929 24.3864C634.603 24.3864 633.481 24.7083 632.562 25.3523C631.653 25.9962 630.962 26.9195 630.489 28.1222C630.025 29.3248 629.793 30.7689 629.793 32.4545C629.793 34.2348 630.029 35.7263 630.503 36.929C630.986 38.1222 631.682 39.0218 632.591 39.6278C633.5 40.2244 634.594 40.5227 635.872 40.5227C636.601 40.5227 637.255 40.4328 637.832 40.2528C638.41 40.0634 638.912 39.7936 639.338 39.4432C639.764 39.0928 640.11 38.6714 640.375 38.179C640.65 37.6771 640.834 37.1136 640.929 36.4886L648.94 36.5455C648.846 37.7765 648.5 39.0312 647.903 40.3097C647.307 41.5786 646.459 42.7528 645.361 43.8324C644.272 44.9025 642.922 45.7642 641.312 46.4176C639.703 47.071 637.832 47.3977 635.702 47.3977C633.031 47.3977 630.635 46.8248 628.514 45.679C626.402 44.5331 624.731 42.8475 623.5 40.6222C622.278 38.3968 621.668 35.6742 621.668 32.4545C621.668 29.2159 622.293 26.4886 623.543 24.2727C624.793 22.0473 626.478 20.3665 628.599 19.2301C630.721 18.0843 633.088 17.5114 635.702 17.5114C637.539 17.5114 639.229 17.7623 640.773 18.2642C642.316 18.7661 643.67 19.5 644.835 20.4659C646 21.4223 646.938 22.6013 647.648 24.0028C648.358 25.4044 648.789 27.0095 648.94 28.8182ZM668.205 27C668.129 26.053 667.774 25.3144 667.14 24.7841C666.515 24.2538 665.563 23.9886 664.285 23.9886C663.47 23.9886 662.803 24.0881 662.282 24.2869C661.771 24.4763 661.392 24.7367 661.146 25.0682C660.899 25.3996 660.772 25.7784 660.762 26.2045C660.743 26.5549 660.805 26.8722 660.947 27.1562C661.098 27.4309 661.335 27.6818 661.657 27.9091C661.979 28.1269 662.391 28.3258 662.893 28.5057C663.395 28.6856 663.991 28.8466 664.683 28.9886L667.069 29.5C668.679 29.8409 670.057 30.2907 671.202 30.8494C672.348 31.4081 673.286 32.0663 674.015 32.8239C674.744 33.572 675.279 34.4148 675.62 35.3523C675.97 36.2898 676.15 37.3125 676.16 38.4205C676.15 40.3333 675.672 41.9527 674.725 43.2784C673.778 44.6042 672.424 45.6127 670.663 46.304C668.911 46.9953 666.804 47.3409 664.342 47.3409C661.813 47.3409 659.607 46.9669 657.722 46.2188C655.847 45.4706 654.389 44.3201 653.347 42.767C652.315 41.2045 651.794 39.2064 651.785 36.7727H659.285C659.332 37.6629 659.555 38.411 659.952 39.017C660.35 39.6231 660.909 40.0824 661.629 40.3949C662.358 40.7074 663.224 40.8636 664.228 40.8636C665.071 40.8636 665.776 40.7595 666.344 40.5511C666.913 40.3428 667.344 40.054 667.637 39.6847C667.931 39.3153 668.082 38.8939 668.092 38.4205C668.082 37.9754 667.935 37.5871 667.651 37.2557C667.377 36.9148 666.922 36.6117 666.288 36.3466C665.653 36.072 664.796 35.8163 663.717 35.5795L660.819 34.9545C658.243 34.3958 656.212 33.4631 654.725 32.1562C653.248 30.84 652.514 29.0455 652.523 26.7727C652.514 24.9261 653.006 23.3116 654.001 21.929C655.004 20.5369 656.392 19.4527 658.163 18.6761C659.943 17.8996 661.984 17.5114 664.285 17.5114C666.633 17.5114 668.665 17.9044 670.379 18.6903C672.093 19.4763 673.414 20.5843 674.342 22.0142C675.279 23.4347 675.753 25.0966 675.762 27H668.205ZM322.213 73.1289H318.635C318.57 72.6661 318.437 72.255 318.235 71.8956C318.034 71.5308 317.775 71.2204 317.459 70.9645C317.143 70.7086 316.779 70.5125 316.365 70.3764C315.956 70.2403 315.513 70.1722 315.033 70.1722C314.168 70.1722 313.413 70.3873 312.771 70.8175C312.128 71.2422 311.63 71.8629 311.276 72.6797C310.922 73.491 310.745 74.4766 310.745 75.6364C310.745 76.8288 310.922 77.8307 311.276 78.642C311.636 79.4534 312.137 80.0659 312.779 80.4798C313.422 80.8936 314.165 81.1005 315.009 81.1005C315.483 81.1005 315.921 81.0379 316.324 80.9126C316.732 80.7874 317.094 80.605 317.41 80.3654C317.726 80.1204 317.987 79.8236 318.194 79.4751C318.407 79.1267 318.554 78.7292 318.635 78.2827L322.213 78.299C322.12 79.0668 321.889 79.8073 321.518 80.5206C321.154 81.2285 320.661 81.8628 320.04 82.4237C319.425 82.979 318.69 83.4201 317.835 83.7468C316.985 84.0681 316.024 84.2287 314.952 84.2287C313.46 84.2287 312.126 83.8911 310.95 83.2159C309.779 82.5407 308.853 81.5633 308.173 80.2837C307.497 79.0041 307.16 77.455 307.16 75.6364C307.16 73.8123 307.503 72.2604 308.189 70.9808C308.875 69.7012 309.806 68.7266 310.982 68.0568C312.158 67.3816 313.482 67.044 314.952 67.044C315.921 67.044 316.819 67.1802 317.647 67.4524C318.48 67.7247 319.218 68.1222 319.86 68.6449C320.503 69.1622 321.026 69.7965 321.429 70.5479C321.837 71.2994 322.098 72.1597 322.213 73.1289ZM340.12 75.6364C340.12 77.4605 339.774 79.0123 339.083 80.2919C338.397 81.5715 337.46 82.5489 336.273 83.2241C335.092 83.8938 333.763 84.2287 332.287 84.2287C330.801 84.2287 329.467 83.8911 328.285 83.2159C327.104 82.5407 326.17 81.5633 325.484 80.2837C324.798 79.0041 324.455 77.455 324.455 75.6364C324.455 73.8123 324.798 72.2604 325.484 70.9808C326.17 69.7012 327.104 68.7266 328.285 68.0568C329.467 67.3816 330.801 67.044 332.287 67.044C333.763 67.044 335.092 67.3816 336.273 68.0568C337.46 68.7266 338.397 69.7012 339.083 70.9808C339.774 72.2604 340.12 73.8123 340.12 75.6364ZM336.535 75.6364C336.535 74.4548 336.358 73.4583 336.004 72.647C335.655 71.8357 335.162 71.2204 334.525 70.8011C333.888 70.3819 333.142 70.1722 332.287 70.1722C331.433 70.1722 330.687 70.3819 330.05 70.8011C329.412 71.2204 328.917 71.8357 328.563 72.647C328.215 73.4583 328.04 74.4548 328.04 75.6364C328.04 76.8179 328.215 77.8144 328.563 78.6257C328.917 79.437 329.412 80.0523 330.05 80.4716C330.687 80.8909 331.433 81.1005 332.287 81.1005C333.142 81.1005 333.888 80.8909 334.525 80.4716C335.162 80.0523 335.655 79.437 336.004 78.6257C336.358 77.8144 336.535 76.8179 336.535 75.6364ZM342.74 67.2727H347.101L351.708 78.5114H351.904L356.511 67.2727H360.872V84H357.442V73.1126H357.303L352.974 83.9183H350.638L346.309 73.0717H346.17V84H342.74V67.2727ZM363.786 84V67.2727H370.385C371.654 67.2727 372.735 67.515 373.628 67.9996C374.521 68.4788 375.201 69.1458 375.67 70.0007C376.143 70.8501 376.38 71.8303 376.38 72.9411C376.38 74.0518 376.141 75.032 375.662 75.8814C375.182 76.7308 374.488 77.3924 373.579 77.8661C372.675 78.3398 371.58 78.5767 370.295 78.5767H366.089V75.7425H369.724C370.404 75.7425 370.965 75.6255 371.406 75.3913C371.853 75.1518 372.185 74.8223 372.403 74.4031C372.626 73.9783 372.738 73.491 372.738 72.9411C372.738 72.3857 372.626 71.901 372.403 71.4872C372.185 71.0679 371.853 70.744 371.406 70.5153C370.96 70.2811 370.393 70.1641 369.707 70.1641H367.322V84H363.786ZM379.629 84H375.839L381.614 67.2727H386.171L391.938 84H388.148L383.958 71.0952H383.827L379.629 84ZM379.392 77.4251H388.344V80.1857H379.392V77.4251ZM407.942 67.2727V84H404.887L397.61 73.4719H397.487V84H393.951V67.2727H397.055L404.275 77.7926H404.422V67.2727H407.942ZM409.884 67.2727H413.845L417.659 74.4766H417.823L421.637 67.2727H425.598L419.497 78.0866V84H415.985V78.0866L409.884 67.2727Z" fill="#F2F2F2"/>
<path d="M16.3719 71.4294C23.3397 71.4919 27.6112 69.8566 29.1834 66.5248C30.7556 63.1937 31.542 58.5365 31.542 52.552V16H46.0648V55.5127C46.0648 56.253 46.0487 56.9469 46.0184 57.5951C45.9869 58.2427 45.9727 58.9069 45.9727 59.5848C45.7878 62.4849 45.2629 65.3219 44.4005 68.0976C43.5361 70.874 42.1185 73.3727 40.145 75.5931C37.3703 78.7393 34.1473 80.6684 30.4793 81.3766C26.8093 82.0866 23.0324 82.441 19.1479 82.441C18.9624 82.441 18.7918 82.441 18.6391 82.441C18.4845 82.441 18.3454 82.441 18.223 82.441H0V71.4294H16.3719Z" fill="#F2F2F2"/>
<path d="M72.5927 55.9704C72.5927 61.5231 73.5677 65.6713 75.5202 68.4162C77.4714 71.1616 81.435 72.5341 87.4129 72.5341C93.3889 72.5341 97.3383 71.1616 99.2592 68.4162C101.18 65.6707 102.141 61.5522 102.141 56.0613V16.6185H115.955V56.3359C115.955 57.1294 115.955 57.9229 115.955 58.7152C115.955 59.5087 115.924 60.2707 115.862 61.003C115.801 63.3223 115.512 65.5946 114.994 67.8206C114.475 70.0484 113.515 72.1376 112.112 74.0896C110.16 76.775 107.644 78.7573 104.565 80.0382C101.484 81.3197 98.2985 82.1435 95.005 82.509C93.724 82.6921 92.4436 82.8133 91.1626 82.8752C89.8822 82.9352 88.6315 82.9667 87.4123 82.9667C86.253 82.9667 85.0474 82.9352 83.7986 82.8752C82.5478 82.8133 81.2829 82.6921 80.0019 82.509C76.6472 82.2047 73.4156 81.4112 70.3046 80.1297C67.1942 78.8482 64.6327 76.835 62.6203 74.0896C61.2163 72.1376 60.2722 70.049 59.7844 67.8206C59.2954 65.594 59.0215 63.3223 58.9609 61.003C58.8997 60.2713 58.8694 59.5087 58.8694 58.7152C58.8694 57.9229 58.8694 57.1591 58.8694 56.4274V16.6185H72.5915V55.9704H72.5927Z" fill="#F2F2F2"/>
<path d="M179.359 28.1861L186.927 16.6191H240.038V28.1861H218.485V82.9673H204.055V28.1861H179.359Z" fill="#F2F2F2"/>
<path d="M137.449 16.6191H122.376L144.762 49.8393L121.637 83.0601H138.102L152.902 59.9256L166.87 83.0601H182.823L137.449 16.6191Z" fill="#F2F2F2"/>
<path d="M182.04 16.6191H165.945L153.896 35.2319L161.962 46.1117L182.04 16.6191Z" fill="#F4901D"/>
<path d="M273 17L273 83" stroke="#F2F2F2" stroke-width="3"/>
</svg>
