<svg xmlns="http://www.w3.org/2000/svg" viewBox="0 0 124.49 120.95"><title>benefits</title><path d="M66.23,40.3c-5.26-7.53-11-14-19.33-18.16-3.87-1.93-12.11-5.06-14.4.69-1.35,3.39.26,7.67,1.49,10.83a35.81,35.81,0,0,0,2.64,5.25.32.32,0,0,0,.07.59l.34.1.6,1A226.59,226.59,0,0,0,50.72,59.72c4,5.33,8.33,11.2,13.78,15.19A6.72,6.72,0,0,0,70,76.41a5.33,5.33,0,0,0,4.48-3.54c1.55-5-2.44-11.25-4.84-15.35-3.6-6.15-8.06-11.69-12-17.61a1.06,1.06,0,0,0-1.28-.44.38.38,0,0,0-.2-.35,2.62,2.62,0,0,0-1.63-.39,2.88,2.88,0,0,0-1.07.45l-.34-.26c-.5-.34-1.14.37-.63.72a2.28,2.28,0,0,1,.34.29.39.39,0,0,0,.2.2c.39.45.7,1,1.1,1.41,1,1.08,2,2.22,3,3.38a105.42,105.42,0,0,1,6.5,8.93,56.79,56.79,0,0,1,5.27,9.69c.65,1.6,2.16,5.18.48,6.64a1.82,1.82,0,0,1-2,0,.2.2,0,0,0-.23-.15h-.07a18.11,18.11,0,0,1-3.38-2.69A65,65,0,0,1,56.44,59c-3.64-4.78-6.88-9.81-10.21-14.81-1.84-2.77-3.75-5.48-5.51-8.31-1-1.6-1.95-3.23-2.8-4.91-.45-.9-1.66-2.93-1.17-4a3.61,3.61,0,0,1,.62-1,5.12,5.12,0,0,0,.87.87.28.28,0,0,0,.45-.29,4.09,4.09,0,0,0-.57-1.17,4.79,4.79,0,0,1,3.74,0,8.86,8.86,0,0,0,.89,1.44.32.32,0,0,0,.58-.19,3.29,3.29,0,0,0-.11-.71,36,36,0,0,1,3.43,1.89,56.8,56.8,0,0,1,11,8.22c.68.67,1.33,1.38,2,2.1a2,2,0,0,0,.06.34.23.23,0,0,0,.34.13,94,94,0,0,1,9.15,14c2.57,4.49,5.25,8.86,8,13.23C80.72,71.48,84,77.52,85.8,84c.93,3.38,1.57,7.83-1.2,10.54-3.63,3.54-10.54,1.94-14-.82a18,18,0,0,1-1.45-1.31q0-.27.06-.57s-.07-.07-.08,0-.06.33-.08.49c-3.25-3.3-5.35-7.86-7.61-11.78-.43-.76-.87-1.52-1.33-2.27l0-.24A.08.08,0,1,0,60,78,.13.13,0,0,0,60,78a15.75,15.75,0,0,0-4.44-4.94,2.28,2.28,0,0,0-.26-.76.28.28,0,0,0,0-.27,1.6,1.6,0,0,0-2.47-.33.32.32,0,0,0,.34.51l.42-.1a7.13,7.13,0,0,1,1.82,1.07,1.21,1.21,0,0,1,0,.18.08.08,0,0,0,.15,0,20.17,20.17,0,0,1,4.22,5.84,8,8,0,0,0,1.45,5.61.23.23,0,0,0,.25.1,8.67,8.67,0,0,1,2.15,5.37,58.1,58.1,0,0,1-6.32-8.49,36.14,36.14,0,0,1-4.95-10.94s-.08,0-.08,0C53.45,79,58.6,86.42,64.09,92.31a34.32,34.32,0,0,0,9.75,7.57,17.7,17.7,0,0,0,10.75,1.22c15.52-2.57,4.14-23.4-.13-31C78.75,60,72.9,49.83,66.23,40.3ZM53.61,72.14a1.25,1.25,0,0,1,1.19.3.25.25,0,0,0,.2.06,3,3,0,0,1,.24.42A9.06,9.06,0,0,0,53.61,72.14ZM48.74,54a5,5,0,0,0,2.11-.24c1.29,1.89,2.6,3.78,4,5.64a4.31,4.31,0,0,1-2.64-.72Q50.44,56.33,48.74,54Zm1-1.9.74,1.09-.32.09a5.26,5.26,0,0,1-1.58.13l-.27,0-.22-.29c-1.82-2.53-3.63-5.09-5.38-7.69a11.74,11.74,0,0,0,3.56,1.56Zm4.42-12.41a2.43,2.43,0,0,1,.37-.16,1.74,1.74,0,0,1,1.33.33h0a1,1,0,0,0-.23,1.08C55.14,40.47,54.65,40.05,54.14,39.66ZM71.53,68.79A11,11,0,0,0,70.71,64l.06.13c1,2.23,2.2,4.93,1.91,7.45a3.61,3.61,0,0,1-3.55,3,.25.25,0,0,0,0-.47L68.22,74a.2.2,0,0,0-.08.39l.87.22s0,0,.06,0a4.6,4.6,0,0,1-.83,0c-2-.2-3.9-2.24-5.27-3.53a21.8,21.8,0,0,0,2.91-.22C68.35,72.14,71.16,72.58,71.53,68.79ZM63,68.73a14.2,14.2,0,0,0,2.09,1.59l-2.49.32c-1.44-1.37-2.81-2.8-4.14-4.29.45,0,.9-.1,1.34-.17.25,0,.23-.42,0-.39a11.88,11.88,0,0,1-1.69.07H58c-1.77-2-3.46-4.12-5.09-6.26a4.61,4.61,0,0,0,2.32.3A66.59,66.59,0,0,0,63,68.73ZM37.58,33.58a3.07,3.07,0,0,1-.54-.22,2.75,2.75,0,0,1-1.36-1.81c0-.13-.24-.09-.23.05a3.38,3.38,0,0,0,2.62,2.82c1,1.61,2,3,2.53,3.89q2.51,3.93,5.12,7.8a25.23,25.23,0,0,1-3.51-1.47c-.85-1.28-1.67-2.58-2.48-3.88a11,11,0,0,0,2.06.79c.5.12.66-.67.16-.78a14.21,14.21,0,0,1-2.87-1.08c-.75-1.26-1.49-2.53-2.2-3.82-1.76-3.25-3.49-7.49-3.09-11.26a3.72,3.72,0,0,1,.65-1.83c.53.48,1.05,1,1.55,1.49.15.16.3.33.43.5C34.32,26.68,35.77,30.39,37.58,33.58ZM84.21,96.23A3.57,3.57,0,0,0,85,97a20.8,20.8,0,0,1-2.95.45,9.91,9.91,0,0,1-1.09,0A10.94,10.94,0,0,0,84.21,96.23ZM64,90.77s0,0,0,0a7.2,7.2,0,0,0-2.42-6,.26.26,0,0,0,0-.17A10.83,10.83,0,0,1,60,79.67c.08.16.17.31.25.46,2,3.67,3.72,7.46,6.22,10.84A18.09,18.09,0,0,0,69,93.74a4.75,4.75,0,0,0,1.47,2.75,38.11,38.11,0,0,1-5-4.16C65,91.83,64.53,91.3,64,90.77Zm22.32,8.55a14,14,0,0,1-4,.92.3.3,0,0,0-.2-.54,33.79,33.79,0,0,1-5.13,0,20.7,20.7,0,0,1-4.76-2.09.21.21,0,0,0-.06-.3,5.56,5.56,0,0,1-3-3.39,15.2,15.2,0,0,0,8.5,3.74c2.7,1,6.54,1.79,8.87-.15a.36.36,0,0,0,.12-.18,4.93,4.93,0,0,0,2-1.39c.18-.18-.13-.45-.3-.26a4.83,4.83,0,0,1-1.67,1.37.32.32,0,0,0-.32-.19,8,8,0,0,0-1.2.13,3.64,3.64,0,0,1-.9-.81l.11-.06a7,7,0,0,0,3.31-5.78.19.19,0,0,0,.22,0,5.12,5.12,0,0,0,2.63-2.65,18,18,0,0,1,.48,4.63.28.28,0,0,0-.23.1c-.56.64-.77,1.46-1.44,2a4.24,4.24,0,0,1-2.61.74.2.2,0,0,0,0,.4,4.7,4.7,0,0,0,4.08-1.72A6.85,6.85,0,0,1,86.35,99.32ZM80.62,66.49c3.4,5.76,6.8,11.58,9,17.93q.24.67.45,1.38a16.1,16.1,0,0,1-2.31,4.13,24.43,24.43,0,0,0-1.38-8.24,77.09,77.09,0,0,0-8.64-17.3C72,55.27,67.31,45,60.14,36.82a8.07,8.07,0,0,0-2.65-4.43s-.09,0-.05.06a7.65,7.65,0,0,1,1.84,3,3.53,3.53,0,0,1,.13.54c-.46-.51-.93-1-1.42-1.49a52.77,52.77,0,0,0-9.48-7.09,9.61,9.61,0,0,0-4.72-4.38.12.12,0,0,0-.1.22A7.7,7.7,0,0,1,46.4,25.6a10.06,10.06,0,0,1,.59.86A21.79,21.79,0,0,0,42,24a10.22,10.22,0,0,0-3.47-2.18c-.33-.13-.57.34-.25.5a10.2,10.2,0,0,1,2.13,1.34,5.88,5.88,0,0,0-2,.11,5.26,5.26,0,0,0-1.31.51,22.32,22.32,0,0,0-2.41-1.84c1.15-1.2,3.16-1.33,5-1a28.3,28.3,0,0,1,12.09,5.43,27.7,27.7,0,0,0,3.68,5.43c.18.2.54,0,.44-.29a18.11,18.11,0,0,0-2.07-3.52,45.34,45.34,0,0,1,5.42,5.4C67.72,43.77,74,55.34,80.62,66.49Z" style="fill:#fff"/><path d="M56.66,80.31a.29.29,0,0,0,.45-.3c-.15-.69-.68-1.24-.8-2a3.26,3.26,0,0,1,.74-2.37c.17-.24-.17-.55-.36-.31a4.12,4.12,0,0,0-1,2.38A3.42,3.42,0,0,0,56.66,80.31Z" style="fill:#fff"/></svg>