<svg xmlns="http://www.w3.org/2000/svg" viewBox="0 0 124.49 120.95"><title>benefits</title><path d="M97.08,74.33c-3.33-.26-6.7-.17-10-.33-3.52-.17-7-.4-10.56-.6a157.29,157.29,0,0,0-21.27-.29c-5.45.42-10.86,1.23-16.32,1.57-4.76.29-10,.22-14.55-1.51a.39.39,0,0,0,.08-.1c1-1.44.75-3.21.82-4.92.1-2.19.14-4.39.24-6.59.22-4.69.51-9.38.8-14.07.57-9.48,1.42-19.21.61-28.7,3.63,2.83,8.62,3.44,13.08,3.82,6,.51,12,0,17.92-.47a160.33,160.33,0,0,1,19.36-.38c3.93.16,7.85.35,11.78.41,1.81,0,3.63,0,5.45-.05a18.23,18.23,0,0,0,5.41-.64.8.8,0,0,0-.21-1.57,31.15,31.15,0,0,0-5.2.17c-1.82.07-3.64.08-5.45.07-3.74,0-7.48-.21-11.22-.35a152.66,152.66,0,0,0-18.77.31,162.3,162.3,0,0,1-16.93.77c-5.12-.1-10.74-.41-15.25-3.13-.38-.23-.83.33-.48.63l.08.07c-.92,9.65-1.37,19.37-2.09,29-.36,4.69-.72,9.38-1,14.07-.13,2-.24,4.09-.32,6.14-.07,1.7-.37,3.64.5,5.14l-.62-.28a.34.34,0,0,0-.34.59c4.19,3,9.37,3.56,14.41,3.61,5.7,0,11.35-.82,17-1.33,7.06-.64,14.24-.21,21.31.21l.5,0c-.2,1.79-.3,3.55-.36,5.35s-.26,3.8-.16,5.68a22.25,22.25,0,0,0-2.63.64,34.83,34.83,0,0,1-11.14.42l-1.15-.15A5.47,5.47,0,0,0,64,86c.16-.16-.07-.38-.24-.24A6.6,6.6,0,0,1,58,87.09a.09.09,0,0,0-.12,0,7.51,7.51,0,0,1-1-.33c-.44-.19-1,.34-.55.71,2.86,2.53,7.11,2.72,10.74,2.79a25.17,25.17,0,0,0,6.24-.6l.52-.12a10.43,10.43,0,0,0-1.19,3.51c-.19,1.47-.7,4,.73,4.92a.46.46,0,0,0,.62-.16,1.18,1.18,0,0,0,.35-1,15.27,15.27,0,0,1-.09-3.17,19.4,19.4,0,0,1,.85-4.47A2.7,2.7,0,0,0,76.47,88a.87.87,0,0,0,.63-.81c0-.11,0-.23,0-.35a10.68,10.68,0,0,1,4.37-1.09,12.7,12.7,0,0,1,6.12,1.86,16.82,16.82,0,0,1,3.77,2.89A19.91,19.91,0,0,0,91.17,93c0,1.29,0,2.59,0,3.89a4.79,4.79,0,0,0,.14,2.32,17.48,17.48,0,0,1-3,1,18.55,18.55,0,0,1-2.35.38c.6-1.34.3-2.92.26-4.36a48.54,48.54,0,0,0-.34-5.12.54.54,0,0,0-1.08,0,48.53,48.53,0,0,0-.33,5.12c0,1.44-.35,3,.26,4.37a.35.35,0,0,0,0,.08c-1,0-1.92,0-2.88,0l-1.36,0c0-.35,0-.69,0-1a38.11,38.11,0,0,1,0-4.14,45.11,45.11,0,0,0-.1-8.38.26.26,0,0,0-.5,0c-.48,3-.86,5.88-1.1,8.87a18.74,18.74,0,0,0,0,4.61c-3.56-.21-7.11-.68-10.64-1.1-.63-.08-1.25-.14-1.88-.2a.67.67,0,0,0,.13-.22,20,20,0,0,0,1-8,.26.26,0,0,0-.52,0c-.33,2.61-1.16,5.1-1.59,7.67a.61.61,0,0,0,.08.45C64.15,99.12,63,99,61.81,99a18.22,18.22,0,0,1,.26-7.81A.2.2,0,0,0,61.7,91c-1.25,2.22-2,5.43-1,7.9-1.6-.08-3.21-.14-4.82-.18.43-1.54.24-3.4.43-5,.21-1.75.46-3.5.68-5.25,0-.39-.57-.45-.67-.09a46.18,46.18,0,0,0-1.18,5.18c-.24,1.57-.7,3.53-.33,5.12l-3.67-.06h-.4c.25-1.41.17-2.93.32-4.36.21-1.9.43-3.8.7-5.69.06-.43-.54-.63-.66-.19-.44,1.71-.9,3.43-1.21,5.17a16.3,16.3,0,0,0-.35,5.07c-1.4,0-2.8,0-4.2.1.2-1.12-.27-2.54-.31-3.63a37.61,37.61,0,0,1,.2-5.31c0-.36-.52-.42-.62-.09a21.41,21.41,0,0,0-.78,5.4c0,1-.14,2.68.47,3.66l-3.22.15c-2.78.12-5.78,0-8.46.92A7.83,7.83,0,0,0,32.76,98a8,8,0,0,1,1.07-3.4,7.66,7.66,0,0,1,1-1.44c-.16,2.26.25,4.67,2.17,5.46.3.12.52-.33.3-.53-.62-.58-.78-2.14-.94-3a17.43,17.43,0,0,1-.25-3.16A16.1,16.1,0,0,1,39,90.14a20.72,20.72,0,0,1,2.49-1c-.17.23-.33.48-.49.68,0,0,0,.06,0,0,.22-.22.43-.45.64-.68a5,5,0,0,0-.45.56A5.77,5.77,0,0,0,40.3,92a29.11,29.11,0,0,0-.14,5.6.86.86,0,0,0,1.71,0c-.08-2.83-.57-5.63.91-8.2a.54.54,0,0,0-.08-.65l0,0A43.11,43.11,0,0,1,55,87.43l.17.11a.4.4,0,0,0,.59-.45c-.3-1.68-1.06-3.13-1.16-4.89a10.34,10.34,0,0,1,.46-4,.34.34,0,0,0,.32.2l4.21.15a10.2,10.2,0,0,0,3.7-.19.35.35,0,0,0,0-.66,10.42,10.42,0,0,0-3.7-.19l-4.21.15a.35.35,0,0,0-.11,0,8.36,8.36,0,0,1,.4-.79c.2-.32-.29-.72-.54-.41A9.53,9.53,0,0,0,53.2,82.2a7.47,7.47,0,0,0,1.1,4.58A27.73,27.73,0,0,0,37.45,89a13.84,13.84,0,0,0-1.34.79.31.31,0,0,0-.61-.06,5,5,0,0,0-.18.62,11.93,11.93,0,0,0-3.22,3.6c-.83,1.45-2.31,5.55-.44,6.69a.46.46,0,0,0,.55-.07l.09-.1c2.84.66,5.89.31,8.79.29,3.55,0,7.1.09,10.65.13a163.86,163.86,0,0,1,17.45,1c3.47.42,7,.85,10.44,1a1.27,1.27,0,0,0,.13.19c.22.29.75.26.79-.15,1.12,0,2.23,0,3.35,0,3.13-.09,8.56-.34,9.82-3.84.18-.52-.43-.83-.84-.65l-.23.1a13.25,13.25,0,0,0,0-1.69L92.55,93c0-.4,0-.79-.06-1.18a13,13,0,0,1,1.74,3,17,17,0,0,0-.1,1.75A8.43,8.43,0,0,0,94.25,99a.23.23,0,0,0,.44,0,8.1,8.1,0,0,0,.12-2.46A9.93,9.93,0,0,1,95,97.63c.11,1,1.62,1,1.54,0a13.1,13.1,0,0,0-4.37-8.35c-.06-.47-.12-1-.17-1.43a.14.14,0,0,0-.28,0c0,.31-.06.62-.1.93A19.77,19.77,0,0,0,88,86.28c-2.8-1.49-8.1-2.84-10.8-.4,0-1.41-.12-2.84-.17-4.24-.06-2-.15-4-.38-5.92,3.09.19,6.18.4,9.27.57a87.26,87.26,0,0,0,11.2.32A1.14,1.14,0,0,0,97.08,74.33Z" style="fill:#fff"/><path d="M101.8,49.28c-.22-4.58-.59-9.15-.92-13.73s-.46-9-.85-13.54a.35.35,0,0,0-.69,0,105.58,105.58,0,0,0,.06,13c.18,4.57.42,9.15.62,13.73.18,4.33.26,8.68.13,13a127.33,127.33,0,0,1-1.4,13.5c-.16,1.2,1.57,1.76,1.87.51A65.87,65.87,0,0,0,102,62.88C102.15,58.35,102,53.81,101.8,49.28Z" style="fill:#fff"/><path d="M91.86,63.84h-.4c0-5.69-.34-11.37-.51-17.06-.08-3-.25-6-.27-9s.2-6.2,0-9.3a.08.08,0,0,0-.16,0c-1.67,5.57-1.3,11.91-1.3,17.67s.4,11.76.46,17.64c-9.46-.11-18.9-.82-28.35-.88A114.7,114.7,0,0,0,46,63.75a42,42,0,0,0-11.91,3c.07-2.88-.16-5.79-.1-8.67.06-3.47.23-6.92.42-10.38a151.61,151.61,0,0,0,.38-18.46c2.57,1.92,5.74,2.17,8.91,2.21A81.88,81.88,0,0,0,56.39,30.2a88.52,88.52,0,0,1,11.84-.79c2.71.14,5.41.24,8.13.16l1.73-.07,2.25.06a75.7,75.7,0,0,0,8.91.08,1.11,1.11,0,0,0,0-2.22c-1.21-.12-2.44-.15-3.68-.15,0-.15-.13-.33-.29-.26l-.67.26c-1,0-2,0-3.06,0-2.85-.06-5.7-.13-8.55-.16a104.84,104.84,0,0,0-15.24.61l-1.4.2c-2.07-.09-4.14-.21-6.22-.43-5.2-.56-10.4-1.6-15.65-1.62-.06,0-.07.11,0,.12,5.2.89,10.43,1.62,15.66,2.28.71.09,1.41.16,2.12.22-2.11.3-4.22.57-6.34.77-3.57.34-7.81.46-11.19-1l-.09-1a.15.15,0,0,0-.29,0c0,.36-.07.73-.11,1.1a.28.28,0,0,0,0,.38c-.63,6.29-1,12.66-1.42,19-.23,3.46-.44,6.91-.55,10.38a57.49,57.49,0,0,0,.11,9.82c.13.93,1.4.75,1.68,0,19.08-4.33,38.49-1.69,57.84-1.66A1.2,1.2,0,0,0,91.86,63.84Z" style="fill:#fff"/><path d="M63.25,81.71a10.79,10.79,0,0,0-3.68-.15c-1.41,0-2.81.15-4.21.25a.18.18,0,0,0,0,.35c1.4.1,2.8.22,4.21.25a10.79,10.79,0,0,0,3.68-.15A.29.29,0,0,0,63.25,81.71Z" style="fill:#fff"/><path d="M63.18,84.34a26.75,26.75,0,0,0-3,.74,6.93,6.93,0,0,1-4.69-.66.2.2,0,0,0-.2.35c2.08,1.39,6.16,1.93,8.1,0A.25.25,0,0,0,63.18,84.34Z" style="fill:#fff"/><path d="M55,70.58c9.2,0,18.51.44,27.7-.13a.2.2,0,0,0,0-.4c-9-.56-18.08-.15-27.07-.13-9.22,0-18.48-.17-27.69.31,0,0,0,0,0,0C37,70.74,46,70.57,55,70.58Z" style="fill:#fff"/><path d="M93.2,25.78a51,51,0,0,0-9.08-.08c-3.81.1-7.62.23-11.43.23-6.64,0-13.65-.25-19.93-2.64a0,0,0,0,0,0,.05,22,22,0,0,0,8.33,2.59,83.33,83.33,0,0,0,10.7.79c3.83.08,7.65,0,11.48-.12a80.66,80.66,0,0,0,10-.54A.15.15,0,0,0,93.2,25.78Z" style="fill:#fff"/><path d="M95.72,25.89a33.75,33.75,0,0,0-2.44,11,31.61,31.61,0,0,0,1,11.94.17.17,0,0,0,.33-.09c-1.86-7.19-1.72-15.84,1.2-22.75C95.85,25.88,95.75,25.83,95.72,25.89Z" style="fill:#fff"/><path d="M98.3,28.53C98.23,34.27,98,40,97.58,45.74s-1.36,11.55-2,17.34c0,.19.29.23.34.05a98.47,98.47,0,0,0,2.11-16.78c.38-5.93.47-11.88.42-17.82A.09.09,0,0,0,98.3,28.53Z" style="fill:#fff"/><path d="M26.48,54c0,.23.38.16.39-.06.18-4.66.71-9.22,1.27-13.85.52-4.24,1.09-8.72-.05-12.91a.12.12,0,0,0-.22.07C30,36.14,24.93,45.11,26.48,54Z" style="fill:#fff"/><path d="M33.21,33.75s0,0,0,0a58.33,58.33,0,0,0-2.54,12.83,69.47,69.47,0,0,0-.28,13.9.22.22,0,0,0,.45,0c.51-4.38.13-8.89.37-13.31A63.39,63.39,0,0,1,33.21,33.75Z" style="fill:#fff"/></svg>