<svg xmlns="http://www.w3.org/2000/svg" viewBox="0 0 124.49 120.95"><title>benefits</title><path d="M22.07,94.54a3.2,3.2,0,0,0-.18.52A75.41,75.41,0,0,1,33.71,97,81.57,81.57,0,0,0,43,98.43c2.22,0,4.45,0,6.67-.08a1.38,1.38,0,0,0,.5.46h1.37s.05,0,.07,0c.31-.16.6-.34.88-.52,3.38-.09,6.77,0,10.15-.08l1.6,0a85.5,85.5,0,0,0,9.24-1.51l-.21-.89a.54.54,0,0,0,.37-.49c.23-4.57,1-9.16,1.44-13.73s.78-10-1.65-14.38c-1.8-3.23-5.93-4.63-9.43-6A19.74,19.74,0,0,1,60,59.05c-.9-1.6-1.62-3.42-2.59-5,5.43-3.71,9-10.33,9.12-16a12.62,12.62,0,0,0-1.23-5.65c-1.59-5.46-7.67-9.39-14-10.18-6.6-.83-12.47,2.25-14.76,7.37-.29.37-.57.76-.84,1.15C32.18,36,34.16,43.6,37.22,48.56c.1.15.19.31.3.47a7.94,7.94,0,0,0,3.19,5,12.33,12.33,0,0,0,2.41,1.47,21.13,21.13,0,0,1-1.65,3.06A31.3,31.3,0,0,1,37.2,61.1a1.42,1.42,0,0,0-1.08.29l-.89.66c-3.45,1.64-7,3.2-9.67,5.61C17.74,74.77,22.93,85.89,22.07,94.54Zm46.05,1,.24-.14a.86.86,0,0,0,0,.17Zm2.55-28.72a8.18,8.18,0,0,1,1.86,3,12,12,0,0,0-1.82-2.44,3.73,3.73,0,0,0-.43-1Zm-1.2,19.71c0,.27-.07.54-.11.82a1,1,0,0,0-.19-.16Zm-1-7.92A18.18,18.18,0,0,1,68,82.48a1.06,1.06,0,0,0-.19-.06A16.88,16.88,0,0,0,68.48,78.61ZM65.84,90.53c.15-.28.29-.55.42-.83V90c-.14.31-.3.62-.46.92C65.81,90.82,65.82,90.67,65.84,90.53Zm-2.26-8.69c.05.25.09.5.13.75-.07-.19-.15-.37-.21-.56S63.55,81.91,63.58,81.84Zm-.2,12.35-.43,0,.19-.23.21-.05ZM63.22,67l0,0a1,1,0,0,0-.14.32,1.12,1.12,0,0,0-.09.52s0,0,0,.08a4.53,4.53,0,0,0,0,.52.57.57,0,0,0-.13.08c-.06-.16-.13-.31-.2-.46Q63,67.5,63.22,67ZM61,85.53l.06.09-.14.12A1.8,1.8,0,0,0,61,85.53ZM59.09,64.76l.41.31-.43.24A.7.7,0,0,0,59.09,64.76ZM36.71,38.51l.12.25a19.54,19.54,0,0,0,.84,4.55A16.65,16.65,0,0,1,36.71,38.51ZM42,50.18c.22.19.46.36.7.53l0,.11C42.48,50.61,42.24,50.4,42,50.18Zm4.62,45.68.06-.26a3.37,3.37,0,0,0,.53-.46c.17.26.33.51.5.75C47.35,95.88,47,95.88,46.63,95.86ZM50.77,52.3c.36-.07.72-.14,1.06-.23-.4.15-.82.29-1.24.41ZM46.27,72c.1-.56.19-1.12.3-1.68a.27.27,0,0,0,0-.09,1.12,1.12,0,0,0,.53-.39.7.7,0,0,0-.15-1c-1.29-1.15-2.32-2.21-2.35-3.89a7.14,7.14,0,0,1,1.28-3.48c.85-1.46,2-3,2.33-4.66a13.85,13.85,0,0,0,3.85-.33c.94,3,3.5,5.56,5.11,8.36A36,36,0,0,0,52,69.78a.64.64,0,0,0-.66.22c-1,1.16-.63,2.89-.64,4.26A38.65,38.65,0,0,0,51,79.85,20.83,20.83,0,0,0,51.38,82l-.09.22a.45.45,0,0,0,.32.56,8.14,8.14,0,0,0,3.68,4.87,25.41,25.41,0,0,1-2,2.39A53.23,53.23,0,0,1,50.05,95c-.55-1-1.07-2-1.68-3a8,8,0,0,0-4.31-3.75c.7-3.74,1-7.52,1.51-11.28A13.76,13.76,0,0,0,46.27,72Zm9.09,12.72c0,.12-.1.24-.14.36-.11-.12-.22-.25-.32-.38l.21-.2ZM53.2,78.49s0,0,0,.06-.13.2-.19.31l0-.26Zm-.29-.88,0-.34.22.1v.13ZM44.45,91.22c-.28-.22-.58-.44-.87-.64A3.6,3.6,0,0,1,44.45,91.22Zm-1.89-25.6a4.32,4.32,0,0,0,.16.78c-.13-.13-.26-.25-.38-.38C42.41,65.89,42.48,65.75,42.56,65.62ZM42.2,84l.13-.08c-.08.41-.16.82-.25,1.23ZM39.61,97.27H36.47l2.24-.07ZM38.26,62.39l.42-.22-.6.62A1.18,1.18,0,0,0,38.26,62.39Zm-.85,23.4c-.11-.35-.23-.69-.33-1L37,84.51a1.55,1.55,0,0,0,.48.07C37.46,85,37.43,85.38,37.41,85.79ZM36.6,69.88c.26-.42.52-.84.79-1.26-.39.88-.8,1.75-1.22,2.62l-.15.14C36.21,70.88,36.4,70.38,36.6,69.88Zm-.55,19.31c.2.47.41.93.63,1.39a4.72,4.72,0,0,1-.7-1.16A2,2,0,0,0,36.05,89.19ZM27,74.31l0,0-.06.44h-.09C27,74.59,27,74.45,27,74.31Zm-.2,20.2-.14,0,0-.35c0,.1.07.2.1.3Zm-.39-17.9.34-.06v.06c-.23.83-.45,1.66-.64,2.51C26.21,78.27,26.31,77.43,26.45,76.61Z" style="fill:#fff"/><path d="M32.49,90v-.08a.5.5,0,0,1,0,.13A.12.12,0,0,0,32.49,90Z" style="fill:#fff"/><path d="M56.27,86l0,0s0,.07,0,.11Z" style="fill:#fff"/><path d="M52.82,71.19s0-.08,0-.12h.12A1.13,1.13,0,0,0,52.82,71.19Z" style="fill:#fff"/><path d="M78.64,67.78c.08-.48.16-1,.25-1.42v-.08a.94.94,0,0,0,.45-.34.6.6,0,0,0-.13-.84c-1.09-1-2-1.87-2-3.29a6,6,0,0,1,1.09-3,13.89,13.89,0,0,0,2-4,11.59,11.59,0,0,0,3.27-.28c.8,2.56,3,4.71,4.33,7.08a30.34,30.34,0,0,0-4.42,4.19.54.54,0,0,0-.55.18c-.82,1-.54,2.45-.55,3.61a32.76,32.76,0,0,0,.27,4.74A15,15,0,0,0,83,76.25l-.09.19a.38.38,0,0,0,.28.46A6.92,6.92,0,0,0,86.27,81a20.14,20.14,0,0,1-1.66,2,41.39,41.39,0,0,1-2.78,4.17c-.46-.85-.9-1.69-1.41-2.51l-.2-.3a33.06,33.06,0,0,1-.36,5.72l1.66,0a2.09,2.09,0,0,0,.2.22,50.77,50.77,0,0,1,9.53-.68,59.1,59.1,0,0,0,10.59-2.39c.2-3.8.83-7.61,1.2-11.41.39-4,.67-8.49-1.39-12.18-1.53-2.73-5-3.92-8-5.11a16.74,16.74,0,0,1-3.43-1.74c-.77-1.36-1.37-2.9-2.19-4.23,4.6-3.13,7.61-8.74,7.72-13.51a10.57,10.57,0,0,0-1.05-4.79c-1.34-4.62-6.48-8-11.82-8.62-5.59-.7-10.57,1.91-12.5,6.24-.25.32-.49.64-.71,1-3,4.4-1.3,10.84,1.29,15,.08.14.17.27.25.4a6.75,6.75,0,0,0,2.71,4.27,10.29,10.29,0,0,0,2,1.24,18.11,18.11,0,0,1-1.4,2.59A26.7,26.7,0,0,1,71,58.55a1.19,1.19,0,0,0-.91.24l-.75.57-.75.35c4.8,2.29,7.83,7.07,9.55,12.1A11.67,11.67,0,0,0,78.64,67.78Zm5.6,4.46.18.09v.11a.65.65,0,0,0-.16.09C84.25,72.43,84.24,72.33,84.24,72.24Zm.11,1.34c0-.07,0-.14,0-.21l.18-.1v0A2.26,2.26,0,0,1,84.35,73.58Zm1.86,5.28L86,78.53l.17-.16.21.18Zm10.93,8.85.2-.12c0,.06,0,.1,0,.15ZM99.3,63.39A6.94,6.94,0,0,1,100.87,66a9.77,9.77,0,0,0-1.54-2.07,2.92,2.92,0,0,0-.36-.8Zm-1,16.69c0,.23,0,.46-.09.7a.7.7,0,0,0-.16-.14C98.12,80.46,98.2,80.27,98.28,80.08Zm-.83-6.71a15.82,15.82,0,0,1-.4,3.28l-.15-.05A15.16,15.16,0,0,0,97.45,73.37Zm-2.24,10.1.36-.7v.29l-.39.78C95.19,83.71,95.19,83.59,95.21,83.47Zm-1.92-7.36c0,.21.08.42.11.63-.06-.15-.12-.31-.17-.47Zm-.17,10.46-.35,0,.16-.2.17,0C93.11,86.44,93.11,86.5,93.12,86.57Zm-.13-23h0a1,1,0,0,0-.13.28,1,1,0,0,0-.07.43.15.15,0,0,0,0,.07c0,.15,0,.3,0,.44l-.11.07c0-.13-.11-.26-.17-.39C92.7,64.12,92.85,63.82,93,63.52Zm-3.5-1.87.35.26-.36.2A.57.57,0,0,0,89.49,61.65Zm-7-10.56a9.18,9.18,0,0,0,.91-.19c-.35.13-.7.25-1.06.35C82.34,51.19,82.4,51.15,82.44,51.09ZM70.54,39.42l.1.21a16.57,16.57,0,0,0,.71,3.85A14.35,14.35,0,0,1,70.54,39.42ZM75,49.3a6.46,6.46,0,0,0,.59.44.44.44,0,0,1,0,.1C75.43,49.67,75.23,49.49,75,49.3ZM71.7,60a.85.85,0,0,0,.15-.34l.36-.19Zm3.6,2.74.19-.35a5.18,5.18,0,0,0,.14.66Z" style="fill:#fff"/></svg>