<svg xmlns="http://www.w3.org/2000/svg" viewBox="0 0 124.49 120.95"><title>benefits</title><path d="M99.52,33.26C94.7,27.63,87,25.63,79.87,27.34a20.68,20.68,0,0,0-9.66,5.52c-2.61,2.6-6.46,7.71-5.13,11.57a1,1,0,0,0,1.59.42c2.29-1.89,3-5.38,4.91-7.72a18.55,18.55,0,0,1,6.28-5,16.53,16.53,0,0,1,14-.23c12.86,5.9,10.28,23,3.88,32.8a44,44,0,0,1-4.54,5.75c.11-.3.2-.61.29-.93,0-.14-.17-.23-.23-.1a12.11,12.11,0,0,1-2,3c-.53.51-1.07,1-1.61,1.5A27.11,27.11,0,0,1,79,78.11c-2.33.74-4.67,1.48-7,2.34-1.66.63-4.31,1.37-5,3.18a.5.5,0,0,0,.49.64,5.69,5.69,0,0,0,2.48-1,29.36,29.36,0,0,1,3.6-1.55c2.59-1,5.23-1.74,7.78-2.8l.37-.16c-6.13,4.74-12.66,9.08-18.08,14.53a5.59,5.59,0,0,0-.2-1.84.74.74,0,0,0-1.41,0c-.5,1.41-1,2.86-1.45,4.35-1.15-2.08-2.42-4.09-3.61-6.14a52.91,52.91,0,0,0-5.42-7.49,7,7,0,0,0,2.53.16c.18,0,.17-.33,0-.37-1.06-.21-2.12-.3-3.16-.54l-1.15-1.35c-2.07-2.42-4.17-4.8-6.26-7.21l.4,0c2.32-.21,4.65.23,7,.08a.26.26,0,0,0,.07-.5c-2.12-.82-4.91-.52-7.11-.19l-.76.12c-2.33-2.69-4.63-5.42-6.81-8.23l.54.23a43.13,43.13,0,0,1,6,3.78c.21.14.5-.14.35-.35C41.94,66,39.57,65,37.6,64.18c-.59-.26-1.19-.5-1.78-.72-.69-.9-1.37-1.81-2-2.73-1-1.41-2-2.89-2.95-4.43a15.86,15.86,0,0,0,5.85.8.26.26,0,0,0,0-.51,49.46,49.46,0,0,1-6.33-1.08A36.56,36.56,0,0,1,26,45.39c1.13.63,2.23,1.31,3.32,2C31.12,48.6,33,50.19,35,50.84a.35.35,0,0,0,.34-.58,26,26,0,0,0-5.57-3.59,41.44,41.44,0,0,0-3.9-1.92,21.81,21.81,0,0,1-.47-4.27,6.58,6.58,0,0,0,4.88,3.91.22.22,0,0,0,.12-.43c-2.3-.91-4.17-2.14-5-4.59h0A16,16,0,0,1,36.19,25.7a15.6,15.6,0,0,1,15.54,2.89,38.72,38.72,0,0,1,7,8.74c1.79,2.9,3.67,5.68,5.21,8.73.31.62,1.27.18,1.1-.46-2.12-8.07-5.7-16.1-12.12-21.68-5.51-4.8-14-4.6-20.36-1.84A20.42,20.42,0,0,0,20.73,38.42C19.79,46,23.6,53.75,27.55,59.9A113.64,113.64,0,0,0,38.6,74c-.12.08-.24.14-.35.22a.06.06,0,0,0,.06.11l.4-.2c2,2.27,4.09,4.51,6.12,6.76,2.92,3.21,5.57,6.85,8.71,9.83a30.79,30.79,0,0,1,6.66,9.5c.54,1.15,2.22.51,2.25-.6a24.23,24.23,0,0,1,1.07-4.82C73.65,86.07,86,80,94.91,69.9a36,36,0,0,0,8.74-19.06C104.43,45,103.49,37.92,99.52,33.26Z" style="fill:#fff"/><path d="M84.84,33a20,20,0,0,1-5.56,7.23,40.93,40.93,0,0,1-3.92,2.86c-1.12.73-2.74,1.27-3.41,2.45a.45.45,0,0,0,.38.67c1.37,0,2.64-1.16,3.75-1.89a33.18,33.18,0,0,0,4.12-3.17,14.81,14.81,0,0,0,5-8C85.22,32.94,84.93,32.78,84.84,33Z" style="fill:#fff"/><path d="M89.54,36.2A14.37,14.37,0,0,1,85,44.31a41.76,41.76,0,0,1-4,3.13c-1.08.75-2.88,1.46-3.14,2.86-.07.38.1.91.55,1,1.59.24,2.94-1.26,4.15-2.15a28.53,28.53,0,0,0,4.26-3.64A10.84,10.84,0,0,0,90,36.2C89.93,36,89.58,36,89.54,36.2Z" style="fill:#fff"/><path d="M95.75,39.33a25,25,0,0,1-6.43,12.1,43.38,43.38,0,0,1-4.8,4.39C83.05,57,80.73,58,79.81,59.76a.51.51,0,0,0,.44.76c2,.1,4-1.67,5.43-2.81a34.63,34.63,0,0,0,5.37-5.32c3.06-3.75,5.2-8.07,5.38-13C96.45,39,95.82,38.94,95.75,39.33Z" style="fill:#fff"/><path d="M80.25,66.46c-.68.39-1.44.89-1.55,1.71,0,.14-.06,0-.24.49a1.9,1.9,0,0,0-.11.85c0,.34.54.46.62.09a1.34,1.34,0,0,1,.43-.72s0,0,0,0a1,1,0,0,0,.5-.12c.74-.49,1.51-.95,2.29-1.37,2.35-1.28,4.82-2.31,7.18-3.55,4.71-2.48,9.43-6,10-11.73,0-.18-.27-.21-.31,0-1.29,5.89-7.38,9-12.39,11.35C84.55,64.41,82.31,65.27,80.25,66.46Z" style="fill:#fff"/></svg>