<svg xmlns="http://www.w3.org/2000/svg" viewBox="0 0 124.49 120.95"><title>benefits</title><path d="M103.2,68.68a141.14,141.14,0,0,1,.08-17,48.93,48.93,0,0,0-.31-9.83c-.07-.46-.15-.92-.22-1.38a14.84,14.84,0,0,0-.18-8.59,5.84,5.84,0,0,0-.76-1.47,5.37,5.37,0,0,0-1.14-2c0-.17,0-.35,0-.53a6,6,0,0,0-2.44-2.2c-1.9-1-4.22-1.14-6.29-1.5A75.84,75.84,0,0,1,82.6,22c-1.3-.4-14.72-4.54-19.6-4.53-3.17-.94-6.7,0-9.78,1.33-5.74,2.45-10.55,6.56-16.48,8.68-6.25,2.24-18,6-15.22,15,0,.71,0,1.42.05,2.13L21.66,46a53,53,0,0,0,.49,12.16.2.2,0,0,0,.16.16c-.09,8.53-1.27,17.5.17,25.91C23.54,90.47,30,93,35.23,94.9c4.44,1.64,9.13,1.73,13.69,2.85,3.95,1,8.35,3.08,12.15,4.76,3.14,3.71,11.24-1.23,14-3,3.33-2.14,6.53-4.48,9.82-6.67A127.31,127.31,0,0,1,98.94,85.1a.75.75,0,0,0,.33-.3C103.77,81.7,103.59,74,103.2,68.68Zm-1.54,7.39c-.21,3.36-1.32,5.73-3.44,7.41-3.71.85-7.17,3.08-10.37,5-3.45,2.11-7,4.3-10.23,6.72a59.64,59.64,0,0,1-6.45,4.39.51.51,0,0,0-.22,0,5.78,5.78,0,0,1-4.53-2.71c0-1.49-.08-3-.15-4.18-.39-6.62.43-13.14.34-19.75-.07-4.48-.79-9-1-13.43a45.91,45.91,0,0,1,.11-7.84l0-.15a.83.83,0,0,0,.55-1.22v0A51.2,51.2,0,0,1,70,45.54l.75-.33a.64.64,0,0,0,.38-.59,86.9,86.9,0,0,1,14.58-6.26c2.58-.92,5.14-1.89,7.63-3,1.92-.87,4.85-1.9,5.42-4.14a.32.32,0,0,0-.3-.4c-2.16-.12-4.28,1.82-6.18,2.73a101.48,101.48,0,0,1-10,3.83C77.68,39,72.89,40.8,69,43.9a35.28,35.28,0,0,0-7.79,1.56,4.4,4.4,0,0,1-1.18-.56.61.61,0,0,0-.74,0c-5.9-1.67-11.78-3.45-17.77-4.78C36.4,39,30.72,35.42,25.33,36.37c-.25,0-.18.36,0,.43,2.51,1.05,5.3,1.5,7.89,2.44S38.39,41.19,41,42c6.05,1.87,12.3,3.28,18.4,5a1,1,0,0,0,.28,0l.15.17a.53.53,0,0,0,.21.21,27.31,27.31,0,0,1,2.49,2.89,8.16,8.16,0,0,1,1.27,2.64,1.32,1.32,0,0,1,.07.32c-.48,4.69,0,9.5.43,14.16a142.12,142.12,0,0,1-.07,17.39,79.77,79.77,0,0,0,.37,8.61c.17,2.22.75,6.69-1.3,8.25a.67.67,0,0,0-.23.33c-.34,0-.69,0-1-.09a.41.41,0,0,0-.13-.1c-2.92-1.47-6-2.53-9-3.84-4-1.75-8-2.22-12.25-2.92-6.26-1-15.34-4.29-16.83-11.17-.84-3.87-.43-8.05-.28-12,.17-4.44.11-8.9.11-13.34,0-2.51-.1-5-.29-7.49,0-.76,0-1.52,0-2.28q-.07-4.2.11-8.37c.45-2.8,1.11-5,4-7,3.1-2.1,7-3,10.43-4.26,4.19-1.5,7.88-4,11.69-6.22,4.18-2.47,8-4,12.49-3.88,2,.8,4.55.76,6.67,1,4.49.5,9,2.28,13.36,3.56a123.41,123.41,0,0,0,12.89,2.83,9.38,9.38,0,0,1,1.48.38c.94,1.31,2.18,2.37,3.23,3.58l0,.05c.5,2.28,1.45,4.53.68,6.89a.63.63,0,0,0,.3.79q0,.33,0,.66a86,86,0,0,1,.9,9.21c0,5.43-.8,10.85-.52,16.28C101.39,68.2,101.9,72.11,101.66,76.07Z" style="fill:#fff"/><path d="M86.44,62.22c-.63-1.22-2.16-3-3.72-2.24-3.43,1.64-1.51,8.63,1.73,8.59a.56.56,0,0,0,.67.06.74.74,0,0,0,.21,0c1.74-.28,2.1-1.42,1.79-2.77A5.23,5.23,0,0,0,86.44,62.22Zm-4.32,1.7s0,0,0,0v0A.22.22,0,0,0,82.12,63.92Z" style="fill:#fff"/><path d="M72,56.86a.56.56,0,0,0,.66.08l0,0,.2,0a.52.52,0,0,0,.55,0,2.3,2.3,0,0,0,.93-.37,3.14,3.14,0,0,0,1-2.85,2.06,2.06,0,0,0-.46-2l-.09-.06c-.06-.14-.12-.28-.19-.41a3.27,3.27,0,0,0-2.11-1.75,2,2,0,0,0-1.83.48,3.39,3.39,0,0,0-1.32,2.49A4.55,4.55,0,0,0,70.79,56a2,2,0,0,0,.55.58,1.44,1.44,0,0,0,.6.23Zm.13-3.2a4.3,4.3,0,0,0,.75,1l-.1,0C72.38,54.36,72.1,54,72.13,53.66Z" style="fill:#fff"/><path d="M93.49,49.08a4.38,4.38,0,0,0,.63.43.31.31,0,0,0,.4-.11,3.75,3.75,0,0,0,1.16.18.86.86,0,0,0,.85-.85c0-.39,0-.8,0-1.21l0-.05a4,4,0,0,0-.27-5.2,3.06,3.06,0,0,0-.61-.53.53.53,0,0,0-.36-.23,3.16,3.16,0,0,0-.89-.32.4.4,0,0,0-.34,0,2.53,2.53,0,0,0-1.63.41c-1.85.08-2.15,2-1.68,3.64a7.19,7.19,0,0,0,1.12,2.23,4.59,4.59,0,0,0,.42.77A2.07,2.07,0,0,0,93.49,49.08Z" style="fill:#fff"/><path d="M76.3,86.77A4,4,0,0,0,76,85.49a1.76,1.76,0,0,0-1.09-1,5.42,5.42,0,0,0-.56-.6.69.69,0,0,0-.5-.17l0,0c-.3-.42-1.08-.59-1.34,0A7.58,7.58,0,0,0,72,87.15a3.68,3.68,0,0,0,2.93,4.39.77.77,0,0,0,.87-.36A4.73,4.73,0,0,0,76.16,90a2.52,2.52,0,0,0,.49-2.27A3.82,3.82,0,0,0,76.3,86.77Z" style="fill:#fff"/><path d="M96.2,73.2a2,2,0,0,0-2.38,1.25c-1.4.55-1.59,2.12-1,3.47.18,1.74,1.62,3.45,3.36,2.27h0a1.59,1.59,0,0,0,1.14-.3.94.94,0,0,0,.34-.61,2.27,2.27,0,0,0,.6-1.5,3.57,3.57,0,0,0-.59-2C97.54,74.6,97.14,73.53,96.2,73.2Z" style="fill:#fff"/><path d="M30,51.67a4.29,4.29,0,0,0,1.13-.92.55.55,0,0,0,.5,0c1.42-.8,1.75-3.12,1.35-4.54a2.22,2.22,0,0,0-2.65-1.55L30,44.39a.76.76,0,0,0-1.1.45c-.05.21-.1.44-.14.67a2,2,0,0,0-.36.92,5.1,5.1,0,0,0,.56,5A.79.79,0,0,0,30,51.67Z" style="fill:#fff"/><path d="M57.8,58.21a2.74,2.74,0,0,0,1.68-1.91l.15-.23a3.84,3.84,0,0,0,.13-2.85c0-1.87-1.06-3.66-3.29-3.17-2.62.58-2.69,4.47-1,6.18C55.69,57.42,56.4,58.72,57.8,58.21Z" style="fill:#fff"/><path d="M54.7,92.42A4.63,4.63,0,0,0,56.31,94a.81.81,0,0,0,1.1-.29A4.83,4.83,0,0,0,58,92a3.48,3.48,0,0,0,.83-2.17v-.29a5,5,0,0,0-.15-1.11,2.55,2.55,0,0,0-.57-1.07,5.73,5.73,0,0,0-1-1.61.79.79,0,0,0-1-.13,3.68,3.68,0,0,0-.71.48.28.28,0,0,0-.38.14,3.35,3.35,0,0,0-.14.38,4.13,4.13,0,0,0-.63,1,1.05,1.05,0,0,0-.3.22,3.06,3.06,0,0,0-.32,3A2.45,2.45,0,0,0,54.7,92.42Z" style="fill:#fff"/><path d="M29.18,86a5.23,5.23,0,0,0,.48.56,1,1,0,0,0,1.4,0v0c1.58-.36,1.58-4,1.44-5.06a2.79,2.79,0,0,0-.39-1.17,4.9,4.9,0,0,0-.68-1.4,1.21,1.21,0,0,0-.38-.34,2.4,2.4,0,0,0-3.39-.12c-1.55,1.29-1.18,4.28-.5,5.91A2.44,2.44,0,0,0,29.18,86Z" style="fill:#fff"/><path d="M62.35,24a6.35,6.35,0,0,0,.84-.38.52.52,0,0,0-.12-.94l-.16,0v0c.19-.49-.29-.92-.73-1a6.26,6.26,0,0,0-1.93.16,6.08,6.08,0,0,0-3.32.43c-.62.27-1.79.85-1.79,1.66a1.33,1.33,0,0,0,.22.8,1.6,1.6,0,0,0-.08.26.72.72,0,0,0,.49.87,4.63,4.63,0,0,0,1.24.32C59.24,26.84,61.11,25.74,62.35,24Z" style="fill:#fff"/><path d="M68.26,37.19h0a.5.5,0,0,0,.08-.61c-1.63-2.95-5.25,0-7.23.93a.65.65,0,0,0-.3.74,3.52,3.52,0,0,0,1.34,1.87,1.43,1.43,0,0,0,1.67.5,4.23,4.23,0,0,0,2.89-1.28,4.9,4.9,0,0,0,1.69-1,.68.68,0,0,0,.11-.85A2.18,2.18,0,0,0,68.26,37.19Zm-3.14.67c-.31.09-.62.16-.93.22l-.1,0a2.55,2.55,0,0,1,.47-.31,5.63,5.63,0,0,1,.58,0A.59.59,0,0,1,65.12,37.86Z" style="fill:#fff"/><path d="M61.65,34.34a4.08,4.08,0,0,0,1.92-1c1.33-.1,2.39-.56,2.43-1.72.07-1.88-1.93-3-3.59-2.84a4.16,4.16,0,0,0-.67.13.78.78,0,0,0-.21-.09,2,2,0,0,0-1.83.54,2.53,2.53,0,0,0-2.19,2.51.59.59,0,0,0,.08.32l0,0a.76.76,0,0,0,.12.9c1,.87,2.1,1.55,3.36,1.08A.76.76,0,0,0,61.65,34.34Z" style="fill:#fff"/></svg>