<svg xmlns="http://www.w3.org/2000/svg" viewBox="0 0 124.49 120.95"><title>benefits</title><path d="M89.08,103.55a42.67,42.67,0,0,0,.16-6.4c.05-2.45.17-4.89.31-7.33.26-4.76.64-9.51,1-14.26,0-.66.09-1.33.14-2l1.2-.27c.16,0,.12-.26,0-.27l-1.13,0c.56-8.24,1-16.81-.46-24.92a.44.44,0,0,0,.49,0c2.3-1.51,4.1-3.85,5.89-5.91a97.46,97.46,0,0,0,6.74-8.69c2.76-4.06,7.59-11.28,4.23-16.24l0,0c.16-.09.33-.18.49-.29a.19.19,0,0,0-.1-.36,18.53,18.53,0,0,0-3.68.57c-1.51.27-3,.49-4.54.76a29.11,29.11,0,0,0-8.33,2.74,40.51,40.51,0,0,0-8.26,6.13c-1.27,1.17-2.5,2.4-3.72,3.62a30.15,30.15,0,0,0-2.7,2.83.39.39,0,0,0-.23-.12c-4.59-.81-9.18-1.53-13.8-2.14-3-.5-5.92-1-8.89-1.45a145.43,145.43,0,0,0-15-1.33c-4.71-.21-9.43-.35-14.14-.27a35.81,35.81,0,0,0-5.36.47c-.8.13-1.89.22-2.21,1.1-.06.14.1.27.23.24C20,29,23.16,29.26,26,29.25c3.86,0,7.72.11,11.57.28-1.5.08-3.13,0-4.43.84a.53.53,0,0,0,.12,1c1.44.46,3,.09,4.47,0,1.85-.1,3.7-.11,5.55-.08,1.27,0,2.54.05,3.81.09a0,0,0,0,0,0,0c0,.07,0,.15,0,.22-1.28,2.42-2.77,4.71-3.94,7.21a16.16,16.16,0,0,0-1.57,5.47c-2-.68-4-1.36-6-2-3.07-1-6.2-1.79-9.28-2.76-2.75-.86-5.46-2.1-8.25-2.8-.13,0-.28.12-.19.24,1.53,2,4.36,2.95,6.64,3.87C27.58,42.11,30.93,43,34.16,44c2.88,1,5.7,2.06,8.56,3.06h0a1.47,1.47,0,0,0,.4.14l1.65.55A113.69,113.69,0,0,0,56.71,51a.7.7,0,0,0,.35-1.35c-2.17-.7-4.32-1.44-6.47-2.18a4.5,4.5,0,0,0,.13-.86,12.78,12.78,0,0,1,1.44-4.7c1.38-2.92,3.19-5.73,3.65-9,0-.29-.37-.52-.51-.21-1.39,2.86-3.57,5.3-5.15,8a25.1,25.1,0,0,0-1.36,2.78c0-.27.07-.55.12-.81a32,32,0,0,1,1-3.88,31.06,31.06,0,0,1,3.36-7.11s0,0,0,0l1,.08c3.4.26,6.79.63,10.18,1l.3,0c3.33.57,6.82,1.4,10.21,1.19a.48.48,0,0,0,.3-.12l.87.08a4.37,4.37,0,0,0-.31.61.56.56,0,0,0,.76.76,12.45,12.45,0,0,0,3.75-3.19c1.2-1.26,2.4-2.51,3.64-3.72A41.16,41.16,0,0,1,92.2,22a31.31,31.31,0,0,1,8.3-3c2-.5,4.45-.71,6.42-1.56l0,.09c1.2,2.21.5,4.87-.29,7.09a37.31,37.31,0,0,1-4.91,8.7,94.78,94.78,0,0,1-6.63,8.21,54.57,54.57,0,0,0-5,5.73c0-.13,0-.27-.07-.4a.22.22,0,0,0-.44.06c0,4.76.24,9.52.12,14.28-.1,3.92-.32,7.84-.56,11.75a40.35,40.35,0,0,0-4.61.44c-2.73.4-5.42.56-8.17.71a1.06,1.06,0,0,0-.7.31c-.08-.56-.17-1.13-.26-1.69.63-.2,1.27-.67,1.87-.9a34.92,34.92,0,0,1,4.38-1.29c2.67-.66,5.23-1.11,7.6-2.57a.25.25,0,0,0-.18-.46c-2.73.63-5.59.83-8.37,1.21a20.35,20.35,0,0,0-4.43,1.09c-.43.17-.85.35-1.27.55a28.7,28.7,0,0,0-2-6.61l.78-.43c.29-.17.11-.68-.23-.57l-.89.31-.09-.18a.33.33,0,0,0-.61.25.75.75,0,0,0,0,.16,98.53,98.53,0,0,0-11.76,5.07A38.27,38.27,0,0,0,54,72.29c-1.51,1.17-4.12,2.85-4.37,4.9a.46.46,0,0,0,.22.41c-1.42,3.11-1.88,6.73-2.67,10-.45,1.92-.87,3.85-1.38,5.76-.25.9-.52,1.79-.82,2.67a11.24,11.24,0,0,0-.83,2.62.59.59,0,0,0,.56.6c-.32.43-.6.89-.86,1.27s.15.54.37.38c1-.7,2.57-1.52,2.88-2.84a.34.34,0,0,0-.41-.41,2.48,2.48,0,0,0-.81.37A21.61,21.61,0,0,0,47,94.68a62.75,62.75,0,0,0,1.43-6.21c.65-3.56,1.38-7.18,1.78-10.78l.1,0a5.14,5.14,0,0,0,2.05-1.6,26,26,0,0,1,2.77-2.37,56.25,56.25,0,0,1,6-3.85c3.62-2.06,7.46-3.66,11.12-5.62.53,2.52,1,5,1.28,7.54a3.13,3.13,0,0,1-.25.48.47.47,0,0,0,.41.7c.4,3.26.67,6.54.9,9.87.24,3.52.45,7.05.78,10.56.25,2.6.29,5.44,1.45,7.79a3.26,3.26,0,0,0-.63.18c-.62.23-.77,1.22,0,1.39a12.24,12.24,0,0,0,2.57.08,22.35,22.35,0,0,1,3.26.32c1.91.3,3.82.8,5.68,1.27a.37.37,0,0,0,.43-.49A.63.63,0,0,0,89.08,103.55ZM48.42,37.94c-.93,2.36-2.05,5.5-1.88,8.11l-1.7-.6c.06-.74-.07-1.56,0-2.26a31.57,31.57,0,0,1,1-4.08l0-.09a3.7,3.7,0,0,0,.61,1.38.33.33,0,0,0,.62-.16,36.25,36.25,0,0,1,.06-4.42c.22-1.44.57-2.86.72-4.32a.41.41,0,0,0,0-.11c1.4.06,2.8.13,4.19.22A20.14,20.14,0,0,0,48.42,37.94Zm34,63.77a21.76,21.76,0,0,0-4.24-.66c.17-2.71-.54-5.44-.82-8.15-.35-3.53-.56-7.06-.83-10.59-.08-1.11-.18-2.23-.29-3.34a1.1,1.1,0,0,0,.44,0,80.5,80.5,0,0,1,9.79-1.19.59.59,0,0,0,0-1.17,40.82,40.82,0,0,0-10.36.16.35.35,0,0,0-.11,0c0-.24-.07-.48-.1-.72a1.22,1.22,0,0,0,.49.13C80.64,76.35,84.9,75,89.07,74c0,.54-.07,1.08-.1,1.61-.31,4.75-.68,9.5-.94,14.26q-.19,3.41-.29,6.81c-.06,2.22-.38,4.74.1,6.92a.51.51,0,0,0,.07.17A20.88,20.88,0,0,0,82.39,101.71Z" style="fill:#fff"/><path d="M17.05,36.33a26.86,26.86,0,0,1-.29-3.1,18.17,18.17,0,0,0-.8-5.1c0-.05-.12-.05-.11,0a51.47,51.47,0,0,1-.06,5.55c0,1.61-.24,3.82.83,5.15.24.32.68,0,.71-.29A8.91,8.91,0,0,0,17.05,36.33Z" style="fill:#fff"/><path d="M59.39,50.14c-3.55,2.91-6.35,7.08-8.77,11-1.27,2-2.45,4.08-3.6,6.17-1,1.8-2.49,3.8-2.62,5.9,0,.37.42.46.66.27,1.61-1.28,2.38-3.62,3.34-5.39q1.68-3.15,3.54-6.2c2.41-4,5.32-7.53,7.85-11.4C60,50.19,59.6,50,59.39,50.14Z" style="fill:#fff"/><path d="M43.44,99.36a26.21,26.21,0,0,0-.94-3.66c-.4-1.52-.69-3.08-1-4.61-.48-2.16-1-5.06-2.65-6.73a.9.9,0,0,0-.51-1.31c-4.13-1.31-8.64-.26-12.68-1.76.73-.36,1.4-1,2.13-1.37a47.29,47.29,0,0,1,5.7-2.38c2.09-.77,4.16-1.58,6.22-2.41,1.57-.64,3.44-1.2,4.64-2.45a.27.27,0,0,0-.26-.46,56,56,0,0,0-5.42,1.87c-2.24.74-4.49,1.42-6.7,2.22-1.57.57-8.68,2.56-7.61,5.09a.34.34,0,0,0,.31.18h.11a.63.63,0,0,0,.24.9c4.07,1.88,8.66,1,12.86,2.3a.91.91,0,0,0,.32,0c.3,1,.73,2,1,3a32.73,32.73,0,0,1,.93,4.15c.44,2.51.54,5.82,2.17,7.9A.67.67,0,0,0,43.44,99.36Z" style="fill:#fff"/><path d="M97.17,37.92c2.65-4.74,4.06-10,6.7-14.79a.73.73,0,0,0-.63-1.09c-1.11.05-2.25.12-3.39.21l.09-.09c.06-.07,0-.18-.1-.13l-.42.26-.6.05A.64.64,0,0,0,97.75,22l-.56.55c-4.73.65-9.3,2.15-12.24,6.21-.09.13.1.31.23.22l.71-.48-.18.17-.06.05s0,0,0,0l-.32.32a.64.64,0,0,0,.82,1c.25.06.49.14.72.22a.56.56,0,0,0,.07.61.62.62,0,0,0,.84.21l.47-.22a13.6,13.6,0,0,1,3.58,2.78c.17.17.33.35.49.54-.36.49.2,1.25.76,1,.33.46.64.94.94,1.42.49.8.77,1.6,1.63,2.05a.42.42,0,0,0,.61-.26.34.34,0,0,1,0-.1A.68.68,0,0,0,97.17,37.92Zm2-8.66c.17-.14.33-.29.49-.44-.08.21-.17.42-.26.64A.74.74,0,0,0,99.14,29.26Zm-8,1.57a0,0,0,0,0,0,0,2.44,2.44,0,0,0-.1.24c-.2-.14-.39-.26-.59-.38l.52-.28A.5.5,0,0,0,91.15,30.83ZM87.6,29.44a5.66,5.66,0,0,0-.59-.15c1.08-.78,2.12-1.62,3.18-2.43Zm7.59-4.92,0,0,.18-.32.2,0Zm-2.7,7.75L92,31.8a29.41,29.41,0,0,1,1.88-2.95.59.59,0,0,0,.14-.27l.14-.15a11.7,11.7,0,0,0,3.27-3.66,1,1,0,0,0,.06-.16l.8-.79c1.24-.12,2.48-.2,3.72-.26-.29.56-.56,1.12-.82,1.69a.64.64,0,0,0-.6,0c-3,1.61-5.15,4.42-7.51,6.82a.6.6,0,0,0-.13.63Zm2.4,2.58,0,0a.57.57,0,0,0,.74.35c.38-.16.74-.35,1.1-.54a8.54,8.54,0,0,1-1.07,1.44h0A9,9,0,0,0,94.89,34.85Z" style="fill:#fff"/><path d="M91.7,40.56a.64.64,0,0,0-.87-.88l-.52.25a.66.66,0,0,0-.51,0l0,0a3.08,3.08,0,0,0-1.91.64,2,2,0,0,0-.66,1.67l0,.09a.35.35,0,0,0,.11.46,5.73,5.73,0,0,0,.21.84c-.15.66.6,1.32,1.17.73a7.33,7.33,0,0,0,.63-.77c.37-.32.75-.63,1.11-1A6.8,6.8,0,0,0,91.7,40.56Z" style="fill:#fff"/><path d="M80.45,49a1.75,1.75,0,0,0-.9,1.66.51.51,0,0,0,.51.52c.31,0,.61,0,.92,0a.71.71,0,0,0,.89,0L82,51a2.35,2.35,0,0,0,.37-.14,9.79,9.79,0,0,0,2.46-2.08.62.62,0,0,0-.28-1c-1-.39-2.59-1.25-3.58-.48A2,2,0,0,0,80.45,49Z" style="fill:#fff"/><path d="M71.76,57.8a.56.56,0,0,0-.05.08.33.33,0,0,0,.45.45l.09-.06a4.89,4.89,0,0,0,2.6.06,8.64,8.64,0,0,0,2.65-2.17A.67.67,0,0,0,77,55c-.36,0-.84-.18-1.34-.27a.75.75,0,0,0-.55-.08,1.88,1.88,0,0,0-1.18.19A1.84,1.84,0,0,0,73.21,56l-.14.14a4.51,4.51,0,0,0-1.24,1.26A.56.56,0,0,0,71.76,57.8Z" style="fill:#fff"/><path d="M66.79,60.42a7.68,7.68,0,0,0-4.39,2.13.72.72,0,0,0-.16.79,5.29,5.29,0,0,0-.21.6.59.59,0,0,0,.71.71,7,7,0,0,0,4.8-3.25C67.88,60.87,67.32,60.32,66.79,60.42Z" style="fill:#fff"/><path d="M83.33,33.32a.61.61,0,0,0-.89-.67,6.35,6.35,0,0,0-2,1.47l-.42.34a.46.46,0,0,0-.17.41,7.14,7.14,0,0,0-1.06,2.6.31.31,0,0,0,.51.3,6.56,6.56,0,0,0,1.42-1.93,5.05,5.05,0,0,1,.65-.9,6.35,6.35,0,0,0,2-1.18A.29.29,0,0,0,83.33,33.32Z" style="fill:#fff"/><path d="M70.35,44.29c-.13.1-.26.19-.38.3a.49.49,0,0,0,.35.84,5.64,5.64,0,0,0,2.78-.61,9.29,9.29,0,0,0,1.75-2.28.55.55,0,0,0-.25-.79.66.66,0,0,0-.89-.37A5.36,5.36,0,0,0,72,42.69a9.51,9.51,0,0,0-1.5,1.13A.52.52,0,0,0,70.35,44.29Z" style="fill:#fff"/><path d="M63.25,52a.4.4,0,0,0,.47.15,4.4,4.4,0,0,0,.93-.44c0,.23.33.42.51.19a3.25,3.25,0,0,0,.43-.68c.69-.37,1.34-.82,2-1.29a.68.68,0,0,0-.33-1.27,6.22,6.22,0,0,0-1,.06.34.34,0,0,0-.4.07,1.68,1.68,0,0,0-1.06.69l-.06.11a8.57,8.57,0,0,0-2,1.29A.66.66,0,0,0,63.25,52Z" style="fill:#fff"/><path d="M60.91,56.39h-.33a.36.36,0,0,0-.5-.31c-.21.1-.43.18-.65.26l-.54,0a5.87,5.87,0,0,0-2,1,.77.77,0,0,0-.38.62,10.28,10.28,0,0,0-.67.81.47.47,0,0,0,.08.56l1,1a.51.51,0,0,0,.61.08,16.28,16.28,0,0,0,3.9-3A.65.65,0,0,0,60.91,56.39Zm-2.44,2.16a.49.49,0,0,1-.39-.21,3.49,3.49,0,0,1,1.16-.64l.17,0C59.11,58,58.8,58.27,58.47,58.55Z" style="fill:#fff"/><path d="M51.65,63.67c-.08-.17-.35-.05-.3.12a1.68,1.68,0,0,0,.32.64l-.07.09a1.06,1.06,0,0,0,.27,1.55.45.45,0,0,0,.73-.19,1.66,1.66,0,0,0,.08-1.07l.1-.09a1.3,1.3,0,0,0,.5-.8.48.48,0,0,0-.57-.52c-.32.09-.41.42-.62.64l-.09.09A1.44,1.44,0,0,1,51.65,63.67Z" style="fill:#fff"/></svg>