<svg xmlns="http://www.w3.org/2000/svg" viewBox="0 0 124.49 120.95"><title>Untitled-1</title><path d="M53.46,69.78a.23.23,0,0,0,0-.43,37.85,37.85,0,0,0-5.64-.21,36.46,36.46,0,0,1-6.34-.75.09.09,0,1,0,0,.18,25.45,25.45,0,0,0,5.79,1.18A23.71,23.71,0,0,0,53.46,69.78Z" style="fill:#fff"/><path d="M50.68,71.93c.22,0,.27-.34.06-.38a12.77,12.77,0,0,0-8.21,1.26s0,0,0,0A14.94,14.94,0,0,1,50.68,71.93Z" style="fill:#fff"/><path d="M43.63,75a0,0,0,0,0,0,.07c2.1.15,4.48.54,6.56.15a.19.19,0,0,0,0-.37C48.11,74.42,45.73,74.81,43.63,75Z" style="fill:#fff"/><path d="M43.63,77.23a31.93,31.93,0,0,0,8.73.12.19.19,0,0,0,0-.37,32.33,32.33,0,0,0-8.73.12A.07.07,0,1,0,43.63,77.23Z" style="fill:#fff"/><path d="M44.71,81.67c1.79,0,3.65.19,5.43,0a.19.19,0,0,0,0-.38,51.78,51.78,0,0,0-5.43,0A.16.16,0,0,0,44.71,81.67Z" style="fill:#fff"/><path d="M46.88,83.87l3.51.09a9,9,0,0,0,3.06-.1.19.19,0,0,0,0-.36,9,9,0,0,0-3.06-.1l-3.51.09A.19.19,0,0,0,46.88,83.87Z" style="fill:#fff"/><path d="M51.23,87l3.25.07a.13.13,0,0,0,0-.26l-3.25.07A.06.06,0,1,0,51.23,87Z" style="fill:#fff"/><path d="M98.59,79.72c-2.54-3.41-7.87-3.67-11.67-3-.64.1-.36,1.07.27,1,3.63-.56,10.14-.14,11.18,4.36.53,2.29-1.9,4.31-3.5,5.44a29.16,29.16,0,0,1-6,3.17A70,70,0,0,1,67,95.28a100.61,100.61,0,0,1-19.47-.73c-2-.28-4-.63-6-1.1h0a0,0,0,0,0-.05,0,31.86,31.86,0,0,1-11.57-5,14.08,14.08,0,0,1-4-5c4.07-3.86,9.56-4.67,14.91-5.6a27.46,27.46,0,0,0,3.1,6.82c1.3,2,3.77,4.74,6.3,4.77a.32.32,0,0,0,.23-.54c-1-.91-2.25-1.38-3.27-2.24a13.59,13.59,0,0,1-2.86-3.5,25.31,25.31,0,0,1-2.39-5.58.57.57,0,0,0-.27-.91c-.24-.82-.46-1.65-.68-2.47-.91-3.53-1.57-7.76-3.18-11.32,4.15,4.29,11,4.64,16.54,4.7,6.76.07,14.12-.41,20.4-3.1a13.6,13.6,0,0,0,5-3.8c-.08.34-.16.68-.23,1-.83,3.68-1.24,7.44-1.79,11.17a52.3,52.3,0,0,1-1.41,7l-.15,0a.56.56,0,0,0-.18,1,23.4,23.4,0,0,1-1.13,2.8A12.3,12.3,0,0,1,71.9,87.5a7.87,7.87,0,0,1-1.81,1.17.49.49,0,0,0-.24-.14c-1-.29-2.38.37-3.41.59a32.65,32.65,0,0,1-4.91.63c-2.87.17-6.35.21-9-1a.42.42,0,0,0-.42.72c2.65,1.65,5.9,1.84,8.94,1.82a36.37,36.37,0,0,0,5.41-.48c.47-.08,1-.14,1.58-.26,2.87-.11,5.45-2.68,6.9-4.93a19.08,19.08,0,0,0,2.16-4.83,41.08,41.08,0,0,0,12.58-6c3.64-2.5,6.49-6,6.37-10.59-.09-3.44-2.91-5.52-6.14-5.72C86,58.28,82.26,60.72,80.3,64a.28.28,0,0,0,.49.29A10.23,10.23,0,0,1,89.6,59.5a5.23,5.23,0,0,1,5.25,6.37c-.67,4.41-4.08,7.07-7.67,9.25a40.12,40.12,0,0,1-9.74,4.39c.26-1,.47-2,.65-3a.46.46,0,0,0,.55,0C82.9,73.79,93,71.48,92,64.73c-.33-2.33-3-2.58-4.84-2.25a10.18,10.18,0,0,0-6.83,4.8.23.23,0,0,0,.39.23,9.65,9.65,0,0,1,6-4.08c2.57-.63,4.8.35,4.15,3.28-.58,2.58-3.76,4.19-5.86,5.33s-4.62,2.12-6.77,3.46l0-.13c.9-5.11.82-10.93,2.31-16.08A9,9,0,0,0,81.88,56c.26-.54.55-1.07.86-1.58,0,0,0-.06,0,0a7.76,7.76,0,0,0-.73.79c.14-6.39-10.1-7.73-14.67-8a65.91,65.91,0,0,0-8.66,0,10,10,0,0,0,2.54-4.52.75.75,0,0,0-.91-.91c-2.49.39-4.92,1.16-7.39,1.66l1.51-.61c2.26-.95,4.55-1.86,6.77-2.9,2.43-1.14,7.8-3.48,6.75-7-1-3.33-7.39-1.62-9.65-1.25-2.67.45-5.33,1-8,1.3a14.26,14.26,0,0,1-5.29,0C49,28,55.29,25.68,61,23.53c5.86-2.2,11.93-4.23,16.82-8.28a.74.74,0,0,0-.15-1.15c-11-6.46-22.9,2-34,3.28-.08,0-.09.13,0,.13,10.63-.15,22.08-8.2,32.34-2.7-10.15,7.36-25.21,7.37-33,18a.83.83,0,0,0,.29,1.12c3.37,1.72,8,.51,11.53-.1,2.32-.4,4.64-.87,7-1.15,1.2-.14,3.45-.57,4.48.31,2.3,2-6.27,5.78-7.21,6.2-3.38,1.53-7.54,2.56-10.48,4.9-.52.42-.07,1.3.54,1.28,3.55-.08,6.89-1.28,10.34-2a13.77,13.77,0,0,1-2.73,4,38.13,38.13,0,0,0-13.28,3.63.28.28,0,0,0-.31-.18c-3,.26-6.35,2.3-7.4,5.25a5.46,5.46,0,0,0-.1,3.36c-.2-.23-.4-.46-.62-.68,0,0-.07,0-.05,0,3.39,5,3.75,11.67,5.31,17.33l.21.75c-5.48,1-10.88,2-14.9,6.08-.06-.13-.13-.25-.2-.38a.19.19,0,0,0-.35.1c0,.25.06.51.1.76l-.11.12a.29.29,0,0,0,.25.48,10.53,10.53,0,0,0,3.43,5,34.58,34.58,0,0,0,15.22,9.33,4.38,4.38,0,0,0,1.93.81A.25.25,0,0,0,46,99a61.31,61.31,0,0,0,11.24,2,1.83,1.83,0,0,0,.36.31c.18.11.36-.08.32-.26.82.06,1.63.11,2.44.14a58.24,58.24,0,0,0,14.48-1.22l0,.12c.06.15.32.25.41,0a2.47,2.47,0,0,0,.1-.29,54.39,54.39,0,0,0,5.32-1.47c5.48-1.85,12.11-5.08,15.43-10.06a.48.48,0,0,0,.07-.2C98.8,86,100.93,82.85,98.59,79.72ZM52.82,57.58c-2,1.83-3.84,3.77-5.92,5.48A15.71,15.71,0,0,1,50,58.33,18.73,18.73,0,0,1,52.82,57.58Zm17.33,1.21c.56.18,1.11.38,1.66.6A11.34,11.34,0,0,1,68.9,62.3a17.22,17.22,0,0,1,1.37-2.71A.61.61,0,0,0,70.15,58.79Zm-.94,0a17.75,17.75,0,0,1-6,4.17,19.51,19.51,0,0,1,3.7-4.31.56.56,0,0,0,.16-.69c.62.14,1.24.29,1.86.46l.61.19A.64.64,0,0,0,69.21,58.78ZM56.91,64c1.28-2.35,3-4.48,4-6.93a37.39,37.39,0,0,1,5,.61C62.89,59.81,60.3,62.59,56.91,64Zm1.92-7a91.22,91.22,0,0,1-7.24,6.38,29.83,29.83,0,0,1,3.79-6.22A34.24,34.24,0,0,1,58.83,57.05ZM51.3,60.92A27.73,27.73,0,0,0,49.47,65a.65.65,0,0,0,.39.8c-1.32-.14-2.62-.33-3.9-.58a.59.59,0,0,0,.14-.06A36.87,36.87,0,0,0,51.3,60.92Zm15,4.2a63.15,63.15,0,0,1-16,.76.44.44,0,0,0,.16-.06,43.38,43.38,0,0,0,7.41-6A37.33,37.33,0,0,0,55,64.88c-.22.52.14,1.18.77,1a18,18,0,0,0,6.07-3.29L61,63.8c-.39.52.24,1.09.76,1A14.18,14.18,0,0,0,67.57,62c-.25.64-.48,1.29-.7,2s.51,1.11,1,.76a22.11,22.11,0,0,0,4.62-3.93l0,.1c.34.69.77.84,1.25,1.34s.88-.18.54-.53a3.22,3.22,0,0,1-.59-1.38A10.45,10.45,0,0,0,76,61.61a.66.66,0,0,0,.23,0C73.45,63.67,69.84,64.54,66.32,65.12ZM40.45,53.26a3.42,3.42,0,0,0-.11,4.38s.08,0,.06,0c-3.77-6.16,10.07-8.28,13.4-8.72.56-.07,1.11-.14,1.67-.19a13.81,13.81,0,0,0-1.23,1.72.29.29,0,0,0,.45.35c.81-.72,1.69-1.45,2.53-2.23A61.92,61.92,0,0,1,67,48.6c3.6.32,7.46.8,10.65,2.63,2.42,1.39,3.35,3.62,2.11,6.2a11.05,11.05,0,0,1-2.89,3.69.74.74,0,0,0,0-.63c-1.19-2-5-3-7.13-3.6a38.19,38.19,0,0,0-10.63-1.4c-5.76,0-13.26,1.43-15.77,7.38-.18.41.39.77.6.36a9.6,9.6,0,0,1,4.27-4.12,13.37,13.37,0,0,0-3,5.41.62.62,0,0,0,.21.62c-3-.69-6.06-2.28-7.73-4.89C35.84,57.33,38,54.8,40.45,53.26ZM71.61,96.44q2.13-.28,4.32-.66a9.22,9.22,0,0,0-1.14,3,53.8,53.8,0,0,1-6.17,1,3.54,3.54,0,0,1,1.09-3s0-.07,0,0a3.77,3.77,0,0,0-1.37,3.1c-1.63.15-3.27.24-4.91.26a.11.11,0,0,0,0-.08,9,9,0,0,0-.49-1.71,9.61,9.61,0,0,0-.37-1.15A78.57,78.57,0,0,0,71.61,96.44ZM51,96.59a.23.23,0,0,0,0,.25c.32.7.59,1.42,1,2.09a2.79,2.79,0,0,0,.16.28c-.6-.1-1.19-.21-1.79-.33a.22.22,0,0,0-.15-.21A7.59,7.59,0,0,1,46.64,96C48.1,96.25,49.56,96.43,51,96.59Zm-4.88-.66a5.89,5.89,0,0,0,2.11,2.49,52.36,52.36,0,0,1-5.1-1.5l-.08-.07A4.56,4.56,0,0,1,42,95.09C43.35,95.42,44.75,95.7,46.15,95.93ZM35,92.83A46.39,46.39,0,0,0,41.4,95,4.16,4.16,0,0,0,42,96.51a42.41,42.41,0,0,1-8.75-4.46C33.87,92.34,34.44,92.6,35,92.83Zm18.15,6.54h0a3.77,3.77,0,0,1-.7-.89c-.37-.59-.63-1.23-1-1.84.92.1,1.83.18,2.74.25l2.3.14a9.38,9.38,0,0,0,.15,2.78C55.49,99.69,54.31,99.55,53.13,99.37Zm7.26.66q-1.52,0-3.06-.18a3.65,3.65,0,0,1-.28-.7A9.38,9.38,0,0,1,56.8,97c1.72.08,3.45.11,5.18.09a13.34,13.34,0,0,1,.43,1.53,3,3,0,0,0,.54,1.41C62.1,100.06,61.24,100.05,60.39,100ZM80,97.36q-2.19.73-4.44,1.26c0-.27.05-.54.09-.8a11.19,11.19,0,0,1,.65-2.11,65.06,65.06,0,0,0,9.84-2.49l-.37.68c-.12.22.23.41.33.19s.33-.69.51-1a39.76,39.76,0,0,0,5.5-2.4,27.81,27.81,0,0,1-3.57,2.73A39,39,0,0,1,80,97.36Z" style="fill:#fff"/><path d="M83.75,94.46A5.7,5.7,0,0,0,81,96.63c-.1.18.18.34.27.16a5.56,5.56,0,0,1,2.63-2.17C84,94.56,83.86,94.4,83.75,94.46Z" style="fill:#fff"/><path d="M48.83,92.44A65.08,65.08,0,0,0,59.61,94a34.06,34.06,0,0,0,11.07-.73,67.2,67.2,0,0,0,7.44-2.41c1.94-.71,4.28-1.26,5.91-2.57a.32.32,0,0,0-.23-.54c-1.86,0-3.73,1-5.47,1.66-2.26.81-4.55,1.55-6.87,2.17a37.16,37.16,0,0,1-11.11,1.14,84.55,84.55,0,0,1-10.41-1c-2.75-.45-6.21-.72-8.42-2.61a.1.1,0,0,0-.13.14C43.24,91.09,46.34,91.81,48.83,92.44Z" style="fill:#fff"/><path d="M79.9,84.49a20.93,20.93,0,0,1,1.51,2.58.26.26,0,0,0,.47-.13c.12-2.35-2.53-4.07-4.56-4.47a.13.13,0,0,0-.07.25A6.06,6.06,0,0,1,79.9,84.49Z" style="fill:#fff"/><path d="M42.54,83.55c-1.2,0-4-.31-4.53,1.17,0,.14.11.27.24.23.66-.18,1.16-.69,1.85-.88a10.48,10.48,0,0,1,2.44-.26A.13.13,0,0,0,42.54,83.55Z" style="fill:#fff"/></svg>