<svg xmlns="http://www.w3.org/2000/svg" viewBox="0 0 124.49 120.95"><title>Untitled-1</title><path d="M61.53,29.8a16.28,16.28,0,0,0-9,.41A15.82,15.82,0,0,0,45.2,36c-6,8-6.28,18.18-2.32,27.19,1.06,2.42,2.47,4.69,3.65,7.05a75.13,75.13,0,0,1,3.6,8.48c.71,2,.91,4,1.44,6.09a3.91,3.91,0,0,0,1.86,2.68.24.24,0,0,0,.12.21c2,1.09,4.3,1,6.51.64,1.26-.19,2.48-.53,3.72-.82a16,16,0,0,0,3.52-.77h0c.9,1.19,2,2.26.91,3.56a.31.31,0,0,0-.33.33v0c-1.54,1.41-4.05,1.85-6,2.08-2.85.34-10.81.36-8.65-4.54a.19.19,0,0,0-.32-.19A3,3,0,0,0,53,92c-1.36,1.9-1.79,4.31-.47,6.22-.9,3.41,2.26,5.9,5.75,6.2a10.2,10.2,0,0,0,6.16-1.69c1.23-.8,3.44-3,3.22-4.83a2.91,2.91,0,0,0,.31-.3c1.37-1.45,2.39-4.62,1.21-6.52,1.45-1.66.65-4.22-1.17-5.34a.79.79,0,0,0,0-.09A49.4,49.4,0,0,0,68.66,80a36.14,36.14,0,0,1,1.45-6.4c1.2-3.9,2.9-7.63,4.45-11.39,2.6-6.33,5.22-13.3,2.21-20A23,23,0,0,0,61.53,29.8Zm4.21,69.62a5.94,5.94,0,0,1-1.81,2.08,9.09,9.09,0,0,1-5,1.67A6.73,6.73,0,0,1,54.31,102,3.91,3.91,0,0,1,53,98.87l.07.08c1.84,1.84,4.88,2.21,7.35,2a13.3,13.3,0,0,0,5.4-1.64A.52.52,0,0,1,65.74,99.42Zm2.57-5.27a4.8,4.8,0,0,1-1.4,2.74,10.5,10.5,0,0,1-6.51,2.76,9.3,9.3,0,0,1-6.33-1.22,3.38,3.38,0,0,1-1-1.1c0-.11,0-.23,0-.34s-.06-.1-.09,0l-.08.15c-.7-1.48-.33-3.4.08-5a4.37,4.37,0,0,0,.94.71c2.31,1.33,5.34,1.33,7.91,1.07A13.49,13.49,0,0,0,68.05,92,6.75,6.75,0,0,1,68.31,94.15ZM57.79,83.4a.5.5,0,0,1,0-.12l.14,0a3,3,0,0,1,2.14,1c.43.67-1.88,1.15-2.18,1.2a.64.64,0,0,0-.25.12A16.33,16.33,0,0,1,57.79,83.4Zm1-1.2a5.47,5.47,0,0,1,.78-2,18.69,18.69,0,0,0,1.12,2.5,3.14,3.14,0,0,0,.18.31A4.56,4.56,0,0,0,58.78,82.2Zm.57-2.61h0Zm1.16,1.16c-.07-.23-.14-.45-.22-.67,1.09.87,1.32,2.3,1.52,3.79C61.46,82.81,60.85,81.82,60.51,80.75Zm-3,6.49a1.05,1.05,0,0,0,0-.19,1.36,1.36,0,0,0,0-.2,1.74,1.74,0,0,0,.29.35Zm2.2-.33a.35.35,0,0,0,0-.23.35.35,0,0,0-.06-.09c1.05-.41,2-1.11,2-2.32,0,0,0-.08,0-.12.39.95-.21,1.81-.82,2.53ZM61,86.62a3.33,3.33,0,0,0,1-1.68,10.29,10.29,0,0,0,.3,1.3c-.43.14-.85.26-1.23.36ZM72.41,63.45a108.59,108.59,0,0,0-4.17,10.61c-1.1,3.54-2.23,8-1,11.57l-.06,0a6.28,6.28,0,0,0-3.17.15,9.34,9.34,0,0,0-1.39-5.43,4.75,4.75,0,0,0-3-2.39c-.17-.85.16-1.22.72-2s1.15-1.85.28-2.62a3.92,3.92,0,0,0-1.22-.58c-.83-.31-.5-1.6-.49-2.34a12.17,12.17,0,0,1,.53-3.84c.65-2.09-.43-2.9-2.26-3,.42-1.23,1.83-1.92,2.32-3.12S59,58,58.27,57.18c-.44-.56-.2-.55,0-1.33s.56-1.66.77-2.52c.29-1.18.4-2.82-.75-3.55a.43.43,0,0,0-.63.48,6.45,6.45,0,0,1,.38,2.18,10.33,10.33,0,0,1-.62,2.43c-.19.61-.89,2.08-.33,2.65a7.31,7.31,0,0,1,1.07,1.4c.61,1,.14,1.48-.52,2.23a5.29,5.29,0,0,0-1.63,2.92.49.49,0,0,0,.48.48c1.11,0,2.4-.13,2.11,1.31-.17.83-.51,1.6-.63,2.44a24.05,24.05,0,0,0,0,3.5c0,.85,0,1.27.85,1.61.64.26,1.73.37,1.16,1.56a12.54,12.54,0,0,1-1,1.42,1.86,1.86,0,0,0-.25,1.48.68.68,0,0,0-.29.18c-1.82,2.24-3.34,6.11-2.36,9a.56.56,0,0,0,.17.26c-.58,0-1.16,0-1.76,0a.28.28,0,0,0-.14-.09c-1.75-.39-2-2.32-2.19-3.83a22.11,22.11,0,0,0-1-4.92,81.07,81.07,0,0,0-5-11.55,40,40,0,0,1-4.29-11.22A24.63,24.63,0,0,1,42.53,44a22.92,22.92,0,0,1,6.36-10.11,13.26,13.26,0,0,1,9.41-3.16c7.12.22,14.07,5.52,17.09,11.81C78.7,49.48,75.19,57,72.41,63.45Z" style="fill:#fff"/><path d="M53,61.89a2.22,2.22,0,0,1-1.5-.12c-.33-.15-.56-.48-.95-.47a.23.23,0,0,0-.24.23c0,.54.63.77,1.07.94a2.72,2.72,0,0,0,1.78,0A.29.29,0,0,0,53,61.89Z" style="fill:#fff"/><path d="M53.17,58.38a4.93,4.93,0,0,1-.72-1,7,7,0,0,1-.55-1.29A2.45,2.45,0,0,0,51.4,55a.35.35,0,0,0-.58.15c-.3.78.38,1.81.77,2.46a6.41,6.41,0,0,0,.78,1,3.68,3.68,0,0,0,.45.43c.17.14.31.06.51.14s.24-.16.15-.27S53.35,58.56,53.17,58.38Z" style="fill:#fff"/><path d="M53.39,52A12.46,12.46,0,0,1,52.61,47a.19.19,0,0,0-.37,0,7.07,7.07,0,0,0,1.11,5.13S53.41,52.06,53.39,52Z" style="fill:#fff"/><path d="M57.36,42.34c-1.6.92-1.72,3.08-1.32,4.69.05.2.39.16.36-.05a5.64,5.64,0,0,1,.18-2.24,13.74,13.74,0,0,1,1.11-2.07A.24.24,0,0,0,57.36,42.34Z" style="fill:#fff"/><path d="M64.61,47.07a.19.19,0,0,0-.21-.27,6.1,6.1,0,0,0-1.84,1.37,17.77,17.77,0,0,0-1.93,1.95,0,0,0,0,0,0,0c.64-.54,1.34-1,2-1.52A8.45,8.45,0,0,0,64.61,47.07Z" style="fill:#fff"/><path d="M67.08,53.12c-.94-.5-2.42.29-3.31.67-.18.07-.12.36.09.3.49-.12,1-.23,1.49-.32a5,5,0,0,0,1.73-.28A.21.21,0,0,0,67.08,53.12Z" style="fill:#fff"/><path d="M65.08,58.6a3.78,3.78,0,0,1-1.33-.25c-.45-.16-.92-.14-1.19-.62,0,0,0,0,0,0a4.52,4.52,0,0,0,.76,1.12,2.69,2.69,0,0,0,1.79.53C65.59,59.43,65.6,58.61,65.08,58.6Z" style="fill:#fff"/><path d="M62,62c-.21-.1-.45.17-.26.34.75.65,1.54,1.27,2.25,2,.42.4,1.08-.26.64-.65A12.13,12.13,0,0,0,62,62Z" style="fill:#fff"/><path d="M36.8,68.15c-.93-.6-2-.19-3.08,0-1.56.3-3.14.62-4.72.79a.19.19,0,0,0-.05.37,8.93,8.93,0,0,0,3.85.21c1.23-.14,3,.06,4-.68A.4.4,0,0,0,36.8,68.15Z" style="fill:#fff"/><path d="M34.16,60a.35.35,0,0,0,0-.67c-1.24-.51-2.92-.18-4.26-.25a17.61,17.61,0,0,1-4.67-.76.09.09,0,0,0-.07.15,10.66,10.66,0,0,0,4.11,1.49C30.71,60.13,32.79,60.54,34.16,60Z" style="fill:#fff"/><path d="M26.94,46.62c1.12.75,2.18,1.59,3.27,2.37s2.06,1.74,3.32,1.51a.37.37,0,0,0,.22-.55c-.59-1-2-1.4-2.94-2A24.19,24.19,0,0,0,27.19,46C26.83,45.9,26.66,46.43,26.94,46.62Z" style="fill:#fff"/><path d="M33.12,35.38c.65.87,1.62,2.45,2.84,2.42a.32.32,0,0,0,.28-.48c-.28-.57-.87-.89-1.33-1.32a19.54,19.54,0,0,1-1.48-1.68,8.36,8.36,0,0,0-3.07-2.69c-.18-.08-.4.14-.22.29A19.72,19.72,0,0,1,33.12,35.38Z" style="fill:#fff"/><path d="M41.34,28.08a4.5,4.5,0,0,0-.75-2.84C40,24,39.32,22.78,38.68,21.55c-.12-.22-.43-.06-.39.17a18.37,18.37,0,0,0,1.13,3.53c.4,1,.59,2.22,1.38,3A.33.33,0,0,0,41.34,28.08Z" style="fill:#fff"/><path d="M49.05,23.91a.42.42,0,0,0,.49-.07c.57-.57.19-1.35.05-2.05a33.17,33.17,0,0,1-.54-3.29.43.43,0,0,0-.85,0,13.74,13.74,0,0,0,0,3.14C48.34,22.37,48.27,23.57,49.05,23.91Z" style="fill:#fff"/><path d="M59.05,23.74c.63-1,.47-2.31.59-3.44a10.68,10.68,0,0,0-.13-3.74.14.14,0,0,0-.26,0c-.35,1.34-.63,2.65-.87,4-.19,1.06-.51,2.18.07,3.16A.36.36,0,0,0,59.05,23.74Z" style="fill:#fff"/><path d="M67.28,27c1.07-.88,1.55-3,2-4.27a22.21,22.21,0,0,0,1.17-5.21c0-.33-.52-.41-.58-.08a21.49,21.49,0,0,1-1.61,4.86c-.57,1.3-1.77,3-1.7,4.39A.43.43,0,0,0,67.28,27Z" style="fill:#fff"/><path d="M80.08,22.19c-1,1.32-1.93,2.65-2.77,4.06-.72,1.21-1.9,2.83-1.87,4.27a.4.4,0,0,0,.68.29c1.07-.91,1.54-2.74,2.17-4,.75-1.46,1.41-3,2.16-4.42A.21.21,0,0,0,80.08,22.19Z" style="fill:#fff"/><path d="M86.27,28.61a14.65,14.65,0,0,0-3.1,3.59c-.64.84-1.31,1.65-2,2.47-.48.61-.83.88-.71,1.66a.43.43,0,0,0,.41.32c1.39,0,2.41-2.41,3.06-3.44a14.51,14.51,0,0,0,2.34-4.58S86.29,28.6,86.27,28.61Z" style="fill:#fff"/><path d="M87.08,41.16c.88-.92,1.85-1.76,2.76-2.64a.11.11,0,0,0,0-.18l-.17-.14.12-.07s0,0,0,0l-.13.09a.54.54,0,0,0-.22-.1.05.05,0,0,0,0,.1.22.22,0,0,0,.16.05,22.38,22.38,0,0,0-2.88,2c-.85.71-2.1,1.7-2.29,2.86,0,.29.23.56.51.39A12.18,12.18,0,0,0,87.08,41.16Z" style="fill:#fff"/><path d="M99.26,46.87a17.55,17.55,0,0,0-5.76.79c-1.2.36-4.07,1.51-3.47,3.22a.39.39,0,0,0,.46.26,3.42,3.42,0,0,0,1.34-1.08,6.76,6.76,0,0,1,2.68-1.43c1.61-.55,3.3-.73,4.8-1.56A.11.11,0,0,0,99.26,46.87Z" style="fill:#fff"/><path d="M98,58.93c-1.91-.73-4.14-.47-6.13-.22-1.16.14-4.35.62-4.42,2.19a.41.41,0,0,0,.3.39c.68.13,1.09-.33,1.71-.59a15.41,15.41,0,0,1,3-.79c1.85-.35,3.79-.16,5.56-.83A.08.08,0,0,0,98,58.93Z" style="fill:#fff"/><path d="M85.73,68.85a.29.29,0,0,0-.23.53,13.67,13.67,0,0,0,8.06,2.3,0,0,0,0,0,0,0C90.76,71.24,88.46,69.37,85.73,68.85Z" style="fill:#fff"/></svg>