<svg xmlns="http://www.w3.org/2000/svg" viewBox="0 0 124.49 120.95"><title>Untitled-1</title><path d="M115.46,37.47c-1.69-1.17-4.25-.81-6.2-1a47,47,0,0,1-4.75-.5c.91-.58,1.84-1.13,2.73-1.72a18.51,18.51,0,0,0,2.24-2.1.42.42,0,0,0-.4-.7,12.1,12.1,0,0,0-2.49.52c-1.07.53-2.07,1.14-3.08,1.76l-.59.38c.76-1.21,1.52-2.42,2.25-3.65,1-1.6,2.7-3.77,2.38-5.73a.38.38,0,0,0-.47-.26c-1.87.73-2.75,3.33-3.64,5a55.61,55.61,0,0,0-2.74,6.11c-.6.41-1.21.83-1.8,1.25.33-.93.65-1.86,1-2.79.83-2.33,2.45-4.6,2.81-7a.56.56,0,0,0-.81-.62c-2.09,1.17-2.81,3.8-3.58,5.95a29.57,29.57,0,0,0-1.49,6l-2,1.47c.43-1.15.83-2.31,1.23-3.47.63-1.79.59-3.52,1-5.34a.42.42,0,0,0-.7-.41,11.21,11.21,0,0,0-2.86,2.76,19.73,19.73,0,0,0-1.65,4.33c-.4,1.45-.66,2.92-.93,4.4,0,.2-.06.47-.1.73l-2.23,1.71C80.88,31.14,62.4,22.69,48,30,34.69,36.79,29.12,54,31.41,68c1.13,7,5.19,13.49,10.3,18.41a26,26,0,0,0,3.43,2.94c5.11,3.83,12.6,6.79,18.79,4.59a27.16,27.16,0,0,0,11.42-3.6c7.11-4.27,12.21-12.5,15.13-20.06a29.85,29.85,0,0,0-.7-23.47l2.91-2.26a1.91,1.91,0,0,0,.45.27c.42.2.53,0,.92.38a7.93,7.93,0,0,0,1.86,1.1c2.65,1.2,7,1.86,9.51.07a.51.51,0,0,0-.12-.93c-2.49-1-5.36-.54-8-1.15a25.52,25.52,0,0,1-2.69-1.23q1.6-1.23,3.21-2.43a34.15,34.15,0,0,1,6.22,1.49c2.09.69,4,1.61,6.24,1.26.45-.07.41-.66.12-.87-1.89-1.34-4.3-1.74-6.52-2.34a25.24,25.24,0,0,0-4.26-.83c1.1-.79,2.21-1.57,3.34-2.32a15.42,15.42,0,0,0,5.41,1.56c2.11.3,5.16,1.07,7.06-.23A.52.52,0,0,0,115.46,37.47ZM89.62,67.64a45.45,45.45,0,0,1-6.76,12.92,29.06,29.06,0,0,1-9.26,8.67c-5.77,3.28-13.41,3.77-20,2a29.09,29.09,0,0,1-11.15-7.76A34.24,34.24,0,0,1,35.74,73.1a42.67,42.67,0,0,1-1.78-7A37.45,37.45,0,0,1,40.8,40.79a36.6,36.6,0,0,1,9.25-6.88s0,0,0,0a23,23,0,0,0-3.72,1.27,21.84,21.84,0,0,1,15.74-4.5,36.22,36.22,0,0,1,22.8,12.17A24.83,24.83,0,0,1,87,45.76l-1.29,1c-2.62,2-5.28,4-8,5.82-2.77-7-11.56-9-18.93-7a20.4,20.4,0,0,0-11.36,7.94c-3,4.45-3.13,9.63-1,14.48.1.22.2.45.31.68a.37.37,0,0,0,.31.21c.06.14.1.28.16.41A15.64,15.64,0,0,0,58,78c12.37,2.84,21.08-10.14,20.55-21.28a13.35,13.35,0,0,0-.15-1.46c2.8-1.89,5.48-3.94,8.08-5.93L88.21,48A27,27,0,0,1,89.62,67.64ZM63,59.83l-.1.11-.09.11a3,3,0,0,0-.56,1.1l-.38.15a.79.79,0,0,0-.42.4A5.73,5.73,0,0,1,62,59.25,4.35,4.35,0,0,1,63.59,59h.15C63.49,59.27,63.25,59.55,63,59.83ZM61.65,62.6s0-.09,0-.13a.72.72,0,0,0,.24.14,2.09,2.09,0,0,1-.08.23C61.73,62.76,61.68,62.68,61.65,62.6Zm2.29,2.49A4.28,4.28,0,0,1,60.23,65a2.16,2.16,0,0,1-1.34-2.68.34.34,0,0,0,.44-.06c.62-.71.87-1.61,1.55-2.28a2.86,2.86,0,0,1,.89-.62C60.51,61.63,61.05,64.44,63.94,65.09Zm.21-.24a6.37,6.37,0,0,1-2.09-1.55.28.28,0,0,0,.24-.1c.2-.25.42-.48.64-.71l.69-.15a1.25,1.25,0,0,0,.62.11l1.8-.16a4.27,4.27,0,0,1-.45,1.25A3.62,3.62,0,0,1,64.21,65,.12.12,0,0,0,64.15,64.85Zm9.23-14.14a27.17,27.17,0,0,0-7.69,6.13c-.3.33-.61.66-.91,1l-.3-.1c-2-.49-5.49.85-5.88,3.1a3.23,3.23,0,0,0,.64,4.94,5.28,5.28,0,0,0,7.3-1.33,5,5,0,0,0,.92-2.28,28.26,28.26,0,0,1,8.23.31,1.39,1.39,0,0,0,.5,0,29.69,29.69,0,0,1-1.33,4.18c-3.22,8-11.75,12.71-19.94,8.85a14.39,14.39,0,0,1-7.41-8.38,13.41,13.41,0,0,1-.71-4A15.14,15.14,0,0,1,50,53.44a19.3,19.3,0,0,1,12.3-6.54c4.23-.56,8.93.24,11.92,3.5l.17.19A1.64,1.64,0,0,0,73.38,50.71Zm3.36,8.36a9.13,9.13,0,0,1-.9-2.12l.88-.55A17,17,0,0,1,76.74,59.07Zm-1.31-5a15.34,15.34,0,0,1,.08-1.9,9.56,9.56,0,0,1,.63,1.43Z" style="fill:#fff"/></svg>