<svg xmlns="http://www.w3.org/2000/svg" viewBox="0 0 124.49 120.95"><title>Untitled-1</title><path d="M100.87,87.79c-.33-.08-.67-.14-1-.19l.06-.22a1.27,1.27,0,0,0,1.88-1.11c0-8.86-.54-17.71-1-26.55-.26-4.46-.62-8.92-.89-13.38-.22-3.81-.32-7.66-.68-11.47q.6-.57,1.23-1.11c1-.83-.07-2.14-1.12-1.93a10.35,10.35,0,0,0-3.2-.21q-2.34,0-4.68-.06c-3.13,0-6.27-.12-9.4-.25-6.52-.27-13-.64-19.56-.88s-13.11-.59-19.66-.61c-6.17,0-12.52-.37-18.64.55,0-.08,0-.17,0-.25a.36.36,0,0,0-.71,0l0,.42a.63.63,0,0,0-.23.5l-.22-.15c-.18-.13-.38.15-.24.3l.61.6c-.54,9-.36,18.05-.17,27.05.19,9.76.4,19.53.48,29.3a1,1,0,0,0,1,1.06h0a39,39,0,0,0,8.93,1.47c3.17.26,6.34.45,9.52.5,6.56.1,13.11,0,19.66-.19,6.33-.16,12.65-.38,19-.52,3.14-.06,6.28-.1,9.42-.09s6.55.45,9.69,0C102.21,90.18,102.11,88.06,100.87,87.79Zm-7.48-2.92s0,0,0,.07a27.93,27.93,0,0,0-2.95-3.64,3.3,3.3,0,0,1,.72-1.76c.7,1.11,1.39,2.23,2.09,3.36a39.92,39.92,0,0,0,3,4.48H94.71a15,15,0,0,0-1.17-2.2,1.65,1.65,0,0,0,.07-.32C93.62,84.73,93.4,84.73,93.39,84.87ZM75.46,58.73l.78-.7c3.44-3.08,7.55-5.41,10.86-8.6A75.48,75.48,0,0,0,94.76,40a46.45,46.45,0,0,1,3.29-4c-.18,3.24-.1,6.53,0,9.75.09,4.46.19,8.92.4,13.37.36,7.34.69,14.67.79,22-.88,1.31-.9,3.34-.94,5.17A15.84,15.84,0,0,1,97.05,85c-.94-1.22-1.77-2.54-2.59-3.84a66.82,66.82,0,0,0-5.31-7.61C84.88,68.43,80.7,62.89,75.46,58.73ZM91,79.36A3.33,3.33,0,0,0,90.18,81c-.47-.5-1-1-1.42-1.46-.3-.31-.61-.6-.91-.9A10.6,10.6,0,0,1,89,76.4C89.73,77.36,90.39,78.35,91,79.36ZM37.94,32.69c.09.77.22,2,.23,2.16a7.58,7.58,0,0,0,.44,2.84.16.16,0,0,0,.3-.08,35.1,35.1,0,0,0-.55-4.33c0-.05,0-.31-.08-.58,1.31,0,2.62.08,3.92.15l.61,0a6.14,6.14,0,0,1,.44,1.2,9,9,0,0,1,0,2.59c0,.16.24.24.3.08a4.44,4.44,0,0,0-.37-3.85c3.49.17,7,.29,10.47.4l0,3.37a.09.09,0,0,0,.17,0l0-3.36,5.48.18v2.25a.08.08,0,0,0,.16,0V33.49l2.43.09c4.17.15,8.34.25,12.51.33a29.19,29.19,0,0,0-2.91,5.56c0,.05.08.09.1,0a64.13,64.13,0,0,1,3.36-5.59l5.65.09a38.67,38.67,0,0,1-2.6,3.5c-.12.13.07.32.19.19A17.78,17.78,0,0,0,81,34h.45l9.41.14,4.67.05,1,0c-.46.49-.91,1-1.35,1.52a9.55,9.55,0,0,1-4,1.83s0,0,0,0a12.58,12.58,0,0,0,3.49-1.27c-1.17,1.43-2.26,2.93-3.36,4.41a44.31,44.31,0,0,1-9,9.6c-3.68,2.76-7.11,5.67-10.56,8.71-1.18,1-2.21,2.22-3.32,3.32-.84.83-1.48.67-2.54.28a36.15,36.15,0,0,1-9.45-5.88c-3.16-2.51-6.12-5.24-9.11-7.94a117.61,117.61,0,0,0-9.43-7.66c-2.4-1.75-4.89-3.38-7.35-5a13,13,0,0,0-.66-3.8c1.37.09,2.75.16,4.12.21a6.62,6.62,0,0,0,.92,4.19.16.16,0,0,0,.28-.16,8.8,8.8,0,0,1-.95-4Zm-8.33-.36a26.87,26.87,0,0,1,.53,3.58c-1.34-.91-2.67-1.82-4-2.78-.63-.46-1.28-.9-1.93-1.34v0C26,32,27.81,32.21,29.61,32.33Zm14.2,16.15c4.09,3.73,8.08,7.78,12.51,11.18A66.82,66.82,0,0,0,51,63.79a.06.06,0,0,0-.11,0l0,0c-2.47,2.1-4.83,4.35-7.12,6.66a3,3,0,0,1-.25-.25c-.11-.09-.26.06-.16.16l.24.25-1.77,1.8c-.51.53-1,1.06-1.52,1.6a4.07,4.07,0,0,0-.61-.07.09.09,0,0,0,0,.17,3.06,3.06,0,0,1,.45.06q-2.85,3-5.57,6.17l-.31.29,0-.1a.17.17,0,0,0-.32.09A2.58,2.58,0,0,1,34,81a57.77,57.77,0,0,1-8.18,6.72c.06-9.42-.19-18.83-.46-28.25-.25-8.89-.48-17.81-1.05-26.7C30.41,38.43,37.63,42.86,43.81,48.48ZM28.66,87.6a2.68,2.68,0,0,0-1.17.5.05.05,0,1,0,.06.09,3.25,3.25,0,0,1,.93-.36l-.6.77s0,.07-.07.1c-.75,0-1.51.08-2.27.16a1,1,0,0,0,.23-.45h0a32.27,32.27,0,0,0,4.06-2.31Zm1.05,1.06.32-.41.5.41Zm52.64-1.12c-6.32.14-12.64.41-19,.66s-12.7.46-19.05.48c-3.18,0-6.35,0-9.53,0-1.24,0-2.47,0-3.69,0a4.26,4.26,0,0,0-.86-.7l2.32-2.91a1.83,1.83,0,0,1,.4,1.22c0,.21.34.21.33,0a2.1,2.1,0,0,0-.56-1.44c.62-.77,1.25-1.53,1.88-2.3a11.61,11.61,0,0,0,2.14,2.92.16.16,0,0,0,.23-.23,11.28,11.28,0,0,1-2.14-3l.22-.18c1.11-1,2.31-1.93,3.48-3l2,3c.1.15.34,0,.24-.14l-2-3a33.14,33.14,0,0,0,3.45-3.46c.39.46.74,1,1.16,1.49.13.15.34,0,.26-.2a6.05,6.05,0,0,0-1.17-1.59,18.55,18.55,0,0,0,1.34-1.89.36.36,0,0,0-.49-.49L43,73l1.4-1.47.8.82a13.65,13.65,0,0,0,1.9,1.9.16.16,0,0,0,.22-.23,13.31,13.31,0,0,0-1.71-1.73l-1-1Q45.88,70,47.2,68.68c.41.45.83.9,1.25,1.34a6.1,6.1,0,0,0,1.45,1.42.16.16,0,0,0,.22-.22,5.14,5.14,0,0,0-1.25-1.3l-1.51-1.41c1.27-1.25,2.55-2.48,3.86-3.68a7.57,7.57,0,0,0,1.45,2.37c.14.16.39-.08.23-.23a7.3,7.3,0,0,1-1.55-2.26Q54,62.27,56.76,60a45.37,45.37,0,0,0,4.81,3.17c2,1.14,4.94,3,7.3,1.76a10.52,10.52,0,0,0,2.47-2.29c1.12-1.18,2.32-2.29,3.54-3.38.74.84,1.47,1.68,2.19,2.53a.14.14,0,0,0-.09.08c-.25.47-.5.94-.78,1.39s-.79.9-1.09,1.41c-.08.14.08.32.22.23A6.65,6.65,0,0,0,77.26,62s0,0,0,0c.74.88,1.48,1.75,2.21,2.64a10.57,10.57,0,0,0-.65,3.85.17.17,0,0,0,.33,0,20.22,20.22,0,0,1,.6-3.52c1.25,1.51,2.48,3,3.72,4.54,0,.23,0,.47-.08.7a6.24,6.24,0,0,1-.81,1.94.17.17,0,0,0,.29.17,4.73,4.73,0,0,0,.9-2.44l2.67,3.29h0a5.35,5.35,0,0,1-1,2.3c0,.09.1.18.14.08a5.69,5.69,0,0,0,.89-2.32l1.32,1.61q.57.7,1.11,1.44a11.42,11.42,0,0,0-1.3,2.18c-2.85-2.73-5.95-5.21-8.62-8.12,0,0-.06,0,0,0,2.66,2.93,5.76,5.45,8.6,8.21l-.3.58c-.1.19.2.36.29.17l.23-.54.27.26c.68.67,1.39,1.39,2.09,2.13a6.42,6.42,0,0,0-.09.87c0,.21.33.21.33,0a5.82,5.82,0,0,1,0-.59,26.62,26.62,0,0,1,2.91,3.7,3.45,3.45,0,0,1-.83,1c-.1.1.05.26.15.16a4.53,4.53,0,0,0,.82-1,16.07,16.07,0,0,1,1,2c-.93,0-1.85,0-2.74,0C88.63,87.43,85.49,87.47,82.35,87.54Z" style="fill:#fff"/><path d="M48.25,36.67V33.4a.14.14,0,0,0-.28,0v3.27A.14.14,0,0,0,48.25,36.67Z" style="fill:#fff"/><path d="M64.07,38.57A15.49,15.49,0,0,0,66,33.89a.11.11,0,0,0-.22-.06A15.38,15.38,0,0,1,64,38.52C63.93,38.58,64,38.63,64.07,38.57Z" style="fill:#fff"/><path d="M86.6,38.29a8.38,8.38,0,0,0,1.47-1,6.09,6.09,0,0,0,1.38-1.44.19.19,0,0,0-.26-.26,8.34,8.34,0,0,0-1.34,1.19,6.82,6.82,0,0,1-1.5,1.1C86.07,38,86.32,38.43,86.6,38.29Z" style="fill:#fff"/></svg>