<svg xmlns="http://www.w3.org/2000/svg" viewBox="0 0 124.49 120.95"><title>Untitled-1</title><path d="M67.7,81.08c.09-.15.08-.22,0,0Z" style="fill:#fff"/><path d="M98.72,41.16a62.11,62.11,0,0,0-5-6.26c-4.6-5-10.18-9.2-17-10.26-7.51-1.15-15.39.27-22.57,2.47h0c-1.61.43-3.19.9-4.7,1.39C42.15,30.86,34.76,34.59,30,40.65a20.48,20.48,0,0,0-3.18,5.68,18.23,18.23,0,0,0-2.27,11.19c.65,4.29,3.68,7.81,6.89,10.54a19,19,0,0,0,7.83,5.35q2.19,1.23,4.46,2.28c-10,5-16.43,15.24-26.69,19.89-.61.27-.17,1.31.46,1.09q.6-.21,1.17-.45l0,0c.68.6,1.85.47,2.68.42a32.27,32.27,0,0,0,5.69-1c5.66-1.31,11.24-3,16.75-4.79s11-3.74,16.41-5.82c1.82-.69,3.63-1.41,5.41-2.19.89-.39,1.77-.77,2.09-1.76a.06.06,0,0,0,0,0,.3.3,0,0,1,0,.08.42.42,0,0,0-.35-.63l.19-.06q.54.21,1.08.39a.26.26,0,0,0,.22.32c.39,0,.78.06,1.18.07a35.44,35.44,0,0,0,12.84.28c6.75-.94,13.49-3.92,18.1-9a19.4,19.4,0,0,0,3-4.38c.39-.46.76-.93,1.12-1.43C111.29,57.82,105.85,48.27,98.72,41.16Zm6.43,13.51c-.14-.55-.29-1.09-.46-1.62a15.22,15.22,0,0,1,1,5.06A21.84,21.84,0,0,0,105.15,54.67ZM78.07,26.88c4.78,1,8.93,4,12.45,7.5-.29-.21-.58-.4-.87-.59a52.44,52.44,0,0,0-16.3-7.54A32.45,32.45,0,0,1,78.07,26.88ZM60,83.26c-5.14,2-10.35,3.84-15.58,5.6L37.91,91c8.92-3.17,17.7-6.77,26.7-9.67C63.09,82.05,61.54,82.66,60,83.26Zm6.93-2.53.07-.1h0A.52.52,0,0,0,66.91,80.73ZM20.29,95.9a.19.19,0,0,0-.12.11,2.69,2.69,0,0,1-1,0c9.86-4.24,16.11-14.12,25.87-18.69a.82.82,0,0,0,.52-.74l.31.14a.33.33,0,0,0,.33-.57c-1-.68-2-1.34-3-2a.78.78,0,0,0,0-1.49C39.34,71.29,35.9,69.75,33,66.7a20.39,20.39,0,0,1-5.14-10.37,16.8,16.8,0,0,1,1.08-9.68A30.12,30.12,0,0,1,34.15,40C39.07,35.31,45.52,32.12,52,29.87a71.2,71.2,0,0,1,8.12-1.81,33.77,33.77,0,0,1,9.88-.4,37.7,37.7,0,0,1,9.72,3A58.26,58.26,0,0,1,97.17,42.32C100.89,47.64,104,54,104,60.43a14.45,14.45,0,0,1-1.84,7c-3.27,3.71-8.23,6.25-12.5,8a69.07,69.07,0,0,1-10.52,3.32c-1.88.45-3.8.7-5.71,1-.6-.08-1.19-.17-1.78-.27-.85-.16-1.68-.37-2.51-.61a.58.58,0,0,0-.32-.1c-1.48-.45-2.93-1-4.38-1.52-.77-.28-1.05.79-.51,1.21a13.25,13.25,0,0,0,1.85,1.19C50.37,84.36,35.6,90.93,20.29,95.9ZM79.75,80A71.83,71.83,0,0,0,88.4,77.6a49.09,49.09,0,0,0,7.49-3.21,25.56,25.56,0,0,1-3.3,2.07A31.89,31.89,0,0,1,79.75,80Z" style="fill:#fff"/><path d="M48.17,50.23c-.3-2.68-2-5.07-4.69-4.68a5.3,5.3,0,0,0-5.62,2.14c-1.94,2.93-1.27,8.41,1.76,10.53l0,.12a.4.4,0,0,0,.28.27l.5.07.25.11c3.81,1.44,6.29-1.57,7.17-4.92A7.71,7.71,0,0,0,48.21,51C48.21,50.75,48.19,50.49,48.17,50.23Zm-2.63-.93a14.86,14.86,0,0,1,.1,1.63,4.78,4.78,0,0,1-1.29,3.59c.16-1.54.62-3.06.69-4.62a.48.48,0,0,0-.75-.38l.24-.73C45,48.8,45.47,48.77,45.54,49.3Zm-2.61,2.09,0,0-.07-.09c.09-.15.19-.29.28-.43Zm0,2.33c.1.36.19.72.27,1.07-.15-.19-.29-.38-.43-.58Zm.56-1.23c.1-.15.19-.31.29-.47l-.15.8C43.63,52.71,43.58,52.6,43.53,52.49Zm-1-1.63c-.25-.28-.52-.56-.81-.83,0-.26,0-.53,0-.79a3.32,3.32,0,0,1,.54-.25,4.53,4.53,0,0,1,1.51-.22C43.39,49.49,43,50.18,42.52,50.86Zm-1.14-1.14-.18-.16.18-.13Zm-.53,3.38a5.09,5.09,0,0,0-.45.31A2.7,2.7,0,0,1,40,52C40.3,52.35,40.57,52.73,40.85,53.1Zm.32.41c.23.3.47.59.72.88,0,0,0,0,0,.06a.41.41,0,0,0,0,.16,3.27,3.27,0,0,1-1.17-.77A4.59,4.59,0,0,1,41.17,53.51Zm2.73-6.64a4.44,4.44,0,0,1,1.31.69l-.35,0a.31.31,0,0,0-.55,0,7.36,7.36,0,0,0-2.63.38v-.19A5,5,0,0,1,43.9,46.87Zm-2.49,1a.41.41,0,0,1,0,.11l-.35.15Zm-1-.88a8.05,8.05,0,0,0-1.57,1.57A3.72,3.72,0,0,1,40.37,47Zm-1.15,8.95a6.89,6.89,0,0,1-.85-2,4.92,4.92,0,0,0,1,1.13A4.05,4.05,0,0,0,39.22,55.94Zm7.51-2.89A7.16,7.16,0,0,1,46,55.24a6,6,0,0,1-2.91,2.39,3.13,3.13,0,0,1-.52.16,3.65,3.65,0,0,1-1.07-.1A3.35,3.35,0,0,1,40,56.86a5.56,5.56,0,0,1-.07-1.39,5.39,5.39,0,0,0,3.74.89c1.91-.29,2.79-1.77,3.13-3.5Z" style="fill:#fff"/><path d="M64.09,61A7.08,7.08,0,0,0,72,60.08c1.59-.5,2.28-2,2.47-3.69a7.12,7.12,0,0,0,.25-3c.62-2.45-.58-4.65-3.35-5.66-.24-.09-.51-.18-.8-.26l-.56-.3a6.54,6.54,0,0,0-5.43-.26,12.28,12.28,0,0,0-1.26.2c.13-.43-.23-1-.74-.81a7.83,7.83,0,0,0-5.2,7,5.9,5.9,0,0,0,.8,3.14,4.89,4.89,0,0,0,0,1.21c.26,2.84,2.93,3.41,5.59,3.25Zm-4.31-4.87,0,.09a8.34,8.34,0,0,0,.41.92,5.67,5.67,0,0,1-.53-.66A2.58,2.58,0,0,1,59.78,56.14ZM72.6,57.55a6.84,6.84,0,0,1-.87,1.2,2.85,2.85,0,0,1-1.26.3,14,14,0,0,0,2.64-2.63v0A7.35,7.35,0,0,1,72.6,57.55ZM71,51.63a.5.5,0,0,0-.28.16c-1.27,1.25-2.68,2.33-4,3.5a19.9,19.9,0,0,1,3.14-5.85A3.59,3.59,0,0,1,71,51.63Zm-6.46,6.22a16.07,16.07,0,0,0,2.06,1.32,5.34,5.34,0,0,1-2.79-.67C64,58.26,64.27,58.05,64.51,57.85Zm-.73-.58.12.1-.11.08A1.09,1.09,0,0,1,63.78,57.27Zm2-.12a.42.42,0,0,0,.27-.12l0,0c.15,0,.31-.07.47-.09s.18-.28,0-.36c.89-.78,1.83-1.49,2.75-2.23l-1.05,2.12a.56.56,0,0,0,.87.67l.55-.54a8.12,8.12,0,0,0,.07,1,3,3,0,0,1-.4.46,3.89,3.89,0,0,1-.89.63A12.66,12.66,0,0,1,65.81,57.15Zm-.46-.55a.15.15,0,0,0,0,.07l-.13,0c-.57-.44-1.06-.87-1.44-1.21a8.65,8.65,0,0,1,3.73-6.14.25.25,0,0,0,0-.33,2.91,2.91,0,0,1,1.71.09A20.81,20.81,0,0,0,65.35,56.6Zm-2.22-1.74a12.55,12.55,0,0,1-1.25-1.56,7.63,7.63,0,0,1,.74-1.45,12.06,12.06,0,0,1,4-2.54A9.06,9.06,0,0,0,63.13,54.86ZM63,56.58A12.3,12.3,0,0,0,63.09,58a4,4,0,0,1-1.51-2.91A16.42,16.42,0,0,0,63,56.58Zm5.88,3.49a5.78,5.78,0,0,0,.7.14,5.64,5.64,0,0,1-1.77.36A11.5,11.5,0,0,0,68.88,60.07Zm3.63-8.2A12.73,12.73,0,0,1,73,53.69c.05.34.11.73.15,1.14a9.09,9.09,0,0,1-.94,1.32A8.65,8.65,0,0,0,72.51,51.87Zm-7.83-3.68a7.19,7.19,0,0,0-1,.6,4,4,0,0,1,.68-.54Zm-3.54,2.22.22-.27A7.2,7.2,0,0,0,61,51.33a2.11,2.11,0,0,1,0-.35A5.54,5.54,0,0,1,61.14,50.41Zm-2.5,2.9a5.4,5.4,0,0,1,1-3.25,3.38,3.38,0,0,0-.07,1.14,8.9,8.9,0,0,0-.28,2.28v.2c-.18.28-.34.57-.49.86A6.08,6.08,0,0,1,58.64,53.31Z" style="fill:#fff"/><path d="M87.3,64.89a3.32,3.32,0,0,0,3.19-1.32,4.78,4.78,0,0,0,.34-.42,12.16,12.16,0,0,0,1.29-.41c2.74-1.05,4.77-3.47,3.56-6.47-1.31-3.26-5.63-6.82-9.26-6.9a3.43,3.43,0,0,0-3.29,2.25,3.83,3.83,0,0,0-.28.29,7.71,7.71,0,0,0-1.73,2.18C78.84,58.32,82.31,66.08,87.3,64.89Zm-4.08-3.65.55.17.15.31A3.89,3.89,0,0,1,83.22,61.24Zm7.15-3.39,0,.21a10.26,10.26,0,0,1-1.32.26,4.29,4.29,0,0,0-.3-.85q.16-.44.36-.87c0-.05.12-.05.27,0A8.31,8.31,0,0,1,90.37,57.85ZM85,55.32l.39-.22a8.25,8.25,0,0,1,1.28.94c0,.19-.06.39-.08.59a18.37,18.37,0,0,0-.85,2.22.69.69,0,0,0,0,.13A6.34,6.34,0,0,1,85,55.32Zm.12,5-.29-.07c-.09-.23-.18-.46-.26-.7A5.36,5.36,0,0,0,85.1,60.32Zm3.49-4.55a1.3,1.3,0,0,0-.26.31l-.06-.35.1-.15Zm-1,1.26a3.62,3.62,0,0,1,.27.41.38.38,0,0,1,0,.1c0,.12-.09.24-.14.36l-.09,0A3.89,3.89,0,0,1,87.55,57ZM86.21,59.5H87c-.09.2-.18.4-.28.59a2.7,2.7,0,0,1-.69-.62A.43.43,0,0,0,86.21,59.5Zm1.88,1a2.2,2.2,0,0,1-.58-.05c.09-.15.17-.31.25-.46a2,2,0,0,0,.53.16s0,.07,0,.11-.06.16-.09.23Zm-1.26-5.38-.58-.43.43-.2.26.14C86.9,54.74,86.87,54.9,86.83,55.07Zm2.25,5.15a.24.24,0,0,1,0-.08l.21,0Zm-1.87-7.46L87,52.17s-.07,0-.06,0l.15.62-.53.19a4.63,4.63,0,0,0-.73-.12,1.68,1.68,0,0,0-1.64.68l-.28-.1a4.51,4.51,0,0,1,.23-.86,4.46,4.46,0,0,1,1.37-.82,2.9,2.9,0,0,1,.69-.17,4.77,4.77,0,0,1,2.65.75A11.56,11.56,0,0,0,87.21,52.76Zm-3.42,1.58,0,0h0l0,0A.15.15,0,0,1,83.79,54.34Zm6.68-.52a4.86,4.86,0,0,1,.72,2.25l-.43-.18c-.34-.72-.67-1.45-1-2.2a2.88,2.88,0,0,1,.59,0ZM82.6,59.13a.76.76,0,0,0,0,.11.57.57,0,0,1-.11-.11c0-.1,0-.21,0-.32Zm1.56,3.78a5.18,5.18,0,0,0,.65.26l.15.2-.08,0A5.2,5.2,0,0,1,84.16,62.91ZM94.54,56.8c.92,2.21-.65,3.83-2.52,4.7a4.29,4.29,0,0,0,1.38-3.7.48.48,0,0,0,0-.55,6.37,6.37,0,0,0,.14-2A7.36,7.36,0,0,1,94.54,56.8Z" style="fill:#fff"/></svg>