<svg xmlns="http://www.w3.org/2000/svg" viewBox="0 0 124.49 120.95"><title>Untitled-1</title><path d="M89.82,97c-3.26.18-6.45.59-9.75.52-4.29-.08-8.58-.42-12.87-.65-4.48-.24-8.92,0-13.4.1-5.61.15-11.31-.21-16.9.25a62.53,62.53,0,0,1-1.57-15.42c0-6,.15-11.89-.15-17.84-.35-7-.49-14-.45-21,0-3.48.11-7,.25-10.44A85.88,85.88,0,0,0,35.06,22a.3.3,0,0,0-.57-.05,52.85,52.85,0,0,0-1.39,9.79c-.25,3.67-.44,7.35-.56,11-.25,7.19-.18,14.36.16,21.55.54,11.42-1.43,23.47,2.14,34.61.46,1.41,2.82,1.06,2.46-.35,5.48,1.18,11.31,1,16.87.93,4.54,0,9-.17,13.56.08s8.87.59,13.31.63c3,0,7.58.48,9.67-2C91.25,97.64,90.52,96.92,89.82,97Z" style="fill:#fff"/><path d="M35.69,23.15h0a.05.05,0,0,0,0-.1c1.29.89,4.07.5,5.72.48,3.58,0,7.13-.11,10.7-.27a263.78,263.78,0,0,1,33.25.63,1.14,1.14,0,1,0,.2-2.28A220.21,220.21,0,0,0,52,21.08c-3.67.21-7.32.52-11,.9-1.4.14-2.78.3-4.17.55a2.44,2.44,0,0,0-1.23.53A.06.06,0,0,0,35.69,23.15Z" style="fill:#fff"/><path d="M91.33,54.65c.24-5.67.48-11.37.16-17a48.41,48.41,0,0,0-1.12-8.2,19.86,19.86,0,0,0-2.76-6.52c-.07-.12-.27,0-.21.09,2.06,4.7,2.44,10.14,2.58,15.14.16,5.61-.32,11.2-.56,16.8-.59,13.65.78,27.32.79,41,0,1.14,1.89,1.32,1.89.17C92.09,82.25,90.73,68.45,91.33,54.65Z" style="fill:#fff"/><path d="M45.45,49.11c0,.07-.05.13-.07.2s-.1.23-.15.34l-.07.1-.12.19a4.12,4.12,0,0,1-.33.4l-.05,0a.68.68,0,0,1-.12.12,3.79,3.79,0,0,1-.37.31l-.34.23-.1.05-.21.11a3.61,3.61,0,0,1-.42.16l-.05,0-.22,0a.91.91,0,0,1-.23,0h-.05a2.83,2.83,0,0,1-.41,0h0L42,51.38l-.17-.07-.08-.05-.19-.13,0,0,0,0a2.71,2.71,0,0,1-.35-.4l-.17-.22h0s-.05-.08-.07-.13a4.25,4.25,0,0,1-.31-.6,7,7,0,0,1-.45-1.49c-.12-.58-1.12-.57-1.11,0,0,1.82.45,4.14,2.6,4.76a4.72,4.72,0,0,0,4.33-1.23,3.89,3.89,0,0,0,1.43-4.13c-.7-2-3.42-2.38-5.28-2.43a13.46,13.46,0,0,0-1.42,0c-.23,0-.47.07-.7.11a1.27,1.27,0,0,0-1,.71.89.89,0,0,0,.17.91c.4.5,1,.4,1.59.41.27,0,.53,0,.79,0h.42a12,12,0,0,1,1.89.13l.23,0,.24.06a3.77,3.77,0,0,1,.59.22l.07,0,.21.14.07,0,.13.13.05.06a.93.93,0,0,1,0,.1.36.36,0,0,1,0,.09l0,.1,0,.16a2.58,2.58,0,0,1,0,.39Z" style="fill:#fff"/><path d="M42.36,70.08a1,1,0,0,0,.78.51c1.55,0,3.07-.55,4.61-.48a1,1,0,0,0,1.1-.87c.23-2.57.16-5.47-1.19-7.79s-4.3-2.69-6.61-1.42c0-.1-.07-.21-.11-.32-.18-.47-.89-.19-.84.25C40.53,63.42,40.7,66.88,42.36,70.08Zm-.45-8.27a4.45,4.45,0,0,1,2.82-.4c.84.28,1.25,1.24,1.54,2a11.54,11.54,0,0,1,.6,4.89c-1,.13-2,.43-3.09.52a34,34,0,0,1-2.17-6.91A.79.79,0,0,0,41.91,61.81Z" style="fill:#fff"/><path d="M42,86.63a18.1,18.1,0,0,0,9.1-.1.85.85,0,0,0,.65-1.19A15.7,15.7,0,0,1,50.08,77,.91.91,0,0,0,49,76.08c-1.8.19-5.52.51-7.11,2-.13-.64-.25-1.29-.38-1.93a.42.42,0,0,0-.82,0c-.16,3.23.61,6.42.75,9.64A.82.82,0,0,0,42,86.63Zm3.35-8.13a18.62,18.62,0,0,1,2.88-.59,17.44,17.44,0,0,0,1.46,7.2,18,18,0,0,1-6.63.1c-.21-1.84-.51-3.69-.85-5.52A31.53,31.53,0,0,0,45.35,78.5Z" style="fill:#fff"/><path d="M53.89,81.2c2.1-1.1,4.61-.89,6.92-.62,2.59.32,5.17.71,7.78.83s5.19-.58,7.75-.91c3.51-.45,7-.6,10.51-1.08,1.46-.2,1-2.41-.43-2.14-3.46.64-6.87,1.28-10.35,1.82-2.94.45-5.7,1.21-8.69,1.07-4.22-.21-9.86-1.68-13.52,1C53.83,81.17,53.86,81.21,53.89,81.2Z" style="fill:#fff"/><path d="M59.69,64.32c2.91.33,5.77.82,8.66,1.24a47.59,47.59,0,0,0,8.43.73,6.08,6.08,0,0,0,3.8-1.06,5.52,5.52,0,0,0,1.42-2c.23-.41-.28-.93-.73-.82-1,.23-1.12-.1-2.42-.13s-2.43.18-3.66.17c-3,0-5.86-.5-8.79-.75-4.11-.35-11.12-1.33-13.58,2.79-.31.51.36,1.24.86.75C55.2,63.84,57.71,64.1,59.69,64.32Z" style="fill:#fff"/><path d="M85.82,46.93c-.6-.35-.9-.82-1.63-.93s-1.6-.13-2.4-.16c-1.51,0-3,0-4.53,0-2.82.09-5.62.45-8.42.77-2.6.31-5.12.7-7.75.88a31.11,31.11,0,0,0-8.64,1.59c-.48.17-.22.87.27.79,5.3-.93,10.74-.48,16.07-.73,2.74-.13,5.47-.21,8.2-.28,1.51,0,3,0,4.52,0,.81,0,1.61.1,2.41.09s1.09-.4,1.77-.65A.82.82,0,0,0,85.82,46.93Z" style="fill:#fff"/><path d="M52.22,34.4c4.94-3.88,11.93-2.09,17.62-.81a71.91,71.91,0,0,0,8.62,1.62c1.78.18,6.25.46,6.88-1.74a.77.77,0,0,0-.3-.91c-1-.49-2.2-.19-3.22-.05a18.89,18.89,0,0,1-4.25,0c-3.25-.31-6.45-1.09-9.66-1.67-5.69-1-12.1-1.28-16.25,3.11C51.36,34.22,51.9,34.65,52.22,34.4Z" style="fill:#fff"/><path d="M39,35.83c0-.43-.68-.5-.71-.06a16.84,16.84,0,0,0,.5,4.94.45.45,0,0,0,.52.33,32.07,32.07,0,0,1,9,0,.57.57,0,0,0,.59-.8,44,44,0,0,1-1.68-7.88c.42-.84.9-1.66,1.38-2.47a6.4,6.4,0,0,0,.64-2.73c.1-.62-.7-.88-1.16-.57a6.12,6.12,0,0,0-2.35,2.07c-.67,1.1-1.29,2.24-1.87,3.39a18.34,18.34,0,0,0-1.08,2.74c-.71-1.31-1.45-2.6-2.25-3.87a.53.53,0,0,0-1,.3c.25,2.94,1.55,5.67,2.61,8.42,0,.06,0,.11.07.16a22.28,22.28,0,0,0-2.68.33A15.36,15.36,0,0,1,39,35.83Zm5.83,3.39a19.39,19.39,0,0,1,1.42-4.71,33.36,33.36,0,0,0,1.26,5.36c-1-.07-1.94-.11-2.9-.13A1.21,1.21,0,0,0,44.81,39.22Z" style="fill:#fff"/></svg>