<?xml version="1.0" encoding="utf-8"?>
<!-- Generator: Adobe Illustrator 26.2.0, SVG Export Plug-In . SVG Version: 6.00 Build 0)  -->
<svg version="1.1" xmlns="http://www.w3.org/2000/svg" xmlns:xlink="http://www.w3.org/1999/xlink" x="0px" y="0px"
	 viewBox="0 0 297.2 677.4" style="enable-background:new 0 0 297.2 677.4;" xml:space="preserve">
<style type="text/css">
	.st0{fill:none;}
	.st1{fill:#7E1D53;}
	.st2{fill:#203B42;}
	.st3{fill:#4C0C42;}
	.st4{fill:#16344B;}
</style>
<g id="Background">
</g>
<g id="Graphic_Elements">
	<g>
		<g>
			<path class="st1" d="M185.4,508.6c-1.7-13.7-2.8-28.4-3.2-44.1c-0.5-19.2-0.2-39.8,0.9-61.9c1.8-35.8,5.6-75.4,10.7-118.1
				c-10.6,14.1-21.4,29.5-31.7,45.7c-4.7,45.4-8.1,90.8-7.6,135.3c0.1,13.6,0.6,27,1.6,40.4c4.2,60.6,17.3,118.7,46,171.5h39.8
				C241.9,677.4,197.3,602.8,185.4,508.6z"/>
			<path class="st1" d="M199.7,238.6c0.3-2.1,0.6-4.2,0.9-6.3c1.8-13.3,3.7-26.8,5.7-40.6c1.5-10.7,3.1-21.5,4.7-32.5
				c0,0,9.1-83.3,1.7-159.2h-34.5c0,0,13.8,58.6-1.9,206.8c-0.4,3.7-0.8,7.4-1.2,11.1c-1.2,10.8-2.5,21.6-3.8,32.4
				c-1.2,9.8-2.3,19.7-3.5,29.5c3.8-5.1,7.7-10.2,11.8-15.4C186.5,255.5,193.2,246.9,199.7,238.6z"/>
		</g>
		<g>
			<path class="st2" d="M104,568.5c-2.1,2.1-4.1,4.4-6.1,6.7c10.2,29.7,23.4,63.7,40.4,102.1h43.4c0,0-32-67.4-56.7-131.9
				C117.8,553.7,110.8,561.4,104,568.5z"/>
			<path class="st2" d="M102.5,478.1c-0.8-3.1-1.5-6.1-2.2-8.9c-4.1-18.5-6.9-44.1-4.8-72.1c3.7-49.6,22.5-107,75.7-146.6
				c1.3-10.9,2.5-21.7,3.8-32.4c0.4-3.8,0.8-7.5,1.2-11.1c-58.6,34.1-115.6,97.8-113.8,216.4c0,0,0.2,14.1,5.4,42.2
				c3.9,20.7,10.5,48.9,21.8,84.7c0,0,0,0,0,0c8.8-10.7,17.4-21.1,25.6-31.2C110.1,504.2,105.7,490.4,102.5,478.1z"/>
			<path class="st2" d="M284.4,169.5c-7.8,1.2-18.3,3-30.4,6.1c-2.1,12.7-4.2,25.7-6.3,38.7c1.7-0.5,3.3-0.9,5-1.3
				c13.7-3.5,28.5-6.2,44.5-8.1V168C294.7,168.2,290.3,168.7,284.4,169.5z"/>
			<path class="st2" d="M200.5,232.3c2.1-1.1,4.3-2.1,6.5-3.2c2.9-1.4,5.9-2.7,9-4c0.4-3.2,0.9-6.3,1.3-9.5
				c1.4-10.2,2.8-20.3,4.2-30.1c-5,1.8-10.1,3.9-15.3,6.1C204.2,205.5,202.3,219,200.5,232.3z"/>
		</g>
		<g>
			<path class="st3" d="M246.8,219.8c2.1-2.4,4-4.7,5.9-6.8c-1.7,0.4-3.4,0.9-5,1.3C247.4,216.1,247.1,218,246.8,219.8z"/>
			<path class="st3" d="M67.8,465.3c-5,14.9-9.3,29.4-13.1,43.7c-9,33.4-13.1,72.9-15,105.2c-1.4,24.8-1.5,45.3-1.4,55.7
				c0,4.7,0.1,7.3,0.1,7.3h46.1c-1.1-32.3-0.4-61.4,1.3-87c1-14.6,2.3-28,3.7-40.2c0,0,0-0.1,0-0.1C78.3,514.2,71.7,486,67.8,465.3z
				"/>
			<path class="st3" d="M256.3,162.2c-0.8,4.4-1.5,8.9-2.3,13.4c12.1-3,22.5-4.9,30.4-6.1c9.4-15.7,12.9-24.4,12.9-24.4V63.8
				C295.5,82.5,283.3,122.4,256.3,162.2z"/>
			<path class="st3" d="M199.7,238.6c-6.4,8.3-13.1,16.9-20.2,25.9c-4.1,5.2-8,10.3-11.8,15.4c-32.1,42.9-55,81.4-72.2,117.1
				c-2.1,28,0.7,53.6,4.8,72.1c0.6,2.9,1.4,5.9,2.2,8.9c1.7-6.7,2.8-10.1,2.8-10.1c7.9-49.1,30.6-96.3,56.8-137.7
				c10.2-16.2,21-31.5,31.7-45.7c5.6-7.5,11.2-14.7,16.7-21.5c1.9-12.7,3.7-25.4,5.5-37.9c-3.1,1.3-6.1,2.6-9,4
				C204.6,232.2,202.1,235.4,199.7,238.6z"/>
		</g>
		<g>
			<path class="st4" d="M0,677.4h34.8c0,0,1.2-2.7,3.5-7.3c-0.1-10.4,0-30.9,1.4-55.7C26.1,633.6,12.6,654.4,0,677.4z"/>
			<path class="st4" d="M115.2,518.7c-8.2,10.1-16.8,20.5-25.6,31.2c0,0,0,0.1,0,0.1c-1.5,12.2-2.8,25.6-3.7,40.2
				c3.9-5.3,8-10.3,12.1-15.1c2-2.3,4.1-4.6,6.1-6.7c6.7-7.1,13.8-14.8,21-23.1c10.3-11.9,20.8-25.1,31-39.5
				c-0.9-13.3-1.4-26.8-1.6-40.4C143.3,483.2,129.9,500.6,115.2,518.7z"/>
			<path class="st4" d="M265.9,0c-8.7,19.5-21,51.7-29.8,93.5c-4.8,22.7-9.5,55.5-14.6,92.1c-1.4,9.8-2.7,19.8-4.2,30.1
				c-0.4,3.1-0.9,6.3-1.3,9.5c-1.8,12.5-3.6,25.2-5.5,37.9c-7.6,51-16.4,101.8-27.4,139.6c-1.1,22-1.5,42.7-0.9,61.9
				c17.6-31.5,32.5-67.7,41.4-108.5c8.3-38.2,15.6-87.4,23.3-136.2c0.3-1.8,0.6-3.7,0.9-5.5c2.1-13,4.1-26,6.3-38.7
				c0.8-4.5,1.5-9,2.3-13.4c9.3-53.3,19.8-100.2,33.2-123.8c2.7-4.7,5.2-9,7.7-13V0H265.9z"/>
		</g>
	</g>
</g>
</svg>
