<?xml version="1.0" encoding="UTF-8"?><svg id="Layer_1" xmlns="http://www.w3.org/2000/svg" xmlns:xlink="http://www.w3.org/1999/xlink" viewBox="0 0 52.66 40"><defs><style>.cls-1{clip-path:url(#clippath);}.cls-2{fill:none;}.cls-2,.cls-3{stroke-width:0px;}.cls-3{fill:#ccc;}</style><clipPath id="clippath"><rect class="cls-2" x="-65.44" y="14.29" width="49.85" height="11.42"/></clipPath></defs><g class="cls-1"><rect class="cls-2" x="-878.08" y="-463.02" width="1512.71" height="786.61"/></g><polygon class="cls-3" points="29.51 12.28 37.23 20 29.51 27.72 29.51 24.63 34.14 20 29.51 15.37 29.51 12.28"/><polygon class="cls-3" points="34.91 12.28 42.63 20 34.91 27.72 34.91 24.63 39.54 20 34.91 15.37 34.91 12.28"/><polygon class="cls-3" points="40.32 12.28 48.04 20 40.32 27.72 40.32 24.63 44.95 20 40.32 15.37 40.32 12.28"/><path class="cls-3" d="m5.61,14.62l-.6,1.66h-.25l.69-1.82h.16v.16Zm.51,1.66l-.6-1.66v-.16s.16,0,.16,0l.7,1.82h-.25Zm-.03-.67v.2h-1.02v-.2h1.02Z"/><path class="cls-3" d="m7.28,15.56h-.49v-.2h.51s.03,0,.03,0h.03s.02,0,.02,0h.02s.02,0,.02,0h.02s.02-.01.02-.01h.02s.02-.02.02-.02h.02s.02-.02.02-.02h.02s.01-.02.01-.02h.01s.01-.02.01-.02h.01s.01-.03.01-.03v-.02s.02-.02.02-.02h0v-.02s.02-.02.02-.02v-.02s.01-.02.01-.02v-.02s0-.02,0-.02v-.02s0-.02,0-.02v-.02s0-.02,0-.02h0v-.02s0-.02,0-.02v-.02s0-.02,0-.02v-.02s0-.02,0-.02v-.02s-.01-.02-.01-.02v-.02s-.02-.02-.02-.02h0v-.02s-.02-.02-.02-.02v-.02s-.02-.01-.02-.01h-.01s-.01-.03-.01-.03h-.01s-.02-.02-.02-.02h-.02s-.02-.02-.02-.02h-.02s-.02-.02-.02-.02h-.02s-.02-.01-.02-.01h-.02s-.02-.01-.02-.01h-.02s-.03,0-.03,0h-.03s-.03,0-.03,0h-.43v1.62h-.24v-1.82h.71s.04,0,.04,0h.04s.04,0,.04,0h.04s.03.01.03.01h.03s.03.02.03.02h.03s.03.03.03.03h0l.03.02.03.02.03.02.02.02.02.02.02.02.02.02.02.02.02.02.02.02h0v.03s.03.03.03.03v.03s.02.03.02.03v.03s.02.03.02.03v.03s0,.03,0,.03v.03s0,.03,0,.03h0v.03s0,.03,0,.03v.03s0,.03,0,.03v.03s-.02.03-.02.03v.03s-.02.03-.02.03v.03s-.03.03-.03.03h0l-.02.02-.02.02-.02.02-.02.02-.02.02-.02.02-.02.02-.03.02-.03.02h-.03s-.03.03-.03.03h-.03s-.03.02-.03.02h-.03s-.03.02-.03.02h-.04s-.04.01-.04.01h-.04s-.04,0-.04,0h-.04Z"/><path class="cls-3" d="m8.9,14.62l-.6,1.66h-.25l.69-1.82h.16v.16Zm.51,1.66l-.6-1.66v-.16s.16,0,.16,0l.7,1.82h-.25Zm-.03-.67v.2h-1.02v-.2h1.02Z"/><path class="cls-3" d="m11,15.7h.24v.03s0,.03,0,.03v.03s-.02.03-.02.03v.03s-.02.03-.02.03v.03s-.02.03-.02.03v.03s-.03.03-.03.03h0l-.02.03-.02.03-.02.02-.02.02-.02.02-.02.02-.02.02-.03.02-.03.02-.03.02h-.03s-.03.03-.03.03h-.03s-.03.02-.03.02h-.04s-.04.02-.04.02h-.04s-.04,0-.04,0h-.04s-.04,0-.04,0h-.03s-.03,0-.03,0h-.03s-.03,0-.03,0h-.03s-.03-.01-.03-.01h-.03s-.03-.02-.03-.02h-.03s-.03-.02-.03-.02h-.03s-.02-.03-.02-.03h-.02s-.02-.03-.02-.03l-.02-.02-.02-.02-.02-.02-.02-.02-.02-.02-.02-.02h0l-.02-.02-.02-.02-.02-.02-.02-.03-.02-.03v-.03s-.03-.03-.03-.03v-.03s-.02-.03-.02-.03v-.03h-.01v-.03s-.02-.03-.02-.03v-.03s-.01-.03-.01-.03v-.03s0-.04,0-.04v-.04s0-.04,0-.04v-.04s0-.04,0-.04v-.18h0v-.04s0-.04,0-.04v-.04s0-.04,0-.04v-.03s0-.03,0-.03v-.03s.01-.03.01-.03v-.03s.02-.03.02-.03h0v-.03s.02-.03.02-.03v-.03s.03-.03.03-.03v-.03s.03-.03.03-.03l.02-.03.02-.02.02-.02.02-.02h0l.02-.02.02-.02.02-.02.02-.02.02-.02.02-.02.02-.02h.03s.03-.03.03-.03h.03s.03-.02.03-.02h.03s.03-.02.03-.02h.03s.03-.01.03-.01h.03s.03,0,.03,0h.03s.03,0,.03,0h.03s.04,0,.04,0h.04s.04,0,.04,0h.04s.04.01.04.01h.03s.03.02.03.02h.03s.03.02.03.02l.03.02h0l.03.02.03.02.03.02.02.02.02.02.02.02.02.02.02.02.02.03.02.03h0l.02.03v.03s.03.03.03.03v.03s.02.03.02.03v.03s.02.03.02.03v.03s.01.03.01.03v.04s-.24,0-.24,0h0v-.03s0-.02,0-.02v-.02s-.01-.02-.01-.02v-.02s-.01-.02-.01-.02v-.02s-.02-.02-.02-.02v-.02s-.02-.02-.02-.02h0v-.02s-.02-.02-.02-.02v-.02s-.02-.02-.02-.02h-.01s-.01-.03-.01-.03h-.01s-.02-.03-.02-.03h-.02s-.02-.02-.02-.02h-.02s-.02-.02-.02-.02h-.02s-.02-.01-.02-.01h-.02s-.02-.01-.02-.01h-.02s-.03,0-.03,0h-.03s-.03,0-.03,0h-.02s-.02,0-.02,0h-.02s-.02,0-.02,0h-.02s-.02,0-.02,0h-.02s-.02.01-.02.01h-.02s-.02.02-.02.02h-.02s-.02.02-.02.02h-.02s-.02.02-.02.02h-.02s-.02.03-.02.03h-.01s-.01.03-.01.03v.02s-.03.02-.03.02h0v.02s-.02.02-.02.02v.02s-.02.02-.02.02v.02s-.02.02-.02.02v.02s-.02.02-.02.02v.02s-.01.02-.01.02h0v.02s-.01.02-.01.02v.02s0,.03,0,.03v.03s0,.03,0,.03v.03s0,.03,0,.03v.03s0,.03,0,.03v.18h0v.03s0,.03,0,.03v.03s0,.03,0,.03v.03s0,.02,0,.02v.02s0,.02,0,.02v.02s0,.02,0,.02h0v.02s.01.02.01.02v.02s.02.02.02.02v.02s.02.02.02.02v.02s.02.02.02.02v.02s.02.02.02.02h0v.02s.02.02.02.02v.02s.03.02.03.02h.01s.02.03.02.03h.02s.02.02.02.02h.02s.02.02.02.02h.02s.02.02.02.02h.02s.02.01.02.01h.02s.02.01.02.01h.02s.02,0,.02,0h.02s.02,0,.02,0h.03s.03,0,.03,0h.03s.03,0,.03,0h.03s.02,0,.02,0h.02s.02-.01.02-.01h.02s.02-.02.02-.02h.02s.02-.02.02-.02h.02s.02-.02.02-.02h.01s.01-.03.01-.03v-.02s.02-.02.02-.02v-.02s.02-.02.02-.02h0v-.02s.02-.02.02-.02v-.02s.02-.02.02-.02v-.02s.01-.02.01-.02v-.02s.01-.02.01-.02v-.02s0-.03,0-.03Z"/><path class="cls-3" d="m12.76,15.24v.2h-.99v-.2h.99Zm-.95-.78v1.82h-.24v-1.82h.24Zm1.16,0v1.82h-.24v-1.82h.24Z"/><path class="cls-3" d="m14.55,16.08v.2h-.96v-.2h.96Zm-.92-1.63v1.82h-.24v-1.82h.24Zm.79.78v.2h-.84v-.2h.84Zm.11-.78v.2h-.95v-.2h.95Z"/><path class="cls-3" d="m8.16,22.66h-.01s-.01,0-.01,0h-.01s-.01,0-.01,0h0s0-.01,0-.01h0s0-.02,0-.02h0s0-.03,0-.03l-.22-.72h0s0-.01,0-.01h0s0,0,0,0h0s0,0,0,0h0s0,0,0,0h0s0,0,0,0h-1.82s0,0,0,0h0s0,0,0,0h0s0,0,0,0h0s0,0,0,0h0s0,.01,0,.01l-.21.72h0s0,.03,0,.03h0s0,.02,0,.02h0s-.01.01-.01.01h-.01s-.01,0-.01,0h-.01s-.01,0-.01,0h-.95s0,0,0,0h0s0,0,0,0h0s0,0,0,0h0s0,0,0,0h0s0,0,0,0h0s0-.01,0-.01h0s0-.01,0-.01h0v-.02h0s0-.02,0-.02h0s0-.02,0-.02l1.6-4.99h0s0-.03,0-.03h0s0-.02,0-.02h0s.01-.01.01-.01h.01s.01,0,.01,0h.01s.01,0,.01,0h1.17s.01,0,.01,0h.01s.01,0,.01,0h.01s0,.01,0,.01h0s0,.02,0,.02h0s0,.03,0,.03l1.59,4.99h0s0,0,0,0h0s0,0,0,0h0s0,0,0,0h0s0,.01,0,.01h0s0,.02,0,.02h0s0,.02,0,.02h0s0,.02,0,.02h0s-.01.01-.01.01h-.01s-.01,0-.01,0h-.02s-.94,0-.94,0Zm-1.94-1.68h0v.02h0s0,.01,0,.01h0s0,0,0,0h0s0,0,0,0h0s0,0,0,0h1.31s0,0,0,0h0s0,0,0,0h0s0,0,0,0h0s0-.02,0-.02h0s-.66-2.2-.66-2.2h0s0-.01,0-.01h0s0,0,0,0h0s0,0,0,0h0s0,0,0,0h0s0,0,0,0h0s0,0,0,0h0s0,0,0,0h0s0,0,0,0h0s0,0,0,0h0s0,0,0,0l-.65,2.19Z"/><path class="cls-3" d="m12.67,22.66h-.01s-.01,0-.01,0h-.01s-.01,0-.01,0h-.01s0-.01,0-.01h0s0-.02,0-.02h0s0-.02,0-.02l-.92-2.04h0s0-.01,0-.01h0s0,0,0,0h0s0,0,0,0h0s0,0,0,0h0s0,0,0,0h-.69s0,0,0,0h0s0,0,0,0h0s0,0,0,0h0s0,.01,0,.01h0s0,.01,0,.01v2.02h0s0,.01,0,.01h0s0,.01,0,.01h0s0,.01,0,.01h0s0,.01,0,.01h0s0,.01,0,.01h0s0,0,0,0h0s0,0,0,0h0s0,0,0,0h0s0,0,0,0h0s0,0,0,0h-.87s0,0,0,0h0s0,0,0,0h0s0,0,0,0h0s0,0,0,0h0s0,0,0,0h0s0-.01,0-.01h0s0-.01,0-.01h0s0-.01,0-.01h0s0-.01,0-.01h0v-5.01h0s0-.01,0-.01h0s0-.01,0-.01h0s0-.01,0-.01h0s0-.01,0-.01h0s0,0,0,0h0s0-.01,0-.01h0s0,0,0,0h0s0,0,0,0h0s0,0,0,0h0s0,0,0,0h2.2s.09,0,.09,0h.09s.09.02.09.02l.08.02.08.02.08.02.08.03.07.03.07.04h0l.07.04.07.04.06.05.06.05.06.05.05.06.05.06.05.06.04.07.04.07h0l.04.07.03.07.03.08.03.08.02.08.02.08v.09s.02.09.02.09v.09s0,.09,0,.09h0v.1s0,.1,0,.1v.09s-.03.09-.03.09l-.02.09-.03.08-.03.08-.04.08-.04.08-.05.07h0l-.05.07-.06.06-.06.06-.06.06-.07.05-.07.05-.08.04-.08.04-.08.04-.09.03h0s0,0,0,0h0s0,0,0,0h0s0,.01,0,.01h0s0,.01,0,.01h0s0,.01,0,.01l1,2.09h0s0,.01,0,.01h0s0,0,0,0h0s0,0,0,0h0s0,0,0,0h0s0,0,0,0h0s0,.02,0,.02h0s0,.02,0,.02h0s0,.01,0,.01h-.01s-.01,0-.01,0h-.01s-.02,0-.02,0h-.91Zm-1.76-4.27h0s0,0,0,0h0s0,0,0,0h0s0,0,0,0h0s0,.01,0,.01h0s0,.01,0,.01v1.26h0s0,.01,0,.01h0s0,.01,0,.01h0s0,0,0,0h0s0,0,0,0h0s0,0,0,0h1.03s.06,0,.06,0h.06s.05-.02.05-.02l.05-.02.05-.02.05-.02.04-.03.04-.03.04-.04h0l.04-.04.03-.04.03-.04.03-.04.02-.05.02-.05v-.05s.02-.05.02-.05v-.06s0-.06,0-.06h0v-.06s0-.06,0-.06v-.05s-.02-.05-.02-.05l-.02-.05-.02-.05-.03-.04-.03-.04-.03-.04-.04-.04h0l-.04-.04-.04-.03-.04-.03-.05-.02-.05-.02-.05-.02h-.05s-.06-.02-.06-.02h-.06s-.06,0-.06,0h-.97Z"/><path class="cls-3" d="m17.2,22.66h-.01s-.01,0-.01,0h-.01s-.01,0-.01,0h-.01s0-.01,0-.01h0s0-.02,0-.02h0s0-.02,0-.02l-.92-2.04h0s0-.01,0-.01h0s0,0,0,0h0s0,0,0,0h0s0,0,0,0h0s0,0,0,0h-.69s0,0,0,0h0s0,0,0,0h0s0,0,0,0h0s0,.01,0,.01h0s0,.01,0,.01v2.02h0s0,.01,0,.01h0s0,.01,0,.01h0s0,.01,0,.01h0s0,.01,0,.01h0s0,.01,0,.01h0s0,0,0,0h0s0,0,0,0h0s0,0,0,0h0s0,0,0,0h0s0,0,0,0h-.87s0,0,0,0h0s0,0,0,0h0s0,0,0,0h0s0,0,0,0h0s0,0,0,0h0s0-.01,0-.01h0s0-.01,0-.01h0s0-.01,0-.01h0s0-.01,0-.01h0s0-.01,0-.01v-4.99h0s0-.01,0-.01h0s0-.01,0-.01h0s0-.01,0-.01h0s0-.01,0-.01h0s0,0,0,0h0s0-.01,0-.01h0s0,0,0,0h0s0,0,0,0h0s0,0,0,0h0s0,0,0,0h2.2s.09,0,.09,0h.09s.09.02.09.02l.08.02.08.02.08.02.08.03.07.03.07.04h0l.07.04.07.04.06.05.06.05.06.05.05.06.05.06.05.06.04.07.04.07h0l.04.07.03.07.03.08.03.08.02.08.02.08v.09s.02.09.02.09v.09s0,.09,0,.09h0v.1s-.01.1-.01.1v.09s-.03.09-.03.09l-.02.09-.03.08-.03.08-.04.08-.04.08-.05.07h0l-.05.07-.06.06-.06.06-.06.06-.07.05-.07.05-.08.04-.08.04-.08.04-.09.03h0s0,0,0,0h0s0,0,0,0h0s0,.01,0,.01h0s0,.01,0,.01h0s0,.01,0,.01l1,2.09h0s0,.01,0,.01h0s0,0,0,0h0s0,0,0,0h0s0,0,0,0h0s0,.02,0,.02h0s0,.02,0,.02h0s0,.01,0,.01h0s-.01,0-.01,0h-.01s-.01,0-.01,0h-.02s-.91,0-.91,0Zm-1.76-4.27h0s0,0,0,0h0s0,0,0,0h0s0,0,0,0h0s0,.01,0,.01h0s0,.01,0,.01v1.26h0s0,.01,0,.01h0s0,.01,0,.01h0s0,0,0,0h0s0,0,0,0h0s0,0,0,0h1.03s.06,0,.06,0h.06s.05-.02.05-.02l.05-.02.05-.02.05-.02.04-.03.04-.03.04-.04h0l.04-.04.03-.04.03-.04.03-.04.02-.05.02-.05v-.05s.02-.05.02-.05v-.06s0-.06,0-.06h0v-.06s0-.06,0-.06v-.05s-.02-.05-.02-.05l-.02-.05-.02-.05-.03-.04-.03-.04-.03-.04-.04-.04h0l-.04-.04-.04-.03-.04-.03-.05-.02-.05-.02-.05-.02h-.05s-.06-.02-.06-.02h-.06s-.06,0-.06,0h-.97Z"/><path class="cls-3" d="m20.74,22.74h-.11s-.11,0-.11,0h-.11s-.11-.03-.11-.03l-.1-.02-.1-.03-.1-.03-.1-.04-.09-.04-.09-.05h0l-.08-.05-.08-.05-.08-.06-.07-.06-.07-.06-.07-.07-.06-.07-.06-.07-.05-.08-.05-.08h0l-.05-.09-.04-.09-.04-.09-.03-.09-.03-.1-.02-.1-.02-.1v-.1s-.02-.11-.02-.11v-.11s0-1.58,0-1.58h0v-.11s0-.11,0-.11v-.1s.03-.1.03-.1l.02-.1.03-.1.03-.09.04-.09.04-.09.05-.09h0l.05-.08.05-.08.06-.07.06-.07.07-.07.07-.06.07-.06.08-.06.08-.05.08-.05h0l.09-.04.09-.04.1-.04.1-.03.1-.03.1-.02.11-.02h.11s.11-.02.11-.02h.11s.11,0,.11,0h.11s.11.02.11.02l.11.02.1.02.1.03.1.03.09.04.09.04.09.04h0l.09.05.08.05.08.06.07.06.07.06.07.07.06.07.06.07.05.08.05.08h0l.05.09.04.09.04.09.03.09.03.1.02.1.02.1v.1s.02.11.02.11v.11s0,1.58,0,1.58h0v.11s0,.11,0,.11v.1s-.03.1-.03.1l-.02.1-.03.1-.03.09-.04.09-.04.09-.05.09h0l-.05.08-.05.08-.06.08-.06.07-.07.07-.07.06-.07.06-.08.06-.08.05-.09.05h0l-.09.04-.09.04-.09.03-.1.03-.1.03-.1.02-.11.02h-.11s-.11.02-.11.02h-.11Zm0-.89h.08s.08-.01.08-.01h.07s.07-.03.07-.03l.07-.02.06-.03.06-.03.06-.04.05-.04.05-.05h0l.05-.05.04-.06.04-.06.03-.06.03-.07.02-.07.02-.07v-.08s.02-.08.02-.08v-.08s0-1.62,0-1.62h0v-.08s0-.08,0-.08v-.08s-.03-.07-.03-.07l-.02-.07-.03-.07-.03-.06-.04-.06-.04-.06-.05-.05h0l-.05-.05-.05-.05-.06-.04-.06-.03-.06-.03-.07-.02-.07-.02h-.07s-.08-.02-.08-.02h-.08s-.08,0-.08,0h-.08s-.07.02-.07.02l-.07.02-.07.02-.06.03-.06.03-.06.04-.05.05-.05.05h0l-.05.05-.04.06-.04.06-.03.06-.03.07-.02.07-.02.07v.08s-.02.08-.02.08v.08s0,1.62,0,1.62h0v.08s0,.08,0,.08v.08s.03.07.03.07l.02.07.03.07.03.06.04.06.04.06.05.05h0l.05.05.05.04.06.04.06.03.06.03.07.02.07.02h.07s.08.02.08.02h.08Z"/><path class="cls-3" d="m24.63,22.66h-.02s-.01,0-.01,0h-.01s-.01,0-.01,0h-.01s0-.01,0-.01h0s0-.02,0-.02h0s0-.03,0-.03l-1.31-5v-.03h0,0s0-.02,0-.02h0s0-.02,0-.02h0s0-.01,0-.01h.01s.01,0,.01,0h.01s.02,0,.02,0h.93s.01,0,.01,0h.01s.01,0,.01,0h0s0,.01,0,.01h0s0,.02,0,.02h0s0,.03,0,.03l.7,3h0s0,.01,0,.01h0s0,0,0,0h0s0,0,0,0h0s0,0,0,0h0s0,0,0,0h0s0,0,0,0h0s0,0,0,0h0s0,0,0,0h0s0,0,0,0h0s0-.01,0-.01l.68-3h0v-.02s.01-.01.01-.01h0s0-.02,0-.02h0s.01-.02.01-.02h.01s.01,0,.01,0h.01s.01,0,.01,0h.91s.01,0,.01,0h.01s.01,0,.01,0h.01s0,.01,0,.01h0s0,.02,0,.02h0s0,.03,0,.03l.74,3h0s0,0,0,0h0s0,0,0,0h0s0,0,0,0h0s0,0,0,0h0s0,0,0,0h0s0,0,0,0h0s0,0,0,0h0s0,0,0,0h0s0,0,0,0h0s0-.01,0-.01l.68-3h0v-.02s.01-.01.01-.01h0s0-.02,0-.02h0s.01-.02.01-.02h.01s.01,0,.01,0h.01s.01,0,.01,0h.89s.02,0,.02,0h.01s.01.01.01.01h0s0,.02,0,.02h0s0,.03,0,.03v.02s0,.02,0,.02l-1.21,5h0s0,.03,0,.03h0s0,.02,0,.02h0s-.01.01-.01.01h-.01s-.01,0-.01,0h-.01s-.02,0-.02,0h-.89s-.01,0-.01,0h-.01s-.01,0-.01,0h-.01s0-.01,0-.01h0s0-.02,0-.02h0s0-.03,0-.03l-.75-3.2h0s0-.01,0-.01h0s0,0,0,0h0s0,0,0,0h0s0,0,0,0h0s0,0,0,0h0s0,0,0,0h0s0,0,0,0h0s0,0,0,0h0s0,0,0,0h0s0,.01,0,.01l-.7,3.19h0v.02s0,.01,0,.01h0s0,.02,0,.02h0s-.01.02-.01.02h-.01s-.01,0-.01,0h-.01s-.02,0-.02,0h-.82Z"/></svg>