<?xml version="1.0" encoding="utf-8"?>
<!-- Generator: Adobe Illustrator 27.8.0, SVG Export Plug-In . SVG Version: 6.00 Build 0)  -->
<svg version="1.1" id="Layer_1" xmlns="http://www.w3.org/2000/svg" xmlns:xlink="http://www.w3.org/1999/xlink" x="0px" y="0px"
	 viewBox="0 0 750 149" style="enable-background:new 0 0 750 149;" xml:space="preserve">
<style type="text/css">
	.st0{fill:#E52521;}
	.st1{fill:#FFCC07;}
	.st2{clip-path:url(#SVGID_00000126297622951634994760000012800953035539568059_);}
	.st3{fill:#FFFFFF;}
</style>
<rect x="15" y="117.4" class="st0" width="13.5" height="13.5"/>
<path class="st1" d="M109.5,130.9H96v-108h13.5V130.9z M82.5,130.9H69v-108h13.5V130.9z M136.5,87H123V66.7h13.5V87z M55.5,130.9H42
	v-108h13.5V130.9z M28.5,117.4H15V22.9h13.5V117.4z"/>
<g>
	<defs>
		<rect id="SVGID_1_" y="-298.1" width="750" height="750"/>
	</defs>
	<clipPath id="SVGID_00000110439988091565489230000013170355820198107264_">
		<use xlink:href="#SVGID_1_"  style="overflow:visible;"/>
	</clipPath>
	<g style="clip-path:url(#SVGID_00000110439988091565489230000013170355820198107264_);">
		<path class="st3" d="M657,59.4c3.5,0,6.9,0.3,10.3,1c2.4,0.5,4.7,1.2,7,2.2l-2.3,8.1c-1.9-0.9-3.8-1.7-5.8-2.4
			c-2.8-0.9-5.8-1.4-8.8-1.3c-3.1-0.1-6.2,0.4-9,1.7c-2.3,1.2-3.6,3.7-3.4,6.3c0,1.2,0.3,2.5,1.1,3.5c0.8,1,1.7,1.9,2.8,2.5
			c1.3,0.8,2.7,1.4,4.1,1.9l5,1.5l6.7,2.2c2.1,0.8,4.1,1.8,6,3.2c3.9,2.8,6.1,7.4,5.9,12.2c0.1,2.8-0.5,5.7-1.9,8.2
			c-1.2,2.2-3,4-5,5.4c-2.2,1.5-4.6,2.5-7.2,3.1c-2.8,0.4-5.7,0.4-8.5,0.2c-2.5,0.2-5,0.2-7.5,0c-1.9-0.2-3.7-0.6-5.5-1.1
			c-1.4-0.3-2.9-0.8-4.2-1.4c-1.1-0.5-2.2-1.1-3.3-1.7l3.2-8.2c0.7,0.6,1.5,1.1,2.3,1.6c1.2,0.7,2.4,1.2,3.7,1.7
			c1.6,0.6,3.3,1.1,5,1.5c2,0.4,4.1,0.6,6.2,0.6c3.4,0.2,6.7-0.6,9.5-2.4c2.1-1.6,3.3-4.1,3.2-6.8c0.1-2.2-0.9-4.4-2.7-5.8
			c-2.8-1.9-5.9-3.3-9.2-4.1l-7.1-2.4c-2.2-0.8-4.2-1.8-6-3.1c-1.8-1.2-3.2-2.9-4.3-4.7c-1.2-2.2-1.7-4.7-1.7-7.2
			c-0.3-4.7,1.8-9.2,5.7-12C646,60.4,651.5,59.1,657,59.4 M584.1,60.1v38.7c0,1.9,0.2,3.9,0.8,5.7c0.5,1.4,1.2,2.7,2.3,3.7
			c1,0.9,2.2,1.6,3.5,2c1.4,0.4,2.8,0.6,4.3,0.6c3.8,0.2,7.5-0.9,10.5-3.1c2.8-2.2,5.2-5,6.8-8.2V60.1h9.8v57h-8.7l-0.9-10.3
			c-1.7,3.5-4.3,6.4-7.5,8.5c-3.8,2.4-8.3,3.5-12.8,3.3c-4.8,0.2-9.6-1.6-13.1-4.9c-3.6-4.1-5.4-9.5-5-15V60.1L584.1,60.1
			L584.1,60.1z M241.4,38.6c3.4,0.9,6.8,2.2,9.9,3.8l-3,9.2c-2.8-1.9-5.8-3.4-9-4.6c-3.8-1.3-7.8-1.9-11.8-1.8
			c-7.4-0.1-14.6,3.1-19.4,8.6c-2.6,3-4.7,6.5-6,10.3c-1.6,4.5-2.3,9.3-2.2,14.1c-0.1,4.7,0.6,9.3,2.1,13.8
			c1.2,3.7,3.1,7.2,5.7,10.2c2.4,2.7,5.4,4.9,8.8,6.3c3.6,1.5,7.5,2.2,11.4,2.2c3.6,0,7.1-0.5,10.5-1.6c3.2-1.1,6.4-2.6,9.3-4.3
			l2.9,6.9c-2.8,2.1-5.9,3.7-9.3,4.8c-4.5,1.5-9.2,2.3-14,2.2c-5.3,0.1-10.6-0.9-15.6-2.8c-4.6-1.8-8.8-4.6-12.2-8.2
			c-3.6-3.6-6.4-7.9-8.3-12.6c-4-11.1-4-23.2,0-34.3c3.7-9.7,11.5-17.3,21.3-20.9c5.1-1.9,10.5-2.8,16-2.8
			C232.9,37,237.2,37.5,241.4,38.6 M342,59c3.1,0,6.3,0.3,9.4,1.1c2.5,0.5,4.8,1.5,7,2.8l-3.1,8.5c-2-1.5-4.2-2.8-6.5-3.8
			c-2.4-0.9-5-1.4-7.6-1.3c-2.5,0-5,0.4-7.3,1.4c-2.3,0.9-4.4,2.4-6,4.2c-1.8,2-3.2,4.4-4,6.9c-1.1,3.1-1.6,6.4-1.6,9.8
			c-0.4,5.9,1.6,11.8,5.5,16.3c4,3.8,9.3,5.7,14.8,5.5c4.8-0.1,9.4-1.6,13.4-4.2l2.2,7.2c-2.2,1.6-4.7,2.9-7.4,3.7
			c-3.1,1.1-6.3,1.6-9.6,1.7c-3.9,0-7.7-0.7-11.3-2c-3.5-1.3-6.6-3.3-9.2-5.9c-2.6-2.7-4.7-5.9-6.1-9.4c-3-8.1-3-17,0-25.1
			c1.4-3.5,3.5-6.7,6.3-9.4c2.8-2.7,6-4.7,9.7-6C334.1,59.6,338,59,342,59 M533.5,59c3.7,0,7.4,0.7,10.8,2c3.4,1.3,6.4,3.3,9,5.8
			c2.7,2.7,4.8,5.8,6.2,9.3c3.1,8.2,3.1,17.2,0,25.4c-1.3,3.5-3.3,6.7-5.8,9.4c-2.6,2.5-5.6,4.5-9,5.8c-3.6,1.4-7.4,2.1-11.2,2
			c-3.7,0-7.3-0.7-10.8-2c-3.4-1.3-6.4-3.3-8.9-5.8c-2.6-2.7-4.7-5.9-6-9.4c-3-8.2-3-17.2,0-25.4c1.4-3.5,3.4-6.6,6-9.3
			c2.5-2.5,5.6-4.5,8.9-5.8C526.1,59.7,529.8,59,533.5,59 M712,58.6c3.6,0,7.2,0.7,10.6,2c3.1,1.3,5.8,3.3,7.8,5.9
			c2.2,2.9,3.6,6.2,4.1,9.8c0.8,4.5,0.8,9.1,0,13.5h-39.4c0.4,13.6,7,20.4,19.6,20.4c3,0.1,6.1-0.4,8.9-1.4c2.6-0.9,5-2.1,7.3-3.6
			l2.8,7.2c-2.5,1.9-5.3,3.4-8.3,4.3c-3.7,1.2-7.5,1.8-11.3,1.7c-8,0.4-15.8-2.5-21.3-8.2c-5.3-6.1-8-14.1-7.5-22.1
			c-0.1-4.2,0.6-8.5,2.1-12.5c1.3-3.5,3.2-6.7,5.7-9.4c2.3-2.5,5.1-4.5,8.3-5.9C704.8,59.3,708.4,58.6,712,58.6 M273,117.5h-9.9
			V34.9h9.9V117.5L273,117.5z M380,117.5h-10V34.9h10V117.5L380,117.5z M415.6,60.2l-23.7,25.6l25.4,31.8h-11.6l-24.3-30.6l24-26.7
			H415.6L415.6,60.2z M439.3,38.3v36.2h41.4V38.3h10.7v79.3h-10.7V82.3h-41.4v35.1h-10.7V38.3L439.3,38.3L439.3,38.3z M299.3,117.1
			h-9.8v-57h9.8V117.1z M533.5,66.4c-2.3,0-4.5,0.4-6.6,1.2c-2.2,0.8-4.1,2.2-5.7,3.9c-1.8,2-3.2,4.4-4,6.9
			c-1.1,3.3-1.6,6.8-1.5,10.3c-0.1,3.5,0.4,7,1.5,10.3c0.8,2.6,2.2,5,4,7c1.6,1.7,3.5,3.1,5.7,3.9c2.1,0.8,4.3,1.2,6.6,1.2
			c2.3,0,4.6-0.4,6.8-1.2c2.2-0.8,4.3-2.2,5.9-3.9c1.8-2,3.2-4.4,4.1-7c1.1-3.3,1.7-6.8,1.6-10.3c0.1-3.5-0.5-7-1.6-10.3
			c-0.9-2.6-2.3-4.9-4.1-6.9c-1.6-1.8-3.6-3.1-5.9-3.9C538.1,66.8,535.8,66.4,533.5,66.4 M712.3,65.8c-4,0-7.9,1.6-10.7,4.4
			c-3.3,3.7-5.3,8.3-5.6,13.2h29.5c0.8-4.7-0.3-9.4-3.1-13.3C720,67.2,716.2,65.6,712.3,65.8 M298.8,41c1.2,1.2,1.8,2.8,1.7,4.5
			c0,1.6-0.6,3.2-1.7,4.3c-1.2,1.1-2.8,1.8-4.5,1.7c-1.7,0.1-3.3-0.5-4.5-1.6c-1.2-1.2-1.9-2.8-1.8-4.4c-0.1-1.7,0.5-3.3,1.6-4.5
			C292.2,38.5,296.2,38.5,298.8,41"/>
	</g>
</g>
</svg>
