<?xml version="1.0" encoding="UTF-8"?><svg id="Layer_1" xmlns="http://www.w3.org/2000/svg" xmlns:xlink="http://www.w3.org/1999/xlink" viewBox="0 0 73.46 40"><defs><style>.cls-1{clip-path:url(#clippath);}.cls-2{fill:none;}.cls-2,.cls-3,.cls-4,.cls-5{stroke-width:0px;}.cls-6{clip-path:url(#clippath-2);}.cls-3{fill:#ccc;}.cls-4{fill:#e52521;}.cls-5{fill:#ffcc07;}</style><clipPath id="clippath"><rect class="cls-2" x="-146.73" y="14.29" width="49.85" height="11.42"/></clipPath><clipPath id="clippath-2"><rect class="cls-2" x="7.31" y="-9.42" width="58.84" height="58.84"/></clipPath></defs><g class="cls-1"><rect class="cls-2" x="-959.37" y="-463.02" width="1512.71" height="786.61"/></g><rect class="cls-4" x="8.49" y="23.18" width="1.06" height="1.06"/><path class="cls-5" d="m15.9,24.24h-1.06v-8.47h1.06v8.47Zm-2.12,0h-1.06v-8.47h1.06v8.47Zm4.24-3.44h-1.06v-1.59h1.06v1.59Zm-6.35,3.44h-1.06v-8.47h1.06v8.47Zm-2.12-1.06h-1.06v-7.41h1.06v7.41Z"/><g class="cls-6"><path class="cls-3" d="m58.85,18.63c.27,0,.54.02.81.08.19.04.37.09.55.17l-.18.64c-.15-.07-.3-.13-.45-.19-.22-.07-.45-.11-.69-.1-.24,0-.49.03-.71.13-.18.09-.28.29-.27.49,0,.09.02.2.09.27s.13.15.22.2c.1.06.21.11.32.15l.39.12.53.17c.16.06.32.14.47.25.31.22.48.58.46.96,0,.22-.04.45-.15.64-.09.17-.24.31-.39.42-.17.12-.36.2-.56.24-.22.03-.45.03-.67.02-.2.02-.39.02-.59,0-.15-.02-.29-.05-.43-.09-.11-.02-.23-.06-.33-.11-.09-.04-.17-.09-.26-.13l.25-.64c.05.05.12.09.18.13.09.05.19.09.29.13.13.05.26.09.39.12.16.03.32.05.49.05.27.02.53-.05.75-.19.16-.13.26-.32.25-.53,0-.17-.07-.35-.21-.45-.22-.15-.46-.26-.72-.32l-.56-.19c-.17-.06-.33-.14-.47-.24-.14-.09-.25-.23-.34-.37-.09-.17-.13-.37-.13-.56-.02-.37.14-.72.45-.94.37-.24.8-.34,1.23-.31m-5.72.05v3.04c0,.15.02.31.06.45.04.11.09.21.18.29.08.07.17.13.27.16.11.03.22.05.34.05.3.02.59-.07.82-.24.22-.17.41-.39.53-.64v-3.09h.77v4.47h-.68l-.07-.81c-.13.27-.34.5-.59.67-.3.19-.65.27-1,.26-.38.02-.75-.13-1.03-.38-.28-.32-.42-.75-.39-1.18v-3.03h.78Zm-26.88-1.69c.27.07.53.17.78.3l-.24.72c-.22-.15-.45-.27-.71-.36-.3-.1-.61-.15-.93-.14-.58,0-1.15.24-1.52.67-.2.24-.37.51-.47.81-.13.35-.18.73-.17,1.11,0,.37.05.73.16,1.08.09.29.24.56.45.8.19.21.42.38.69.49.28.12.59.17.89.17.28,0,.56-.04.82-.13.25-.09.5-.2.73-.34l.23.54c-.22.16-.46.29-.73.38-.35.12-.72.18-1.1.17-.42,0-.83-.07-1.22-.22-.36-.14-.69-.36-.96-.64-.28-.28-.5-.62-.65-.99-.31-.87-.31-1.82,0-2.69.29-.76.9-1.36,1.67-1.64.4-.15.82-.22,1.26-.22.35,0,.68.03,1.01.12m7.89,1.6c.24,0,.49.02.74.09.2.04.38.12.55.22l-.24.67c-.16-.12-.33-.22-.51-.3-.19-.07-.39-.11-.6-.1-.2,0-.39.03-.57.11-.18.07-.35.19-.47.33-.14.16-.25.35-.31.54-.09.24-.13.5-.13.77-.03.46.13.93.43,1.28.31.3.73.45,1.16.43.38,0,.74-.13,1.05-.33l.17.56c-.17.13-.37.23-.58.29-.24.09-.49.13-.75.13-.31,0-.6-.05-.89-.16-.27-.1-.52-.26-.72-.46-.2-.21-.37-.46-.48-.74-.24-.64-.24-1.33,0-1.97.11-.27.27-.53.49-.74.22-.21.47-.37.76-.47.27-.11.58-.16.89-.16m15.02,0c.29,0,.58.05.85.16.27.1.5.26.71.45.21.21.38.45.49.73.24.64.24,1.35,0,1.99-.1.27-.26.53-.45.74-.2.2-.44.35-.71.45-.28.11-.58.16-.88.16-.29,0-.57-.05-.85-.16-.27-.1-.5-.26-.7-.45-.2-.21-.37-.46-.47-.74-.24-.64-.24-1.35,0-1.99.11-.27.27-.52.47-.73.2-.2.44-.35.7-.45.27-.1.56-.16.85-.16m14-.03c.28,0,.56.05.83.16.24.1.45.26.61.46.17.23.28.49.32.77.06.35.06.71,0,1.06h-3.09c.03,1.07.55,1.6,1.54,1.6.24,0,.48-.03.7-.11.2-.07.39-.16.57-.28l.22.56c-.2.15-.42.27-.65.34-.29.09-.59.14-.89.13-.63.03-1.24-.2-1.67-.64-.42-.48-.63-1.11-.59-1.73,0-.33.05-.67.16-.98.1-.27.25-.53.45-.74.18-.2.4-.35.65-.46.27-.08.55-.13.83-.13m-34.44,4.62h-.78v-6.48h.78v6.48h0Zm8.39,0h-.78v-6.48h.78v6.48h0Zm2.79-4.5l-1.86,2.01,1.99,2.49h-.91l-1.91-2.4,1.88-2.09h.8Zm1.86-1.72v2.84h3.25v-2.84h.84v6.22h-.84v-2.77h-3.25v2.75h-.84v-6.21h.84Zm-10.98,6.18h-.77v-4.47h.77v4.47Zm18.37-3.98c-.18,0-.35.03-.52.09-.17.06-.32.17-.45.31-.14.16-.25.35-.31.54-.09.26-.13.53-.12.81,0,.27.03.55.12.81.06.2.17.39.31.55.13.13.27.24.45.31.16.06.34.09.52.09s.36-.03.53-.09c.17-.06.34-.17.46-.31.14-.16.25-.35.32-.55.09-.26.13-.53.13-.81,0-.27-.04-.55-.13-.81-.07-.2-.18-.38-.32-.54-.13-.14-.28-.24-.46-.31-.17-.06-.35-.09-.53-.09m14.03-.05c-.31,0-.62.13-.84.35-.26.29-.42.65-.44,1.04h2.31c.06-.37-.02-.74-.24-1.04-.19-.23-.49-.35-.79-.34m-32.44-1.95c.09.09.14.22.13.35,0,.13-.05.25-.13.34-.09.09-.22.14-.35.13-.13,0-.26-.04-.35-.13-.09-.09-.15-.22-.14-.35,0-.13.04-.26.13-.35.2-.2.52-.2.72,0"/></g></svg>