<?xml version="1.0" encoding="UTF-8"?><svg id="Layer_1" xmlns="http://www.w3.org/2000/svg" xmlns:xlink="http://www.w3.org/1999/xlink" viewBox="0 0 64.47 40"><defs><style>.cls-1{clip-path:url(#clippath);}.cls-2{fill:none;}.cls-2,.cls-3{stroke-width:0px;}.cls-3{fill:#ccc;}</style><clipPath id="clippath"><rect class="cls-2" x="-271.62" y="14.29" width="49.85" height="11.42"/></clipPath></defs><g class="cls-1"><rect class="cls-2" x="-1084.26" y="-463.02" width="1512.71" height="786.61"/></g><path class="cls-3" d="m18.11,18.44h-2.05v3.11h2.05c.86,0,1.56-.7,1.56-1.56s-.7-1.56-1.56-1.56"/><path class="cls-3" d="m5.96,20c0,2.4,1.95,4.35,4.35,4.35s4.35-1.95,4.35-4.35-1.94-4.35-4.35-4.35-4.35,1.94-4.35,4.35"/><path class="cls-3" d="m35.26,21.42c0,.54-.44.98-.98.98h-.34c-.54,0-.98-.44-.98-.98v-3.41s-1.12,0-1.12,0v3.41c0,1.16.94,2.11,2.11,2.11h.34c1.16,0,2.11-.95,2.11-2.11v-3.41s-1.12,0-1.12,0v3.41Z"/><path class="cls-3" d="m39.12,18.87h.29c.65,0,1.16.52,1.16,1.16h1.13c0-1.26-1.03-2.3-2.29-2.3h-.29c-1.26,0-2.29,1.03-2.29,2.3v1.21c0,1.26,1.03,2.29,2.29,2.29h.29c1.26,0,2.29-1.03,2.29-2.29v-.08h-1.13v.08c0,.65-.52,1.16-1.16,1.16h-.29c-.65,0-1.16-.52-1.16-1.16v-1.21c0-.64.52-1.16,1.16-1.16"/><path class="cls-3" d="m56.41,22.33h-1.71v-1.94h1.71c.53,0,.97.43.97.97s-.43.97-.97.97m-1.71-4.74h1.37c.46,0,.84.38.84.84s-.38.84-.84.84h-1.37v-1.68Zm2.91,2.05c.26-.33.42-.76.42-1.22,0-1.08-.88-1.97-1.96-1.97h-2.49v7h2.84c1.15,0,2.1-.94,2.1-2.1,0-.7-.35-1.33-.9-1.71"/><path class="cls-3" d="m50.06,22.33h-1.36v-4.74h1.36c1.03,0,1.87,1.06,1.87,2.37s-.84,2.37-1.87,2.37m0-5.87h-2.49v7h2.49c1.65,0,3-1.57,3-3.5s-1.34-3.5-3-3.5"/><path class="cls-3" d="m28.36,22.33h-1.36v-4.74h1.36c1.03,0,1.87,1.06,1.87,2.37s-.84,2.37-1.87,2.37m0-5.87h-2.49v7h2.49c1.65,0,3-1.57,3-3.5s-1.34-3.5-3-3.5"/><polygon class="cls-3" points="46.83 17.76 45.28 17.76 43.41 19.75 43.41 16.48 42.28 16.48 42.28 23.45 43.41 23.45 43.41 21.4 43.95 20.83 45.79 23.45 47.17 23.45 44.74 19.98 46.83 17.76"/></svg>