<?xml version="1.0" encoding="utf-8"?>
<!-- Generator: Adobe Illustrator 27.8.0, SVG Export Plug-In . SVG Version: 6.00 Build 0)  -->
<svg version="1.1" id="Layer_1" xmlns="http://www.w3.org/2000/svg" xmlns:xlink="http://www.w3.org/1999/xlink" x="0px" y="0px"
	 viewBox="0 0 224 52" style="enable-background:new 0 0 224 52;" xml:space="preserve">
<style type="text/css">
	.st0{clip-path:url(#SVGID_00000130639322545281274720000006167636722411541153_);}
	.st1{fill:#287ABE;}
	.st2{fill:#B8E1F2;}
	.st3{fill:#B6E0F2;}
	.st4{fill:#90D4F0;}
	.st5{fill:#4D8AC8;}
	.st6{fill:#58AFDD;}
	.st7{fill:#266FA8;}
	.st8{fill:#F4FAFD;}
	.st9{fill:#E9F6FD;}
	.st10{fill:#68C1EA;}
	.st11{fill:#FFFFFF;}
</style>
<g>
	<defs>
		<rect id="SVGID_1_" width="224" height="51.3"/>
	</defs>
	<clipPath id="SVGID_00000049213053553321753890000010438741912649227451_">
		<use xlink:href="#SVGID_1_"  style="overflow:visible;"/>
	</clipPath>
	<g style="clip-path:url(#SVGID_00000049213053553321753890000010438741912649227451_);">
		<path class="st1" d="M219.9,12.1c2,2.2,2.8,4.9,3.5,7.7c3.2,14.2-5.3,27.9-19.6,30.9C188.2,54,175,43.2,173,29.6
			c-0.9-5.6,0.1-11.3,2.9-16.3c0.3-0.5,0.4-1,1-1.2l7.3,0.1l-2.5,5.3c0,0.2,0,0.4,0,0.5c1.8,5.2,5.2,9.6,8.4,14
			c0.3,1.9,0.1,3.8,0.9,5.6c2.3,2.6,4.7,5.3,7,7.9c0.2,0.2,0.4,0.3,0.6,0c1.1-0.7,1.4-1.8,2-2.8c1.3-2.2,2.8-4.3,3.8-6.7l0.3-0.5
			c1.3-0.5,2.1-1.7,3.3-2.4c0.4-0.2,0.7-0.5,0.9-0.9c0.2-0.4,0.3-0.8,0.2-1.3c-0.1-2.2,0-4.4,0-6.6c0.5-0.5,1-1.1,1.5-1.6
			c1.1-1.6,2.9-2.7,3.6-4.6c0.1,0,0.2,0,0.3-0.1c0.1-0.1,0.2-0.1,0.2-0.2c0.5-0.7,0-1.3-0.2-1.9c-0.4-1.2-1.1-2.3-1.2-3.6
			L219.9,12.1z"/>
		<path class="st2" d="M184.2,12.2l-7.3-0.1c1-2.5,2.9-4.3,4.9-6c3.4-2.9,7.3-4.8,11.7-5.6c7.7-1.4,14.6,0.3,20.8,5.1
			c2.3,1.8,4.4,3.8,5.6,6.5l-6.5,0.1l-5.3-0.1v-1.8l3.8,0l0.1-0.1l-0.1-0.2c-0.6-0.6-1.4-1.1-2.3-1.4c-0.8-0.3-1.7-0.5-2.6-0.4
			c-5.3,0.1-10.5,0.1-15.8,0c-1.8,0-3.4,0.8-4.9,1.8c-1.4,0.1-1.4,1.2-1.7,2.1L184.2,12.2z"/>
		<path class="st3" d="M181.7,18c0-0.2,0-0.4,0-0.5c3.1-0.9,5.9-2.4,8.8-3.8c0.9-0.4,2.2-0.4,2.7-1.6c1.8,0.1,3.6-0.3,5.3,0.2
			c0,4.1,0,8.3,0,12.5h-0.3c-3.4-1.4-6.7-2.9-10.1-4.3C186,19.7,184,18.4,181.7,18z"/>
		<path class="st4" d="M181.7,18c2.3,0.3,4.3,1.7,6.4,2.5c3.4,1.4,6.8,2.9,10.1,4.3c-0.3,1.3-1.5,1.6-2.3,2.3
			c-1.8,1.7-3.9,3-5.7,4.8c0,0-0.1,0-0.1,0C186.9,27.6,183.5,23.3,181.7,18z"/>
		<path class="st5" d="M209.2,24.3c0,2.2,0,4.4,0,6.6c0,0.4,0,0.9-0.2,1.3c-0.2,0.4-0.5,0.7-0.9,0.9c-1.2,0.7-2,1.9-3.3,2.4
			c-1.4-1.8-2.3-3.9-3.5-5.8c-0.9-1.3-1.2-2.9-2.7-3.7c0-0.3,0-0.6,0-0.8l0.6-0.3c0.3,0.3,0.6,0.3,0.9,0.2
			C203.1,24.9,206.1,24.6,209.2,24.3z"/>
		<path class="st3" d="M191,37.6c-0.8-1.8-0.6-3.8-0.9-5.6c0.1,0,0.1,0,0.1,0c2.7,0.1,5.3,0.2,8,0.6c0,2.1,0,4.1,0,6.2
			c-0.5,0-1.1-0.1-1.6-0.2C194.7,38.3,192.9,37.6,191,37.6z"/>
		<path class="st6" d="M198.2,38.8c0-2.1,0-4.1,0-6.2c0.6-2.1,0.1-4.4,0.3-6.5c1.5,0.8,1.8,2.5,2.7,3.7c1.3,1.9,2.1,4,3.5,5.8
			l-0.3,0.5l-6,2.7C198.4,38.8,198.3,38.8,198.2,38.8z"/>
		<path class="st5" d="M208,12.1l5.3,0.1c0.1,1.3,0.8,2.4,1.2,3.6c0.2,0.6,0.7,1.2,0.2,1.9c-0.1,0-0.2,0-0.3,0.1
			c-0.1,0.1-0.2,0.1-0.3,0.2c-1.1,0.2-2.1,0.8-3.1,1.2c-1,0.4-1.9,1.2-3.1,1.2C208,17.7,208,15,208,12.1L208,12.1z"/>
		<path class="st7" d="M208,20.4c1.2,0,2.1-0.7,3.1-1.2c1-0.4,2-1,3.1-1.2c-0.7,1.9-2.4,3-3.6,4.6c-0.5,0.6-1,1.1-1.5,1.6
			c-3,0.3-6.1,0.6-9.1,0.9c-0.3,0-0.7,0.1-0.9-0.2c2.1-1,4.2-1.9,6.3-2.9C206.3,21.5,207.4,21.3,208,20.4z"/>
		<path class="st4" d="M198.2,38.8c0.1,0,0.2,0,0.3,0c0,2.3,0.1,4.5,0.1,6.8c-0.2,0.3-0.4,0.2-0.6,0c-2.3-2.6-4.7-5.3-7-7.9
			c1.9,0,3.7,0.7,5.6,1C197.1,38.7,197.7,38.8,198.2,38.8z"/>
		<path class="st4" d="M193.2,12.2c-0.5,1.2-1.8,1.1-2.7,1.6c-2.9,1.3-5.7,2.8-8.8,3.8l2.5-5.3l0.4,0L193.2,12.2z"/>
		<path class="st7" d="M198.6,45.6c0-2.3-0.1-4.5-0.1-6.8l6-2.7c-1.1,2.4-2.5,4.5-3.8,6.7C200,43.7,199.7,44.9,198.6,45.6z"/>
		<path class="st7" d="M214.2,18c0.1-0.1,0.2-0.2,0.3-0.2c0.1-0.1,0.2-0.1,0.3-0.1c-0.1,0.1-0.1,0.2-0.3,0.2
			C214.4,18,214.3,18.1,214.2,18z"/>
		<path class="st8" d="M186.3,10c1.5-1,3-1.8,4.9-1.8c5.3,0,10.5,0.1,15.8,0c0.9-0.1,1.8,0.1,2.6,0.4c0.8,0.3,1.6,0.8,2.3,1.4
			c0,0.1,0,0.2,0,0.3l-3.8,0h-19.8C187.5,10.4,186.9,10.4,186.3,10z"/>
		<path class="st9" d="M186.3,10c0.6,0.4,1.2,0.3,1.9,0.3H208v1.8l0,0.1l-9.6,0.2c-1.7-0.5-3.5-0.2-5.3-0.2l-8.6,0
			C184.9,11.2,185,10.1,186.3,10z"/>
		<path class="st9" d="M211.8,10.3c0-0.1,0-0.2,0-0.3l0.1,0.2L211.8,10.3z"/>
		<path class="st10" d="M198.4,12.4l9.6-0.2c0,2.7,0,5.5,0,8.2c-0.7,0.9-1.7,1.1-2.6,1.5c-2.1,1-4.2,2-6.3,2.9l-0.6,0.3l-0.1-0.3
			L198.4,12.4z"/>
		<path class="st11" d="M5.5,39.2H0V12.6h5.5V39.2z"/>
		<path class="st11" d="M10.3,25.9c0-8.1,5.9-13.8,13.8-13.8c5,0,9.1,2.2,11.3,5.3l-4.8,3.1c-1.4-1.9-3.8-3.1-6.6-3.1
			c-4.7,0-8.1,3.4-8.1,8.5s3.3,8.5,8,8.5c2.9,0,5.4-1.3,6.9-3.7l4.6,3.3c-2.4,3.6-6.7,5.7-11.5,5.7C16.1,39.7,10.3,34,10.3,25.9z"/>
		<path class="st11" d="M60.1,34v5.1H40.3V12.6h19.6v5.1h-14v5.4h13.4v5.2H45.8V34L60.1,34z"/>
		<path class="st11" d="M87.2,31.7c0,4.3-3.2,7.5-8.3,7.5h-14V12.6H78c5,0,8,2.9,8,7.1c0,2.8-1.4,4.8-3.9,5.7
			C85.3,26,87.2,28.3,87.2,31.7z M70.4,17.3v6H77c2.2,0,3.3-1.2,3.3-3.2c0-1.8-1.1-2.8-3.3-2.8L70.4,17.3z M81.4,31.2
			c0-2-1.2-3.2-3.5-3.2h-7.5v6.5h7.5C80.3,34.5,81.4,33.3,81.4,31.2L81.4,31.2z"/>
		<path class="st11" d="M111.8,34v5.1H91.9V12.6h19.5v5.1h-14v5.4h13.4v5.2H97.5V34L111.8,34z"/>
		<path class="st11" d="M125.6,29.5h-3.6v9.7h-5.5V12.6h11.9c5.7,0,9.2,3.4,9.2,8.4c0,4-2.2,7-6.1,8.1l6.9,10h-6.6L125.6,29.5z
			 M122.1,24.3h6.2c2.4,0,3.6-1.1,3.6-3.3s-1.2-3.3-3.6-3.3h-6.2L122.1,24.3z"/>
		<path class="st11" d="M154.6,39.7c-7.9,0-13.8-5.6-13.8-13.8s6-13.7,13.9-13.7c4.1,0,7.9,1.5,10.7,4.6l-4.3,3.6
			c-0.8-0.9-1.8-1.7-2.9-2.2c-1.1-0.5-2.3-0.7-3.5-0.7c-4.9,0-8.1,3.5-8.1,8.5s3.2,8.5,8.2,8.5c3.6,0,6.2-1.9,7.1-5.4h-7.1v-4.6
			h13.2c0.1,0.6,0.1,1.3,0.1,1.9C168,34.2,162.4,39.7,154.6,39.7z"/>
	</g>
</g>
</svg>
