<?xml version="1.0" encoding="UTF-8"?><svg id="Layer_1" xmlns="http://www.w3.org/2000/svg" xmlns:xlink="http://www.w3.org/1999/xlink" viewBox="0 0 64.31 40"><defs><style>.cls-1{clip-path:url(#clippath);}.cls-2{fill:none;}.cls-2,.cls-3,.cls-4,.cls-5,.cls-6,.cls-7,.cls-8,.cls-9,.cls-10,.cls-11,.cls-12,.cls-13{stroke-width:0px;}.cls-3{fill:#4d8ac8;}.cls-4{fill:#287abe;}.cls-5{fill:#266fa8;}.cls-6{fill:#58afdd;}.cls-7{fill:#ccc;}.cls-8{fill:#b8e1f2;}.cls-9{fill:#90d4f0;}.cls-10{fill:#b6e0f2;}.cls-11{fill:#e9f6fd;}.cls-12{fill:#f4fafd;}.cls-13{fill:#68c1ea;}</style><clipPath id="clippath"><rect class="cls-2" x="7.23" y="14.29" width="49.85" height="11.42"/></clipPath></defs><g class="cls-1"><path class="cls-4" d="m56.17,16.98c.45.49.62,1.09.78,1.71.71,3.16-1.18,6.21-4.36,6.88-3.47.73-6.41-1.67-6.85-4.7-.2-1.25.02-2.51.65-3.63.07-.11.09-.22.22-.27l1.62.02-.56,1.18v.11c.4,1.16,1.16,2.14,1.87,3.12.07.42.02.85.2,1.25.51.58,1.05,1.18,1.56,1.76.04.04.09.07.13,0,.24-.16.31-.4.45-.62.29-.49.62-.96.85-1.49l.07-.11c.29-.11.47-.38.73-.53.09-.04.16-.11.2-.2.04-.09.07-.18.04-.29-.02-.49,0-.98,0-1.47.11-.11.22-.24.33-.36.24-.36.65-.6.8-1.02.02,0,.04,0,.07-.02s.04-.02.04-.04c.11-.16,0-.29-.04-.42-.09-.27-.24-.51-.27-.8l1.47-.04Z"/><path class="cls-8" d="m48.22,17.01l-1.62-.02c.22-.56.65-.96,1.09-1.34.76-.65,1.62-1.07,2.6-1.25,1.71-.31,3.25.07,4.63,1.14.51.4.98.85,1.25,1.45l-1.45.02-1.18-.02v-.4h.85l.02-.02-.02-.04c-.13-.13-.31-.24-.51-.31-.18-.07-.38-.11-.58-.09-1.18.02-2.34.02-3.52,0-.4,0-.76.18-1.09.4-.31.02-.31.27-.38.47l-.09.02Z"/><path class="cls-10" d="m47.67,18.3v-.11c.69-.2,1.31-.53,1.96-.85.2-.09.49-.09.6-.36.4.02.8-.07,1.18.04v2.78h-.07c-.76-.31-1.49-.65-2.25-.96-.47-.18-.91-.47-1.42-.56Z"/><path class="cls-9" d="m47.67,18.3c.51.07.96.38,1.42.56.76.31,1.51.65,2.25.96-.07.29-.33.36-.51.51-.4.38-.87.67-1.27,1.07h-.02c-.71-.96-1.47-1.91-1.87-3.09Z"/><path class="cls-3" d="m53.79,19.7v1.47c0,.09,0,.2-.04.29s-.11.16-.2.2c-.27.16-.45.42-.73.53-.31-.4-.51-.87-.78-1.29-.2-.29-.27-.65-.6-.82v-.18l.13-.07c.07.07.13.07.2.04.67-.04,1.34-.11,2.03-.18Z"/><path class="cls-10" d="m49.74,22.66c-.18-.4-.13-.85-.2-1.25h.02c.6.02,1.18.04,1.78.13v1.38c-.11,0-.24-.02-.36-.04-.42-.07-.82-.22-1.25-.22Z"/><path class="cls-6" d="m51.34,22.93v-1.38c.13-.47.02-.98.07-1.45.33.18.4.56.6.82.29.42.47.89.78,1.29l-.07.11-1.34.6h-.04Z"/><path class="cls-3" d="m53.52,16.98l1.18.02c.02.29.18.53.27.8.04.13.16.27.04.42-.02,0-.04,0-.07.02s-.04.02-.07.04c-.24.04-.47.18-.69.27-.22.09-.42.27-.69.27.02-.6.02-1.2.02-1.85h0Z"/><path class="cls-5" d="m53.52,18.83c.27,0,.47-.16.69-.27.22-.09.45-.22.69-.27-.16.42-.53.67-.8,1.02-.11.13-.22.24-.33.36-.67.07-1.36.13-2.03.2-.07,0-.16.02-.2-.04.47-.22.93-.42,1.4-.65.2-.11.45-.16.58-.36Z"/><path class="cls-9" d="m51.34,22.93h.07c0,.51.02,1,.02,1.51-.04.07-.09.04-.13,0-.51-.58-1.05-1.18-1.56-1.76.42,0,.82.16,1.25.22.11,0,.24.02.36.02Z"/><path class="cls-9" d="m50.23,17.01c-.11.27-.4.24-.6.36-.65.29-1.27.62-1.96.85l.56-1.18h.09l1.91-.02Z"/><path class="cls-5" d="m51.43,24.44c0-.51-.02-1-.02-1.51l1.34-.6c-.24.53-.56,1-.85,1.49-.16.2-.22.47-.47.62Z"/><path class="cls-5" d="m54.9,18.3s.04-.04.07-.04c.02-.02.04-.02.07-.02-.02.02-.02.04-.07.04-.02.02-.04.04-.07.02Z"/><path class="cls-12" d="m48.69,16.52c.33-.22.67-.4,1.09-.4,1.18,0,2.34.02,3.52,0,.2-.02.4.02.58.09.18.07.36.18.51.31v.07h-5.25c-.18.02-.31.02-.45-.07Z"/><path class="cls-11" d="m48.69,16.52c.13.09.27.07.42.07h4.41v.42l-2.14.04c-.38-.11-.78-.04-1.18-.04h-1.91c.09-.22.11-.47.4-.49Z"/><path class="cls-11" d="m54.37,16.58v-.07l.02.04-.02.02Z"/><path class="cls-13" d="m51.38,17.05l2.14-.04v1.83c-.16.2-.38.24-.58.33-.47.22-.93.45-1.4.65l-.13.07-.02-.07v-2.76Z"/><path class="cls-7" d="m8.45,23.02h-1.22v-5.92h1.22v5.92Z"/><path class="cls-7" d="m9.52,20.06c0-1.8,1.31-3.07,3.07-3.07,1.11,0,2.03.49,2.51,1.18l-1.07.69c-.31-.42-.85-.69-1.47-.69-1.05,0-1.8.76-1.8,1.89s.73,1.89,1.78,1.89c.65,0,1.2-.29,1.54-.82l1.02.73c-.53.8-1.49,1.27-2.56,1.27-1.74,0-3.03-1.27-3.03-3.07Z"/><path class="cls-7" d="m20.6,21.86v1.14h-4.41v-5.9h4.36v1.14h-3.12v1.2h2.98v1.16h-3v1.27h3.18Z"/><path class="cls-7" d="m26.64,21.35c0,.96-.71,1.67-1.85,1.67h-3.12v-5.92h2.92c1.11,0,1.78.65,1.78,1.58,0,.62-.31,1.07-.87,1.27.71.13,1.14.65,1.14,1.4Zm-3.74-3.2v1.34h1.47c.49,0,.73-.27.73-.71,0-.4-.24-.62-.73-.62h-1.47Zm2.45,3.09c0-.45-.27-.71-.78-.71h-1.67v1.45h1.67c.53,0,.78-.27.78-.73h0Z"/><path class="cls-7" d="m32.11,21.86v1.14h-4.43v-5.9h4.34v1.14h-3.12v1.2h2.98v1.16h-2.96v1.27h3.18Z"/><path class="cls-7" d="m35.18,20.86h-.8v2.16h-1.22v-5.92h2.65c1.27,0,2.05.76,2.05,1.87,0,.89-.49,1.56-1.36,1.8l1.54,2.23h-1.47l-1.38-2.14Zm-.78-1.16h1.38c.53,0,.8-.24.8-.73s-.27-.73-.8-.73h-1.38v1.47Z"/><path class="cls-7" d="m41.64,23.13c-1.76,0-3.07-1.25-3.07-3.07s1.34-3.05,3.09-3.05c.91,0,1.76.33,2.38,1.02l-.96.8c-.18-.2-.4-.38-.65-.49-.24-.11-.51-.16-.78-.16-1.09,0-1.8.78-1.8,1.89s.71,1.89,1.83,1.89c.8,0,1.38-.42,1.58-1.2h-1.58v-1.02h2.94c.02.13.02.29.02.42-.02,1.74-1.27,2.96-3,2.96Z"/><rect class="cls-2" x="-805.42" y="-463.02" width="1512.71" height="786.61"/></g></svg>