<?xml version="1.0" encoding="UTF-8"?><svg id="Layer_1" xmlns="http://www.w3.org/2000/svg" xmlns:xlink="http://www.w3.org/1999/xlink" viewBox="0 0 52.66 40"><defs><style>.cls-1{clip-path:url(#clippath);}.cls-2{fill:none;}.cls-2,.cls-3{stroke-width:0px;}.cls-3{fill:#ccc;}</style><clipPath id="clippath"><rect class="cls-2" x="152.56" y="14.29" width="49.85" height="11.42"/></clipPath></defs><path id="path3139" class="cls-3" d="m11.26,12.86h0c-.19-.19-.45-.31-.74-.31s-.55.12-.74.31h0c-.19.19-.3.46-.3.75s.12.56.3.75h0c.19.2.45.31.74.31s.55-.12.74-.31h0c.19-.19.3-.46.3-.76s-.12-.56-.3-.75c0,0,0,0,0,0Zm-.74,14.59h0c.29,0,.55-.12.74-.31h0c.19-.19.3-.46.3-.76s-.12-.56-.3-.76h0c-.19-.19-.45-.31-.74-.31s-.55.12-.74.31h0c-.19.19-.3.46-.3.76s.12.56.3.75h0c.19.19.45.32.74.32h0Zm5.71-3.23h0c.26-.07.49-.24.64-.5l.02-.04h0c.13-.24.15-.52.08-.77-.07-.27-.24-.5-.49-.65h-.01c-.24-.15-.52-.18-.78-.11-.26.07-.49.24-.64.5-.14.25-.17.54-.11.81.07.26.24.5.49.65h0c.25.15.53.17.8.1h0Zm-4.63-5.31h0c-.27-.28-.65-.45-1.07-.45s-.8.17-1.07.45c-.27.28-.44.66-.44,1.09s.17.81.44,1.1c.27.28.65.45,1.07.45s.8-.17,1.07-.45c.27-.28.44-.67.44-1.1s-.17-.81-.44-1.09h0Zm-.6-1.82h0c.61.1,1.16.4,1.58.83h0c.07.07.13.14.19.22l1.05-.62c-.14-.43-.15-.88-.03-1.31.15-.57.51-1.08,1.05-1.39h.02c.54-.32,1.15-.38,1.7-.23.56.15,1.06.52,1.37,1.07h0c.31.55.37,1.18.23,1.74-.15.57-.51,1.08-1.05,1.4l-.14.09h-.01c-.5.24-1.05.28-1.56.15-.42-.11-.8-.35-1.09-.68l-1.04.61c.12.32.19.67.19,1.04s-.07.72-.19,1.04l1.04.61c.3-.34.68-.57,1.09-.68.56-.16,1.18-.09,1.72.23l.03.02h0c.52.32.87.82,1.02,1.38.15.56.09,1.19-.23,1.74l-.02.04h0c-.31.53-.81.88-1.35,1.04-.56.15-1.18.09-1.72-.23h0c-.54-.32-.9-.83-1.05-1.4-.11-.42-.11-.87.03-1.31l-1.05-.61c-.06.07-.12.15-.19.21h0c-.42.43-.97.73-1.58.83v1.23c.43.09.82.31,1.13.62h0c.41.42.66.99.66,1.63s-.25,1.2-.66,1.62h0c-.41.42-.98.68-1.6.68s-1.19-.26-1.6-.67h0c-.41-.42-.66-1-.66-1.63s.25-1.21.66-1.62h0s0,0,0,0c.3-.31.69-.53,1.13-.62v-1.23c-.61-.1-1.16-.4-1.57-.82h0c-.52-.54-.85-1.27-.85-2.08s.33-1.55.85-2.08h0c.42-.43.96-.73,1.57-.83v-1.22c-.43-.1-.82-.32-1.13-.63h0c-.41-.42-.66-.99-.66-1.63s.25-1.21.66-1.62h0c.41-.42.98-.68,1.6-.68s1.19.26,1.6.67h0s0,0,0,0c.41.42.66.99.66,1.62s-.25,1.21-.66,1.62h0c-.3.31-.69.53-1.13.63,0,0,0,1.22,0,1.22Zm5.88-.82h0c-.14-.26-.37-.43-.63-.5-.26-.07-.55-.04-.8.11h0c-.25.15-.42.38-.49.65-.07.26-.04.56.11.81h0c.14.26.38.43.63.49.26.07.55.04.79-.1h.01c.24-.15.41-.39.48-.65.07-.27.04-.56-.1-.81h0"/><path id="path3141" class="cls-3" d="m21.51,16.63h1.17v3.63l1.68-1.89h1.4l-2.03,2.19,2.04,2.78h-1.34l-1.75-2.48v2.48h-1.17v-6.71"/><path id="path3143" class="cls-3" d="m27.11,20.87c0,.62.44,1.51,1.49,1.51.65,0,1.08-.34,1.3-.8.12-.22.17-.45.19-.7,0-.24-.04-.48-.13-.7-.2-.47-.66-.88-1.36-.88-.94,0-1.48.78-1.48,1.55,0,0,0,0,0,0Zm4.13,2.47h-1.17v-.72c-.31.58-.96.87-1.65.87-1.57,0-2.49-1.24-2.49-2.65,0-1.57,1.11-2.64,2.49-2.64.89,0,1.43.48,1.65.88v-.73h1.17v4.98"/><path id="path3145" class="cls-3" d="m32.57,19.28h-.6v-.92h.6v-.28c0-1.48,1.1-1.57,1.94-1.58v.91c-.29,0-.78,0-.78.7v.24h.78v.92h-.78v4.06h-1.17v-4.06"/><path id="path3147" class="cls-3" d="m35.3,16.63h1.17v3.63l1.68-1.89h1.4l-2.03,2.19,2.04,2.78h-1.34l-1.75-2.48v2.48h-1.17v-6.71"/><path id="path3149" class="cls-3" d="m40.91,20.87c0,.62.44,1.51,1.49,1.51.65,0,1.08-.34,1.3-.8.12-.22.17-.45.19-.7,0-.24-.04-.48-.13-.7-.2-.47-.66-.88-1.36-.88-.94,0-1.48.78-1.48,1.55,0,0,0,0,0,0Zm4.13,2.47h-1.17v-.72c-.31.58-.96.87-1.65.87-1.57,0-2.48-1.24-2.48-2.65,0-1.57,1.11-2.64,2.48-2.64.89,0,1.43.48,1.65.88v-.73h1.17v4.98"/><g class="cls-1"><rect class="cls-2" x="-660.09" y="-463.02" width="1512.71" height="786.61"/></g></svg>