<?xml version="1.0" encoding="UTF-8"?><svg id="Layer_1" xmlns="http://www.w3.org/2000/svg" xmlns:xlink="http://www.w3.org/1999/xlink" viewBox="0 0 52.66 40"><defs><style>.cls-1{clip-path:url(#clippath);}.cls-2{fill:none;}.cls-2,.cls-3,.cls-4,.cls-5,.cls-6{stroke-width:0px;}.cls-3{fill:url(#linear-gradient);}.cls-4{fill:url(#linear-gradient-2);}.cls-5{fill:url(#linear-gradient-3);}.cls-6{fill:#ccc;}</style><clipPath id="clippath"><rect class="cls-2" x="-356.09" y="14.29" width="49.85" height="11.42"/></clipPath><linearGradient id="linear-gradient" x1="-198.88" y1="-70.03" x2="-196.61" y2="-72.3" gradientTransform="translate(739.82 283.27) scale(3.7)" gradientUnits="userSpaceOnUse"><stop offset=".11" stop-color="#c757bc"/><stop offset=".17" stop-color="#cd5ca9"/><stop offset=".49" stop-color="#e8744f"/><stop offset=".72" stop-color="#f88316"/><stop offset=".82" stop-color="#ff8900"/></linearGradient><linearGradient id="linear-gradient-2" x1="-197.69" y1="-69.39" x2="-196.58" y2="-70.5" gradientTransform="translate(739.82 283.27) scale(3.7)" gradientUnits="userSpaceOnUse"><stop offset=".3" stop-color="#00afff"/><stop offset=".69" stop-color="#5282ff"/><stop offset="1" stop-color="#945dff"/></linearGradient><linearGradient id="linear-gradient-3" x1="-198.5" y1="-71.6" x2="-197.72" y2="-72.38" xlink:href="#linear-gradient-2"/></defs><g class="cls-1"><rect class="cls-2" x="-1168.74" y="-463.02" width="1512.71" height="786.61"/></g><path class="cls-6" d="m16.72,15.59h1.99v3.96l3.67-3.96h2.41l-3.69,3.84,3.86,5.21h-2.39l-2.81-3.86-1.05,1.09v2.77h-1.99v-9.06Z"/><path class="cls-6" d="m23.91,21.22v-.03c0-1.99,1.6-3.61,3.77-3.61s3.74,1.59,3.74,3.58v.03c0,1.99-1.6,3.61-3.77,3.61s-3.74-1.59-3.74-3.58Zm5.56,0v-.03c0-1.02-.74-1.92-1.83-1.92s-1.8.87-1.8,1.89v.03c0,1.02.74,1.92,1.83,1.92s1.8-.87,1.8-1.89Z"/><path class="cls-6" d="m31.95,22.68v-3.29h-.83v-1.68h.83v-1.77h1.97v1.77h1.63v1.68h-1.63v2.96c0,.45.19.67.63.67.34,0,.67-.08.97-.25v1.58c-.41.25-.89.4-1.55.4-1.21,0-2.02-.48-2.02-2.08h0Zm4.16-7.48h1.97v9.45h-1.97v-9.45Zm2.68,0h2.07v1.75h-2.07v-1.75h0Zm.05,2.51h1.97v6.94h-1.97v-6.94Zm2.72,0h1.97v.98c.45-.58,1.04-1.11,2.03-1.11,1.49,0,2.36.98,2.36,2.58v4.49h-1.97v-3.87c0-.93-.44-1.41-1.19-1.41s-1.23.48-1.23,1.41v3.87h-1.97v-6.94Z"/><path class="cls-3" d="m9.29,15.58l-4.55,4.78v4.27l4.54-4.55,4.52-4.51h-4.51Z"/><path class="cls-4" d="m4.75,24.64l4.54-4.55,4.52,4.55H4.75Z"/><path class="cls-5" d="m4.75,15.58h4.55l-4.55,4.78v-4.78Z"/></svg>