<?xml version="1.0" encoding="utf-8"?>
<!-- Generator: Adobe Illustrator 27.8.0, SVG Export Plug-In . SVG Version: 6.00 Build 0)  -->
<svg version="1.1" id="Layer_1" xmlns="http://www.w3.org/2000/svg" xmlns:xlink="http://www.w3.org/1999/xlink" x="0px" y="0px"
	 viewBox="0 0 2500 556" style="enable-background:new 0 0 2500 556;" xml:space="preserve">
<style type="text/css">
	.st0{fill:#FFFFFF;}
	.st1{fill:url(#SVGID_1_);}
	.st2{fill:url(#SVGID_00000150068182622859915630000012054331479764985518_);}
	.st3{fill:url(#SVGID_00000036934222661678733090000005066602575557531051_);}
</style>
<g>
	<path class="st0" d="M692.8,22.7h115.3v229.1l212.6-229.1H1160L946.6,245.1l223.1,301.7h-138.5L868.8,323.7l-60.6,62.9v160.2H692.8
		V22.7z"/>
	<path class="st0" d="M1108.5,348.4v-1.5c0-115.3,92.8-208.9,217.9-208.9c124.3,0,216.4,92.1,216.4,207.4v1.5
		c0,115.3-92.8,208.9-217.9,208.9C1200.6,555.8,1108.5,463.7,1108.5,348.4z M1430.4,348.4v-1.5c0-59.2-42.7-110.8-105.6-110.8
		c-65.1,0-104.1,50.2-104.1,109.3v1.5c0,59.1,42.7,110.8,105.6,110.8C1391.5,457.7,1430.4,407.5,1430.4,348.4z"/>
	<path class="st0" d="M1574.1,433V242.8h-47.9v-97.3h47.9V42.9H1688v102.6h94.3v97.3H1688v171.5c0,26.2,11.2,38.9,36.7,38.9
		c19.6,0.1,38.9-4.8,56.2-14.2v91.3c-24,14.2-51.7,23.2-89.8,23.2C1621.3,553.5,1574.1,525.8,1574.1,433L1574.1,433z M1815,0.2
		h113.8v546.6H1815V0.2z M1969.9,0.2h119.8v101.1h-119.8V0.2z M1972.9,145.5h113.8v401.3h-113.8L1972.9,145.5z M2130,145.5h113.8
		v56.9c26.2-33.7,59.9-64.4,117.5-64.4c86.1,0,136.3,56.9,136.3,149v259.8h-113.8V322.9c0-53.9-25.5-81.6-68.9-81.6
		c-43.4,0-71.1,27.7-71.1,81.6v223.9H2130L2130,145.5z"/>
</g>
<linearGradient id="SVGID_1_" gradientUnits="userSpaceOnUse" x1="666.0305" y1="348.3865" x2="797.6875" y2="480.0445" gradientTransform="matrix(3.7037 0 0 -3.7037 -2555 1794.5186)">
	<stop  offset="0.108" style="stop-color:#C757BC"/>
	<stop  offset="0.173" style="stop-color:#CD5CA9"/>
	<stop  offset="0.492" style="stop-color:#E8744F"/>
	<stop  offset="0.716" style="stop-color:#F88316"/>
	<stop  offset="0.823" style="stop-color:#FF8900"/>
</linearGradient>
<path class="st1" d="M263.1,22.4L0,299.1v247.3l262.7-263.2L524,22.4L263.1,22.4L263.1,22.4z"/>
<linearGradient id="SVGID_00000070831048790764613140000016954803263175850625_" gradientUnits="userSpaceOnUse" x1="735.004" y1="311.457" x2="799.176" y2="375.63" gradientTransform="matrix(3.7037 0 0 -3.7037 -2555 1794.5186)">
	<stop  offset="0.296" style="stop-color:#00AFFF"/>
	<stop  offset="0.694" style="stop-color:#5282FF"/>
	<stop  offset="1" style="stop-color:#945DFF"/>
</linearGradient>
<path style="fill:url(#SVGID_00000070831048790764613140000016954803263175850625_);" d="M0,546.4l262.7-263.2L524,546.4L0,546.4
	L0,546.4z"/>
<linearGradient id="SVGID_00000155855229551435925570000010452235263455119264_" gradientUnits="userSpaceOnUse" x1="688.151" y1="439.416" x2="733.169" y2="484.434" gradientTransform="matrix(3.7037 0 0 -3.7037 -2555 1794.5186)">
	<stop  offset="0.296" style="stop-color:#00AFFF"/>
	<stop  offset="0.694" style="stop-color:#5282FF"/>
	<stop  offset="1" style="stop-color:#945DFF"/>
</linearGradient>
<path style="fill:url(#SVGID_00000155855229551435925570000010452235263455119264_);" d="M0,22.4h263.1L0,299.1V22.4z"/>
</svg>
