<?xml version="1.0" encoding="UTF-8"?><svg id="Layer_1" xmlns="http://www.w3.org/2000/svg" xmlns:xlink="http://www.w3.org/1999/xlink" viewBox="0 0 87.88 40"><defs><style>.cls-1{clip-path:url(#clippath);}.cls-2{fill:none;}.cls-2,.cls-3,.cls-4,.cls-5{stroke-width:0px;}.cls-3{fill:#ccc;}.cls-4{fill:#326de6;}.cls-5{fill:#fff;}</style><clipPath id="clippath"><rect class="cls-2" x="-428.75" y="14.29" width="49.85" height="11.42"/></clipPath></defs><g class="cls-1"><rect class="cls-2" x="-1241.4" y="-463.02" width="1512.71" height="786.61"/></g><path id="path10349" class="cls-4" d="m16.87,16.28c-.08-.25-.27-.46-.51-.59l-4.84-2.32c-.13-.06-.27-.08-.4-.08s-.27,0-.4.03l-4.84,2.33c-.24.11-.41.32-.48.59l-1.19,5.22c-.05.27.02.54.17.76l3.35,4.14c.19.19.46.32.73.33h5.33c.29.03.56-.1.73-.33l3.35-4.14c.16-.22.22-.49.19-.76l-1.21-5.19h0Z"/><path id="path10351" class="cls-5" d="m16.13,21.26h0s-.03,0-.03-.02-.03-.02-.06-.02c-.06-.02-.13-.02-.19-.02-.03,0-.06,0-.1-.02h-.02c-.17-.02-.37-.05-.54-.1-.05-.02-.1-.06-.11-.11.02,0,0,0,0,0h0l-.13-.03c.06-.46.03-.94-.06-1.4-.11-.46-.3-.9-.56-1.3l.1-.1h0v-.02s.02-.11.05-.14c.14-.13.29-.22.44-.32h0s.06-.03.1-.05c.06-.03.11-.06.17-.1.02-.02.03-.02.05-.03.02-.02,0-.02,0-.03h0c.14-.11.17-.3.06-.44-.05-.06-.14-.11-.22-.11s-.16.03-.22.08h0l-.02.02s-.03.03-.05.03c-.05.05-.1.1-.13.14-.02.03-.05.05-.06.06h0c-.11.13-.25.25-.4.35-.03.02-.06.03-.1.03-.02,0-.05,0-.06-.02h-.02l-.13.08c-.13-.13-.27-.25-.4-.38-.59-.46-1.32-.75-2.06-.83l-.02-.13h0v.02s-.06-.08-.08-.13c0-.17,0-.35.03-.54v-.02s.02-.06.02-.1c.02-.06.02-.13.03-.19v-.1h0c.02-.16-.11-.32-.27-.33-.1-.02-.19.03-.27.11-.06.06-.1.14-.1.22h0v.08c0,.06.02.13.03.19.02.03.02.06.02.1v.02c.03.17.03.35.03.54-.02.05-.03.1-.08.13v.03h0l-.02.13c-.17.02-.35.05-.54.08-.75.16-1.43.56-1.95,1.11l-.1-.06h-.02s-.03.02-.06.02-.06-.02-.1-.03c-.14-.11-.29-.24-.4-.37h0s-.05-.05-.06-.06c-.05-.05-.08-.1-.13-.14-.02-.02-.03-.02-.05-.03l-.02-.02h0c-.06-.05-.14-.08-.22-.08-.1,0-.17.03-.22.11-.1.14-.06.33.06.44h0s.02.02.02.02c0,0,.03.03.05.03.05.03.11.06.17.1.03.02.06.03.1.05h0c.16.1.32.19.44.32.03.03.06.1.05.14v-.02h0l.1.1s-.03.05-.05.08c-.49.78-.7,1.7-.56,2.6l-.13.03h0s-.02.02-.02.02c-.02.05-.06.08-.11.11-.17.05-.35.08-.54.1h0s-.06,0-.1.02c-.06,0-.13.02-.19.02-.02,0-.03.02-.06.02t-.03.02h0c-.17.03-.29.19-.25.37h0c.03.14.17.24.32.22.03,0,.05,0,.08-.02h0s.02,0,.02-.02.05,0,.06,0c.06-.02.13-.05.17-.06.03-.02.06-.03.1-.03h.02c.17-.06.33-.11.52-.14h.02s.1.02.13.05c.02,0,.02.02.02.02h0l.14-.02c.24.73.68,1.38,1.3,1.86.14.11.27.21.43.29l-.08.11h0s.02.02.02.02c.03.05.03.11.02.16-.06.16-.16.32-.25.46v.02s-.03.05-.06.08c-.03.03-.06.1-.11.16-.02.02-.02.03-.03.05,0,0,0,.02-.02.02h0c-.08.16-.02.35.13.43.03.02.08.03.11.03.13,0,.24-.08.3-.19h0s0-.02.02-.02c0-.02.02-.03.03-.05.02-.06.05-.11.06-.17l.03-.1h0c.05-.17.13-.33.21-.49.03-.05.08-.08.13-.1t.02-.02h0l.06-.13c.44.17.9.25,1.38.25.29,0,.57-.03.86-.11.17-.03.35-.1.51-.14l.06.11h0s.02,0,.02.02c.05.02.1.05.13.1.08.16.16.32.21.49v.02l.03.1c.02.06.03.13.06.17.02.02.02.03.03.05,0,0,0,.02.02.02h0c.06.11.17.19.3.19.05,0,.08-.02.13-.03.06-.03.13-.1.14-.17.02-.08.02-.16-.02-.24h0s-.02-.02-.02-.02c0-.02-.02-.03-.03-.05-.03-.06-.06-.11-.11-.16-.02-.03-.03-.05-.06-.08v-.03c-.11-.14-.19-.3-.25-.46-.02-.05-.02-.11.02-.16,0-.02.02-.02.02-.02h0l-.05-.13c.81-.49,1.43-1.25,1.71-2.16l.13.02h0s.02-.02.02-.02c.03-.03.08-.05.13-.05h.02c.17.03.35.08.51.14h.02s.06.03.1.03c.06.03.11.06.17.08.02,0,.03.02.06.02t.03.02h0s.05.02.08.02c.14,0,.27-.1.32-.22-.02-.17-.14-.3-.29-.33h0Zm-4.59-.49l-.43.21-.43-.21-.11-.46.3-.38h.48l.3.38-.11.46Zm2.59-1.03c.08.33.1.67.06,1l-1.51-.43h0c-.14-.03-.22-.17-.19-.32.02-.05.03-.08.06-.11l1.19-1.08c.17.29.3.6.38.94Zm-.86-1.52l-1.3.92c-.11.06-.27.05-.35-.06-.03-.03-.05-.06-.05-.11l-.1-1.6c.7.08,1.32.38,1.79.86h0Zm-2.87-.81l.32-.06-.08,1.59h0c0,.14-.13.25-.27.25-.05,0-.08-.02-.13-.03l-1.32-.94c.41-.4.92-.68,1.48-.81Zm-1.94,1.4l1.17,1.05h0c.11.1.13.25.03.37-.03.05-.06.06-.13.08l-1.54.44c-.05-.67.11-1.35.46-1.94Zm-.27,2.68l1.57-.27c.13,0,.25.08.27.21.02.05.02.11-.02.16h0l-.6,1.46c-.56-.37-1-.92-1.22-1.56Zm3.6,1.97c-.22.05-.44.08-.68.08-.33,0-.68-.06-1-.16l.78-1.41c.08-.1.21-.13.32-.06.05.03.08.06.13.11h0l.76,1.38c-.1.02-.19.03-.3.06Zm1.94-1.38c-.24.38-.57.71-.95.95l-.62-1.49c-.03-.13.03-.25.14-.3.05-.02.1-.03.14-.03l1.59.27c-.08.22-.17.43-.3.6Z"/><path id="path3003" class="cls-3" d="m81.11,23.21c.22.02.46-.02.67-.1.13-.06.21-.21.19-.35-.02-.16-.11-.3-.25-.35-.24-.14-.51-.27-.78-.35-.27-.1-.51-.21-.73-.32-.21-.1-.38-.22-.56-.38-.16-.16-.27-.33-.35-.54-.1-.24-.13-.49-.13-.75-.02-.52.22-1.03.63-1.35.43-.33,1-.49,1.73-.49.35,0,.71.03,1.06.11.27.05.54.11.81.21l-.3,1.35c-.22-.08-.43-.13-.65-.19-.25-.06-.52-.08-.78-.08-.54,0-.81.14-.81.44,0,.06.02.13.03.19.03.06.08.11.14.16s.16.1.27.16.27.13.46.19c.32.11.63.25.92.41.22.11.41.25.57.44.14.14.24.32.3.52.06.22.1.44.1.67.03.54-.22,1.06-.68,1.37-.44.3-1.08.46-1.9.46-.46.02-.9-.03-1.35-.14-.25-.06-.49-.14-.73-.22l.29-1.4c.29.11.59.21.89.27.32.02.62.05.94.05m-8.75-1.75c-.02-.48.08-.95.24-1.4.14-.38.37-.71.65-1.02.27-.27.57-.48.92-.6.35-.14.71-.21,1.08-.21.86,0,1.54.27,2.03.79.49.52.75,1.3.75,2.32,0,.1,0,.21-.02.33,0,.13-.02.22-.02.32h-3.87c.03.33.21.65.49.84.35.22.76.33,1.17.32.3,0,.62-.03.92-.08.25-.05.51-.13.75-.24l.24,1.4c-.11.06-.24.1-.37.14-.17.05-.35.1-.52.11-.19.03-.38.06-.6.1-.21.02-.43.03-.65.03-.49.02-.97-.06-1.43-.24-.38-.14-.71-.37-1-.65-.27-.29-.46-.63-.59-1-.11-.43-.17-.86-.17-1.27m4.02-.65c0-.14-.03-.29-.08-.43-.03-.14-.11-.25-.19-.37-.1-.11-.21-.21-.33-.27-.16-.08-.32-.11-.49-.11s-.33.03-.49.11c-.13.06-.25.14-.35.25-.1.11-.17.24-.22.38s-.08.29-.1.43h2.25m-8.67-3.94l1.71-.27v1.78h2.06v1.43h-2.06v2.13c-.02.3.05.6.19.86.13.21.38.32.78.32.19,0,.38-.02.56-.05.19-.03.37-.08.54-.14l.24,1.33c-.22.1-.46.16-.7.22-.3.06-.62.1-.94.1-.4.02-.79-.05-1.16-.19-.29-.11-.54-.3-.73-.52-.19-.24-.32-.52-.4-.83-.08-.35-.11-.71-.1-1.06v-5.1m-6.94,4.59c-.02-.48.08-.95.24-1.4.14-.38.37-.71.65-1.02.27-.27.57-.48.92-.6.35-.14.71-.21,1.08-.21.86,0,1.54.27,2.03.79.49.52.75,1.3.75,2.32,0,.1,0,.21-.02.33s-.02.22-.02.32h-3.89c.03.33.21.65.49.84.35.22.76.33,1.17.32.3,0,.62-.03.92-.08.25-.05.51-.13.76-.24l.24,1.4c-.11.06-.24.1-.37.14-.17.05-.35.1-.52.11-.19.03-.38.06-.6.1-.21.02-.43.03-.65.03-.49.02-.97-.06-1.43-.24-.38-.14-.71-.37-1-.65-.27-.29-.46-.63-.59-1-.13-.43-.19-.86-.17-1.27m4.02-.65c0-.14-.03-.29-.08-.43-.03-.14-.11-.25-.19-.37-.1-.11-.21-.21-.33-.27-.16-.08-.32-.11-.49-.11s-.33.03-.49.11c-.13.06-.24.14-.33.25-.1.11-.17.24-.22.38s-.08.29-.1.43h2.24m-10.52-2.22c.37-.1.75-.17,1.13-.24.48-.08.97-.11,1.44-.11.43-.02.86.06,1.27.21.32.11.6.3.81.56.21.25.35.56.43.87.1.37.13.75.13,1.13v3.41h-1.7v-3.19c0-.56-.08-.94-.22-1.17-.14-.22-.41-.35-.81-.35-.13,0-.25,0-.4.02-.14,0-.25.02-.37.03v4.67h-1.71v-5.83m-1.21,1.32c-.16-.03-.33-.08-.54-.11-.22-.05-.44-.06-.67-.06-.13,0-.25.02-.4.03-.11.02-.22.03-.33.06v4.62h-1.71v-5.75c.35-.13.71-.22,1.08-.3.46-.11.94-.16,1.4-.14.11,0,.22.02.33.02.13,0,.25.02.4.05.13.02.25.03.4.06.11.02.22.05.33.1l-.29,1.43m-10.65,1.56c-.02-.48.08-.95.24-1.4.14-.38.37-.71.65-1.02.27-.27.57-.48.92-.6.35-.14.71-.21,1.08-.21.86,0,1.54.27,2.03.79.49.52.75,1.3.75,2.3,0,.1,0,.21-.02.33s-.02.22-.02.32h-3.89c.03.33.21.65.49.84.35.22.76.33,1.17.32.3,0,.62-.03.92-.08.25-.05.51-.13.75-.22l.24,1.4c-.11.06-.24.1-.37.14-.17.05-.35.1-.52.11-.19.03-.38.06-.6.1-.21.02-.43.03-.65.03-.49.02-.97-.06-1.43-.24-.38-.14-.71-.37-1-.65-.27-.29-.46-.63-.59-1-.1-.43-.16-.84-.16-1.27m4.03-.65c0-.14-.03-.29-.08-.43-.03-.14-.11-.25-.19-.37-.1-.11-.21-.21-.33-.27-.16-.08-.32-.11-.49-.11s-.33.03-.49.11c-.13.06-.25.14-.35.25-.1.11-.17.24-.22.38-.05.14-.08.29-.1.43h2.25m-6.81.56c0-1.11-.41-1.65-1.22-1.65-.17,0-.35.02-.52.06-.14.03-.29.1-.41.17v3.11c.08.02.19.03.32.05s.27.02.43.02c.41.03.81-.14,1.06-.48.24-.38.37-.83.35-1.29m1.75.06c0,.44-.06.89-.22,1.32-.13.38-.33.71-.6,1-.29.29-.62.51-.98.65-.43.16-.87.22-1.33.22-.21,0-.43-.02-.65-.03-.22-.02-.44-.05-.67-.06-.21-.03-.41-.06-.62-.11-.21-.03-.38-.08-.52-.14v-8.49l1.71-.27v3.02c.19-.08.4-.14.6-.19.22-.05.44-.06.67-.06.4,0,.78.06,1.14.24.32.14.6.37.83.63.24.3.41.63.51,1,.1.4.14.84.14,1.29m-7.24,2.79c-.37.1-.75.17-1.13.22-.48.08-.97.11-1.44.11-.44.02-.87-.06-1.29-.21-.32-.13-.59-.32-.81-.57-.21-.27-.35-.57-.43-.9-.1-.37-.13-.76-.13-1.14v-3.35h1.71v3.16c0,.56.08.95.22,1.19s.41.37.81.37c.13,0,.25,0,.4-.02s.25-.02.37-.05v-4.65h1.71v5.84m-10-3.65c.17-.19.33-.38.52-.57.17-.21.35-.4.52-.59.17-.21.33-.38.48-.56s.29-.33.4-.46h2.03c-.41.46-.81.92-1.19,1.35-.4.43-.81.87-1.27,1.32.25.24.49.48.71.75.24.29.48.57.71.89.22.3.44.62.63.92.19.3.35.59.48.84h-1.97c-.13-.21-.27-.41-.43-.65s-.33-.48-.49-.73c-.17-.24-.37-.48-.57-.7-.17-.21-.37-.4-.57-.56v2.65h-1.71v-8.7l1.71-.27v5.06"/></svg>