<?xml version="1.0" encoding="UTF-8"?><svg id="Layer_1" xmlns="http://www.w3.org/2000/svg" xmlns:xlink="http://www.w3.org/1999/xlink" viewBox="0 0 63.22 40"><defs><style>.cls-1{clip-path:url(#clippath);}.cls-2{fill:none;}.cls-2,.cls-3{stroke-width:0px;}.cls-3{fill:#ccc;}</style><clipPath id="clippath"><rect class="cls-2" x="85.34" y="14.29" width="49.85" height="11.42"/></clipPath></defs><path class="cls-3" d="m10.72,24.98c-.56-.6-.58-.63-.48-.74.16-.18,7.01-6.45,7.11-6.51.09-.05.92.36,1.11.54.07.07-.48.65-3.45,3.69-1.94,1.98-3.57,3.62-3.62,3.63-.05,0-.35-.26-.67-.61h0Zm30.27-.06c-.05-.05-.07-.39-.07-1.19,0-.61-.02-1.11-.04-1.11s-.18.12-.35.27c-.41.36-.77.48-1.37.45-1.34-.06-2.14-1.22-2.14-3.09,0-1.17.28-1.98.86-2.54.62-.58,1.48-.74,2.2-.39.2.1.45.26.54.36.1.1.2.19.22.19s.05-.13.06-.29l.02-.29,1.55-.03-.02,3.85-.02,3.85-.7.02c-.49.01-.72,0-.78-.06h0Zm-.73-3.07c.86-.44.94-2.49.12-3.11-.3-.23-.81-.26-1.1-.06-.42.29-.67.86-.67,1.56,0,1.28.79,2.05,1.65,1.61h0Zm-31.08,1.53c-.3-.31-.5-.55-.48-.6.03-.09,3.97-3.27,4.05-3.27.09,0,1.02.71,1.02.77,0,.07-3.96,3.6-4.04,3.6-.02,0-.27-.23-.55-.51h0Zm42.71-.07c-.52-.11-.93-.35-1.33-.77-.56-.59-.82-1.31-.82-2.29,0-1.34.58-2.4,1.58-2.89.37-.18.43-.19,1.07-.19s.71.02,1.02.16c.95.45,1.54,1.62,1.49,2.97l-.02.51-1.73.02c-.95,0-1.75.04-1.78.07-.08.08.2.66.42.85.49.43,1.17.4,1.83-.07l.28-.2.24.27c.13.15.31.37.4.48l.16.21-.27.24c-.48.43-1.26.72-1.91.71-.14,0-.42-.04-.63-.09h0Zm1.4-3.57c.09-.07.09-.11.01-.4-.22-.81-.95-1.15-1.5-.69-.22.18-.33.38-.42.77-.06.24-.06.3.01.34.14.09,1.78.07,1.9-.02h0Zm-25.1,3.52c-.81-.3-1.26-1.2-1.08-2.17.12-.68.43-1.08,1-1.34.41-.18,1.38-.23,1.87-.09.19.05.35.1.37.1.08,0,.1-.22.04-.45-.08-.28-.24-.49-.51-.63-.27-.15-.96-.12-1.49.05-.25.08-.46.12-.48.09-.07-.08-.37-.97-.37-1.09,0-.23,1.06-.52,1.91-.53,1.01,0,1.67.24,2.07.79.42.57.43.64.43,3.08v2.19l-.69.02c-.38,0-.72,0-.75-.04-.03-.03-.07-.14-.08-.25-.01-.11-.04-.21-.06-.23-.02-.02-.13.06-.25.16-.37.33-.56.4-1.16.42-.36.01-.62,0-.78-.07h0Zm1.8-1.21c.32-.18.46-.47.46-.91s-.08-.49-.76-.52c-.44-.02-.51,0-.7.12-.29.2-.38.38-.35.76.04.49.25.68.8.68.21,0,.38-.04.54-.13h0Zm14.89,1.22c-.34-.11-.78-.55-.93-.94-.14-.34-.14-.39-.14-2.69v-2.34s1.54-.03,1.54-.03l.02,2.02c.02,1.8.03,2.05.13,2.22.32.58,1.15.58,1.46,0,.13-.24.13-.33.15-2.24l.02-1.99,1.54.03.02,2.91c.01,2.14,0,2.94-.05,3-.05.07-.23.08-.78.07l-.71-.02-.02-.27c-.01-.15-.04-.3-.07-.33-.03-.03-.17.06-.32.21-.38.37-.66.48-1.21.48-.25,0-.55-.03-.66-.07h0Zm12.26.02c-.36-.11-.59-.31-.76-.66l-.17-.35-.04-3.68h-.23c-.33,0-.38-.08-.35-.74.02-.56.02-.57.17-.59.45-.05.43,0,.43-.76,0-.45.02-.71.07-.76.1-.1,1.42-.1,1.49,0,.03.04.06.39.08.78l.03.7,1.13.04-.02.65-.02.65-1.13.03v1.55c0,1.95-.04,1.88,1,1.72.11-.02.12.02.14.58l.02.6-.29.13c-.32.15-1.24.21-1.55.11h0Zm-36.02-.08s-.02-1.82-.01-3.94l.02-3.86h1.64c1.54,0,1.67.02,2.04.14,1.08.37,1.67,1.17,1.75,2.35.08,1.21-.47,2.2-1.46,2.64-.52.23-.91.31-1.65.31-.45,0-.65.02-.7.08-.04.05-.07.5-.08,1.2l-.02,1.12-.75.02c-.56.01-.75,0-.78-.06h0Zm3.1-3.93c.45-.21.7-.62.7-1.15,0-.84-.43-1.21-1.45-1.28-.84-.05-.8-.11-.8,1.23,0,.61.02,1.16.04,1.21.06.15,1.18.13,1.51-.02h0Zm9.04,3.92c-.05-.06-.06-.9-.05-3l.02-2.91.76-.02c.56-.01.77,0,.8.06.03.04.05.22.05.4,0,.31.08.43.15.21.05-.15.45-.55.66-.66.1-.05.31-.11.48-.13l.3-.04v1.71l-.26.04c-.43.07-.71.21-.93.47-.35.41-.39.67-.39,2.28,0,.86-.02,1.47-.06,1.54-.06.11-.13.12-.75.12-.51,0-.71-.02-.76-.08h0Zm-25.52-1.29c-.24-.27-.39-.48-.36-.51.17-.15,1.88-1.34,1.93-1.34.09,0,.92.71.92.79,0,.1-1.85,1.52-1.98,1.52-.06,0-.29-.21-.52-.46Zm-1.18-1.21c-.34-.34-.38-.41-.3-.48.11-.1,5.55-3.62,5.66-3.66.09-.03.84.42.84.51,0,.06-5.58,3.97-5.71,4-.05.01-.26-.14-.49-.37h0Zm3.63-.55c-.22-.19-.41-.37-.41-.41,0-.04.2-.21.44-.38.24-.17,1.32-.94,2.4-1.72,1.08-.78,2.01-1.41,2.06-1.41.15,0,.88.43.86.5-.03.1-4.76,3.76-4.85,3.76-.05,0-.28-.15-.5-.34h0Zm-4.73-.55c-.27-.28-.31-.35-.24-.42.06-.06,3.43-2.05,3.84-2.27.07-.04.78.48.76.55-.03.09-3.83,2.48-3.94,2.48-.05,0-.24-.15-.42-.34h0Zm8.15.02c-.25-.18-.46-.35-.47-.39-.02-.05,2.22-1.91,2.73-2.27.1-.07.18-.05.6.18.27.14.49.29.49.32,0,.09-2.66,2.43-2.79,2.45-.06,0-.31-.13-.55-.3h0Zm-9.06-.98l-.32-.33.14-.09c.08-.05,1.69-.93,3.57-1.95l3.43-1.86.33.16c.18.09.33.19.33.23,0,.05-7.05,4.17-7.13,4.17,0,0-.16-.15-.34-.33h0Zm5.27-1.66c-.16-.12-.29-.25-.29-.29,0-.04.64-.45,1.43-.91l1.43-.84.37.2c.2.11.37.22.37.24,0,.07-2.8,1.82-2.91,1.82-.05,0-.23-.1-.39-.22h0Zm2.86-.36c-.19-.12-.35-.25-.35-.29,0-.07.97-.72,1.13-.76.07-.02.73.33.78.41.02.03-.02.09-.08.14-.2.18-1.01.71-1.07.71-.04,0-.22-.1-.41-.22h0Z"/><g class="cls-1"><rect class="cls-2" x="-727.31" y="-463.02" width="1512.71" height="786.61"/></g></svg>