<?xml version="1.0" encoding="UTF-8"?><svg id="Layer_1" xmlns="http://www.w3.org/2000/svg" xmlns:xlink="http://www.w3.org/1999/xlink" viewBox="0 0 52.66 40"><defs><style>.cls-1{clip-path:url(#clippath);}.cls-2{fill:none;}.cls-2,.cls-3,.cls-4,.cls-5,.cls-6,.cls-7,.cls-8,.cls-9,.cls-10{stroke-width:0px;}.cls-3{fill:#8accce;isolation:isolate;opacity:.2;}.cls-4{fill:#f9d8d2;}.cls-5{fill:#10110e;}.cls-6{fill:#ccc;}.cls-7{fill:#dd00a1;}.cls-8{fill:#cdcccc;}.cls-9{fill:#fff;}.cls-10{fill:#e5e5e5;}</style><clipPath id="clippath"><rect class="cls-2" x="225.22" y="14.29" width="49.85" height="11.42"/></clipPath></defs><path class="cls-8" d="m17.7,19.74c0-.46-.41-.84-.92-.84s-.92.38-.92.84c0,.33.25.61.59.71v1.28c-.4-.94-1.16-1.72-2.13-2.2.14-.28.29-.52.43-.74.53-.71,1.11-1.39,1.75-2.03.35-.38.68-.73.95-1.04.75-.86,1.58-2.12,1.42-2.87-.04-.21-.18-.4-.39-.51-1.04-.56-2.47,1.26-3.86,3.02-.92,1.16-1.4,2.8-1.62,3.72-.43-.09-.87-.13-1.3-.13-.64,0-1.27.09-1.87.28-.04-1.03,0-2.06.1-3.08.31-2.66.17-4.23-.4-4.76-.15-.16-.37-.25-.6-.25-1.68.08-1.49,4.64-1.46,5.17.07,1.25.62,2.77.95,3.61-.78.56-1.34,1.32-1.62,2.19h-.12c-.53-.02-.98.35-1,.83,0,0,0,0,0,0v1.45c.02.48.47.86,1,.84,0,0,0,0,0,0h.2c.23.49.58.94,1.01,1.3l-.31.25c-.15.12-.17.32-.04.46.92,1.02,2.44,1.61,4.14,1.61s3.22-.59,4.14-1.61c.13-.14.11-.34-.04-.46l-.31-.25c.44-.37.78-.82,1.01-1.32h.23c.53.02.98-.35,1-.84,0,0,0,0,0,0v-1.44c0-.34-.24-.63-.59-.75v-1.73c.35-.1.58-.39.59-.71Z"/><path class="cls-9" d="m10.16,26.76c.28-.17-.46-.11-.52-.22-.3-.02-.59-.07-.88-.14-.52-.13-1.78-.89-1.92-1.63s0-2.13.57-2.97c.36-.51.81-.96,1.35-1.32,0,0-1.1-2.38-1.19-4.17s.06-4.99,1.35-5.05c1.29-.06,1.1,2.94.88,4.88-.13,1.29-.15,2.59-.06,3.89.55-.16,1.12-.25,1.7-.26.51-.01,1.01.03,1.51.13,0,0,.41-2.76,1.76-4.48s2.77-3.49,3.7-2.99-.25,2.29-1.07,3.22-2.23,2.33-2.7,3.08c-.31.5-.58,1.01-.82,1.54.84.39,1.53,1.01,1.97,1.77.67,1.21.72,2.69.36,3.32-.36.59-1,1-1.73,1.12-.41.02-2.13.41-2.13.41l-2.11-.13Z"/><path class="cls-7" d="m13.17,19.92s1.03-2.44,1.95-3.81,2.16-2.41,2.55-2.2-.79,1.49-1.83,2.75c-.84,1.11-1.61,2.27-2.29,3.47l-.38-.21Z"/><path class="cls-7" d="m9.04,20.34l.31-.21s-.04-2.44,0-3.92.13-3.33-.42-3.32-.92,1.45-.71,3.47c.15,1.34.43,2.67.82,3.98Z"/><ellipse class="cls-4" cx="8.12" cy="25.03" rx=".6" ry=".54"/><ellipse class="cls-4" cx="15.19" cy="25.03" rx=".6" ry=".54"/><path class="cls-5" d="m12.65,24.98s-.06,0-.08.02c0,0,0,0,0,0,0,0-.18.28-.44.3-.18,0-.34-.08-.46-.2v-.41c.17-.08.43-.34.43-.42-.05-.19-.24-.32-.46-.31-.31,0-.52.18-.52.33s.34.35.43.4v.41c-.1.11-.25.18-.4.19-.24,0-.43-.3-.43-.31-.01-.02-.05-.03-.08-.02-.03.01-.04.05-.02.07,0,0,.22.36.53.36.18,0,.35-.08.47-.2.13.12.3.19.49.2h.04c.22-.04.42-.17.53-.35.02-.02,0-.05-.02-.07,0,0,0,0,0,0Z"/><path class="cls-10" d="m8.75,20.48s-.85-1.96-1.02-2.99-.31-2.74-.09-3.88c.09-.53.22-1.05.38-1.56,0,0-.4,2.66-.25,3.82s.98,4.6.98,4.6Z"/><path class="cls-10" d="m12.93,19.9s.62-2.97,1.51-4.13,2.01-2.58,2.57-2.94l.56-.36s-2.26,2.16-3.14,3.92-1.51,3.5-1.51,3.5Z"/><path class="cls-5" d="m9.35,23.26c-.26,0-.47.19-.47.42s.21.43.47.43c.26,0,.47-.19.47-.42,0,0,0,0,0,0,0-.23-.21-.42-.47-.43Zm.13.39c-.07,0-.13-.05-.13-.11,0-.06.06-.11.13-.11.07,0,.13.05.13.11,0,.06-.06.11-.13.11,0,0,0,0,0,0h0Z"/><path class="cls-5" d="m13.95,23.26c-.26,0-.47.19-.47.43,0,.24.21.43.47.43s.47-.19.47-.43-.21-.43-.47-.43h0Zm.13.39c-.07,0-.12-.05-.13-.11.01-.06.08-.11.15-.1.06,0,.1.05.11.1,0,.06-.06.11-.13.11Z"/><ellipse class="cls-3" cx="11.73" cy="23.84" rx="4.35" ry="2.85"/><path class="cls-9" d="m16.99,22.26v-1.87c.33-.07.58-.33.59-.64-.05-.41-.45-.7-.9-.66-.38.04-.68.31-.73.66.01.31.26.57.59.64v1.82h-.06c-.62-1.94-2.44-3.15-4.81-3.15s-4.21,1.2-4.82,3.15h-.21c-.46-.02-.86.3-.89.73v1.45c.03.42.42.74.89.72h.28c.24.55.62,1.04,1.11,1.43l-.4.32c-.1.08-.12.22-.03.31,0,0,0,0,0,0,.9.99,2.38,1.57,4.05,1.57s3.15-.56,4.05-1.57c.09-.09.08-.23-.03-.31,0,0,0,0,0,0l-.4-.32c.49-.39.87-.88,1.11-1.43h.31c.46.02.86-.3.89-.72v-1.45c-.01-.32-.25-.59-.59-.68Zm-5.32-1.13c2.2,0,3.99,1.32,3.99,2.93,0,1.75-2.01,2.52-3.99,2.52s-3.99-.78-3.99-2.52c0-1.62,1.79-2.93,3.99-2.93Z"/><path class="cls-6" d="m17.14,23.9h-.59v-.26c0-.36-.04-.71-.12-1.06h.25c.23-.01.43.14.44.35,0,0,0,0,0,.01l.02.96Z"/><path class="cls-6" d="m16.7,24.75h-.31c.06-.2.1-.4.13-.6h.62v.24c0,.21-.2.37-.43.36,0,0,0,0-.01,0Z"/><path class="cls-6" d="m11.68,28.37c-1.48,0-2.79-.48-3.62-1.34l.42-.34c.95.57,2.07.87,3.21.84,1.14.03,2.26-.27,3.21-.84l.41.34c-.83.86-2.14,1.34-3.62,1.34Z"/><path class="cls-6" d="m6.65,22.58h.27c-.08.35-.12.71-.12,1.06,0,.09,0,.18,0,.26h-.58v-.96c0-.2.17-.36.39-.37.01,0,.03,0,.04,0Z"/><path class="cls-6" d="m11.68,20.89c-.5,0-1,.07-1.48.19v-1.46c.48-.12.98-.19,1.48-.18.5,0,1,.06,1.48.18v1.47c-.48-.14-.98-.2-1.48-.2Z"/><path class="cls-6" d="m9.9,19.7v1.47c-1.48.49-2.51,1.6-2.51,2.88,0,1.66,1.73,2.78,4.28,2.78s4.28-1.12,4.28-2.78c0-1.28-1.04-2.39-2.51-2.88v-1.47c1.73.56,2.81,2.01,2.81,3.95,0,2.17-1.83,3.64-4.58,3.64s-4.58-1.46-4.58-3.64c0-1.93,1.08-3.38,2.81-3.95Z"/><path class="cls-6" d="m6.21,24.15h.62c.03.2.07.4.13.6h-.31c-.23.01-.43-.14-.44-.35,0,0,0,0,0,0v-.24Z"/><ellipse class="cls-6" cx="16.77" cy="19.74" rx=".37" ry=".3"/><path class="cls-6" d="m25.3,21.45h-1.79v-1.48c0-.22-.19-.39-.43-.39h-.02c-.24,0-.43.18-.43.39h0v1.48h-.52c-.23,0-.42.17-.42.38,0,0,0,0,0,0h0c0,.21.19.38.42.38h.52v3.55c-.03.47.14.93.48,1.29.36.33.86.5,1.37.48.36,0,.72-.07,1.05-.2.1-.05.17-.14.17-.25v-.25c0-.15-.14-.28-.31-.28-.05,0-.1.01-.14.03-.24.11-.5.17-.77.17-.27.02-.54-.06-.73-.24-.18-.22-.27-.5-.24-.77v-3.52h1.79c.23,0,.41-.17.42-.37,0,0,0,0,0,0h0c0-.21-.17-.38-.4-.39,0,0-.01,0-.02,0Z"/><path class="cls-6" d="m29.78,21.32c-.35,0-.69.06-1.01.19-.3.12-.57.28-.8.48-.11.1-.21.2-.31.31v-.46c0-.22-.19-.39-.43-.39h0c-.24,0-.43.18-.43.39h0v5.2c0,.22.19.39.43.39h0c.24,0,.43-.18.43-.39h0v-2.69c0-.25.06-.51.15-.75.1-.27.25-.52.43-.74.18-.22.41-.41.67-.56.25-.14.54-.21.84-.21h.06c.17,0,.31-.13.31-.28v-.22c0-.15-.14-.28-.31-.28,0,0-.02,0-.02,0Z"/><path class="cls-6" d="m31.57,21.45h0c-.24,0-.44.18-.44.4v5.2c0,.21.19.39.43.39h.02c.24,0,.43-.17.43-.39v-5.2c0-.22-.2-.4-.44-.4Z"/><path class="cls-6" d="m38.41,22.1c-.24-.26-.55-.46-.89-.59-.38-.14-.78-.21-1.19-.2-.37,0-.73.06-1.07.18-.29.11-.56.26-.8.45-.08.06-.15.13-.22.2v-.31c0-.22-.19-.39-.43-.39h0c-.24,0-.43.18-.43.39h0v5.21c0,.22.19.39.43.39h.02c.24,0,.43-.18.43-.39h0v-2.89c0-.28.05-.55.16-.81.1-.24.25-.46.45-.66.18-.18.4-.33.65-.43.25-.1.52-.16.8-.15.3,0,.59.04.86.15.24.09.45.22.62.39.17.18.29.39.36.62.09.27.13.56.13.84v2.95c0,.21.19.39.43.39h.03c.23,0,.42-.17.42-.38,0,0,0,0,0,0v-2.96c0-.38-.05-.76-.18-1.12-.12-.32-.32-.62-.57-.87Z"/><path class="cls-6" d="m46.78,23.24c-.16-.37-.4-.71-.7-.99-1.02-.91-2.55-1.18-3.87-.67-.81.32-1.45.93-1.77,1.68-.16.38-.24.79-.24,1.2,0,.41.08.81.24,1.19.16.37.4.7.7.99.65.6,1.54.94,2.47.92.48,0,.96-.08,1.4-.25.41-.16.77-.39,1.08-.68.3-.29.53-.63.69-1,.16-.39.24-.8.24-1.21,0-.4-.08-.8-.24-1.18Zm-3.16,3.55c-.35,0-.7-.06-1.03-.18-.3-.12-.58-.29-.8-.5-.23-.21-.41-.47-.53-.75-.13-.29-.19-.61-.18-.92,0-.31.06-.62.18-.91.12-.28.29-.53.51-.74.23-.21.5-.38.8-.5.66-.24,1.39-.24,2.05,0,.3.12.58.29.81.5.23.21.41.47.53.74.24.59.24,1.24,0,1.83-.12.28-.29.53-.51.75-.23.21-.5.38-.8.5-.32.13-.67.19-1.03.19Z"/><ellipse class="cls-6" cx="31.58" cy="20.18" rx=".5" ry=".45"/><g class="cls-1"><rect class="cls-2" x="-587.43" y="-463.02" width="1512.71" height="786.61"/></g></svg>