<svg version="1.2" xmlns="http://www.w3.org/2000/svg" viewBox="0 0 1676 300" width="1676" height="300">
	<title>grid dynamics-svg</title>
	<style>
		.s0 { fill: #ffffff } 
		.s1 { fill: #ea5b25 } 
		.s2 { fill: #f29100 } 
		.s3 { fill: #0069b3 } 
		.s4 { fill: #a9aa00 } 
		.s5 { fill: #62b8e8 } 
	</style>
	<g id="Layer">
		<path id="Layer" fill-rule="evenodd" class="s0" d="m474.2 232.9c6 0 11.3-0.5 15.9-1.6c4.4-1.1 8.8-2.6 12.9-4.5v-26.4h-18.3q-0.5 0-1.1-0.1q-0.5-0.1-1-0.2q-0.6-0.2-1-0.5q-0.5-0.3-0.9-0.7q-0.4-0.3-0.7-0.7q-0.3-0.4-0.5-0.9q-0.1-0.5-0.2-0.9q-0.1-0.5-0.1-1v-15.1h48.3v58.6q-2.7 1.9-5.7 3.7q-2.9 1.7-5.9 3.2q-3.1 1.4-6.3 2.7q-3.1 1.2-6.4 2.2c-4.5 1.3-9.4 2.2-14.5 2.8c-5.1 0.7-10.8 0.9-16.7 0.9c-10.6 0-20.4-1.8-29.2-5.4c-4.3-1.8-8.5-4-12.4-6.6c-3.9-2.6-7.5-5.6-10.8-8.9c-3.3-3.3-6.2-6.9-8.8-10.8c-2.6-3.9-4.7-8.1-6.5-12.4q-1.4-3.6-2.4-7.3q-1.1-3.6-1.8-7.4q-0.6-3.7-1-7.5q-0.3-3.8-0.2-7.7c0-10.8 1.8-20.9 5.3-30c1.7-4.4 3.9-8.6 6.4-12.5c2.6-4 5.6-7.7 8.9-11c3.4-3.3 7.1-6.3 11.1-8.8c3.9-2.6 8.1-4.7 12.6-6.4c9.2-3.5 19.8-5.3 31.3-5.3c11.8 0 22.1 1.8 30.9 5.2c8.7 3.5 16 8.1 22 13.7l-7.8 12.3c-1.6 2.5-3.6 3.7-6.2 3.7q-0.7 0-1.3-0.1q-0.7-0.2-1.3-0.4q-0.6-0.2-1.2-0.5q-0.6-0.2-1.1-0.6l-6.6-3.8q-3.3-1.7-6.7-2.9q-3.5-1.3-7-2.1q-3.6-0.8-7.3-1.2q-3.6-0.4-7.3-0.3c-7.2 0-13.7 1.1-19.5 3.6q-2.1 0.8-4.1 1.9q-2 1.1-3.9 2.4q-1.8 1.3-3.6 2.8q-1.7 1.5-3.2 3.2q-1.6 1.7-3 3.6q-1.3 1.9-2.5 3.9q-1.2 2-2.2 4.2q-1 2.1-1.7 4.3c-2.3 6.3-3.3 13.4-3.3 21.1q-0.1 2.9 0.1 5.7q0.2 2.9 0.7 5.7q0.4 2.8 1.1 5.6q0.6 2.7 1.6 5.4q1.4 4.5 3.8 8.6q2.4 4.1 5.7 7.6q3.2 3.4 7.1 6.1q3.9 2.7 8.3 4.4c5.8 2.4 12.3 3.5 19.1 3.5zm75.9 15v-101.1h14.2c2.5 0 4.2 0.4 5.2 1.4c0.9 0.9 1.7 2.5 2 4.7l1.5 12.3c3.6-6.3 7.8-11.3 12.6-14.9q7.4-5.3 16.4-5.3c5 0 9.1 1.1 12.4 3.4l-3.1 18.3c-0.3 1.1-0.7 1.8-1.4 2.4q-0.3 0.2-0.6 0.4q-0.3 0.1-0.6 0.2q-0.4 0.1-0.7 0.1q-0.4 0.1-0.7 0.1c-1 0-2.4-0.2-4.1-0.7q-0.8-0.2-1.6-0.3q-0.9-0.2-1.7-0.3q-0.9-0.1-1.7-0.1q-0.9-0.1-1.8 0c-4.9 0-9.3 1.4-12.9 4.2c-3.6 2.8-6.6 6.9-9.2 12.3v62.9zm77.2-99.2h25.2v102.5h-25.2zm28.9-29.9c0 2.2-0.3 4.2-1.3 6c-0.9 1.9-2 3.5-3.5 5c-1.5 1.4-3.2 2.5-5.2 3.3c-1.9 0.8-4 1.2-6.1 1.2c-2.1 0-4.1-0.4-6.1-1.2c-1.9-0.8-3.7-1.9-5.2-3.3q-0.5-0.6-1-1.2q-0.5-0.5-1-1.1q-0.4-0.7-0.8-1.3q-0.4-0.7-0.7-1.4q-0.6-1.4-1-2.9q-0.3-1.6-0.3-3.1q0-1.6 0.3-3.2q0.4-1.5 1-2.9c0.8-2 2-3.8 3.5-5.3c1.5-1.4 3.3-2.6 5.2-3.4c2-0.8 4.1-1.2 6.2-1.2c2.1 0.1 4.2 0.5 6.1 1.4q2.2 0.9 4 2.3q1.8 1.5 3.2 3.5q1.3 1.9 2 4.1q0.7 2.3 0.7 4.6zm91.3 130.9c-3.2 0-5.2-1.4-6.2-4.4l-2-9.8q-2.2 2.6-4.7 4.9q-2.6 2.3-5.5 4.2q-2.8 1.8-6 3.2q-3.1 1.4-6.4 2.3q-1.3 0.3-2.5 0.5q-1.2 0.2-2.5 0.3q-1.2 0.2-2.5 0.3q-1.3 0-2.5 0c-5.6 0-10.7-1.1-15.3-3.5c-4.5-2.2-8.5-5.6-11.9-10q-1.3-1.8-2.5-3.7q-1.1-2-2.1-4q-1-2.1-1.8-4.2q-0.7-2.1-1.3-4.3q-1.4-5.3-2.1-10.7q-0.7-5.4-0.6-10.9q0-5.4 0.8-10.8q0.8-5.4 2.3-10.6c2-6.5 5-12.1 8.7-16.8c3.8-4.8 8.5-8.5 13.8-11.2c5.4-2.5 11.3-3.9 18-3.9q3.5-0.1 6.9 0.5q3.5 0.7 6.7 1.9q3.3 1.3 6.2 3.2q3 1.9 5.5 4.4v-53.6h24.4v146.7zm-32.5-17.8c5.1 0 9.4-1.1 12.9-3.2c3.6-2.1 7-5 10.1-9v-45.3q-1.8-2.2-4-4q-2.2-1.8-4.7-3q-2.6-1.2-5.3-1.8q-2.8-0.5-5.6-0.5c-3.7 0-7 0.7-10 2.1c-3 1.3-5.5 3.4-7.6 6.3c-2.1 2.8-3.7 6.3-4.8 10.6q-1.7 6.5-1.7 15.3q0 8.9 1.4 15c1 4.2 2.4 7.6 4.1 10.1c1.9 2.6 4 4.4 6.6 5.7c2.5 1 5.5 1.7 8.6 1.7zm253.3-53.2c0 10.6-1.8 20.4-5.3 29.3c-1.7 4.3-3.8 8.4-6.3 12.3c-2.6 3.8-5.5 7.4-8.8 10.6c-3.2 3.3-6.8 6.2-10.7 8.7c-3.9 2.5-8 4.6-12.3 6.2q-13.6 5.4-30 5.4h-55.3v-144.9h55.3q3.9-0.1 7.7 0.2q3.8 0.3 7.6 1q3.7 0.7 7.4 1.7q3.7 1.1 7.3 2.4c9 3.6 16.7 8.5 23.2 14.9c6.3 6.5 11.3 14.1 14.9 22.9c3.5 9 5.3 18.7 5.3 29.2zm-27.6 0c0-8-1.1-15.1-3.2-21.4q-0.7-2.2-1.6-4.3q-0.9-2.2-2.1-4.2q-1.2-2-2.5-3.9q-1.4-1.9-2.9-3.6q-1.5-1.7-3.2-3.2q-1.6-1.4-3.4-2.7q-1.9-1.3-3.8-2.3q-2-1.1-4-1.9q-2.3-0.9-4.6-1.6q-2.4-0.7-4.8-1.1q-2.4-0.4-4.8-0.6q-2.4-0.3-4.9-0.2h-28.3v102h28.3c7.1 0 13.4-1.1 19.1-3.5c5.6-2.3 10.4-5.6 14.4-10.1q1.5-1.7 2.9-3.6q1.4-1.9 2.5-3.9q1.2-2 2.1-4.2q0.9-2.1 1.6-4.3c2.1-6.4 3.2-13.4 3.2-21.4zm82.1 99.4q-0.3 0.6-0.6 1.1q-0.2 0.5-0.6 1q-0.4 0.5-0.8 1q-0.4 0.4-0.9 0.8c-1.1 0.9-2.9 1.4-5.2 1.4h-18.1l18.8-40.9l-40.7-94.3h21.2c2 0 3.5 0.3 4.5 1.3c1.1 0.9 1.9 2 2.4 3.2l21.5 52.8q0.5 1.4 1 2.7q0.4 1.4 0.8 2.7q0.4 1.4 0.8 2.8q0.3 1.4 0.6 2.8l1.8-5.7l1.9-5.3l20.3-52.8q0.4-1 1.1-1.8q0.6-0.9 1.5-1.5q0.9-0.6 1.9-0.9q1-0.3 2.1-0.3h19.5zm64.5-26.9v-101.6h15.3c3.2 0 5.3 1.5 6.3 4.5l1.7 8q1.5-1.6 3.1-3q1.7-1.4 3.4-2.7q1.8-1.3 3.6-2.4q1.9-1.1 3.8-2.1q2.1-1 4.3-1.8q2.2-0.7 4.5-1.2q2.3-0.5 4.6-0.7q2.3-0.2 4.6-0.1q2 0 3.9 0.1q1.9 0.2 3.8 0.6q1.9 0.3 3.8 0.9q1.8 0.5 3.6 1.2c4.4 1.9 7.9 4.5 10.9 7.9c2.9 3.5 5.2 7.5 6.6 12.2c1.6 4.8 2.3 9.9 2.3 15.5v64.7h-24.9v-64.7c0-6.1-1.5-10.9-4.4-14.3c-2.8-3.4-7.3-5.1-13.2-5.1c-4.2 0-8.3 0.9-12 2.8c-3.7 1.9-7.3 4.5-10.7 7.8v73.5zm189.9-1.6h-11q-0.7 0-1.4-0.1q-0.7 0-1.3-0.2q-0.7-0.1-1.4-0.3q-0.6-0.3-1.3-0.6c-1.3-0.6-2.2-2-2.9-4.2l-2.1-7.3c-2.6 2.4-5 4.5-7.6 6.2q-2.7 2-5.8 3.6q-3 1.6-6.3 2.6q-3.3 1.1-6.7 1.5q-3.4 0.5-6.8 0.4c-4.2 0-8.1-0.7-11.7-1.9c-3.6-1.2-6.6-2.8-9.3-5.2q-0.9-0.9-1.8-1.9q-0.9-1.1-1.7-2.2q-0.7-1.1-1.4-2.3q-0.6-1.1-1.1-2.4c-1.4-3.5-2.2-7.5-2.2-12.2c0-3.7 1.1-7.6 3.1-11.5c1.9-3.7 5.2-7.1 9.9-10.2c4.7-3 10.8-5.6 18.5-7.5q3.5-0.8 7.1-1.4q3.5-0.6 7.1-1q3.6-0.4 7.2-0.6q3.6-0.1 7.2 0v-6.1c0-7-1.4-12.1-4.3-15.5c-2.8-3.3-6.9-5-12.3-5q-2.2 0-4.4 0.3q-2.1 0.2-4.2 0.8q-2.2 0.6-4.2 1.5q-2 0.9-3.8 2.1l-5.3 3.1q-2.5 1.4-5.3 1.4q-0.6 0-1.2-0.1q-0.5 0-1.1-0.2q-0.5-0.2-1-0.4q-0.5-0.3-1-0.6c-1.1-0.9-2.1-1.9-2.8-3.2l-4.4-7.9q4.1-3.9 9-7q4.9-3.1 10.2-5.2q5.4-2.1 11.1-3.1q5.7-1 11.4-0.9c5.9 0 11.1 0.9 15.8 2.8c4.6 2.1 8.4 4.8 11.6 8.3c3.2 3.5 5.6 7.7 7.3 12.6c1.7 4.9 2.6 10.2 2.6 16zm-47.1-15.4q1.7 0 3.3-0.1q1.6-0.2 3.3-0.5q1.6-0.4 3.1-1q1.6-0.5 3-1.3c1.9-0.8 3.8-2 5.5-3.3c1.7-1.4 3.5-2.9 5.2-4.7v-17.3c-7.1 0-12.9 0.5-17.6 1.4c-4.8 0.9-8.5 2-11.4 3.4c-2.9 1.5-4.9 3.2-6.1 5c-1.2 1.9-1.9 3.9-1.9 6.2c0 4.3 1.4 7.5 3.8 9.4c2.6 1.9 5.9 2.9 9.8 2.9zm69.5 17v-101.5h15.2c3.2 0 5.2 1.5 6.3 4.4l1.6 7.6q1.3-1.5 2.7-2.8q1.4-1.3 2.9-2.6q1.6-1.2 3.2-2.3q1.6-1.1 3.2-2q1.9-1 3.8-1.7q1.9-0.7 3.8-1.2q2-0.5 4-0.7q2.1-0.2 4.1-0.2c6.6 0 11.9 1.7 16 5.1c4.3 3.5 7.4 8.1 9.5 13.8q1.1-2.3 2.5-4.4q1.5-2.1 3.3-3.9q1.7-1.9 3.8-3.4q2-1.6 4.3-2.8q4-1.9 8.2-3q4.3-1.1 8.7-1.4q4.4-0.2 8.7 0.4q4.4 0.7 8.5 2.1c4.5 1.7 8.2 4.3 11.2 7.6c3.1 3.2 5.3 7.2 6.9 12c1.6 4.7 2.4 10.2 2.4 16.3v64.6h-24.8v-64.6c0-6.4-1.4-11.3-4.3-14.6c-2.9-3.3-7.1-4.9-12.7-4.9c-2.5 0-4.9 0.4-7 1.3q-1.7 0.6-3.2 1.6q-1.5 0.9-2.7 2.2q-1.3 1.3-2.2 2.8q-1 1.5-1.6 3.2q-1.4 3.7-1.4 8.5v64.5h-25v-64.6c0-6.8-1.3-11.7-4.1-14.8c-2.8-3.1-6.9-4.7-12.3-4.7c-3.5 0-6.8 0.9-10 2.7c-3.1 1.7-6 4-8.7 7.1v74.3zm164.1-102.5h25.2v102.5h-25.2zm28.9-29.9c0 2.2-0.4 4.2-1.3 6q-0.6 1.4-1.5 2.6q-0.9 1.3-2 2.4q-1.1 1-2.4 1.9q-1.3 0.8-2.7 1.4c-2 0.8-4 1.2-6.1 1.2c-2.1 0-4.2-0.4-6.1-1.1c-1.9-0.8-3.7-1.9-5.2-3.4c-1.5-1.4-2.7-3.1-3.6-5q-0.6-1.5-0.9-3q-0.4-1.6-0.4-3.1q0-1.6 0.4-3.1q0.3-1.6 0.9-3q0.6-1.4 1.5-2.7q0.9-1.2 1.9-2.3q1.1-1.1 2.4-1.9q1.3-0.8 2.7-1.4c2.4-1.1 5.1-1.5 7.7-1.2c2.6 0.2 5.2 1 7.4 2.5c2.2 1.4 4 3.4 5.3 5.7c1.3 2.3 2 4.9 2 7.5zm92.1 52.8c-0.6 0.9-1.4 1.7-2 2.1q-1.2 0.9-3.1 0.9q-0.5 0-1-0.1q-0.5-0.1-1-0.2q-0.5-0.2-0.9-0.4q-0.5-0.2-0.9-0.5q-0.5-0.4-1.1-0.7q-0.5-0.3-1-0.6q-0.5-0.4-1.1-0.7q-0.5-0.3-1.1-0.6q-1.6-0.9-3.3-1.7q-1.8-0.7-3.6-1.2q-1.9-0.5-3.8-0.7q-1.9-0.2-3.8-0.2c-4.4 0-8.2 0.8-11.5 2.4c-3.2 1.6-6 3.8-8.2 6.8c-2.1 2.9-3.7 6.5-4.8 10.7c-1.1 4.2-1.6 8.9-1.6 14.2q0 8.2 1.7 14.7c1.2 4.3 2.8 7.9 5.1 10.8q1.6 2.2 3.7 3.9q2.1 1.7 4.5 2.8q2.5 1.2 5.1 1.7q2.7 0.6 5.4 0.5q2.1 0 4.1-0.2q2.1-0.3 4.1-0.9q2-0.6 3.9-1.5q1.9-1 3.6-2.2l4.4-3.1c1.3-0.9 2.6-1.4 4.2-1.4q3 0 4.5 2.3l7.2 9q-1.9 2.3-4.1 4.2q-2.1 2-4.5 3.7q-2.4 1.7-5 3q-2.6 1.4-5.4 2.4q-5.2 2.1-10.7 2.8c-3.7 0.6-7.4 0.8-10.9 0.8q-4.6 0-9.1-0.9q-4.5-0.9-8.7-2.7q-4.2-1.8-8-4.4q-3.8-2.6-7-5.9q-1.6-1.9-3-3.9q-1.5-1.9-2.7-4q-1.3-2.2-2.3-4.4q-1-2.2-1.9-4.5c-2.4-6.6-3.6-14.2-3.6-22.6c0-7.5 1.1-14.6 3.3-21q1.4-4.7 3.8-9q2.4-4.2 5.7-7.8q3.3-3.6 7.2-6.5q4-2.8 8.5-4.7q2.6-1 5.2-1.8q2.7-0.8 5.4-1.3q2.7-0.5 5.4-0.7q2.8-0.2 5.5-0.1c7.7 0 14.4 1.1 20.2 3.6c5.8 2.5 11 6.1 15.6 10.7zm84.5-1.7q-0.2 0.3-0.4 0.6q-0.2 0.3-0.5 0.6q-0.3 0.3-0.6 0.5q-0.2 0.3-0.6 0.5q-0.3 0.2-0.6 0.3q-0.4 0.1-0.7 0.2q-0.4 0.1-0.8 0.1q-0.3 0.1-0.7 0q-0.5 0-1 0q-0.5-0.1-1-0.2q-0.5-0.1-1-0.3q-0.5-0.2-1-0.4l-4.7-2.3q-1.6-0.8-3.4-1.4q-1.8-0.7-3.6-1.1q-1.8-0.4-3.7-0.6q-1.8-0.2-3.7-0.2q-7.3 0-11.6 3.1c-2.8 2.1-4.2 4.8-4.2 8.3c0 2.1 0.6 3.9 2.1 5.4c1.5 1.5 3.4 2.9 5.8 4.1c2.4 1 5.1 2.2 8.1 3l9.2 2.9c3.2 1.2 6.4 2.3 9.4 3.8c3 1.2 5.6 3 8.1 5.1q1.9 1.7 3.4 3.8q1.5 2.1 2.5 4.4q1.1 2.4 1.6 4.9q0.5 2.5 0.4 5.1c0 5-0.9 9.6-2.8 13.8c-1.7 4.2-4.5 7.8-7.9 10.9c-3.5 3-7.9 5.4-13 7.1q-3.4 1.1-6.9 1.7q-3.5 0.7-7 0.9q-3.6 0.1-7.1-0.1q-3.6-0.3-7.1-1q-2.4-0.4-4.8-1.1q-2.3-0.6-4.6-1.5q-2.4-0.8-4.6-1.8q-2.3-1-4.4-2.2q-1-0.5-1.9-1.1q-0.9-0.6-1.7-1.2q-0.9-0.7-1.8-1.4q-0.8-0.6-1.6-1.4l5.6-9.4q0.3-0.4 0.6-0.8q0.3-0.3 0.6-0.6q0.4-0.4 0.7-0.6q0.4-0.3 0.8-0.6q0.9-0.5 2-0.7q1.1-0.2 2.1-0.2q1.1 0.1 2.2 0.4q1 0.3 1.9 0.9q1.3 0.9 2.7 1.7q1.3 0.8 2.8 1.5q1.4 0.8 2.8 1.4q1.5 0.6 3 1.1c2.4 0.8 5.5 1.3 9.2 1.3c3 0 5.5-0.4 7.6-1.1c2.1-0.7 3.9-1.6 5.3-2.9c1.4-1 2.4-2.3 3-3.8c0.6-1.5 0.9-3.1 0.9-4.7q0.1-0.8-0.1-1.6q-0.1-0.8-0.4-1.6q-0.2-0.7-0.6-1.4q-0.4-0.7-1-1.3c-1.5-1.6-3.3-2.8-5.7-4.1q-1-0.4-2-0.8q-1-0.4-2-0.8q-1.1-0.4-2.1-0.7q-1.1-0.4-2.1-0.7c-3.1-0.9-6.2-1.9-9.4-3q-1.2-0.4-2.4-0.8q-1.2-0.5-2.4-0.9q-1.1-0.5-2.3-1q-1.1-0.5-2.3-1.1q-1.1-0.5-2.1-1.1q-1.1-0.6-2.1-1.3q-1-0.7-2-1.4q-1-0.8-1.9-1.6q-0.9-0.9-1.7-1.8q-0.8-1-1.6-2q-0.7-1-1.3-2.1q-0.6-1.1-1.1-2.3q-0.6-1.3-1-2.8q-0.5-1.4-0.7-2.8q-0.3-1.5-0.4-3q-0.1-1.5-0.1-3q0-3.1 0.7-6.2q0.6-3 1.9-5.9q1.3-2.8 3.1-5.3q1.9-2.6 4.2-4.7c3.2-2.8 7.4-5 12.3-6.7q2-0.7 4.1-1.2q2.1-0.5 4.2-0.8q2.1-0.4 4.3-0.5q2.1-0.1 4.2-0.1c7.1 0 13.6 1.1 19.5 3.5c5.8 2.4 10.6 5.4 14.6 9.2l-5.7 8.9z" />
		<path id="Layer" fill-rule="evenodd" class="s1" d="m275.6 193.2c1.7 19.1 1.4 38.6-1.4 57.6c-31 35.3-138 52.8-205.9 47.8q-3.7-5.3-6.6-11.1q-3-5.7-5.1-11.8q-2.1-6.1-3.4-12.5q-1.3-6.3-1.7-12.7c86.3 16.3 178.7-10.1 224.1-57.3z" />
		<path id="Layer" fill-rule="evenodd" class="s2" d="m302.5 180.2c-0.1 8.8-1.4 17.5-3.6 26c-2.3 8.4-5.7 16.5-10 24.2c-4.3 7.6-9.5 14.7-15.5 21c2.6-18.7 3-37.9 1.3-56.8c-4.3-47.6-22.1-92.9-48.5-121.2c-34-36.4-63.6-59.1-97.5-62.3c3.2-4.3 7-8.1 11.8-11.1c58.3 6.6 143.2 78.1 159.2 154.2c2 8.5 2.9 17.3 2.8 26z" />
		<path id="Layer" fill-rule="evenodd" class="s3" d="m203.9 209.3l-2.8-0.6c-15.1-6.5-30.6-21.2-44-40.1c45.3-54.2 20.2-95.4-11.5-103.8q-3.4-1-7-1.4q-3.7-0.4-7.3-0.2q-3.6 0.2-7.2 1q-3.5 0.9-6.8 2.3c8.9-4.2 18.7-7.5 28.7-8.1c23.7-1.2 48.5 5.3 64.3 28.4c20.3 31.9 16.2 89.4-6.4 122.5z" />
		<path id="Layer" fill-rule="evenodd" class="s4" d="m150.8 58.3c-8 7.1-20 17.7-28.2 26.6c-2-7.5-2.8-16.3-3.5-23.6c0-0.1 0.1-0.1 0.2-0.1c12.7-2.9 22.1-2.9 31.5-2.9zm-98.1 192.5c-2.8-36.5 12.3-76.4 34.1-112.1c-1.9-16.8-2.4-33.6-2.3-48.6c-35.9 33.2-78.8 97.2-83.9 145.5c-2.9 25.2 4.9 46 29.2 56c10.2 3.6 23.9 6 39.9 7.1q-3.7-5.3-6.7-11q-2.9-5.7-5.1-11.8q-2.1-6-3.5-12.3q-1.3-6.3-1.7-12.8z" />
		<path id="Layer" fill-rule="evenodd" class="s5" d="m205.9 206.9q-1.9 2.9-4.2 5.6q-2.2 2.7-4.7 5.2q-2.5 2.4-5.3 4.6q-2.8 2.1-5.8 3.9c-68.1 39-92.9-23.5-99.9-86.3q-1.2-10.7-1.7-21.5q-0.6-10.7-0.6-21.5q0-10.7 0.6-21.5q0.5-10.7 1.7-21.4c0.6-18.2 5.4-31.3 13.2-40c10.2-11.6 25.4-15.4 43.1-13.5c-4.8 3-8.7 6.8-11.9 11.1c-9.8 13.3-12.7 32.6-10.5 53.9c0.8 7.5 2.3 15.3 4.2 23.1q2.6 10.5 6.2 20.6q3.5 10.2 8 20q4.5 9.8 9.9 19.2q5.3 9.3 11.5 18.2c13.2 18.8 28.4 33.3 43.4 39.6z" />
	</g>
</svg>