<svg xmlns="http://www.w3.org/2000/svg" viewBox="0 0 178 32"><g fill="none" fill-rule="evenodd"><path fill="#4B4C4D" d="M50.3 24.68c.64 0 1.2-.06 1.69-.17.47-.12.93-.28 1.37-.48v-2.8h-1.94a.6.6 0 01-.43-.15.51.51 0 01-.16-.38V19.1h5.13v6.21a8.73 8.73 0 01-2.58 1.25c-.48.14-1 .24-1.54.3-.54.07-1.14.1-1.77.1-1.13 0-2.16-.19-3.1-.58a7.4 7.4 0 01-4.08-4.1 8.34 8.34 0 01-.58-3.16c0-1.15.2-2.22.57-3.18a7.09 7.09 0 014.13-4.1c.98-.38 2.1-.57 3.32-.57 1.26 0 2.35.19 3.28.56.92.37 1.7.85 2.34 1.45l-.83 1.3c-.17.26-.38.39-.66.39a.94.94 0 01-.52-.17l-.7-.4a6.27 6.27 0 00-3-.69c-.76 0-1.45.12-2.07.38a4.3 4.3 0 00-1.57 1.09 4.91 4.91 0 00-1 1.7c-.24.67-.35 1.42-.35 2.24a7 7 0 00.37 2.37 4.55 4.55 0 002.65 2.83c.61.25 1.3.37 2.02.37zM58.35 26.27V15.56h1.51c.26 0 .45.04.55.14.1.1.18.27.21.5l.16 1.3c.38-.66.83-1.19 1.34-1.57.52-.38 1.1-.57 1.74-.57.53 0 .96.12 1.31.36l-.33 1.94c-.03.12-.07.2-.14.26a.47.47 0 01-.28.08c-.1 0-.25-.02-.43-.07a2.76 2.76 0 00-.72-.08c-.53 0-.99.15-1.37.45-.39.3-.7.73-.98 1.3v6.67h-2.57zM66.54 26.62h2.67V15.76h-2.67v10.86zm3.07-14.03c0 .23-.04.44-.14.64s-.21.37-.37.52a1.74 1.74 0 01-2.4 0 1.79 1.79 0 01-.37-.52 1.55 1.55 0 010-1.29 1.68 1.68 0 012.23-.9 1.7 1.7 0 011.05 1.54v.01zM75.84 24.57c.54 0 1-.11 1.37-.34.38-.22.74-.53 1.07-.95v-4.8a2.54 2.54 0 00-2.08-.98c-.39 0-.74.07-1.06.22-.31.14-.58.36-.8.66-.23.3-.4.67-.51 1.13-.12.46-.18 1-.18 1.62 0 .63.05 1.16.15 1.59.1.44.25.8.43 1.07.2.27.42.47.7.6.27.11.58.18.91.18zm3.45 1.89c-.34 0-.55-.15-.66-.47l-.21-1.04a4.61 4.61 0 01-2.4 1.55 4.5 4.5 0 01-1.06.12c-.59 0-1.13-.12-1.62-.37-.48-.24-.9-.6-1.26-1.06a5.07 5.07 0 01-.82-1.72 8.58 8.58 0 01.04-4.56c.22-.68.53-1.28.93-1.78s.9-.9 1.46-1.18c.57-.27 1.2-.42 1.91-.42a3.76 3.76 0 012.68 1.06v-5.67h2.59v15.54h-1.58zM99.79 18.94c0-.85-.12-1.6-.34-2.27a4.75 4.75 0 00-.97-1.7 4.1 4.1 0 00-1.53-1.07 5.26 5.26 0 00-2.02-.37h-3v10.81h3c.75 0 1.42-.12 2.02-.37.6-.25 1.11-.6 1.53-1.07a4.7 4.7 0 00.97-1.7c.22-.67.34-1.42.34-2.26m2.92 0c0 1.12-.19 2.16-.56 3.1a7.04 7.04 0 01-4.04 4.01c-.96.38-2.02.57-3.18.57h-5.87V11.26h5.87a8.6 8.6 0 013.18.57c.95.38 1.77.9 2.46 1.58.67.68 1.2 1.49 1.58 2.42.37.95.56 1.98.56 3.1M108.49 29.47a1 1 0 01-.3.41c-.12.1-.31.15-.56.15h-1.92l2-4.33-4.32-10h2.25c.21 0 .37.04.48.14.11.1.2.21.25.34l2.28 5.6a6.44 6.44 0 01.34 1.16l.19-.6.21-.57 2.15-5.59a.76.76 0 01.7-.48h2.07l-5.82 13.77zM115.33 26.62V15.86h1.62c.34 0 .57.16.67.47l.18.85a5.58 5.58 0 011.48-1.08 4.05 4.05 0 011.91-.4 4 4 0 011.6.3c.46.2.84.47 1.15.83.31.37.55.8.7 1.3.17.5.25 1.04.25 1.64v6.85h-2.64v-6.85c0-.65-.16-1.16-.47-1.52-.3-.36-.77-.54-1.4-.54-.45 0-.88.1-1.27.3-.4.2-.78.48-1.14.83v7.78h-2.64zM130.48 24.81a2.72 2.72 0 001.35-.3c.2-.09.4-.21.58-.35.18-.15.37-.31.55-.5v-1.83c-.75 0-1.37.05-1.87.14-.5.1-.9.22-1.2.37-.31.15-.53.33-.65.53-.13.2-.2.41-.2.65 0 .46.14.8.4 1 .27.2.62.3 1.04.3zm4.99 1.64h-1.16a1.2 1.2 0 01-.57-.12c-.14-.07-.24-.22-.31-.45l-.23-.77c-.27.25-.53.47-.8.65a4.25 4.25 0 01-2.72.86c-.44 0-.86-.07-1.24-.2-.38-.12-.7-.3-.98-.55a2.57 2.57 0 01-.64-.93c-.15-.37-.23-.8-.23-1.29 0-.4.11-.81.32-1.22.21-.4.56-.76 1.06-1.08.49-.32 1.14-.6 1.96-.8a12.2 12.2 0 013.03-.32v-.64c0-.74-.15-1.28-.45-1.64-.3-.35-.74-.53-1.31-.53a3.1 3.1 0 00-1.76.49l-.56.33c-.18.1-.37.15-.57.15a.73.73 0 01-.45-.14c-.12-.09-.22-.2-.3-.34l-.47-.83a6.24 6.24 0 014.43-1.72c.62 0 1.18.1 1.67.3.49.22.9.5 1.23.88.34.37.6.81.78 1.33.18.52.27 1.08.27 1.7v6.88zM137.85 26.62V15.86h1.61c.34 0 .56.16.67.47l.17.8a5.3 5.3 0 011.28-1.03 3.62 3.62 0 011.66-.4c.7 0 1.26.18 1.7.54.45.37.78.86 1 1.47a3.4 3.4 0 011.48-1.54 4.7 4.7 0 013.62-.2c.47.18.87.45 1.19.8.32.34.56.77.73 1.27.17.5.25 1.08.25 1.73v6.85h-2.63v-6.85c0-.68-.15-1.2-.46-1.55-.3-.34-.75-.51-1.34-.51-.27 0-.52.04-.75.13a1.73 1.73 0 00-1.02 1.04c-.1.26-.15.56-.15.9v6.84h-2.65v-6.85c0-.72-.14-1.24-.44-1.57-.3-.33-.73-.5-1.3-.5-.38 0-.73.1-1.07.29-.32.18-.63.43-.92.75v7.88h-2.63zM155.26 26.62h2.67V15.76h-2.67v10.86zm3.07-14.03c0 .23-.05.44-.14.63a1.7 1.7 0 01-.92.88 1.71 1.71 0 01-2.22-.88 1.6 1.6 0 010-1.29 1.65 1.65 0 01.9-.88 1.71 1.71 0 012.38 1.54zM168.1 18.18c-.07.1-.15.18-.22.23-.08.06-.19.09-.33.09a.72.72 0 01-.4-.13 9.28 9.28 0 00-.45-.27 2.9 2.9 0 00-1.54-.4c-.47 0-.87.08-1.22.25-.34.17-.64.4-.87.72-.23.31-.4.69-.51 1.13-.12.45-.17.95-.17 1.51 0 .58.06 1.1.18 1.56.13.45.3.83.54 1.14a2.35 2.35 0 001.98.94 2.76 2.76 0 001.67-.5l.47-.33c.13-.1.27-.15.44-.15.21 0 .37.08.48.24l.76.96a4.76 4.76 0 01-2.01 1.4c-.37.15-.75.25-1.14.3-.39.06-.78.09-1.16.09a4.8 4.8 0 01-3.47-1.48 5.34 5.34 0 01-1.05-1.78c-.26-.7-.39-1.5-.39-2.39 0-.8.12-1.55.35-2.23a4.7 4.7 0 012.68-2.96 5.7 5.7 0 012.28-.42c.81 0 1.53.12 2.14.39.62.26 1.17.64 1.66 1.13l-.7.96zM177.06 18a.71.71 0 01-.22.23.57.57 0 01-.3.07.98.98 0 01-.42-.1l-.5-.24a3.27 3.27 0 00-1.53-.35c-.52 0-.93.11-1.23.33-.3.22-.45.5-.45.87 0 .23.07.42.23.58.15.16.36.3.61.43.25.11.54.23.86.32l.98.31c.34.12.67.24.99.4.32.13.6.32.86.54a2.5 2.5 0 01.84 1.93c0 .53-.1 1.02-.3 1.46-.18.44-.47.83-.84 1.15-.37.32-.83.58-1.37.76a6.01 6.01 0 01-2.98.16 6.85 6.85 0 01-1.96-.7 4.6 4.6 0 01-.74-.54l.6-1a.85.85 0 01.28-.27.86.86 0 01.87.04 4.96 4.96 0 001.2.6c.25.09.58.14.98.14.31 0 .58-.04.8-.12.23-.07.42-.17.56-.3.15-.11.26-.25.32-.41.07-.16.1-.33.1-.5a.88.88 0 00-.22-.62c-.16-.17-.36-.3-.61-.43a6.1 6.1 0 00-.87-.32c-.33-.1-.66-.2-1-.32a9.1 9.1 0 01-.99-.4 3.42 3.42 0 01-.86-.58 2.63 2.63 0 01-.61-.86 2.9 2.9 0 01-.23-1.23 3.13 3.13 0 011.05-2.34c.34-.3.78-.54 1.3-.72a5.32 5.32 0 011.79-.27c.75 0 1.44.12 2.06.37.62.25 1.13.57 1.55.98l-.6.94z"></path><path fill="#EA5B25" d="M29.23 20.47c.19 2.03.15 4.09-.14 6.1-3.29 3.75-14.64 5.6-21.85 5.07a10.18 10.18 0 01-1.78-5.1c9.16 1.73 18.96-1.07 23.77-6.07"></path><path fill="#F29100" d="M31.79 16.34C30.09 8.28 21.09.7 14.9 0c-.5.32-.91.72-1.25 1.18 3.6.33 6.74 2.74 10.35 6.6 2.8 3 4.68 7.8 5.14 12.84.18 2 .14 4.04-.14 6.02a11.19 11.19 0 002.79-10.3"></path><path fill="#0069B3" d="M21.63 22.18l-.3-.07c-1.6-.68-3.24-2.24-4.66-4.24 4.8-5.75 2.14-10.11-1.22-11a4.41 4.41 0 00-3.01.18c.95-.45 1.99-.8 3.05-.86 2.51-.13 5.14.56 6.82 3.01 2.15 3.38 1.72 9.47-.68 12.98z"></path><path fill="#A9AA00" d="M16 6.18c-.85.75-2.12 1.87-3 2.82-.21-.8-.29-1.73-.37-2.5 0-.02.01-.02.02-.02 1.35-.3 2.35-.3 3.35-.3zM5.59 26.58c-.3-3.87 1.31-8.1 3.62-11.88-.2-1.78-.26-3.56-.25-5.15C5.16 13.06.6 19.85.06 24.96c-.3 2.67.52 4.88 3.1 5.94 1.08.38 2.54.63 4.23.75a10 10 0 01-1.8-5.07"></path><path fill="#62B8E8" d="M21.54 21.85c-1.59-.67-3.2-2.21-4.6-4.2a25.15 25.15 0 01-3.78-8.26c-.2-.83-.36-1.66-.44-2.45-.23-2.26.07-4.3 1.11-5.71.34-.46.76-.86 1.27-1.18-1.88-.2-3.5.2-4.58 1.43-.82.93-1.33 2.31-1.4 4.24a42.75 42.75 0 000 9.1c.75 6.66 3.38 13.28 10.6 9.15a6.57 6.57 0 002.12-2.05l-.3-.07z"></path></g></svg>