<svg version="1.1" xmlns="http://www.w3.org/2000/svg" viewBox="0 0 825.2420241353675 441.799901106202" width="1650.484048270735" height="883.599802212404">
  <!-- svg-source:excalidraw -->
  
  <defs>
    <style class="style-fonts">
      @font-face {
        font-family: "Virgil";
        src: url("https://excalidraw.com/Virgil.woff2");
      }
      @font-face {
        font-family: "Cascadia";
        src: url("https://excalidraw.com/Cascadia.woff2");
      }
      @font-face {
        font-family: "Assistant";
        src: url("https://excalidraw.com/Assistant-Regular.woff2");
      }
    </style>
    
  </defs>
  <g stroke-linecap="round"><g transform="translate(121.85453271640017 10.88119197353717) rotate(0 0 210.103627651107)"><path d="M-0.58 1.03 C-0.65 71.06, 0.88 351.37, 0.61 420.92 M4.31 -0.88 C3.82 68.19, -1.15 346.09, -1.3 416.29" stroke="#f4901d" stroke-width="2" fill="none"></path></g></g><mask></mask><g stroke-linecap="round"><g transform="translate(32.54439287499645 363.0426264442067) rotate(0 389.85433606583183 0)"><path d="M0.61 0.71 C130.29 0.22, 647.27 -1.76, 777.5 -1.91 M-2.5 -1.37 C128.09 -1.64, 652.05 -0.02, 782.7 0.69" stroke="#f4901d" stroke-width="2" fill="none"></path></g></g><mask></mask><g transform="translate(10 108.36684151083205) rotate(0 40.4041748046875 34.999999999999886)"><text x="40.4041748046875" y="0" font-family="Virgil, Segoe UI Emoji" font-size="28px" fill="#f4901d" text-anchor="middle" style="white-space: pre;" direction="ltr" dominant-baseline="text-before-edge">cost</text><text x="40.4041748046875" y="35" font-family="Virgil, Segoe UI Emoji" font-size="28px" fill="#f4901d" text-anchor="middle" style="white-space: pre;" direction="ltr" dominant-baseline="text-before-edge">to fix</text></g><g stroke-linecap="round" transform="translate(148.86989564779924 342.0475165894054) rotate(0 46.71712460273693 8.409082428492638)"><path d="M0.11 4.07 C0.11 4.07, 0.11 4.07, 0.11 4.07 M0.11 4.07 C0.11 4.07, 0.11 4.07, 0.11 4.07 M0.9 15.36 C6.46 13.65, 7.58 9.87, 10.09 4.79 M0.9 15.36 C2.6 12, 8.13 9.17, 10.09 4.79 M6.94 20.61 C8.27 14.76, 13.18 17.09, 20.72 4.76 M6.94 20.61 C10.08 15.56, 17.97 11.49, 20.72 4.76 M17.57 20.57 C17.13 14.04, 24.34 15.41, 31.35 4.73 M17.57 20.57 C23.53 16.17, 27.88 9.99, 31.35 4.73 M28.2 20.54 C30.09 14.88, 39.21 9.02, 41.32 5.45 M28.2 20.54 C33 15.9, 37.63 11.39, 41.32 5.45 M38.83 20.5 C43.32 15.47, 43.36 14.57, 51.95 5.41 M38.83 20.5 C42.11 13.96, 50.14 10.95, 51.95 5.41 M49.46 20.47 C54.45 15.44, 61.15 7.2, 62.58 5.38 M49.46 20.47 C56.08 16.14, 60.89 9.85, 62.58 5.38 M60.09 20.44 C64.69 14.84, 72.14 8.41, 73.21 5.34 M60.09 20.44 C63.86 14.26, 71.36 10.81, 73.21 5.34 M70.72 20.4 C74.02 11.95, 79.27 8.33, 83.84 5.31 M70.72 20.4 C72.6 18.56, 76.62 13.79, 83.84 5.31 M80.7 21.12 C85.25 12.03, 88.34 8.46, 95.13 4.52 M80.7 21.12 C86 16.25, 87.87 9.17, 95.13 4.52 M2.63 16.79 C2.63 16.79, 2.63 16.79, 2.63 16.79 M2.63 16.79 C2.63 16.79, 2.63 16.79, 2.63 16.79 M14.67 16.65 C6.57 10.33, 4.44 13.3, 0.33 4.19 M14.67 16.65 C11.96 12.25, 3.67 8.54, 0.33 4.19 M26.71 16.52 C24.84 12.08, 14.54 7.77, 7.09 -0.54 M26.71 16.52 C19.09 10.35, 15.15 3.16, 7.09 -0.54 M38.75 16.39 C33.83 12.21, 28.55 9.18, 19.89 -0.01 M38.75 16.39 C33.68 10.81, 28.41 8.6, 19.89 -0.01 M51.55 16.91 C44.92 9.01, 36.86 1.19, 31.93 -0.15 M51.55 16.91 C45.87 12.28, 39.39 6.08, 31.93 -0.15 M63.59 16.78 C53.12 12.89, 52.24 1.88, 43.97 -0.28 M63.59 16.78 C56.27 13.82, 50.66 8.05, 43.97 -0.28 M75.63 16.64 C68.76 8.67, 62.7 4.43, 56.76 0.24 M75.63 16.64 C68.31 11.53, 61.94 6.41, 56.76 0.24 M87.67 16.51 C84.36 11.77, 70.82 2.72, 68.81 0.11 M87.67 16.51 C82.88 12.85, 78.54 7.91, 68.81 0.11 M93.68 11.13 C93.29 6.26, 83.52 7.26, 80.85 -0.02 M93.68 11.13 C89.05 9.36, 86.94 5.15, 80.85 -0.02" stroke="#a5d8ff" stroke-width="1" fill="none"></path><path d="M4.2 0 C28.99 2.82, 58.46 0.43, 89.23 0 M4.2 0 C24.96 -0.26, 51.25 -2.19, 89.23 0 M89.23 0 C94.23 -0.3, 96.19 -1.43, 93.43 4.2 M89.23 0 C92.14 -2.04, 94.65 3.51, 93.43 4.2 M93.43 4.2 C92.53 5.89, 94.7 10.79, 93.43 12.61 M93.43 4.2 C93.91 6.63, 93.93 9.09, 93.43 12.61 M93.43 12.61 C92.55 18.68, 90.45 16.02, 89.23 16.82 M93.43 12.61 C92.69 16.54, 89.44 15.89, 89.23 16.82 M89.23 16.82 C69.02 17.76, 55.59 19.75, 4.2 16.82 M89.23 16.82 C71.47 18.77, 50.56 18.3, 4.2 16.82 M4.2 16.82 C-0.5 16.8, -0.94 15.42, 0 12.61 M4.2 16.82 C-0.32 15.65, -2.89 14.19, 0 12.61 M0 12.61 C1.55 10.54, 1.57 7.97, 0 4.2 M0 12.61 C-0.47 11.11, 0.62 7.3, 0 4.2 M0 4.2 C0.1 2.3, 4.71 -3.43, 4.2 0 M0 4.2 C-3.92 1.95, 4.27 -2.58, 4.2 0" stroke="#846358" stroke-width="2" fill="none"></path></g><g stroke-linecap="round" transform="translate(280.14501578148884 317.7546117959823) rotate(0 46.71712460273693 20.555534825204177)"><path d="M2.74 2.38 C2.74 2.38, 2.74 2.38, 2.74 2.38 M2.74 2.38 C2.74 2.38, 2.74 2.38, 2.74 2.38 M0.9 16.68 C6.93 13.71, 8.56 10.69, 14.68 0.83 M0.9 16.68 C4.57 12.47, 8.79 6.11, 14.68 0.83 M1.03 28.72 C8.18 16.84, 13.99 14.47, 25.31 0.8 M1.03 28.72 C11.08 18.83, 18.95 9.6, 25.31 0.8 M3.79 37.75 C6.96 32.33, 20.47 23.25, 35.94 0.77 M3.79 37.75 C14.68 25.23, 25.47 13.95, 35.94 0.77 M11.8 40.73 C18.95 27.88, 28.09 22.51, 46.57 0.73 M11.8 40.73 C24.22 24.5, 37.3 8.87, 46.57 0.73 M22.43 40.7 C35.67 27.3, 45.82 18.15, 57.2 0.7 M22.43 40.7 C32.7 26.97, 44.03 12.33, 57.2 0.7 M32.4 41.42 C44.89 31.88, 52.5 15.48, 67.17 1.42 M32.4 41.42 C38.89 29.97, 50.24 20.78, 67.17 1.42 M43.03 41.38 C50.45 30.85, 61.7 16.97, 77.8 1.38 M43.03 41.38 C51.68 34.04, 56.05 22.39, 77.8 1.38 M53.66 41.35 C59.6 28.38, 74.44 20.37, 88.43 1.35 M53.66 41.35 C60.05 32.11, 68.88 25.43, 88.43 1.35 M64.29 41.31 C67.05 31.2, 73.76 27.36, 93.16 8.11 M64.29 41.31 C76.43 29.28, 86.21 16.78, 93.16 8.11 M74.92 41.28 C78.81 38.23, 85.6 27.39, 93.29 20.15 M74.92 41.28 C82.12 33.68, 86.73 26.52, 93.29 20.15 M85.55 41.24 C86.38 39.34, 90.11 36.59, 93.42 32.19 M85.55 41.24 C86.92 38.69, 88.87 37.05, 93.42 32.19 M5.85 40.53 C5.85 40.53, 5.85 40.53, 5.85 40.53 M5.85 40.53 C5.85 40.53, 5.85 40.53, 5.85 40.53 M17.89 40.39 C12.89 36.41, 13.9 34.15, 5.81 29.9 M17.89 40.39 C12.87 37.86, 9.77 31.39, 5.81 29.9 M30.68 40.92 C25.85 35.27, 19.23 30.89, 5.02 18.61 M30.68 40.92 C23.9 36.31, 14.94 26.31, 5.02 18.61 M42.72 40.78 C32.36 26.15, 15.71 16.2, 3.48 6.67 M42.72 40.78 C32.42 30.04, 20.09 22.57, 3.48 6.67 M54.77 40.65 C47.62 29.09, 34.82 26.17, 6.46 -1.34 M54.77 40.65 C35.8 26.62, 21.48 11.51, 6.46 -1.34 M67.56 41.17 C44.32 27.46, 29.39 7.28, 14.73 -4.75 M67.56 41.17 C53.09 30.39, 37.97 16.83, 14.73 -4.75 M79.6 41.04 C63.9 26.83, 46.01 10.52, 26.77 -4.89 M79.6 41.04 C61.76 24.69, 44.56 10.23, 26.77 -4.89 M87.11 36.97 C73.92 21.44, 59.53 11.38, 38.81 -5.02 M87.11 36.97 C69.46 22.31, 53.71 8.54, 38.81 -5.02 M94.63 32.9 C82.89 21.19, 72.91 11.45, 51.61 -4.5 M94.63 32.9 C84.37 24.66, 75.32 19.41, 51.61 -4.5 M94.59 22.27 C82.21 10.16, 78.29 8.66, 63.65 -4.63 M94.59 22.27 C89.14 16.98, 81.48 11.04, 63.65 -4.63 M94.56 11.64 C87.99 5.09, 84.3 2.15, 76.44 -4.11 M94.56 11.64 C89.31 8.55, 84.58 2.7, 76.44 -4.11" stroke="#a5d8ff" stroke-width="1" fill="none"></path><path d="M10.28 0 C32.51 -1.74, 62.21 1.62, 83.16 0 M10.28 0 C35.82 -0.6, 62.79 -0.59, 83.16 0 M83.16 0 C88.51 -1.01, 90.93 2.36, 93.43 10.28 M83.16 0 C86.01 0.34, 90.86 7.69, 93.43 10.28 M93.43 10.28 C92.57 13.06, 94.2 19.06, 93.43 30.83 M93.43 10.28 C93.73 18.73, 95.33 24.58, 93.43 30.83 M93.43 30.83 C90.03 38.16, 92.5 38.86, 83.16 41.11 M93.43 30.83 C97.73 36.82, 91.69 44.85, 83.16 41.11 M83.16 41.11 C58.23 38.11, 31.61 40.64, 10.28 41.11 M83.16 41.11 C69 42.35, 50 41.66, 10.28 41.11 M10.28 41.11 C6.14 44.6, -0.73 41.57, 0 30.83 M10.28 41.11 C3.93 36.74, -1.59 33.22, 0 30.83 M0 30.83 C-2.92 26.77, -0.87 17.12, 0 10.28 M0 30.83 C0.79 24.94, 0.47 19.03, 0 10.28 M0 10.28 C0.78 6.55, 6.8 -3.58, 10.28 0 M0 10.28 C-3.88 7.38, -0.73 -3.41, 10.28 0" stroke="#846358" stroke-width="2" fill="none"></path></g><g stroke-linecap="round" transform="translate(411.42013591517934 294.1349813439356) rotate(0 46.71712460273693 32.36535005122755)"><path d="M6.04 2.6 C6.04 2.6, 6.04 2.6, 6.04 2.6 M6.04 2.6 C6.04 2.6, 6.04 2.6, 6.04 2.6 M0.92 20.68 C4.97 18.72, 7.88 13.94, 18.64 0.3 M0.92 20.68 C4.96 13.66, 10.27 7.47, 18.64 0.3 M1.06 32.72 C11.28 28.22, 16.37 18.79, 29.27 0.27 M1.06 32.72 C8.9 23.9, 12.2 19.87, 29.27 0.27 M1.19 44.76 C8.95 29.99, 23.12 19.06, 39.9 0.23 M1.19 44.76 C10.81 35.38, 21.38 21.72, 39.9 0.23 M1.98 56.05 C14.35 40.4, 21.69 33.83, 50.53 0.2 M1.98 56.05 C15.48 39.1, 29.61 24.61, 50.53 0.2 M7.36 62.05 C25.66 41.14, 36.54 24.05, 61.16 0.16 M7.36 62.05 C21.24 45.4, 38.34 26.1, 61.16 0.16 M15.37 65.03 C31.85 44.56, 51.7 27.13, 71.79 0.13 M15.37 65.03 C29.85 49.9, 42.1 32.69, 71.79 0.13 M26 65 C40.21 47.32, 55.32 33.74, 81.11 1.6 M26 65 C45.58 43.88, 61.5 23.43, 81.11 1.6 M36.63 64.96 C55.03 40.37, 78.18 17.46, 89.77 3.83 M36.63 64.96 C57.33 41.51, 78.75 15.7, 89.77 3.83 M47.26 64.93 C58.77 54.04, 63.71 42.07, 92.53 12.86 M47.26 64.93 C63.89 46.34, 77.13 31.38, 92.53 12.86 M57.89 64.9 C68.65 50.67, 83.2 38.5, 93.31 24.14 M57.89 64.9 C68.88 51.42, 81.12 40.57, 93.31 24.14 M68.52 64.86 C73.47 61.09, 85.4 47.56, 93.45 36.18 M68.52 64.86 C78.28 53.62, 86.6 43.98, 93.45 36.18 M79.8 64.07 C84.72 60.51, 89.86 53.7, 93.58 48.22 M79.8 64.07 C83.25 59.62, 86.41 54.54, 93.58 48.22 M4.15 60.77 C4.15 60.77, 4.15 60.77, 4.15 60.77 M4.15 60.77 C4.15 60.77, 4.15 60.77, 4.15 60.77 M18.45 62.61 C9.63 58.62, 9.24 53.64, 3.36 49.49 M18.45 62.61 C14.77 58.6, 7.22 55.44, 3.36 49.49 M30.49 62.47 C19.84 56.07, 10.48 48.33, 3.32 38.86 M30.49 62.47 C23.07 55.23, 13.68 48.71, 3.32 38.86 M42.53 62.34 C31.87 55.05, 21.18 48.35, 3.29 28.23 M42.53 62.34 C31.78 51.03, 19.41 40.82, 3.29 28.23 M54.57 62.21 C32.49 42.83, 10.47 31.01, 3.25 17.6 M54.57 62.21 C36.35 46.42, 15.8 28.58, 3.25 17.6 M66.62 62.08 C45.2 43.15, 21.65 27.48, 3.97 7.62 M66.62 62.08 C45.59 43.28, 22.85 23.85, 3.97 7.62 M79.41 62.6 C60.58 48.94, 45.54 28.86, 7.71 0.27 M79.41 62.6 C56.49 41.17, 30.19 23.94, 7.71 0.27 M89.19 60.5 C67.49 43.72, 41.91 20.06, 17.49 -1.83 M89.19 60.5 C60.57 36.15, 36.84 13.47, 17.49 -1.83 M92.93 53.15 C76.05 39.06, 56.98 18.68, 29.53 -1.96 M92.93 53.15 C76.47 36.57, 54.58 21.04, 29.53 -1.96 M98.17 47.11 C80.08 28.18, 57.08 12.25, 42.33 -1.44 M98.17 47.11 C79.15 27.73, 54.54 8.46, 42.33 -1.44 M98.14 36.48 C83.4 17.67, 66.64 6.47, 54.37 -1.57 M98.14 36.48 C84.94 23.86, 69.48 12.78, 54.37 -1.57 M98.11 25.85 C87.61 22.25, 84.63 15.6, 66.41 -1.71 M98.11 25.85 C87.87 14.87, 72.47 3.11, 66.41 -1.71 M95.81 13.25 C88.54 11.22, 87.46 9.7, 78.45 -1.84 M95.81 13.25 C90.87 10.23, 86.69 5.33, 78.45 -1.84" stroke="#a5d8ff" stroke-width="1" fill="none"></path><path d="M16.18 0 C42.38 2.88, 62.4 3.28, 77.25 0 M16.18 0 C33.23 0.23, 56.05 0.87, 77.25 0 M77.25 0 C85.51 1.9, 92.95 3.61, 93.43 16.18 M77.25 0 C85.59 -0.15, 97.98 7.18, 93.43 16.18 M93.43 16.18 C94.36 27.7, 96.96 29.37, 93.43 48.55 M93.43 16.18 C92.51 23.51, 94.86 30.15, 93.43 48.55 M93.43 48.55 C92.95 62.83, 91.6 65.93, 77.25 64.73 M93.43 48.55 C98 57.46, 89.85 66.69, 77.25 64.73 M77.25 64.73 C58.69 63.42, 35.85 61.08, 16.18 64.73 M77.25 64.73 C56.56 64.99, 32.02 66.06, 16.18 64.73 M16.18 64.73 C3.72 66.47, -1.76 58.18, 0 48.55 M16.18 64.73 C6.23 67.67, -0.29 59.09, 0 48.55 M0 48.55 C3.18 42.88, -2.04 36.58, 0 16.18 M0 48.55 C-1.47 40.34, -1.15 26.79, 0 16.18 M0 16.18 C2.68 8.02, 7.47 1.81, 16.18 0 M0 16.18 C1.86 3.65, 5.6 0.02, 16.18 0" stroke="#846358" stroke-width="2" fill="none"></path></g><g stroke-linecap="round" transform="translate(542.6952560488699 211.0471963529444) rotate(0 46.71712460273693 73.90924254672314)"><path d="M5.56 6.16 C5.56 6.16, 5.56 6.16, 5.56 6.16 M5.56 6.16 C5.56 6.16, 5.56 6.16, 5.56 6.16 M3.73 20.46 C4.72 17.11, 11.81 13.63, 17.5 4.62 M3.73 20.46 C8.23 16.8, 14.68 7.91, 17.5 4.62 M3.86 32.51 C5.2 26.31, 11.39 18.13, 28.13 4.58 M3.86 32.51 C6.87 25.99, 14.81 18.84, 28.13 4.58 M3.99 44.55 C15.14 32.7, 17.66 28.54, 38.76 4.55 M3.99 44.55 C14.05 32.91, 24.75 19.93, 38.76 4.55 M4.13 56.59 C21.62 40.7, 39.36 21.73, 49.39 4.51 M4.13 56.59 C15.87 41.06, 28.47 27.54, 49.39 4.51 M4.26 68.63 C21.22 46, 44 23.8, 60.02 4.48 M4.26 68.63 C23.74 47.68, 38.81 27.97, 60.02 4.48 M4.39 80.67 C29 51.77, 56.09 21.48, 70.65 4.44 M4.39 80.67 C22.81 57.87, 44.29 37.12, 70.65 4.44 M4.53 92.71 C20.19 74.65, 41.48 51.43, 80.63 5.16 M4.53 92.71 C20.81 68.65, 41.48 46.62, 80.63 5.16 M4.66 104.75 C33.79 71.59, 60.32 39, 89.29 7.39 M4.66 104.75 C28.87 75.17, 57.4 43.67, 89.29 7.39 M4.14 117.55 C41.3 74.45, 78.97 31.88, 93.36 14.91 M4.14 117.55 C35.7 82.42, 65.52 50.02, 93.36 14.91 M4.27 129.59 C43.07 92.26, 72.81 51.99, 93.49 26.95 M4.27 129.59 C22.56 109.21, 39.38 86.77, 93.49 26.95 M6.37 139.36 C25.01 115.7, 46.01 95.61, 93.63 38.99 M6.37 139.36 C37.65 102.47, 66.09 63.59, 93.63 38.99 M11.1 146.12 C38.53 116.29, 63.88 85.94, 93.76 51.03 M11.1 146.12 C38.91 114.39, 65.09 83.2, 93.76 51.03 M19.1 149.11 C44.24 121.98, 72.48 93.72, 93.89 63.07 M19.1 149.11 C38.26 127.21, 59.69 105.29, 93.89 63.07 M30.39 148.32 C51.25 119.8, 72.39 100.13, 94.03 75.11 M30.39 148.32 C47.69 132.31, 61.89 113.98, 94.03 75.11 M41.02 148.28 C58.48 129.89, 67.33 120.13, 94.16 87.15 M41.02 148.28 C62.03 125.7, 81.07 101.14, 94.16 87.15 M51.65 148.25 C67.25 131.28, 80.84 119.81, 94.29 99.19 M51.65 148.25 C63.03 132.71, 76.76 119.26, 94.29 99.19 M62.28 148.21 C74.7 134.15, 88.88 123.12, 94.42 111.23 M62.28 148.21 C70.24 138.82, 77.65 133.78, 94.42 111.23 M72.91 148.18 C84.33 136.22, 93.11 124.8, 94.56 123.27 M72.91 148.18 C77.2 142.1, 81.85 139.35, 94.56 123.27 M6.18 142.27 C6.18 142.27, 6.18 142.27, 6.18 142.27 M6.18 142.27 C6.18 142.27, 6.18 142.27, 6.18 142.27 M20.48 144.11 C13.36 142.57, 16.3 135.36, 4.63 130.33 M20.48 144.11 C15.58 139.51, 13.69 135.83, 4.63 130.33 M32.52 143.97 C26.3 133.82, 13.93 124.87, 4.6 119.7 M32.52 143.97 C27.4 136.11, 18.05 133.85, 4.6 119.7 M44.56 143.84 C28.76 131.65, 19.71 119.81, 4.56 109.07 M44.56 143.84 C37.12 135.46, 25.22 128.21, 4.56 109.07 M56.6 143.71 C37.77 128.96, 23.26 118.17, 4.53 98.44 M56.6 143.71 C37.84 128.29, 23.53 112.22, 4.53 98.44 M68.64 143.57 C41.67 124.01, 19.91 103.11, 4.49 87.81 M68.64 143.57 C45.14 125.3, 21.38 102.86, 4.49 87.81 M82.2 144.75 C51.06 116.67, 25.49 95.5, 4.46 77.18 M82.2 144.75 C54.41 118.11, 21.2 93.48, 4.46 77.18 M88.95 140.03 C71.27 123.1, 53.78 105.07, 4.43 66.55 M88.95 140.03 C67.37 123.61, 46.89 106.67, 4.43 66.55 M92.69 132.68 C63.12 101.06, 23.51 78.89, 4.39 55.92 M92.69 132.68 C56.88 105.19, 19.18 72.71, 4.39 55.92 M96.43 125.33 C67.36 96.21, 35.89 71.89, 4.36 45.29 M96.43 125.33 C68.35 101.11, 40.85 78.52, 4.36 45.29 M96.4 114.7 C71.34 86.93, 41.28 63.55, 4.32 34.66 M96.4 114.7 C74.95 94.89, 54.95 77.96, 4.32 34.66 M96.36 104.07 C65.95 76.22, 33.1 48.21, 4.29 24.03 M96.36 104.07 C71 80.34, 43.47 58.56, 4.29 24.03 M96.33 93.44 C65.18 67.53, 33.66 40.33, 4.25 13.4 M96.33 93.44 C76.94 76.83, 58.57 57.21, 4.25 13.4 M96.29 82.81 C69.13 57.67, 44.1 35.17, 6.48 4.74 M96.29 82.81 C63.6 55.86, 30.87 25.63, 6.48 4.74 M96.26 72.18 C72.25 46.52, 47.19 26.62, 14 0.67 M96.26 72.18 C63.97 47.93, 31.73 20.34, 14 0.67 M96.22 61.55 C73.26 38.34, 48.88 16.23, 24.53 -0.78 M96.22 61.55 C77.14 43.44, 54.9 27.14, 24.53 -0.78 M96.19 50.92 C86.56 42.17, 71.42 33.52, 36.57 -0.91 M96.19 50.92 C83.86 42.82, 70.29 28.97, 36.57 -0.91 M96.16 40.29 C83.75 26.15, 74.87 21.02, 48.61 -1.04 M96.16 40.29 C81.45 24.93, 63.68 13.45, 48.61 -1.04 M96.12 29.66 C90.77 21.77, 83.81 14.07, 61.4 -0.52 M96.12 29.66 C86.92 22.62, 74.85 12.93, 61.4 -0.52 M96.09 19.03 C86.22 15.61, 82.17 5.81, 73.44 -0.65 M96.09 19.03 C86.47 13.27, 78.69 6.08, 73.44 -0.65" stroke="#a5d8ff" stroke-width="1" fill="none"></path><path d="M23.36 0 C37.71 3.49, 56.58 1.19, 70.08 0 M23.36 0 C42.86 0.44, 59.44 -0.58, 70.08 0 M70.08 0 C87.88 -1.18, 93.62 4.26, 93.43 23.36 M70.08 0 C88.31 1.23, 93.68 10.48, 93.43 23.36 M93.43 23.36 C90.22 56.41, 90.14 84.82, 93.43 124.46 M93.43 23.36 C94.62 54.01, 93.66 89.43, 93.43 124.46 M93.43 124.46 C96.27 141.62, 83.27 150.35, 70.08 147.82 M93.43 124.46 C93.84 140.33, 88.64 144.54, 70.08 147.82 M70.08 147.82 C54.56 149.63, 35.75 148.81, 23.36 147.82 M70.08 147.82 C54.18 147.64, 39.77 146.99, 23.36 147.82 M23.36 147.82 C11.19 149.05, -1.08 137.65, 0 124.46 M23.36 147.82 C6.79 150.7, 4.43 143.11, 0 124.46 M0 124.46 C-2.19 99.76, -0.27 75.2, 0 23.36 M0 124.46 C0.32 95.73, -0.84 68.94, 0 23.36 M0 23.36 C-1.44 5.44, 7.14 -3.42, 23.36 0 M0 23.36 C-3.04 6.49, 8.74 3.96, 23.36 0" stroke="#846358" stroke-width="2" fill="none"></path></g><g stroke-linecap="round" transform="translate(673.9703761825604 48.66397408421926) rotate(0 46.71712460273693 155.1008536810857)"><path d="M5.56 6.16 C5.56 6.16, 5.56 6.16, 5.56 6.16 M5.56 6.16 C5.56 6.16, 5.56 6.16, 5.56 6.16 M0.45 24.24 C9.94 18.74, 16.61 8.26, 20.78 0.84 M0.45 24.24 C5.15 17, 12.06 10.25, 20.78 0.84 M0.58 36.28 C8.2 29.15, 16.17 15.32, 31.41 0.81 M0.58 36.28 C5.94 27.97, 12.28 22.05, 31.41 0.81 M0.71 48.32 C11.13 36.83, 19.81 27.89, 42.04 0.77 M0.71 48.32 C10.18 37.6, 22.04 23.36, 42.04 0.77 M0.85 60.36 C15.01 48.48, 23.9 30.43, 52.02 1.49 M0.85 60.36 C18.76 38.26, 38.59 17.46, 52.02 1.49 M0.32 73.16 C18.18 50.88, 36.53 31, 62.65 1.46 M0.32 73.16 C27.2 44.93, 52.29 19.39, 62.65 1.46 M0.46 85.2 C15.48 67.69, 30.97 47.29, 73.28 1.42 M0.46 85.2 C17.8 64.44, 37.92 44.29, 73.28 1.42 M0.59 97.24 C21.57 72.8, 39.63 48.6, 82.6 2.9 M0.59 97.24 C28.71 64.25, 54.83 31.85, 82.6 2.9 M0.72 109.28 C33.75 71.86, 70.52 31.17, 88.63 8.15 M0.72 109.28 C35.09 66.01, 67.63 28.47, 88.63 8.15 M0.86 121.32 C34.29 83.22, 67.32 47.72, 92.05 16.42 M0.86 121.32 C21.26 95.68, 42.54 70.52, 92.05 16.42 M0.33 134.12 C22.78 112.83, 44.23 82.84, 93.49 26.95 M0.33 134.12 C24.02 109.45, 47.51 81.48, 93.49 26.95 M0.47 146.16 C20.61 117.11, 50.29 84.83, 93.63 38.99 M0.47 146.16 C27.52 116.51, 51.62 85.18, 93.63 38.99 M0.6 158.2 C15.98 133.19, 40.94 114.08, 93.1 51.78 M0.6 158.2 C31.49 121.65, 61.07 87.05, 93.1 51.78 M0.73 170.24 C23.88 141.91, 53.64 108.58, 93.24 63.82 M0.73 170.24 C31.69 134.46, 64.74 98.25, 93.24 63.82 M0.86 182.28 C36.84 143.8, 75.53 94.36, 93.37 75.86 M0.86 182.28 C18.79 158.99, 42.33 134.68, 93.37 75.86 M0.34 195.07 C28.61 161.37, 57.97 118.05, 93.5 87.91 M0.34 195.07 C35.43 154.65, 73.12 114.94, 93.5 87.91 M0.48 207.12 C33.95 169.72, 74.22 123.45, 93.64 99.95 M0.48 207.12 C21.47 183.02, 41.9 159.54, 93.64 99.95 M0.61 219.16 C21.53 191.97, 52.22 161.03, 93.11 112.74 M0.61 219.16 C24.35 189.13, 49.84 162.05, 93.11 112.74 M0.74 231.2 C38.03 191.11, 69.4 152.32, 93.25 124.78 M0.74 231.2 C24.35 205.39, 43.54 183.67, 93.25 124.78 M0.22 243.99 C29.57 204.33, 66.87 167.28, 93.38 136.82 M0.22 243.99 C24.44 220.43, 43.19 196.52, 93.38 136.82 M0.35 256.03 C25.1 222.75, 55.35 192.88, 93.51 148.86 M0.35 256.03 C28.51 221.81, 61.53 185.57, 93.51 148.86 M0.48 268.07 C34.16 227.51, 72.56 186.95, 93.65 160.91 M0.48 268.07 C32.27 232.24, 64.12 191.64, 93.65 160.91 M0.62 280.11 C28 241.44, 61.51 206.58, 93.78 172.95 M0.62 280.11 C39.24 240.63, 71.91 200.75, 93.78 172.95 M0.75 292.16 C18.35 271.83, 36.72 247.13, 93.26 185.74 M0.75 292.16 C22.15 264.4, 44.55 239.48, 93.26 185.74 M4.16 300.42 C42.35 257.42, 70.31 225.4, 93.39 197.78 M4.16 300.42 C38.77 260.04, 71.99 217.23, 93.39 197.78 M9.55 306.43 C37.32 272.07, 62.94 242.38, 93.52 209.82 M9.55 306.43 C33.18 275.26, 57.44 247.8, 93.52 209.82 M17.55 309.41 C41.19 282.44, 59.75 256.88, 93.65 221.86 M17.55 309.41 C34.88 289, 53.53 270.34, 93.65 221.86 M28.18 309.38 C50.53 283.13, 70.49 256.65, 93.79 233.91 M28.18 309.38 C47.72 289.41, 65.07 268.93, 93.79 233.91 M38.81 309.34 C54.54 291.49, 69.88 269.86, 93.27 246.7 M38.81 309.34 C50.88 297.19, 64.19 281.33, 93.27 246.7 M48.79 310.06 C61.51 293.5, 75.97 278.86, 93.4 258.74 M48.79 310.06 C65.26 292.67, 82.03 272.28, 93.4 258.74 M59.42 310.03 C70.04 295.58, 79.05 285.13, 93.53 270.78 M59.42 310.03 C71.53 296.93, 83.13 281.5, 93.53 270.78 M70.05 309.99 C79.03 299.31, 86.3 288.88, 93.66 282.82 M70.05 309.99 C77.61 302.91, 81.74 296.34, 93.66 282.82 M82.64 307.69 C85.85 305.75, 85.43 304.77, 92.49 296.37 M82.64 307.69 C85.08 306.4, 86.23 301.73, 92.49 296.37 M5.77 304.31 C5.77 304.31, 5.77 304.31, 5.77 304.31 M5.77 304.31 C5.77 304.31, 5.77 304.31, 5.77 304.31 M23.1 308.76 C15.01 305.35, 7.2 297.25, 0.46 289.08 M23.1 308.76 C19.01 302.04, 12.31 299.8, 0.46 289.08 M35.14 308.63 C30.31 301.54, 18.36 296.59, 0.42 278.45 M35.14 308.63 C23.56 297.87, 11.4 285.48, 0.42 278.45 M47.93 309.15 C31.68 296.32, 19.83 284.23, 0.39 267.82 M47.93 309.15 C35.21 297.52, 22.16 286.68, 0.39 267.82 M59.98 309.02 C45.1 300.25, 33.55 288.99, 0.35 257.19 M59.98 309.02 C41.19 293.24, 24.57 273.6, 0.35 257.19 M72.77 309.54 C56.53 290.8, 29.5 273.03, 0.32 246.56 M72.77 309.54 C55.2 293.75, 37.27 277.74, 0.32 246.56 M81.79 306.79 C65.47 288.33, 39.79 269.6, 1.04 236.59 M81.79 306.79 C57.15 282.96, 30.86 259.89, 1.04 236.59 M88.55 302.06 C60.99 284.21, 33.56 257.89, 1 225.96 M88.55 302.06 C56.13 275.57, 26.03 249.1, 1 225.96 M93.04 295.37 C59.01 272.53, 30.21 239.95, 0.97 215.33 M93.04 295.37 C61.25 267.92, 29.42 239.17, 0.97 215.33 M93.76 285.39 C62.9 254.47, 29.68 225.71, 0.94 204.7 M93.76 285.39 C56.71 254.21, 23.17 224.03, 0.94 204.7 M93.73 274.76 C72.64 255.53, 50.46 238.32, 0.9 194.07 M93.73 274.76 C64.04 250.69, 38.5 228.66, 0.9 194.07 M93.7 264.13 C70.05 238.63, 45.89 220.29, 0.87 183.44 M93.7 264.13 C72.04 245.69, 53.59 229.91, 0.87 183.44 M93.66 253.5 C70.09 240.24, 56.92 217.77, 0.83 172.81 M93.66 253.5 C71.63 230.46, 45.6 211.62, 0.83 172.81 M93.63 242.87 C59.21 211.41, 20.86 179.84, 0.8 162.18 M93.63 242.87 C76.82 226.89, 54.53 212.69, 0.8 162.18 M93.59 232.24 C66.67 204.74, 29.32 178.12, 0.76 151.55 M93.59 232.24 C63.46 204.35, 36.22 179.96, 0.76 151.55 M93.56 221.61 C67.74 203.7, 43.7 178.45, 0.73 140.92 M93.56 221.61 C61.48 190.9, 24.09 160.54, 0.73 140.92 M93.52 210.98 C63.99 183.64, 31.77 157.94, 0.69 130.29 M93.52 210.98 C64.85 187.76, 39.89 160.44, 0.69 130.29 M93.49 200.35 C72.94 179.89, 51.24 164.9, 0.66 119.66 M93.49 200.35 C73.47 182.53, 53.67 166.08, 0.66 119.66 M93.45 189.72 C74.82 175.26, 53.76 157.05, 0.63 109.03 M93.45 189.72 C60.49 159.62, 22.25 127.44, 0.63 109.03 M93.42 179.09 C76.22 159.27, 55.59 148.91, 0.59 98.4 M93.42 179.09 C65.35 152.51, 33.03 127.28, 0.59 98.4 M93.39 168.46 C70.22 150.21, 53.25 137.1, 0.56 87.77 M93.39 168.46 C59.05 137.99, 21.41 106.9, 0.56 87.77 M93.35 157.83 C64.93 135.63, 42.24 112.33, 0.52 77.14 M93.35 157.83 C69.51 135.61, 45.17 115.08, 0.52 77.14 M93.32 147.2 C67.24 123.76, 36.06 102.42, 0.49 66.51 M93.32 147.2 C76.08 128.32, 53.68 112.38, 0.49 66.51 M93.28 136.57 C67.2 108.95, 46.08 89.11, 0.45 55.88 M93.28 136.57 C72.69 121.49, 52.37 103.22, 0.45 55.88 M93.25 125.94 C65.58 100.35, 37.95 76.28, 0.42 45.25 M93.25 125.94 C66.38 106.31, 44.8 83.61, 0.42 45.25 M93.21 115.31 C69.87 97.4, 40.17 73.01, 0.38 34.62 M93.21 115.31 C58.95 87.17, 26.83 61.01, 0.38 34.62 M93.18 104.68 C69.64 79.51, 37.63 58.66, 0.35 23.99 M93.18 104.68 C60.99 79.22, 31.8 52.5, 0.35 23.99 M93.14 94.05 C69.66 67.03, 37.89 51.82, 1.82 14.67 M93.14 94.05 C68.13 68.8, 38.74 45.89, 1.82 14.67 M93.11 83.42 C72.74 63.44, 43.51 43.36, 5.56 7.32 M93.11 83.42 C59.59 55.57, 29.6 30.1, 5.56 7.32 M93.07 72.79 C69.3 50.62, 42.32 31.24, 11.57 1.94 M93.07 72.79 C76.05 58.47, 58.27 39.64, 11.57 1.94 M93.04 62.16 C67.83 36.45, 37.76 21.12, 21.34 -0.16 M93.04 62.16 C67.99 42.17, 42.17 21.58, 21.34 -0.16 M93.01 51.53 C75.89 33.96, 57.79 22.73, 33.38 -0.3 M93.01 51.53 C77.73 36.25, 59.65 22.66, 33.38 -0.3 M92.97 40.9 C84.14 28.16, 69.97 24.68, 46.18 0.23 M92.97 40.9 C76.49 26.76, 62.82 15.09, 46.18 0.23 M92.94 30.27 C83.39 25.13, 74.14 19.45, 58.22 0.09 M92.94 30.27 C80.8 20.26, 66.87 9.86, 58.22 0.09 M92.9 19.64 C87.8 16.56, 79.58 9.71, 71.02 0.62 M92.9 19.64 C87.86 12.71, 80.31 8.76, 71.02 0.62" stroke="#a5d8ff" stroke-width="1" fill="none"></path><path d="M23.36 0 C30.53 3.2, 47.37 2.59, 70.08 0 M23.36 0 C39.58 0.37, 55.4 1.85, 70.08 0 M70.08 0 C83.91 3.4, 94.67 6.7, 93.43 23.36 M70.08 0 C82.91 -0.99, 96.32 12.21, 93.43 23.36 M93.43 23.36 C89.21 117.64, 89.55 215.85, 93.43 286.84 M93.43 23.36 C91.54 87.99, 92.23 150.13, 93.43 286.84 M93.43 286.84 C95.53 300.98, 83.3 309.56, 70.08 310.2 M93.43 286.84 C89.51 299.37, 84.35 311.15, 70.08 310.2 M70.08 310.2 C53.4 307.05, 31.85 311.78, 23.36 310.2 M70.08 310.2 C53.33 309.31, 34.29 309.13, 23.36 310.2 M23.36 310.2 C4.52 307.68, 0.06 301.44, 0 286.84 M23.36 310.2 C4.74 306.48, 1.42 302.07, 0 286.84 M0 286.84 C-5.27 189.62, 0.27 96.01, 0 23.36 M0 286.84 C2.54 220.52, 2.82 155.91, 0 23.36 M0 23.36 C-1.26 4.42, 10.03 -0.44, 23.36 0 M0 23.36 C-4.4 6.55, 9.58 -3.81, 23.36 0" stroke="#846358" stroke-width="2" fill="none"></path></g><g transform="translate(296.2921712069792 383.6411355817636) rotate(0 30.569969177246094 12.5)"><text x="30.569969177246094" y="0" font-family="Virgil, Segoe UI Emoji" font-size="20px" fill="#f08c00" text-anchor="middle" style="white-space: pre;" direction="ltr" dominant-baseline="text-before-edge">Design</text></g><g transform="translate(428.5972901199666 383.632625538964) rotate(0 29.53997039794922 12.5)"><text x="29.53997039794922" y="0" font-family="Virgil, Segoe UI Emoji" font-size="20px" fill="#f08c00" text-anchor="middle" style="white-space: pre;" direction="ltr" dominant-baseline="text-before-edge">Coding</text></g><g transform="translate(556.7841396383046 380.912039300938) rotate(0 36.4599609375 12.5)"><text x="36.4599609375" y="0" font-family="Virgil, Segoe UI Emoji" font-size="20px" fill="#f08c00" text-anchor="middle" style="white-space: pre;" direction="ltr" dominant-baseline="text-before-edge">Testing</text></g><g transform="translate(132.2487758505422 382.27233241995145) rotate(0 62.899925231933594 12.5)"><text x="62.899925231933594" y="0" font-family="Virgil, Segoe UI Emoji" font-size="20px" fill="#f08c00" text-anchor="middle" style="white-space: pre;" direction="ltr" dominant-baseline="text-before-edge">Requirements</text></g><g transform="translate(677.244527648003 383.632625538964) rotate(0 42.21995544433594 12.5)"><text x="42.21995544433594" y="0" font-family="Virgil, Segoe UI Emoji" font-size="20px" fill="#f08c00" text-anchor="middle" style="white-space: pre;" direction="ltr" dominant-baseline="text-before-edge">Deployed</text></g></svg>