<svg version="1.1" xmlns="http://www.w3.org/2000/svg" viewBox="0 0 845.3700760574229 446.60724101427286" width="1690.7401521148458" height="893.2144820285457">
  <!-- svg-source:excalidraw -->
  
  <defs>
    <style class="style-fonts">
      @font-face {
        font-family: "Virgil";
        src: url("https://excalidraw.com/Virgil.woff2");
      }
      @font-face {
        font-family: "Cascadia";
        src: url("https://excalidraw.com/Cascadia.woff2");
      }
      @font-face {
        font-family: "Assistant";
        src: url("https://excalidraw.com/Assistant-Regular.woff2");
      }
    </style>
    
  </defs>
  <g stroke-linecap="round"><g transform="translate(144.06525237695223 13.847297406047574) rotate(0 0 210.1036276511071)"><path d="M1.81 -0.89 C1.17 68.92, -1.47 351.04, -1.62 421.29 M-0.65 -3.85 C-0.58 66.33, 3.87 345.57, 3.91 416.87" stroke="#f4901d" stroke-width="2" fill="none"></path></g></g><mask></mask><g stroke-linecap="round"><g transform="translate(54.755112535548506 366.00873187671596) rotate(0 389.85433606583183 0)"><path d="M-1.62 1.08 C128.18 1.3, 650.06 0.38, 780.61 0.39 M2.7 -0.8 C132.05 0.02, 649.15 4.73, 778.87 4.23" stroke="#f4901d" stroke-width="2" fill="none"></path></g></g><mask></mask><g transform="translate(10 137.59072239527381) rotate(0 51.856224060058594 35.000000000000114)"><text x="51.856224060058594" y="0" font-family="Virgil, Segoe UI Emoji" font-size="28px" fill="#f4901d" text-anchor="middle" style="white-space: pre;" direction="ltr" dominant-baseline="text-before-edge">cost of</text><text x="51.856224060058594" y="35" font-family="Virgil, Segoe UI Emoji" font-size="28px" fill="#f4901d" text-anchor="middle" style="white-space: pre;" direction="ltr" dominant-baseline="text-before-edge">waste</text></g><g stroke-linecap="round" transform="translate(701.4847404648854 341.5825893104525) rotate(0 46.71712460273693 8.409082428492638)"><path d="M0.11 4.07 C0.11 4.07, 0.11 4.07, 0.11 4.07 M0.11 4.07 C0.11 4.07, 0.11 4.07, 0.11 4.07 M0.9 15.36 C6.75 9.75, 9.76 1.08, 14.02 0.27 M0.9 15.36 C4.6 11.11, 6.91 8.57, 14.02 0.27 M10.22 16.83 C14.11 7.38, 17.43 7.53, 24.65 0.23 M10.22 16.83 C14 11.66, 19.23 4.47, 24.65 0.23 M20.85 16.8 C29.46 13.6, 31.05 3.59, 35.28 0.2 M20.85 16.8 C23.32 13.04, 30.12 7.96, 35.28 0.2 M31.48 16.77 C33.59 9.32, 36.7 11.95, 45.91 0.16 M31.48 16.77 C36.49 12.85, 41.53 5.41, 45.91 0.16 M42.11 16.73 C44.98 7.59, 54.99 6.21, 55.89 0.88 M42.11 16.73 C45.26 10.71, 52.87 6.63, 55.89 0.88 M52.74 16.7 C57.59 8.16, 59.62 6.33, 66.52 0.85 M52.74 16.7 C55.51 12.16, 61.13 9.48, 66.52 0.85 M63.37 16.66 C67.08 14.7, 68.69 12.26, 77.15 0.81 M63.37 16.66 C67.33 12.01, 67.46 9.04, 77.15 0.81 M74 16.63 C75.09 9.15, 84.13 4.41, 87.78 0.78 M74 16.63 C77.12 12.87, 83.94 7.24, 87.78 0.78 M84.63 16.59 C87.68 11.09, 91.81 9.12, 93.82 6.03 M84.63 16.59 C88.61 13.84, 90.94 9.49, 93.82 6.03 M2.63 16.79 C2.63 16.79, 2.63 16.79, 2.63 16.79 M2.63 16.79 C2.63 16.79, 2.63 16.79, 2.63 16.79 M14.67 16.65 C9.89 13.44, 5.46 4.53, 0.33 4.19 M14.67 16.65 C10.74 13.67, 3.58 6.32, 0.33 4.19 M26.71 16.52 C24.45 8.9, 13.84 10.68, 7.09 -0.54 M26.71 16.52 C18.31 10.51, 13.98 5.97, 7.09 -0.54 M38.75 16.39 C28.77 8.28, 27.52 2.43, 19.89 -0.01 M38.75 16.39 C36.05 13.59, 28.39 8.58, 19.89 -0.01 M51.55 16.91 C43.14 9.5, 45.29 6.44, 31.93 -0.15 M51.55 16.91 C42.47 11.4, 38.05 5.62, 31.93 -0.15 M63.59 16.78 C61.67 13.38, 51.47 10.57, 43.97 -0.28 M63.59 16.78 C59.07 14.91, 55.84 11.17, 43.97 -0.28 M75.63 16.64 C69.81 15.49, 64.23 7.31, 56.76 0.24 M75.63 16.64 C70.37 10.89, 63.05 2.86, 56.76 0.24 M87.67 16.51 C82.36 6.61, 74.88 0.92, 68.81 0.11 M87.67 16.51 C81.05 10.25, 75.41 5.67, 68.81 0.11 M93.68 11.13 C88.23 6.25, 89.56 8.49, 80.85 -0.02 M93.68 11.13 C89.75 10.13, 86.57 4.78, 80.85 -0.02" stroke="#a5d8ff" stroke-width="1" fill="none"></path><path d="M4.2 0 C34.08 1.54, 58.25 -2.65, 89.23 0 M4.2 0 C33.29 0.68, 61.84 0.45, 89.23 0 M89.23 0 C91.45 2.77, 90.44 3.57, 93.43 4.2 M89.23 0 C95.09 -0.53, 94.82 3.98, 93.43 4.2 M93.43 4.2 C91.75 8.38, 92.85 9.21, 93.43 12.61 M93.43 4.2 C92.9 6.75, 93.41 8.89, 93.43 12.61 M93.43 12.61 C94.51 13.57, 95.82 19.52, 89.23 16.82 M93.43 12.61 C90.84 19.17, 94.9 13.5, 89.23 16.82 M89.23 16.82 C70.2 16.78, 51.48 12.55, 4.2 16.82 M89.23 16.82 C66.29 17.05, 38.44 16.16, 4.2 16.82 M4.2 16.82 C0.75 13.47, -0.13 12.97, 0 12.61 M4.2 16.82 C-0.82 12.41, 0.52 14.71, 0 12.61 M0 12.61 C-0.36 11.19, -0.67 7.26, 0 4.2 M0 12.61 C-0.42 9.82, 0.22 6.19, 0 4.2 M0 4.2 C1.46 1.58, -0.69 2.87, 4.2 0 M0 4.2 C0.5 3.51, 4.63 1.58, 4.2 0" stroke="#846358" stroke-width="2" fill="none"></path></g><g stroke-linecap="round" transform="translate(567.5027023911725 317.2896845170294) rotate(0 46.71712460273693 20.555534825204177)"><path d="M2.74 2.38 C2.74 2.38, 2.74 2.38, 2.74 2.38 M2.74 2.38 C2.74 2.38, 2.74 2.38, 2.74 2.38 M0.9 16.68 C4.32 8.95, 6.74 4.41, 14.68 0.83 M0.9 16.68 C4.51 12.41, 8.83 9.28, 14.68 0.83 M1.03 28.72 C3.13 25.75, 12.05 20.25, 25.31 0.8 M1.03 28.72 C6.25 20.93, 11.62 15.59, 25.31 0.8 M3.79 37.75 C11.9 25.39, 17.33 19.3, 35.94 0.77 M3.79 37.75 C17.72 24.05, 26.67 9.3, 35.94 0.77 M11.8 40.73 C20.15 33.02, 33.54 16.87, 46.57 0.73 M11.8 40.73 C23.28 27.05, 35.64 13.69, 46.57 0.73 M22.43 40.7 C33.97 32.56, 42.88 20.3, 57.2 0.7 M22.43 40.7 C33.4 31.21, 41.56 20, 57.2 0.7 M32.4 41.42 C39.35 31.37, 48.6 22.21, 67.17 1.42 M32.4 41.42 C46.74 28.03, 57.67 9.52, 67.17 1.42 M43.03 41.38 C50.75 33.49, 56.27 18.67, 77.8 1.38 M43.03 41.38 C48.84 31.46, 58.41 25.02, 77.8 1.38 M53.66 41.35 C65.38 28.57, 72.43 25.2, 88.43 1.35 M53.66 41.35 C67.28 28.11, 79.01 12.13, 88.43 1.35 M64.29 41.31 C75.28 30.15, 86.25 17.13, 93.16 8.11 M64.29 41.31 C70.24 33.66, 74.94 25.46, 93.16 8.11 M74.92 41.28 C76.1 38.41, 83.23 33.15, 93.29 20.15 M74.92 41.28 C81.93 34.48, 88.01 29.05, 93.29 20.15 M85.55 41.24 C87.7 39.84, 86.51 39.29, 93.42 32.19 M85.55 41.24 C88.62 38.61, 88.87 36.38, 93.42 32.19 M5.85 40.53 C5.85 40.53, 5.85 40.53, 5.85 40.53 M5.85 40.53 C5.85 40.53, 5.85 40.53, 5.85 40.53 M17.89 40.39 C15.69 33.74, 3.88 26.15, 0.53 25.3 M17.89 40.39 C13.01 38.5, 9.34 33.75, 0.53 25.3 M30.68 40.92 C25.57 30.68, 15.84 29.37, 0.49 14.67 M30.68 40.92 C22.26 33.38, 10.79 23.46, 0.49 14.67 M42.72 40.78 C30.12 35.18, 21.75 25.99, 1.97 5.36 M42.72 40.78 C31.06 32.36, 17.37 19.1, 1.97 5.36 M54.77 40.65 C37.18 26.36, 26.85 9.74, 8.73 0.63 M54.77 40.65 C41.32 27.23, 25.99 14.65, 8.73 0.63 M67.56 41.17 C55.22 25.53, 43.07 19.39, 20.01 -0.16 M67.56 41.17 C56.94 31.49, 44.37 21.44, 20.01 -0.16 M79.6 41.04 C68.71 31.56, 51.25 20.98, 32.05 -0.29 M79.6 41.04 C62.6 26.29, 45.52 13.36, 32.05 -0.29 M89.38 38.94 C81.24 26.62, 66.99 17.14, 44.1 -0.43 M89.38 38.94 C74.91 27.38, 63.62 15.69, 44.1 -0.43 M93.12 31.59 C81.37 22.22, 70.83 14.1, 56.89 0.1 M93.12 31.59 C84.74 23.74, 75.19 17.55, 56.89 0.1 M93.08 20.96 C80.42 14.56, 71.52 7.2, 68.93 -0.04 M93.08 20.96 C84.46 11.41, 74.14 3.43, 68.93 -0.04 M93.05 10.33 C90.37 7.89, 85.74 6.92, 81.73 0.49 M93.05 10.33 C89.31 8.11, 87.98 7.09, 81.73 0.49" stroke="#a5d8ff" stroke-width="1" fill="none"></path><path d="M10.28 0 C34.87 -2.44, 66.2 2.26, 83.16 0 M10.28 0 C35.44 0.23, 62.31 0.16, 83.16 0 M83.16 0 C87.01 2.17, 96.1 2.96, 93.43 10.28 M83.16 0 C91.4 2.58, 94.17 -0.78, 93.43 10.28 M93.43 10.28 C92.04 16.95, 93.92 25.72, 93.43 30.83 M93.43 10.28 C93.03 14.91, 93.7 22.06, 93.43 30.83 M93.43 30.83 C97.22 40.38, 87.75 44.37, 83.16 41.11 M93.43 30.83 C96.3 34.36, 87.15 45.08, 83.16 41.11 M83.16 41.11 C70.42 38.87, 51.79 43.13, 10.28 41.11 M83.16 41.11 C66.53 43.46, 53.18 40.8, 10.28 41.11 M10.28 41.11 C3.3 38.67, -1.93 33.85, 0 30.83 M10.28 41.11 C3.95 40.41, -2.02 36.93, 0 30.83 M0 30.83 C-1.56 21.37, 3.43 14.19, 0 10.28 M0 30.83 C0.52 26.55, 0.99 22.22, 0 10.28 M0 10.28 C-2.09 6.3, 3.86 1.83, 10.28 0 M0 10.28 C3.23 5.01, 3.65 2.59, 10.28 0" stroke="#846358" stroke-width="2" fill="none"></path></g><g stroke-linecap="round" transform="translate(434.8809574364741 293.67005406498265) rotate(0 46.71712460273693 32.36535005122755)"><path d="M6.04 2.6 C6.04 2.6, 6.04 2.6, 6.04 2.6 M6.04 2.6 C6.04 2.6, 6.04 2.6, 6.04 2.6 M0.92 20.68 C3.1 13.08, 10.05 9.79, 18.64 0.3 M0.92 20.68 C6.32 16.19, 7.57 10.28, 18.64 0.3 M1.06 32.72 C8.19 28.31, 9.52 17.79, 29.27 0.27 M1.06 32.72 C9.64 22.24, 16.61 16.07, 29.27 0.27 M1.19 44.76 C12.85 29.94, 30.35 11.91, 39.9 0.23 M1.19 44.76 C12.49 28.44, 26.5 13.72, 39.9 0.23 M1.98 56.05 C14.19 42.05, 24.25 31.48, 50.53 0.2 M1.98 56.05 C21.92 34.02, 37.78 12.46, 50.53 0.2 M7.36 62.05 C20.68 47.55, 29.21 30.73, 61.16 0.16 M7.36 62.05 C21.34 45.05, 34.79 28.34, 61.16 0.16 M15.37 65.03 C26.57 51.85, 42 36.68, 71.79 0.13 M15.37 65.03 C30.61 42.65, 48.69 24.19, 71.79 0.13 M26 65 C40.75 40.56, 59.91 24.21, 81.11 1.6 M26 65 C39.12 53.14, 50.66 36.21, 81.11 1.6 M36.63 64.96 C48.58 55.52, 61.17 36.54, 89.77 3.83 M36.63 64.96 C56.81 40.28, 76.59 18.54, 89.77 3.83 M47.26 64.93 C59.47 51.25, 65.6 42.08, 92.53 12.86 M47.26 64.93 C61.44 45.77, 77.82 28.39, 92.53 12.86 M57.89 64.9 C64.49 58.72, 73.9 46.52, 93.31 24.14 M57.89 64.9 C70.99 52.15, 79.7 38.53, 93.31 24.14 M68.52 64.86 C72.27 59.1, 81.25 46.65, 93.45 36.18 M68.52 64.86 C76.22 53.89, 84.99 44.84, 93.45 36.18 M79.8 64.07 C88.5 60.79, 93.44 50.85, 93.58 48.22 M79.8 64.07 C85.1 61.86, 86.76 57.09, 93.58 48.22 M4.15 60.77 C4.15 60.77, 4.15 60.77, 4.15 60.77 M4.15 60.77 C4.15 60.77, 4.15 60.77, 4.15 60.77 M20.72 64.58 C17.9 64.42, 12.01 52.77, 0.34 46.86 M20.72 64.58 C12.53 57.81, 5.82 54.49, 0.34 46.86 M32.76 64.44 C19.39 55.59, 12.73 45.97, 0.3 36.23 M32.76 64.44 C19.21 53.07, 8.48 42.6, 0.3 36.23 M45.55 64.97 C32.76 46.17, 12.96 39.06, 0.27 25.6 M45.55 64.97 C31 50.62, 14.21 39.15, 0.27 25.6 M57.59 64.83 C46.86 54.75, 31.42 42.78, 0.24 14.97 M57.59 64.83 C40.64 51.07, 26.55 36.71, 0.24 14.97 M69.63 64.7 C51.35 55.96, 40.37 37.44, 3.22 6.97 M69.63 64.7 C42.6 41.17, 17.03 17.36, 3.22 6.97 M80.92 63.91 C59.29 43.01, 42.53 25.67, 9.22 1.58 M80.92 63.91 C63.23 48.64, 41.16 30.95, 9.22 1.58 M89.19 60.5 C67.68 43.13, 43.22 24.2, 19.75 0.14 M89.19 60.5 C73.37 49.07, 60.69 34.35, 19.75 0.14 M92.93 53.15 C69.94 37.7, 54.24 14.44, 31.79 0.01 M92.93 53.15 C75.25 36.08, 60.76 24.78, 31.79 0.01 M93.65 43.17 C77.46 33.32, 58.8 12.98, 43.84 -0.13 M93.65 43.17 C83.87 36.08, 75.85 26.05, 43.84 -0.13 M93.61 32.54 C79.62 17.2, 66.89 11.52, 55.88 -0.26 M93.61 32.54 C85.75 25.93, 76.14 19.6, 55.88 -0.26 M93.58 21.91 C89.4 13.91, 78.09 11.97, 67.92 -0.39 M93.58 21.91 C86.98 16.33, 81.01 11.93, 67.92 -0.39 M92.03 9.97 C91.6 7.39, 90.23 4.46, 82.22 1.44 M92.03 9.97 C88.19 7.98, 86.51 3.8, 82.22 1.44" stroke="#a5d8ff" stroke-width="1" fill="none"></path><path d="M16.18 0 C40.5 3.71, 63.6 -0.02, 77.25 0 M16.18 0 C39.36 0.5, 61.62 0.2, 77.25 0 M77.25 0 C90.7 -0.46, 94.64 7.63, 93.43 16.18 M77.25 0 C88.78 -4.21, 96.2 1.2, 93.43 16.18 M93.43 16.18 C94.13 29.44, 93.63 38.78, 93.43 48.55 M93.43 16.18 C93.93 24.37, 95.29 35.76, 93.43 48.55 M93.43 48.55 C91.17 62.6, 90.53 61.84, 77.25 64.73 M93.43 48.55 C90.58 63.31, 83.99 66.12, 77.25 64.73 M77.25 64.73 C56.23 65.37, 32.29 66.99, 16.18 64.73 M77.25 64.73 C52.9 63.65, 29.13 64.11, 16.18 64.73 M16.18 64.73 C3.46 60.9, 0.45 58.73, 0 48.55 M16.18 64.73 C3.37 63.97, 1.8 58.27, 0 48.55 M0 48.55 C3.61 34.73, -3.27 23.77, 0 16.18 M0 48.55 C0.64 37.27, -1.13 27.25, 0 16.18 M0 16.18 C0.44 7.23, 8.2 1.37, 16.18 0 M0 16.18 C0.22 7.99, 4.77 3.94, 16.18 0" stroke="#846358" stroke-width="2" fill="none"></path></g><g transform="translate(305.55290917807815 386.60724101427286) rotate(0 43.51995086669922 25)"><text x="43.51995086669922" y="0" font-family="Virgil, Segoe UI Emoji" font-size="20px" fill="#f08c00" text-anchor="middle" style="white-space: pre;" direction="ltr" dominant-baseline="text-before-edge">Team </text><text x="43.51995086669922" y="25" font-family="Virgil, Segoe UI Emoji" font-size="20px" fill="#f08c00" text-anchor="middle" style="white-space: pre;" direction="ltr" dominant-baseline="text-before-edge">Strategy</text></g><g transform="translate(431.6480366359874 386.5987309714742) rotate(0 48.69994354248047 12.5)"><text x="48.69994354248047" y="0" font-family="Virgil, Segoe UI Emoji" font-size="20px" fill="#f08c00" text-anchor="middle" style="white-space: pre;" direction="ltr" dominant-baseline="text-before-edge">Processes</text></g><g transform="translate(569.8748718110646 383.87814473344724) rotate(0 45.57994842529297 12.5)"><text x="45.57994842529297" y="0" font-family="Virgil, Segoe UI Emoji" font-size="20px" fill="#f08c00" text-anchor="middle" style="white-space: pre;" direction="ltr" dominant-baseline="text-before-edge">Activities</text></g><g transform="translate(173.83946987632862 385.23843785246163) rotate(0 43.51995086669922 25)"><text x="43.51995086669922" y="0" font-family="Virgil, Segoe UI Emoji" font-size="20px" fill="#f08c00" text-anchor="middle" style="white-space: pre;" direction="ltr" dominant-baseline="text-before-edge">Org</text><text x="43.51995086669922" y="25" font-family="Virgil, Segoe UI Emoji" font-size="20px" fill="#f08c00" text-anchor="middle" style="white-space: pre;" direction="ltr" dominant-baseline="text-before-edge">Strategy</text></g><g stroke-linecap="round" transform="translate(169.76747537828396 48.199046805266335) rotate(0 46.71712460273693 155.1008536810857)"><path d="M5.56 6.16 C5.56 6.16, 5.56 6.16, 5.56 6.16 M5.56 6.16 C5.56 6.16, 5.56 6.16, 5.56 6.16 M0.45 24.24 C3.22 15.2, 9.05 12.57, 20.78 0.84 M0.45 24.24 C8.26 13.1, 16.13 6.09, 20.78 0.84 M0.58 36.28 C11.97 30.2, 14.92 19.35, 31.41 0.81 M0.58 36.28 C10.73 23.21, 23.21 12.44, 31.41 0.81 M0.71 48.32 C12.91 32.65, 27.42 17.54, 42.04 0.77 M0.71 48.32 C11.64 33.35, 25.36 20.97, 42.04 0.77 M0.85 60.36 C11.31 44.98, 22.79 34.94, 52.02 1.49 M0.85 60.36 C13.58 46.71, 24.78 28.73, 52.02 1.49 M0.32 73.16 C14.33 59.67, 25.76 39.61, 62.65 1.46 M0.32 73.16 C16.01 54.24, 31.45 35.33, 62.65 1.46 M0.46 85.2 C18.43 65.3, 37.69 46.59, 73.28 1.42 M0.46 85.2 C17.92 64.61, 37.54 42.41, 73.28 1.42 M0.59 97.24 C24.22 75.25, 43.79 47.7, 82.6 2.9 M0.59 97.24 C30.74 65.33, 60.35 29.38, 82.6 2.9 M0.72 109.28 C29.95 79.82, 56.38 41.64, 88.63 8.15 M0.72 109.28 C24.77 82.01, 47.02 54.59, 88.63 8.15 M0.86 121.32 C32.54 90.19, 59.44 56.95, 92.05 16.42 M0.86 121.32 C28.02 88.44, 59.25 57.9, 92.05 16.42 M0.33 134.12 C31.79 96.53, 63.21 62.52, 93.49 26.95 M0.33 134.12 C25.98 103.88, 50.85 73.79, 93.49 26.95 M0.47 146.16 C34.45 108.42, 71.59 66.2, 93.63 38.99 M0.47 146.16 C33 111.69, 62.37 77.87, 93.63 38.99 M0.6 158.2 C20.33 139.22, 39.94 115.49, 93.1 51.78 M0.6 158.2 C18.41 135.17, 39.88 112.5, 93.1 51.78 M0.73 170.24 C27.51 143.21, 49.5 110.57, 93.24 63.82 M0.73 170.24 C25.05 141.69, 50.25 116.54, 93.24 63.82 M0.86 182.28 C37.96 144.49, 72.45 102.55, 93.37 75.86 M0.86 182.28 C30.52 147.19, 58.99 109.72, 93.37 75.86 M0.34 195.07 C35.02 150.8, 69.61 110.74, 93.5 87.91 M0.34 195.07 C28.27 156.88, 59.23 122.23, 93.5 87.91 M0.48 207.12 C32.69 169.45, 60.29 135.4, 93.64 99.95 M0.48 207.12 C34.02 173.22, 62.94 136.66, 93.64 99.95 M0.61 219.16 C24 193.14, 45.12 163.9, 93.11 112.74 M0.61 219.16 C31.56 182.78, 60.57 148.91, 93.11 112.74 M0.74 231.2 C21.49 205.32, 37.47 185.13, 93.25 124.78 M0.74 231.2 C26.22 199.86, 52.42 172.41, 93.25 124.78 M0.22 243.99 C19.75 223.75, 40.77 202.57, 93.38 136.82 M0.22 243.99 C38.14 202.79, 73.35 158.86, 93.38 136.82 M0.35 256.03 C20.55 229.26, 49.29 203.41, 93.51 148.86 M0.35 256.03 C34.31 216.93, 66 176.54, 93.51 148.86 M0.48 268.07 C30.83 237.43, 62.14 198.27, 93.65 160.91 M0.48 268.07 C28.7 231.79, 60.64 196.04, 93.65 160.91 M0.62 280.11 C34.22 242.37, 69.61 206.25, 93.78 172.95 M0.62 280.11 C23.03 253.77, 46.63 230.21, 93.78 172.95 M0.75 292.16 C24.29 264.92, 45.89 231.85, 93.26 185.74 M0.75 292.16 C33.2 252.38, 69.95 210.14, 93.26 185.74 M4.16 300.42 C33.77 267, 62.57 233.49, 93.39 197.78 M4.16 300.42 C27.98 269.65, 50.22 243.59, 93.39 197.78 M9.55 306.43 C35.39 277.42, 60.03 245.82, 93.52 209.82 M9.55 306.43 C38.08 273.61, 64.42 241.85, 93.52 209.82 M17.55 309.41 C45.77 274.84, 70.19 245.24, 93.65 221.86 M17.55 309.41 C33.49 287.15, 53.58 266.66, 93.65 221.86 M28.18 309.38 C56.77 277.54, 79.5 251.85, 93.79 233.91 M28.18 309.38 C55.95 279.9, 79.66 250.21, 93.79 233.91 M38.81 309.34 C49.95 293.4, 59.35 283.86, 93.27 246.7 M38.81 309.34 C54.53 292.88, 68.49 275.93, 93.27 246.7 M48.79 310.06 C60.91 289.26, 76.77 274.88, 93.4 258.74 M48.79 310.06 C62.56 295.17, 72.34 281.31, 93.4 258.74 M59.42 310.03 C69.84 297.64, 76.8 287.83, 93.53 270.78 M59.42 310.03 C68.49 298.6, 78.77 285.95, 93.53 270.78 M70.05 309.99 C78.27 301.53, 88.57 294.6, 93.66 282.82 M70.05 309.99 C80.27 301.15, 89.84 289.2, 93.66 282.82 M82.64 307.69 C89.43 302.93, 90.37 298.94, 92.49 296.37 M82.64 307.69 C85.88 305.01, 86.24 303.31, 92.49 296.37 M5.77 304.31 C5.77 304.31, 5.77 304.31, 5.77 304.31 M5.77 304.31 C5.77 304.31, 5.77 304.31, 5.77 304.31 M23.1 308.76 C13.69 300.83, 14.75 299.82, 0.46 289.08 M23.1 308.76 C12.39 302.74, 7.19 294.64, 0.46 289.08 M35.14 308.63 C26.12 301.14, 14.01 294.98, 0.42 278.45 M35.14 308.63 C25.39 304.01, 19.82 294.48, 0.42 278.45 M47.93 309.15 C29.05 295.28, 18.47 280.65, 0.39 267.82 M47.93 309.15 C34.22 300.4, 22.72 288.98, 0.39 267.82 M59.98 309.02 C45.58 297.98, 33.38 286.32, 0.35 257.19 M59.98 309.02 C39.08 290.96, 20.84 271.49, 0.35 257.19 M72.77 309.54 C54.84 292.08, 35.36 278.91, 0.32 246.56 M72.77 309.54 C52.58 292.54, 32.21 273.57, 0.32 246.56 M81.79 306.79 C52.66 283.5, 22.21 260.12, 1.04 236.59 M81.79 306.79 C58.96 289.01, 39.73 269.29, 1.04 236.59 M88.55 302.06 C64.8 277, 32.27 260.32, 1 225.96 M88.55 302.06 C64.54 281.63, 39.43 257.17, 1 225.96 M93.04 295.37 C75.2 280.32, 51.15 258.37, 0.97 215.33 M93.04 295.37 C69.21 270.92, 42.4 251.09, 0.97 215.33 M93.76 285.39 C64.91 265.12, 43.5 243.01, 0.94 204.7 M93.76 285.39 C57.27 250.33, 17.84 218.78, 0.94 204.7 M93.73 274.76 C59.41 245.72, 22.48 213.86, 0.9 194.07 M93.73 274.76 C68.08 252.61, 39.27 230.53, 0.9 194.07 M93.7 264.13 C70.51 246.12, 47.76 229.54, 0.87 183.44 M93.7 264.13 C73.86 246.88, 53.85 229.82, 0.87 183.44 M93.66 253.5 C65.64 236.13, 45.84 213.96, 0.83 172.81 M93.66 253.5 C60.85 226.31, 29.94 197.81, 0.83 172.81 M93.63 242.87 C65.95 221.04, 36.1 198.26, 0.8 162.18 M93.63 242.87 C71.21 222.9, 52.5 204.57, 0.8 162.18 M93.59 232.24 C62.99 208.02, 29.96 174.24, 0.76 151.55 M93.59 232.24 C67.59 209.29, 38.28 186.53, 0.76 151.55 M93.56 221.61 C69.89 204.05, 53.28 179.96, 0.73 140.92 M93.56 221.61 C57.78 193.44, 22.97 162.62, 0.73 140.92 M93.52 210.98 C61.95 180.56, 29.43 151.43, 0.69 130.29 M93.52 210.98 C63.21 185.35, 30.66 157.03, 0.69 130.29 M93.49 200.35 C61.48 173.49, 24.2 143.03, 0.66 119.66 M93.49 200.35 C68.49 181.48, 45.32 160.03, 0.66 119.66 M93.45 189.72 C68.54 171.39, 41.84 150.37, 0.63 109.03 M93.45 189.72 C71.51 173.38, 48.1 153.25, 0.63 109.03 M93.42 179.09 C64.68 153.21, 45.54 131.63, 0.59 98.4 M93.42 179.09 C60.37 152.02, 26.8 122.49, 0.59 98.4 M93.39 168.46 C67.53 147.93, 44.4 123.16, 0.56 87.77 M93.39 168.46 C61.11 139.71, 29.35 114.44, 0.56 87.77 M93.35 157.83 C65.24 134.08, 26.3 98.05, 0.52 77.14 M93.35 157.83 C68.49 134.43, 40.86 112.95, 0.52 77.14 M93.32 147.2 C66.1 124.51, 47.92 106.85, 0.49 66.51 M93.32 147.2 C76.97 130.01, 56.37 112.01, 0.49 66.51 M93.28 136.57 C64.8 112.5, 26.34 78.4, 0.45 55.88 M93.28 136.57 C57.39 104.05, 19.48 72.01, 0.45 55.88 M93.25 125.94 C71.84 109.65, 51.07 90.31, 0.42 45.25 M93.25 125.94 C66.98 103.69, 41.83 82.71, 0.42 45.25 M93.21 115.31 C72.97 92.87, 51.7 74.33, 0.38 34.62 M93.21 115.31 C71.18 96.06, 46.36 76.96, 0.38 34.62 M93.18 104.68 C72.86 87.09, 47.08 67.4, 0.35 23.99 M93.18 104.68 C69.03 85.23, 47.28 65.13, 0.35 23.99 M93.14 94.05 C62.89 71.94, 34.58 45.78, 1.82 14.67 M93.14 94.05 C58.26 64.85, 20.61 32.34, 1.82 14.67 M93.11 83.42 C67.98 63.31, 47.26 45.64, 5.56 7.32 M93.11 83.42 C64.47 58.04, 32.47 34.28, 5.56 7.32 M93.07 72.79 C67.41 49.81, 44.87 27.52, 11.57 1.94 M93.07 72.79 C69.44 53.1, 43.36 32.84, 11.57 1.94 M93.04 62.16 C77.82 42.85, 58.49 28.16, 21.34 -0.16 M93.04 62.16 C65.8 38.62, 38.66 15.32, 21.34 -0.16 M93.01 51.53 C77.4 38.3, 62.42 21.61, 33.38 -0.3 M93.01 51.53 C79.82 38.08, 63.9 26.29, 33.38 -0.3 M92.97 40.9 C77.4 28.18, 65.03 16.69, 46.18 0.23 M92.97 40.9 C76.77 28.78, 62.32 13.61, 46.18 0.23 M92.94 30.27 C80.45 22.29, 77.39 9.64, 58.22 0.09 M92.94 30.27 C84.47 22.81, 75.42 14.32, 58.22 0.09 M92.9 19.64 C82.69 10.82, 77.43 8.59, 71.02 0.62 M92.9 19.64 C86.74 13.86, 76.43 6.31, 71.02 0.62" stroke="#a5d8ff" stroke-width="1" fill="none"></path><path d="M23.36 0 C35.33 -3.05, 44.97 2.76, 70.08 0 M23.36 0 C41.91 -2.19, 58.6 -0.74, 70.08 0 M70.08 0 C89.35 -3.9, 92.57 10.47, 93.43 23.36 M70.08 0 C86.05 -3.83, 92.25 6.57, 93.43 23.36 M93.43 23.36 C88.04 82.23, 91.51 145.01, 93.43 286.84 M93.43 23.36 C93.37 117.88, 94.95 210.39, 93.43 286.84 M93.43 286.84 C94.96 299.63, 82.69 306.96, 70.08 310.2 M93.43 286.84 C95.15 303.46, 87.53 311.07, 70.08 310.2 M70.08 310.2 C60.79 313.76, 50.24 312.6, 23.36 310.2 M70.08 310.2 C50.97 310.47, 34.35 310.49, 23.36 310.2 M23.36 310.2 C4.67 311.78, 0.42 299.87, 0 286.84 M23.36 310.2 C4.79 311.2, -2.9 299.42, 0 286.84 M0 286.84 C-5.37 187.52, -1.9 82.31, 0 23.36 M0 286.84 C-3.25 228.27, -2.99 173.98, 0 23.36 M0 23.36 C-0.39 7.09, 4.31 3.78, 23.36 0 M0 23.36 C2.33 6.91, 3.7 -2.34, 23.36 0" stroke="#846358" stroke-width="2" fill="none"></path></g><g stroke-linecap="round" transform="translate(300.8335629703779 210.58226907399148) rotate(0 46.71712460273693 73.90924254672314)"><path d="M5.56 6.16 C5.56 6.16, 5.56 6.16, 5.56 6.16 M5.56 6.16 C5.56 6.16, 5.56 6.16, 5.56 6.16 M3.73 20.46 C5.61 14.72, 11.09 13.54, 17.5 4.62 M3.73 20.46 C8.38 14.87, 12.6 8.66, 17.5 4.62 M3.86 32.51 C12.58 24.91, 13.44 20.65, 28.13 4.58 M3.86 32.51 C13.28 24.1, 22.54 12.93, 28.13 4.58 M3.99 44.55 C21.1 29.72, 32.84 13.48, 38.76 4.55 M3.99 44.55 C13.77 36.24, 23.69 23.85, 38.76 4.55 M4.13 56.59 C15.11 45.41, 27 36.04, 49.39 4.51 M4.13 56.59 C17.59 41.84, 28.15 29.92, 49.39 4.51 M4.26 68.63 C22.13 48.89, 47.12 25.13, 60.02 4.48 M4.26 68.63 C26.1 44.31, 48.3 20.78, 60.02 4.48 M4.39 80.67 C23.39 55.18, 48.98 31.38, 70.65 4.44 M4.39 80.67 C17.47 65.57, 32.36 50.87, 70.65 4.44 M4.53 92.71 C14.5 75.54, 30.85 58.76, 80.63 5.16 M4.53 92.71 C28.74 64.97, 50.33 38.98, 80.63 5.16 M4.66 104.75 C36 67.47, 72.47 27.86, 89.29 7.39 M4.66 104.75 C32.83 72.45, 60.77 40.31, 89.29 7.39 M4.14 117.55 C39.06 80.28, 70.66 43.39, 93.36 14.91 M4.14 117.55 C39.2 77.46, 74.86 34.76, 93.36 14.91 M4.27 129.59 C29.16 108.74, 48.25 81.01, 93.49 26.95 M4.27 129.59 C29.38 95.03, 58.56 63.05, 93.49 26.95 M6.37 139.36 C25.4 118.28, 48.55 90.27, 93.63 38.99 M6.37 139.36 C41.45 105.6, 70.79 66.35, 93.63 38.99 M11.1 146.12 C38.81 114.4, 65.64 84.86, 93.76 51.03 M11.1 146.12 C33.46 120.41, 59.2 93.1, 93.76 51.03 M19.1 149.11 C37.06 132.12, 53.32 112.43, 93.89 63.07 M19.1 149.11 C40.64 124.54, 61.67 100.52, 93.89 63.07 M30.39 148.32 C50.16 130.29, 64.36 112.19, 94.03 75.11 M30.39 148.32 C45.19 131.12, 63.3 111.87, 94.03 75.11 M41.02 148.28 C58.98 134.28, 67.2 118.76, 94.16 87.15 M41.02 148.28 C55.73 131.1, 68.06 118.89, 94.16 87.15 M51.65 148.25 C64.28 130.15, 83.2 112.13, 94.29 99.19 M51.65 148.25 C62.44 133.76, 73.7 123.32, 94.29 99.19 M62.28 148.21 C75.37 136.79, 84.82 120.41, 94.42 111.23 M62.28 148.21 C70.58 139.3, 77.27 131.1, 94.42 111.23 M72.91 148.18 C77.28 144.52, 83.37 138.01, 94.56 123.27 M72.91 148.18 C78.65 142.37, 83.11 134.38, 94.56 123.27 M6.18 142.27 C6.18 142.27, 6.18 142.27, 6.18 142.27 M6.18 142.27 C6.18 142.27, 6.18 142.27, 6.18 142.27 M24.25 147.39 C13.77 137.3, 10.43 131.83, 1.61 127.71 M24.25 147.39 C16.28 142.88, 11.82 135.47, 1.61 127.71 M36.3 147.25 C31.66 143.38, 19.8 130.12, 1.58 117.08 M36.3 147.25 C25.6 136.72, 12.9 128.99, 1.58 117.08 M47.58 146.46 C29.79 130.28, 16.19 114.94, 1.54 106.44 M47.58 146.46 C37.88 138.94, 24.64 126.58, 1.54 106.44 M59.62 146.33 C35.05 130.25, 16.23 108.67, 1.51 95.81 M59.62 146.33 C40.61 133.43, 24.94 114.22, 1.51 95.81 M71.66 146.2 C46.1 120.01, 14.94 94.79, 1.48 85.18 M71.66 146.2 C49.13 127.63, 29.14 107.59, 1.48 85.18 M82.2 144.75 C47.77 119.39, 16.07 91.33, 1.44 74.55 M82.2 144.75 C52.79 119.4, 22.07 94.3, 1.44 74.55 M88.95 140.03 C59.17 116.7, 33.87 91.65, 1.41 63.92 M88.95 140.03 C68.44 120.71, 46.3 102.84, 1.41 63.92 M91.94 132.02 C58.44 103.77, 23.57 71.73, 0.62 52.64 M91.94 132.02 C62.14 109, 33.57 81.2, 0.62 52.64 M93.41 122.7 C63.05 97.09, 34.15 72.3, 0.58 42.01 M93.41 122.7 C73.62 105.68, 52.62 88.43, 0.58 42.01 M93.38 112.07 C54.11 84.36, 18.94 53.37, 0.55 31.38 M93.38 112.07 C57.36 77.95, 21.24 48.54, 0.55 31.38 M93.34 101.44 C74.62 84.89, 59.15 65.77, 0.51 20.75 M93.34 101.44 C64.57 76.93, 30.6 51.03, 0.51 20.75 M93.31 90.81 C75.88 71.6, 50.99 54.38, 3.5 12.74 M93.31 90.81 C61.45 64.62, 31.48 38.1, 3.5 12.74 M93.27 80.18 C66.08 62.44, 46.59 37.16, 7.24 5.39 M93.27 80.18 C67.73 59.37, 44.93 39.09, 7.24 5.39 M93.24 69.55 C63.81 51.18, 39.92 21.73, 14.75 1.32 M93.24 69.55 C66 44.99, 37.63 19.78, 14.75 1.32 M93.21 58.92 C71.67 44.41, 51.7 23.59, 25.28 -0.12 M93.21 58.92 C70.37 38.49, 48.54 18.56, 25.28 -0.12 M92.42 47.64 C77.89 38.06, 61.86 23.3, 37.32 -0.26 M92.42 47.64 C72.12 28.22, 52.86 12.36, 37.32 -0.26 M92.38 37.01 C77.02 23.29, 64.18 11.9, 49.36 -0.39 M92.38 37.01 C77.51 24.38, 60.8 9.27, 49.36 -0.39 M92.35 26.38 C84.08 12.9, 71.68 8.68, 62.16 0.13 M92.35 26.38 C84.2 19.31, 74.75 12.66, 62.16 0.13 M92.31 15.75 C88.78 7.36, 81.02 6.16, 74.2 0 M92.31 15.75 C84.67 12.15, 78.83 4.66, 74.2 0" stroke="#a5d8ff" stroke-width="1" fill="none"></path><path d="M23.36 0 C36.49 -0.61, 46.88 -1.83, 70.08 0 M23.36 0 C35.97 0.15, 49.25 1.02, 70.08 0 M70.08 0 C87.09 -2.38, 90.34 11.57, 93.43 23.36 M70.08 0 C82.55 2.18, 95.16 5.25, 93.43 23.36 M93.43 23.36 C96.5 53.53, 94.5 77.37, 93.43 124.46 M93.43 23.36 C92.49 61, 93.12 94.13, 93.43 124.46 M93.43 124.46 C94.33 137.94, 83.45 147.65, 70.08 147.82 M93.43 124.46 C95.94 137.64, 81.74 146.55, 70.08 147.82 M70.08 147.82 C54.01 147.86, 37.27 148.6, 23.36 147.82 M70.08 147.82 C57.63 149.75, 44.87 148.63, 23.36 147.82 M23.36 147.82 C5.31 151.53, -3.63 141.38, 0 124.46 M23.36 147.82 C11.74 152.38, 1.49 138.86, 0 124.46 M0 124.46 C0.43 101.65, -0.41 86.9, 0 23.36 M0 124.46 C-2.09 103.82, 0.69 84.01, 0 23.36 M0 23.36 C-2.84 7.67, 8.6 2.35, 23.36 0 M0 23.36 C-1.77 8.42, 4.2 -2.02, 23.36 0" stroke="#846358" stroke-width="2" fill="none"></path></g><g transform="translate(719.757486506328 385.4835752191884) rotate(0 30.439964294433594 12.5)"><text x="30.439964294433594" y="0" font-family="Virgil, Segoe UI Emoji" font-size="20px" fill="#f08c00" text-anchor="middle" style="white-space: pre;" direction="ltr" dominant-baseline="text-before-edge">Tasks</text></g></svg>