<svg version="1.1" xmlns="http://www.w3.org/2000/svg" viewBox="0 0 1292 440.28829074224456" width="2584" height="880.5765814844891">
  <!-- svg-source:excalidraw -->
  
  <defs>
    <style>
      @font-face {
        font-family: "Virgil";
        src: url("https://excalidraw.com/Virgil.woff2");
      }
      @font-face {
        font-family: "Cascadia";
        src: url("https://excalidraw.com/Cascadia.woff2");
      }
    </style>
  </defs>
  <rect x="0" y="0" width="1292" height="440.28829074224456" fill="#ffffff"></rect><g transform="translate(243 373.7891068792995) rotate(0 42 22)"><text x="0" y="35" font-family="Cascadia, Segoe UI Emoji" font-size="36px" fill="#000000" text-anchor="start" style="white-space: pre;" direction="ltr">code</text></g><g transform="translate(206 221.78910687929948) rotate(0 74 22)"><text x="0" y="35" font-family="Cascadia, Segoe UI Emoji" font-size="36px" fill="#000000" text-anchor="start" style="white-space: pre;" direction="ltr">license</text></g><g transform="translate(954 377.7891068792995) rotate(0 42 22)"><text x="0" y="35" font-family="Cascadia, Segoe UI Emoji" font-size="36px" fill="#000000" text-anchor="start" style="white-space: pre;" direction="ltr">code</text></g><g transform="translate(917 225.78910687929948) rotate(0 74 22)"><text x="0" y="35" font-family="Cascadia, Segoe UI Emoji" font-size="36px" fill="#000000" text-anchor="start" style="white-space: pre;" direction="ltr">license</text></g><g transform="translate(923 12.789106879299482) rotate(0 74 22)"><text x="0" y="35" font-family="Cascadia, Segoe UI Emoji" font-size="36px" fill="#000000" text-anchor="start" style="white-space: pre;" direction="ltr">license</text></g><g transform="translate(960 164.78910687929948) rotate(0 42 22)"><text x="0" y="35" font-family="Cascadia, Segoe UI Emoji" font-size="36px" fill="#000000" text-anchor="start" style="white-space: pre;" direction="ltr">code</text></g><g stroke-linecap="round" transform="translate(10 29.28910687929948) rotate(0 90 87)"><path d="M-1.8179492708295584 1.7707477863878012 C48.392829194664955 0.9579759662970901, 98.0745797213167 2.2159313386306168, 179.58549269475043 -0.682131702080369 M0.8608430353924632 -0.24583857040852308 C60.51184771675616 1.798016168922186, 121.95896731968968 1.2077991448342802, 180.822037759237 0.5846761288121343 M181.70271214284003 -0.38215296901762486 C181.35487582085653 65.92983387764544, 181.6635183870606 136.29974880963564, 181.957924509421 172.97399426065385 M180.24521285574883 0.6697598518803716 C180.2772167908214 67.66169518455864, 181.19359376898035 132.8843252880499, 179.6778459874913 173.30366219300777 M179.42083182372153 172.97296286188066 C142.491369638592 174.6192175315693, 104.37284533493221 175.38199849594383, -0.6293509360402822 174.60096639953554 M179.46882656496018 173.72711719293147 C114.43237217608839 174.0817500215024, 50.22810448613018 173.45796175412835, -0.17205428797751665 174.76746503729373 M-1.6435096617788076 172.1451162751764 C-0.6308269326202571 115.00200923550872, 1.6347209985740483 57.7624113358557, 1.7285125497728586 1.029290085658431 M-0.7854850264266133 173.8522893609479 C-0.4175229683332147 113.92434986643494, 0.18779024334624395 55.30138492789119, -0.5028400691226125 -0.5929766176268458" stroke="#1864ab" stroke-width="4" fill="none"></path></g><g transform="translate(71.5 91.28910687929948) rotate(0 31.5 22)"><text x="31.5" y="35" font-family="Cascadia, Segoe UI Emoji" font-size="36px" fill="#1864ab" text-anchor="middle" style="white-space: pre;" direction="ltr">EPL</text></g><g stroke-linecap="round" transform="translate(11 236.28910687929948) rotate(0 90 87)"><path d="M-0.47609112225472927 -1.3945623580366373 C60.742844834923744 -0.6102617437019944, 122.15174699388444 1.3655967658385635, 179.49300178326666 -1.3109199348837137 M0.7774135796353221 0.5309025766327977 C58.452685696072884 0.40119753107428546, 118.91418503876777 -0.14349108114838605, 179.7413663296029 -0.5059037385508418 M181.9939492587 1.9246667083352804 C182.7007284700684 42.39533716496081, 181.09383606312795 87.95103531628848, 181.74474420584738 174.54756045900285 M179.53371256869286 -0.1605966268107295 C179.69377129664645 45.63907546028495, 180.5296467184089 92.21253313850612, 180.9162472812459 174.17251302022487 M180.95661392249167 174.7106525953859 C137.14344492927194 176.01922966707497, 93.43833295814693 176.05704267490654, 0.2460078839212656 173.04656476341188 M179.40940681379288 173.47630859632045 C120.34300109092146 173.50138841681184, 58.68483187165111 172.95315785817803, 0.14603984635323286 173.4894233169034 M-0.2164540644735098 173.545853799209 C2.0899836452491583 123.48563572037963, 0.8906801970489324 72.52790139093993, -0.4967984911054373 -0.9599641505628824 M0.3490458754822612 174.79345540422946 C-0.014539748709648803 107.43620933108032, -0.8361636403016746 42.96609113421292, -0.2077142270281911 -0.5734528778120875" stroke="#1864ab" stroke-width="4" fill="none"></path></g><g transform="translate(69.5 301.2891068792995) rotate(0 31.5 22)"><text x="31.5" y="35" font-family="Cascadia, Segoe UI Emoji" font-size="36px" fill="#1864ab" text-anchor="middle" style="white-space: pre;" direction="ltr">EPL</text></g><g stroke-linecap="round" transform="translate(386 27.28910687929948) rotate(0 90 87)"><path d="M0.3450260404497385 -1.2480014506727457 C67.89182211458683 -0.21449221912771477, 133.29630899988115 -0.9385925108566882, 179.91143187321723 0.7279520686715841 M-0.47671761829406023 0.36384732741862535 C44.04310343880206 -0.467198369652033, 88.94693004246801 -0.7450984992086889, 180.89225298445672 -0.0561872897669673 M178.97884663380682 -0.09413951076567173 C178.7399887740426 48.41404293831439, 178.73185887930916 96.4059347227216, 181.9087416175753 174.8666219767183 M179.52001792471856 0.78524408955127 C181.63963702550157 58.04318474754691, 181.47123617162927 117.53767955135554, 180.8858175603673 173.29945648927242 M178.85309424437582 175.7122702654451 C125.84249726310372 175.27803978193552, 69.77955691330133 175.55095258224756, 1.8643128518015146 174.2456693109125 M179.36576298158616 174.74488414544612 C137.97282131854445 174.8187533479184, 96.12495697941631 174.5736882250756, -0.7540607424452901 174.73390142340213 M-0.13715056143701077 173.60524887405336 C2.0051352484710514 120.7012733804062, 2.836723218727857 63.37658827677369, -1.4420082326978445 0.8205994423478842 M0.30584836285561323 173.6063234033063 C0.9193959388323127 130.02077702097594, -0.8139749315194786 83.62106456961482, 0.7599410740658641 -0.8844137666746974" stroke="#c92a2a" stroke-width="4" fill="none"></path></g><g stroke-linecap="round" transform="translate(386 237.28910687929948) rotate(0 90 87)"><path d="M-1.191650366410613 1.8451629932969809 C40.28975607454777 -0.674847405590117, 81.82221270166337 1.3287744706496596, 181.79998739995062 -0.8082169834524393 M-0.04735341388732195 0.20335824508219957 C41.32777426857501 0.36620998606085786, 82.88085281010717 1.635093303769827, 179.10363012831658 -0.6700760303065181 M181.59249981679022 -0.44134371913969517 C178.3584534537606 65.60390137489885, 179.97318732855842 131.84574642926455, 181.20348610915244 175.47797489725053 M179.20868999045342 0.6745291771367192 C178.58538815846666 45.63119515404105, 177.73397338857873 93.32734496425837, 180.11919787805527 173.80077160615474 M178.13856139220297 172.49696302972734 C142.07079545035958 171.46790012586862, 107.01904551498592 175.21462884414942, -0.9757693167775869 172.63930982910097 M180.81862572114915 173.88218559045345 C143.85779198352247 172.5343253236264, 106.29848088230938 171.86924677304924, 0.5374555615708232 173.51741258520633 M-1.2208850737661123 172.65660423599184 C0.19525501089170594 138.00197967160494, 0.09111300067976136 103.76453612223267, -1.520432686433196 -0.8062068168073893 M-0.6909654112532735 174.4086333932355 C-1.6360215607099236 126.17856091074646, -0.6793594720773399 76.57475204672664, -0.5730238230898976 -0.4329643724486232" stroke="#495057" stroke-width="4" fill="none"></path></g><g stroke-linecap="round"><g transform="translate(193 58.28910687929948) rotate(0 96.10785863064234 1.1361877134909477)"><path d="M-0.5937177512794732 -0.9495720114558934 C31.60856156609952 -0.22723348342808547, 160.8519444372505 2.696977150766429, 192.80943501256405 3.221947438437792 M1.2954416999593379 1.166298737190664 C33.44589637015015 1.6010928442609067, 160.23559639785438 0.900767461275932, 192.28634293053298 1.2240557166005692" stroke="#1864ab" stroke-width="4" fill="none"></path></g><g transform="translate(193 58.28910687929948) rotate(0 96.10785863064234 1.1361877134909477)"><path d="M162.49781273272004 12.792048995316627 C172.0825623422707 7.446481858262995, 177.8913406659328 7.44032947480117, 192.52473868664353 0.8255989289100489 M163.14971344791468 10.691472155906858 C169.38960773625573 8.524054215692175, 176.05103432994048 8.306419399919722, 191.7984582721442 0.5437106311510524" stroke="#1864ab" stroke-width="4" fill="none"></path></g><g transform="translate(193 58.28910687929948) rotate(0 96.10785863064234 1.1361877134909477)"><path d="M162.52813740229374 -7.729137198474785 C171.91463383958757 -7.609790397006524, 177.7153363016667 -2.150878806157894, 192.52473868664353 0.8255989289100489 M163.18003811748838 -9.829714037884553 C169.24007092610475 -7.798197825877937, 175.8952924837924 -3.8167860955357744, 191.7984582721442 0.5437106311510524" stroke="#1864ab" stroke-width="4" fill="none"></path></g></g><g stroke-linecap="round"><g transform="translate(193 268.2891068792995) rotate(0 93.85711575485766 1.6603351624030722)"><path d="M-0.8060374584048986 0.56584533713758 C30.613338688388467 1.2718271996825932, 156.86978205777703 3.2497109558433293, 188.5202689681202 3.503360131010413 M0.9716541465930639 -0.1826898062042892 C32.19068148164079 0.22580028237774968, 156.08529876915736 1.1268859958834945, 187.32036471275612 1.6450494510121643" stroke="#1864ab" stroke-width="4" fill="none"></path></g><g transform="translate(193 268.2891068792995) rotate(0 93.85711575485766 1.6603351624030722)"><path d="M159.95805341740333 10.78557191913934 C168.4156695458094 8.95137803549708, 174.55738300526934 4.9983522523875195, 186.91111060326918 2.539930407050997 M158.15750272655123 12.403173797149076 C168.80473841680302 7.944245110606047, 177.75441876116437 4.278606389299844, 187.69714224526658 1.073321263398975" stroke="#1864ab" stroke-width="4" fill="none"></path></g><g transform="translate(193 268.2891068792995) rotate(0 93.85711575485766 1.6603351624030722)"><path d="M160.19089943495936 -9.734315632159461 C168.4533217860846 -5.4072466403908575, 174.5251035903974 -3.197445526321304, 186.91111060326918 2.539930407050997 M158.39034874410726 -8.116713754149725 C168.81664742515335 -5.599335875755644, 177.68717608571657 -2.2896195187072914, 187.69714224526658 1.073321263398975" stroke="#1864ab" stroke-width="4" fill="none"></path></g></g><g transform="translate(444.5 92.28910687929948) rotate(0 31.5 22)"><text x="31.5" y="35" font-family="Cascadia, Segoe UI Emoji" font-size="36px" fill="#c92a2a" text-anchor="middle" style="white-space: pre;" direction="ltr">GPL</text></g><g transform="translate(444.5 302.2891068792995) rotate(0 31.5 22)"><text x="31.5" y="35" font-family="Cascadia, Segoe UI Emoji" font-size="36px" fill="#495057" text-anchor="middle" style="white-space: pre;" direction="ltr">MIT</text></g><g stroke-linecap="round" transform="translate(726 30.28910687929948) rotate(0 90 87)"><path d="M0.46368146501481533 -1.6320022698491812 C46.05879209935665 -1.3665994500741363, 87.77597876824439 0.33405666593462224, 179.2666346486658 -0.27887425385415554 M0.3355729700997472 0.4428396848961711 C40.462459477595985 -0.8649155758321287, 80.96033006254584 0.2969829477369783, 180.6679015578702 0.27609995286911726 M181.1467830594629 0.36506333388388157 C183.4354042503424 45.18144400957973, 179.71485734911636 92.2643289729953, 180.95956862531602 173.33711262978613 M180.67212895769626 0.33691695611923933 C177.65878759959713 67.49194583669305, 178.45389409998432 135.62247196305543, 179.1361532928422 173.255598786287 M181.1627303417772 172.1563279274851 C143.94315614923835 172.2528197987005, 108.09358279593289 172.5734672171995, -1.6104158703237772 173.61552360095084 M180.76830275077373 174.74208259861916 C116.6114444648847 174.680807383731, 55.35492816660552 175.73916167207062, 0.09012756962329149 174.54791328590363 M-1.894299441948533 174.27163770236075 C0.10578736139461409 114.24158752392978, 0.531057263147086 56.638319953531024, 0.2973427828401327 1.0334704760462046 M0.2513221325352788 173.57065961044282 C-0.5337833947129547 133.21384344883262, -0.5683296805806457 93.14594006035476, -0.6505650160834193 0.576108637265861" stroke="#c92a2a" stroke-width="4" fill="none"></path></g><g transform="translate(787.5 92.28910687929948) rotate(0 31.5 22)"><text x="31.5" y="35" font-family="Cascadia, Segoe UI Emoji" font-size="36px" fill="#c92a2a" text-anchor="middle" style="white-space: pre;" direction="ltr">GPL</text></g><g stroke-linecap="round" transform="translate(727 237.28910687929948) rotate(0 90 87)"><path d="M1.6184321101754904 -0.6636097189038992 C59.92515610158444 2.5058484399691223, 121.32642927207054 1.1899277890101074, 178.4608922060579 1.7276786211878061 M0.3144296230748296 -0.16766455490142107 C61.63678056281061 0.19712253585457806, 122.61292197648437 -0.5210114799439907, 179.62082494515926 0.8409277824684978 M181.9721899088472 -0.42091003619134426 C179.24934426935388 60.65440402273089, 181.95726988704874 118.5266789123416, 181.76375240646303 172.09241237677634 M179.3183888318017 -0.05270009953528643 C181.28299971858038 42.62238261476159, 180.3056576792337 83.43400383461267, 179.009012860246 174.05977693479508 M180.1053876336664 173.16646471060812 C135.55449488386512 171.8278072638437, 88.66248236782849 171.95621873568743, 0.9397414978593588 172.26184316910803 M179.06911794561893 173.39235297124833 C113.38573100324719 175.78645593710243, 46.321039319969685 175.88366196341812, 0.3222238542512059 174.06766855996102 M0.22353065572679043 172.04828258790076 C2.296841071974486 112.58610299658031, 1.9453832973353564 55.70225630626082, -1.3466507736593485 -0.1794953104108572 M-0.6899443147704005 173.6979817179963 C-1.1617911112494765 125.5519375283271, -1.0878655266948043 77.45155049655585, -0.6599705396220088 0.5620819060131907" stroke="#c92a2a" stroke-width="4" fill="none"></path></g><g transform="translate(785.5 302.2891068792995) rotate(0 31.5 22)"><text x="31.5" y="35" font-family="Cascadia, Segoe UI Emoji" font-size="36px" fill="#c92a2a" text-anchor="middle" style="white-space: pre;" direction="ltr">GPL</text></g><g stroke-linecap="round" transform="translate(1102 28.28910687929948) rotate(0 90 87)"><path d="M-1.1047412101179361 1.0370463971048594 C38.578614220023155 0.31837449315935373, 77.08485134877264 2.3249273682013154, 180.77472335658967 0.6711459401994944 M0.6642703535035253 0.994233968667686 C62.63901588600129 0.5778961516916752, 123.56305360142142 1.1427239812910557, 180.42498753685504 0.5733915297314525 M178.25164300762117 1.0596208814531565 C182.6753738460131 54.71316363457591, 183.4795576271601 108.8445143863559, 178.83783937059343 175.34425791539252 M180.1134953321889 0.533180090598762 C177.9501498601772 57.31795382276177, 177.82300942758098 116.18448700774461, 179.49241949338466 174.5813651708886 M180.41804576478899 173.48711212910712 C140.98263278231025 172.86534184049816, 106.12583880312741 171.51166140865536, 1.4316160138696432 175.53660550154746 M180.270275128074 174.45070725958794 C112.73264079447836 173.4541486341506, 45.60725030396134 172.973903908208, 0.42905787844210863 173.05285027902573 M0.6488005574792624 172.251710081473 C0.10287111235782498 120.47022246550767, -1.5411224441416562 64.6940086685121, -0.41812884248793125 0.5026442650705576 M-0.7244906006380916 174.1142165986821 C0.5499380916170775 129.84663141556084, 0.540532568078488 85.10312746260314, 0.255685162730515 0.17849016468971968" stroke="#1864ab" stroke-width="4" fill="none"></path></g><g stroke-linecap="round" transform="translate(1102 238.28910687929948) rotate(0 90 87)"><path d="M1.0370463971048594 -0.7333653513342142 C68.28701473772526 -0.5448407048359513, 138.85945660434663 1.7689904456958176, 180.6711459401995 0.8856793697923422 M0.994233968667686 0.6679015578702092 C59.93583316821604 -1.574861691147089, 120.16039421316235 -0.7706990994513034, 180.57339152973145 0.18253166694194078 M181.05962088145316 0.9595686253160238 C178.97092089829965 71.12180461343378, 177.72622064528986 137.55394378453494, 181.34425791539252 174.67383391223848 M180.53318009059876 -0.8638467071577907 C179.16390061309562 39.348978533595805, 179.9680787616037 80.17235084008426, 180.5813651708886 173.07816396374255 M179.48711212910712 172.38958412967622 C124.66703489795327 175.31598268616943, 68.36486576311289 175.80785720217972, 1.5366055015474558 175.48416519723833 M180.45070725958794 174.0901275696233 C143.30379026476294 174.8087190847844, 105.57942251767963 174.9155531089753, -0.9471497209742665 174.13581885118037 M-1.748289918527007 174.29734278284013 C2.7314646245725456 118.50863252151757, 1.5184988381154836 65.2924377478659, 0.5026442650705576 -0.8586807791143656 M0.11421659868210554 173.34943498391658 C1.1016204479523004 133.14506053738296, 1.0875937166996301 93.86574731674045, 0.17849016468971968 -0.10126026254147291" stroke="#495057" stroke-width="4" fill="none"></path></g><g stroke-linecap="round"><g transform="translate(908 54.28910687929948) rotate(0 96.16121708584944 0.7062541889771836)"><path d="M0.6222278382629156 -0.4400192108005285 C32.827368051434554 0.01654413081705569, 160.59694555861256 1.4257264528423548, 192.8326754476875 2.0765353236347437 M-0.5102412759885193 -1.7166332418099046 C31.557076260286074 -1.0785063976421954, 159.4092231079315 2.615309628807008, 191.79678459409624 3.129141619764268" stroke="#c92a2a" stroke-width="4" fill="none"></path></g><g transform="translate(908 54.28910687929948) rotate(0 96.16121708584944 0.7062541889771836)"><path d="M162.6425822845373 12.45526744888813 C169.47312894522804 11.751650236442376, 179.37019400198417 8.132316100817508, 192.68246396388858 3.7580008659139272 M164.04384919374172 13.010241655611402 C170.98270380264032 10.57204165147311, 179.83660078395084 7.5840471802167215, 191.97931626103818 4.1152365741878745" stroke="#c92a2a" stroke-width="4" fill="none"></path></g><g transform="translate(908 54.28910687929948) rotate(0 96.16121708584944 0.7062541889771836)"><path d="M163.11781997774705 -8.060437548035384 C169.70824122425142 -3.28760010502271, 179.4785035906448 -1.4329438028767107, 192.68246396388858 3.7580008659139272 M164.51908688695147 -7.505463341312111 C171.4596179856244 -4.1282025264753495, 180.17891171060245 -1.3054611533344875, 191.97931626103818 4.1152365741878745" stroke="#c92a2a" stroke-width="4" fill="none"></path></g></g><g stroke-linecap="round"><g transform="translate(910 271.2891068792995) rotate(0 94.93182584705767 1.367916642548522)"><path d="M-0.4400192108005285 -0.16732455231249332 C31.016544130817056 0.40173867009580133, 156.42572645284235 3.4416051533073184, 188.07653532363474 4.036607172712683 M1.5298319741897286 -1.300773887615651 C33.41556978134438 -1.101084725242108, 159.068113971632 2.0295246470160784, 190.30367090491578 2.458251189608127" stroke="#c92a2a" stroke-width="4" fill="none"></path></g><g transform="translate(910 271.2891068792995) rotate(0 94.93182584705767 1.367916642548522)"><path d="M161.63592090073183 10.618201784620002 C170.5407265855695 10.662159982739576, 176.43273858216477 8.39914595433693, 190.93253015106544 2.122922079805285 M162.1908951074551 11.778134523721352 C173.06174318203344 8.838690160864477, 183.19665850741927 5.042237079797007, 191.28976585933938 2.247796171512455" stroke="#c92a2a" stroke-width="4" fill="none"></path></g><g transform="translate(910 271.2891068792995) rotate(0 94.93182584705767 1.367916642548522)"><path d="M162.04322157808048 -9.898964407231915 C170.95472141826266 -4.834657802927342, 176.74704130381213 -2.075829924123279, 190.93253015106544 2.122922079805285 M162.59819578480375 -8.739031668130565 C173.52378651537245 -4.157711281947432, 183.5094558610612 -0.43611998154412124, 191.28976585933938 2.247796171512455" stroke="#c92a2a" stroke-width="4" fill="none"></path></g></g><g transform="translate(1160.5 93.28910687929948) rotate(0 31.5 22)"><text x="31.5" y="35" font-family="Cascadia, Segoe UI Emoji" font-size="36px" fill="#1864ab" text-anchor="middle" style="white-space: pre;" direction="ltr">EPL</text></g><g transform="translate(1160.5 303.2891068792995) rotate(0 31.5 22)"><text x="31.5" y="35" font-family="Cascadia, Segoe UI Emoji" font-size="36px" fill="#495057" text-anchor="middle" style="white-space: pre;" direction="ltr">MIT</text></g><g stroke-linecap="round"><g transform="translate(256.22816501973193 224.9227743611578) rotate(0 24.446120951110515 45.543342337748015)"><path d="M-2.1636178273707625 0.003854985907673747 C6.162451585062476 14.953795883776616, 42.669636737446645 74.70161995203232, 51.055859729591795 89.72500712370497 M1.8573225671052933 -2.4623632603883747 C9.827058347864082 13.000176413503159, 42.24648572764363 77.52589241726632, 49.51489277305085 93.54904793588442" stroke="#b53737" stroke-width="4" fill="none"></path></g></g><g stroke-linecap="round"><g transform="translate(237 307.7891068792995) rotate(0 44.7210067588091 -40.7259445857629)"><path d="M1.2840247493237253 0.3586746055632828 C15.874941911424198 -12.51232697578768, 71.19921853753426 -64.08864134959876, 85.38188514523208 -77.2221545021981 M-1.4634574574232104 -1.9149272757768632 C14.243780873417855 -15.673459246754646, 76.62224204361439 -69.53431268990039, 90.9054709750414 -81.81056377708911" stroke="#b53737" stroke-width="4" fill="none"></path></g></g><g stroke-linecap="round"><g transform="translate(974.7281650197319 226.60594062022864) rotate(0 25.082497498923885 45.130380425592875)"><path d="M-2.352571250870824 1.4331492144614453 C6.632836794781815 15.718254246038068, 43.75677838637497 72.64948870451187, 52.51756624871869 87.76039189791304 M1.5657944279909133 -0.2571664506196978 C10.55279552857392 14.17962645813512, 43.92378998599018 75.79974706394907, 51.77009711684663 90.51792730180544" stroke="#b53737" stroke-width="4" fill="none"></path></g></g><g stroke-linecap="round"><g transform="translate(955.5 309.4722731383703) rotate(0 44.84543718427415 -37.406973894312955)"><path d="M1.4331492144614453 2.7457312684506174 C15.323865493014452 -9.788786699250341, 70.6775449393938 -64.46156385528545, 85.39405937977135 -77.55967905707658 M-1.2333797112107279 1.7679601469635964 C13.393548685014249 -10.031425677239895, 75.81737420648336 -60.02967884153127, 90.92425407975912 -73.69131594747304" stroke="#b53737" stroke-width="4" fill="none"></path></g></g><g stroke-linecap="round"><g transform="translate(978.7281650197319 11.605940620228637) rotate(0 25.50195140478195 45.246313877319906)"><path d="M2.7457312684506174 -1.6059406202286481 C11.506519130794338 13.504962573172518, 42.014965294937944 76.65641861469481, 50.212155923191496 92.09856837486845 M0.7917468863725663 3.6939520901441583 C9.432191132707528 17.964833591428274, 39.79642121634449 74.78186749680276, 48.21317832889039 88.57111386625094" stroke="#b53737" stroke-width="4" fill="none"></path></g></g><g stroke-linecap="round"><g transform="translate(959.5 94.47227313837033) rotate(0 44.06314761824899 -39.62117132801563)"><path d="M-1.6059406202286481 0.4403209429234267 C13.110573820148904 -12.6577942588677, 74.68447484957674 -62.481202747300266, 89.73223585672676 -75.84295994229615 M2.7177388295531273 -1.7889586409926417 C17.1787558183074 -14.45789448350668, 74.79949463933707 -67.05426456063987, 88.97744064420462 -79.68266359895468" stroke="#b53737" stroke-width="4" fill="none"></path></g></g><g stroke-linecap="round"><g transform="translate(192 164.78910687929948) rotate(0 95.96423205178235 1.8275995631610584)"><path d="M0.661327726766467 0.5506987441331148 C32.863310594484204 1.3631156737264747, 160.64706550352275 3.3859671789689627, 192.37907804958522 3.860987486858221 M-0.4506139460206031 -0.2057883605360984 C31.699388638436794 0.36637530892161074, 159.3131560239196 1.9514772542847962, 191.63004856199026 2.198591790441724" stroke="#1864ab" stroke-width="4" fill="none"></path></g><g transform="translate(192 164.78910687929948) rotate(0 95.96423205178235 1.8275995631610584)"><path d="M164.25118464113922 12.79517870117953 C171.40357413991313 8.13191067789072, 177.16180204574886 8.640367058890135, 192.2490594854206 2.4748766955922568 M164.321385549137 11.463208662355747 C172.52384996667942 8.248908657136127, 182.0364441295873 5.722107436891126, 191.18083286765963 2.1078107564713084" stroke="#1864ab" stroke-width="4" fill="none"></path></g><g transform="translate(192 164.78910687929948) rotate(0 95.96423205178235 1.8275995631610584)"><path d="M164.4661100665476 -7.724904374854855 C171.39562649416175 -7.655089531077655, 177.10429294000386 -2.414734750870643, 192.2490594854206 2.4748766955922568 M164.5363109745454 -9.056874413678639 C172.6888133678169 -5.553119193917092, 182.13103389128938 -1.3609716214208376, 191.18083286765963 2.1078107564713084" stroke="#1864ab" stroke-width="4" fill="none"></path></g></g><g transform="translate(240 165.28910687929948) rotate(0 42 22)"><text x="0" y="35" font-family="Cascadia, Segoe UI Emoji" font-size="36px" fill="#000000" text-anchor="start" style="white-space: pre;" direction="ltr">code</text></g><g stroke-linecap="round"><g transform="translate(264.72816501973193 122.10594062022864) rotate(0 25.177533239172817 44.24214254780671)"><path d="M1.2849637363106012 0.8845154490321874 C10.31528730708175 15.153600142868232, 43.57401042619413 72.12394948190386, 51.81707521298904 87.15760619213802 M-1.4620087346434594 -1.1036299744248392 C7.594290604693821 13.308445841815939, 42.20180513313975 74.9889151204967, 50.68933951886375 89.58791507003826" stroke="#b53737" stroke-width="4" fill="none"></path></g></g><g stroke-linecap="round"><g transform="translate(245.5 204.97227313837033) rotate(0 43.95719930648801 -39.73325767409057)"><path d="M0.8845154490321874 2.045240232720971 C14.759211389844618 -11.007000810528794, 70.1520057167858 -63.83204503320157, 84.79127367399633 -77.02848252318799 M-2.0798432350158693 0.6872025489807125 C12.52236806869507 -13.350956020355227, 75.00654226303101 -67.69842123031617, 89.99424184799194 -81.5117555809021" stroke="#b53737" stroke-width="4" fill="none"></path></g></g><g transform="translate(203 13.289106879299482) rotate(0 74 22)"><text x="0" y="35" font-family="Cascadia, Segoe UI Emoji" font-size="36px" fill="#000000" text-anchor="start" style="white-space: pre;" direction="ltr">license</text></g><g stroke-linecap="round"><g transform="translate(263.72816501973193 13.605940620228637) rotate(0 24.58185156819411 46.39704829770139)"><path d="M0.4403209429234267 2.7322358567267653 C8.637511571176976 18.174385616900395, 43.995326402923126 76.80079550058579, 51.92887503797192 91.04695794081313 M-2.7651719015836718 1.7471386545896532 C5.005722326440743 16.529086287465564, 41.41183549723591 72.12462040646311, 50.86183067740876 86.94862919656558" stroke="#b53737" stroke-width="4" fill="none"></path></g></g><g stroke-linecap="round"><g transform="translate(244.5 96.47227313837033) rotate(0 44.72577540833504 -38.786591084674)"><path d="M2.7322358567267653 2.1570400577038527 C17.779996863876782 -11.204717137292027, 74.82885173546771 -66.19787723806996, 88.68062542267144 -79.73022222705185 M0.7709253939986231 0.8596937075257305 C15.743008514344695 -12.216004067361354, 73.5822475489974 -64.14856234639883, 87.35495597451926 -77.0401539811492" stroke="#b53737" stroke-width="4" fill="none"></path></g></g><g stroke-linecap="round"><g transform="translate(905.5 164.78910687929948) rotate(0 96.90544974361546 1.7298969155363721)"><path d="M-0.817487133666873 -0.12142923362553115 C31.309402742857735 0.3131338190287352, 160.0296823212256 2.661994547769427, 192.2894636619836 3.10042761079967 M0.9541933918185532 -1.2307835266180338 C33.512179164706424 -0.6262071231193843, 162.81414667091644 3.8906184735707936, 194.6283866208978 4.690577357690781" stroke="#c92a2a" stroke-width="4" fill="none"></path></g><g transform="translate(905.5 164.78910687929948) rotate(0 96.90544974361546 1.7298969155363721)"><path d="M165.93526766087044 12.901982659213376 C173.69330559863548 11.399742547605031, 180.13475560190707 9.221476844500591, 193.31633088598028 6.448197154011577 M166.81430074676055 14.708071660921108 C171.78537225646696 11.964700896009154, 177.4234972244569 10.12345876576012, 195.3434822591953 5.0721336162276565" stroke="#c92a2a" stroke-width="4" fill="none"></path></g><g transform="translate(905.5 164.78910687929948) rotate(0 96.90544974361546 1.7298969155363721)"><path d="M166.56143770274483 -7.609670454675294 C174.24052462568807 -3.76925939521785, 180.51874647993364 -0.6006082109838351, 193.31633088598028 6.448197154011577 M167.44047078863494 -5.803581452967562 C172.3560229984016 -4.374120754292594, 177.86687301308464 -2.046176373314343, 195.3434822591953 5.0721336162276565" stroke="#c92a2a" stroke-width="4" fill="none"></path></g></g><g stroke-linecap="round"><g transform="translate(976.2281650197319 122.10594062022864) rotate(0 23.062248308779658 45.20303470793179)"><path d="M-0.2833348784595726 -1.657918122038245 C7.859284741111726 13.45373820386516, 41.854516428352056 73.62917964717681, 50.006166072133965 88.7624679768644 M-3.881669454574585 3.613758230209351 C3.805029502911499 19.32580170735406, 39.548871536469115 77.31127023263211, 47.8953654158302 92.06398753790182" stroke="#b53737" stroke-width="4" fill="none"></path></g></g><g stroke-linecap="round"><g transform="translate(957 204.97227313837033) rotate(0 42.36910866834228 -39.45547045208514)"><path d="M-1.657918122038245 0.23433109186589718 C13.059349450841546 -12.90932509439687, 71.65723588205874 -65.8000704759111, 86.39613545872271 -79.14527199603617 M2.637544969618321 -2.10677155405283 C17.09972393423319 -14.845970629751681, 70.12889737516642 -63.53480334192514, 83.8303143158555 -76.13765933901071" stroke="#b53737" stroke-width="4" fill="none"></path></g></g><g stroke-linecap="round"><g transform="translate(908.5 381.7891068792995) rotate(0 94.92919918050052 1.8316529097966736)"><path d="M-0.5834353219717741 0.9935731004923583 C30.910221802070737 1.3166077565401793, 156.56125178225338 1.784781153127551, 188.16713386662303 2.1188757609575988 M1.3111224046535792 0.46959503291174753 C33.25342823000625 0.9040906315855681, 159.2747900989838 2.5528680467419327, 190.44183368297294 3.1937107866816223" stroke="#c92a2a" stroke-width="4" fill="none"></path></g><g transform="translate(908.5 381.7891068792995) rotate(0 94.92919918050052 1.8316529097966736)"><path d="M163.74405825992883 11.606925046290387 C167.23294227247658 10.928102939790168, 175.32652002821598 6.970494017358504, 191.97159181037918 2.1482788132689894 M161.20514146068902 13.554108941215206 C169.50122836854035 9.644137521903186, 179.14364223417124 6.698776117409457, 190.23904696820304 2.4762021288461984" stroke="#c92a2a" stroke-width="4" fill="none"></path></g><g transform="translate(908.5 381.7891068792995) rotate(0 94.92919918050052 1.8316529097966736)"><path d="M164.07740115440603 -8.911575993028757 C167.51925289749843 -4.795492386370679, 175.53490644254686 -3.9565748954859945, 191.97159181037918 2.1482788132689894 M161.53848435516622 -6.964392098103938 C169.88589567472854 -4.7695254725961735, 179.42908650440398 -1.6073381634165598, 190.23904696820304 2.4762021288461984" stroke="#c92a2a" stroke-width="4" fill="none"></path></g></g><g stroke-linecap="round"><g transform="translate(973.2281650197319 337.10594062022864) rotate(0 26.567058852324294 45.619497905401516)"><path d="M2.3183372344821693 -1.943354311212897 C10.200723928638428 13.198092638673256, 39.807685174187675 74.6377098784937, 47.71587842250246 89.48733261471611 M0.13233894824981718 3.1733709669113157 C8.857535677952699 18.931377121057977, 45.030903315758366 78.86728830380673, 53.00177875639874 93.18235012201589" stroke="#b53737" stroke-width="4" fill="none"></path></g></g><g stroke-linecap="round"><g transform="translate(954 419.9722731383703) rotate(0 42.588822892680696 -37.502348234690714)"><path d="M-1.943354311212897 -2.0559565577656027 C12.803703885649641 -15.443069139495492, 72.66576611337561 -65.70394124525289, 87.12100009657442 -78.00433825589717 M2.1971577063202856 2.9996417865157126 C16.705299347937107 -10.115175727903843, 70.24491544634104 -60.506489671766765, 84.94867689996958 -74.37736156851054" stroke="#b53737" stroke-width="4" fill="none"></path></g></g><g stroke-linecap="round"><g transform="translate(195.5 375.4722731383703) rotate(0 93.9043980371207 1.4138639897480516)"><path d="M-0.9778961230069398 -0.8237536679953337 C30.620035917684437 -0.246217454597354, 156.93613526336847 1.7852980602532629, 188.78669219724833 2.419053374603391 M0.7095696830749514 1.3581717109680178 C32.20089475631713 2.1807821846008304, 156.18648740768433 3.1636563301086427, 187.7266601371765 3.651481647491455" stroke="#1864ab" stroke-width="4" fill="none"></path></g><g transform="translate(195.5 375.4722731383703) rotate(0 93.9043980371207 1.4138639897480516)"><path d="M158.04704874093693 13.232335161045297 C165.1411236101639 13.376525386950732, 172.6767692475137 9.855319611039231, 187.20711010985076 4.452112606242299 M160.18745918191087 12.984731413982912 C167.85524833225995 10.176633748705274, 173.84447535486106 8.687811215536689, 187.45057575974613 2.782498705647886" stroke="#1864ab" stroke-width="4" fill="none"></path></g><g transform="translate(195.5 375.4722731383703) rotate(0 93.9043980371207 1.4138639897480516)"><path d="M158.28258255644423 -7.2875217148588955 C165.14282442121424 -2.3588233507483167, 172.6235298342357 -1.0936015917461592, 187.20711010985076 4.452112606242299 M160.42299299741816 -7.535125461921281 C167.9388973368322 -4.948794132238458, 173.86621417988562 -1.0439621672436292, 187.45057575974613 2.782498705647886" stroke="#1864ab" stroke-width="4" fill="none"></path></g></g><g stroke-linecap="round"><g transform="translate(258.72816501973193 332.10594062022864) rotate(0 26.080163136767226 44.37807646463625)"><path d="M-1.922091891989112 -0.497718206420541 C6.554131769317518 15.21463672565606, 39.80889129081433 76.85816556399996, 48.41629285434264 91.99237197211009 M2.229962581694126 -3.23621904283762 C11.871364917857578 11.962616569545736, 46.47276418141092 73.65313421858782, 54.08241816552359 88.40726798770946" stroke="#b53737" stroke-width="4" fill="none"></path></g></g><g stroke-linecap="round"><g transform="translate(239.5 414.9722731383703) rotate(0 42.70680357526987 -36.98461814772338)"><path d="M-0.497718206420541 -1.3555421259254217 C14.820247972632448 -14.043446392441789, 74.88622179888188 -65.15421283903221, 89.6260394539684 -78.04951749108731 M-4.21243230342865 4.0802811956405645 C11.176538796424865 -7.955757775306703, 73.67076136112212 -61.09833727359772, 88.81359476566314 -74.44706667423249" stroke="#b53737" stroke-width="4" fill="none"></path></g></g></svg>