<svg version="1.1" xmlns="http://www.w3.org/2000/svg" viewBox="0 0 576 432.34241673767565" width="1152" height="864.6848334753513">
  <!-- svg-source:excalidraw -->
  
  <defs>
    <style>
      @font-face {
        font-family: "Virgil";
        src: url("https://excalidraw.com/Virgil.woff2");
      }
      @font-face {
        font-family: "Cascadia";
        src: url("https://excalidraw.com/Cascadia.woff2");
      }
    </style>
  </defs>
  <rect x="0" y="0" width="576" height="432.34241673767565" fill="#ffffff"></rect><g stroke-linecap="round" transform="translate(10 34.84241673767565) rotate(0 90 87)"><path d="M0.6448274496942759 -1.5341758076101542 C70.20837952196598 -1.906898450292647, 141.10282797180116 1.3762510901317, 181.19671645201743 -1.3001446668058634 M0.4384503988549113 0.4392031254246831 C61.22516490239649 -2.167039511352778, 121.72715326305477 -1.6156330384314062, 179.7668125955388 -0.18920074682682753 M178.83552708663046 1.7279987391084433 C179.51285667477177 36.436946040950716, 178.05085219202564 72.39760804921389, 178.82372018136084 173.79687446914613 M179.23839620035142 0.6229871632531285 C181.39645608237012 43.84390932545066, 180.89916061332448 85.7635743541643, 180.23567605298012 174.31875340361148 M181.19249602593482 172.9756678994745 C114.64535239711404 175.58518950808792, 53.569852216169224 174.79857967961578, -1.2335316892713308 174.19182718358934 M180.16808271687478 173.5208262624219 C128.5947019988671 174.50566205792128, 78.09102629031985 174.38012570552527, 0.7453825203701854 174.35964078921825 M-1.7231695409864187 174.88308704458177 C0.34673073904588814 116.02654806841164, 2.433794707227498 60.65402360334991, 0.5333226565271616 0.01795322261750698 M0.87420794647187 174.89178414363414 C0.6583087673969565 134.5390600901097, 0.6564070514030753 94.54724931325764, 0.9533721832558513 0.22865794319659472" stroke="#495057" stroke-width="4" fill="none"></path></g><g transform="translate(71.5 96.84241673767565) rotate(0 31.5 22)"><text x="31.5" y="35" font-family="Cascadia, Segoe UI Emoji" font-size="36px" fill="#495057" text-anchor="middle" style="white-space: pre;" direction="ltr">MIT</text></g><g stroke-linecap="round" transform="translate(11 241.84241673767565) rotate(0 90 87)"><path d="M-0.20040914975106716 -1.9500676337629557 C53.853558793663986 2.71384013351053, 108.33333278261127 0.08061356004327536, 180.71678861416876 0.10319454036653042 M0.7740673748776317 -0.9937472818419337 C66.55788050312549 -1.232906434684992, 131.23265718575567 -0.9797663725912573, 179.0907499222085 -0.4105050740763545 M180.2271355036646 0.05789739452302456 C177.752039586287 60.70601588543505, 177.81062874672935 121.92988472729922, 178.92750015296042 175.35988355241716 M180.2133573917672 0.9746579946950078 C178.39087131133303 42.994012632220986, 178.9104854415916 86.25663528274745, 180.5455457298085 174.03792358655483 M178.4651755336672 174.48818564973772 C116.2394599057734 172.77967693079262, 48.82639114372432 173.26992829311638, -0.3100209590047598 172.97828788124025 M179.80451336782426 173.66477824468166 C118.10181089583784 172.67672916464508, 55.927706255577505 173.49712806157768, 0.22053635399788618 173.51034383196384 M-0.5052709933370352 172.06388062797487 C3.0809504755027595 123.8849272834137, 2.032480157185346 76.33043034449219, -1.3799910303205252 -1.5470246020704508 M-0.6876026364043355 174.73313812632114 C-2.21062617925927 126.4291343074292, -0.5677496436052023 77.21611578669399, -0.4524239571765065 -0.956836867146194" stroke="#495057" stroke-width="4" fill="none"></path></g><g transform="translate(69.5 306.84241673767565) rotate(0 31.5 22)"><text x="31.5" y="35" font-family="Cascadia, Segoe UI Emoji" font-size="36px" fill="#495057" text-anchor="middle" style="white-space: pre;" direction="ltr">MIT</text></g><g stroke-linecap="round" transform="translate(386 32.84241673767565) rotate(0 90 87)"><path d="M0.2852506283670664 1.3330819066613913 C41.38913418352604 0.45491620358079676, 81.10162407718599 1.8582554107531906, 181.30365803278983 0.8769007977098227 M0.8249582080170512 -0.44234080892056227 C61.6724688531831 1.5995443604886532, 122.9020624374971 1.3782400332391262, 180.50956926029176 -0.5822364566847682 M178.7651310209185 -0.3604892436414957 C179.02132806954904 67.0304634993896, 179.12510804114862 135.8270616129041, 178.93895872868598 172.47679240070283 M179.71606192272156 0.025071692653000355 C180.60691791465507 63.35873004421592, 180.91678759148346 126.1178768677637, 180.60944658797234 174.5962480129674 M181.20949848927557 173.70157582126558 C133.98545721545815 174.63119426835328, 90.12795685045421 173.4176549660042, 0.9343153480440378 174.33616543374956 M180.51064902823418 173.53924189228565 C135.37050979677588 173.75624162964522, 89.47079090680926 172.9069446723908, -0.1928872736170888 173.1384152295068 M1.581792974844575 172.72868872247636 C0.9729084207303822 114.1350959347561, -0.9404052661173046 52.68726082220674, -0.4245665427297354 1.74841589294374 M-0.6895043523982167 174.9354053856805 C2.149800770599395 106.51161384396255, 0.7440046301670371 37.60907493438572, 0.5275859860703349 -0.8968663988634944" stroke="#c92a2a" stroke-width="4" fill="none"></path></g><g stroke-linecap="round" transform="translate(386 242.84241673767565) rotate(0 90 87)"><path d="M1.3330819066613913 1.1967164520174265 C50.89617298543454 0.4600630486384032, 104.49582984484734 1.0469324672594664, 180.87690079770982 0.8784062508493662 M-0.44234080892056227 -0.233187404461205 C67.74401200097056 -2.3941748522222044, 135.4559204215184 -0.975355514138937, 179.41776354331523 0.8639993695542216 M179.6395107563585 -1.1762798186391592 C179.84724520238117 53.10357903484256, 181.4102542856522 107.29111649245026, 178.47679240070283 175.24597432650626 M180.025071692653 0.23567605298012495 C182.0146583143808 56.457964346557866, 181.73382849732414 112.43428382147106, 180.5962480129674 173.48783394973725 M179.70157582126558 172.76646831072867 C140.00524738058448 174.77852768134326, 98.60512827523051 176.02286398839206, 0.33616543374955654 173.0416525248438 M179.53924189228565 174.74538252037019 C129.87840016838163 175.13970460481943, 78.54786259029059 174.72628097720445, -0.8615847704932094 174.44154352229089 M-1.2713112775236368 174.53332265652716 C1.702377076279372 124.81586661171167, 0.1373992515914142 77.96714874133467, 1.74841589294374 1.783568287268281 M0.9354053856804967 174.95337218325585 C-1.0470023966021837 133.31186191625892, -2.2324972069449727 94.0561577329412, -0.8968663988634944 -0.6379395397379994" stroke="#1864ab" stroke-width="4" fill="none"></path></g><g stroke-linecap="round"><g transform="translate(190 66.84241673767565) rotate(0 97.14147669075055 1.7397323883790818)"><path d="M0.7998491439968347 0.7180298712104558 C33.03150810735921 1.2611836697906256, 160.1762352698793 2.9193790104240183, 192.21991319991648 3.430073168501258 M-0.23936878474429246 0.04939160825684663 C32.47838984557117 0.2095688992924988, 162.4276399176133 1.2331297791190445, 194.52232216624543 1.5332868331857026" stroke="#495057" stroke-width="4" fill="none"></path></g><g transform="translate(190 66.84241673767565) rotate(0 97.14147669075055 1.7397323883790818)"><path d="M167.44260928262707 10.255294830692876 C172.6742686364533 9.440708033475133, 178.98701937347465 8.184962268089915, 195.4007284170948 3.081421582940966 M166.01270542614844 11.366238750671911 C170.92693050323626 9.259315507222173, 178.0187161627619 7.076887022156446, 195.38632153579965 1.646854585018009" stroke="#495057" stroke-width="4" fill="none"></path></g><g transform="translate(190 66.84241673767565) rotate(0 97.14147669075055 1.7397323883790818)"><path d="M167.61592149944525 -10.265181900156758 C172.84175310986296 -6.9232863563281795, 179.11940870906653 -4.0237049775692935, 195.4007284170948 3.081421582940966 M166.18601764296662 -9.154237980177722 C171.23475726656167 -7.145001632372648, 178.29177211547918 -5.210503895521732, 195.38632153579965 1.646854585018009" stroke="#495057" stroke-width="4" fill="none"></path></g></g><g stroke-linecap="round"><g transform="translate(191 271.84241673767565) rotate(0 94.53296499637884 1.9258807277865913)"><path d="M0.7180298712104558 -0.7800868000835179 C32.261183669790626 -0.40307553671300395, 157.91937901042402 2.34421217776835, 189.43007316850125 3.0619167242199183 M-0.3641431757435203 1.4247636845335365 C31.043645078279074 1.9415736093744638, 157.075934121944 4.626000359319151, 188.7078161183372 4.63184825565666" stroke="#495057" stroke-width="4" fill="none"></path></g><g transform="translate(191 271.84241673767565) rotate(0 94.53296499637884 1.9258807277865913)"><path d="M159.09349094573997 15.263634715789099 C169.32882867253335 12.565171584146738, 179.00062097066282 9.024007480126212, 190.25595086809247 2.6443536919727926 M160.204434865719 13.637596023828824 C170.85704433303607 11.329995225188991, 181.515368663318 7.8919800951124435, 188.8213838701695 4.660796952918172" stroke="#495057" stroke-width="4" fill="none"></path></g><g transform="translate(191 271.84241673767565) rotate(0 94.53296499637884 1.9258807277865913)"><path d="M159.344513048148 -5.256038534288297 C169.63773595929808 -1.5044351950850068, 179.23064141608288 1.4029651603412603, 190.25595086809247 2.6443536919727926 M160.45545696812704 -6.8820772262485725 C170.92128464170196 -1.341574114442488, 181.4835940668839 3.0691000178521097, 188.8213838701695 4.660796952918172" stroke="#495057" stroke-width="4" fill="none"></path></g></g><g transform="translate(444.5 97.84241673767565) rotate(0 31.5 22)"><text x="31.5" y="35" font-family="Cascadia, Segoe UI Emoji" font-size="36px" fill="#c92a2a" text-anchor="middle" style="white-space: pre;" direction="ltr">GPL</text></g><g transform="translate(444.5 307.84241673767565) rotate(0 31.5 22)"><text x="31.5" y="35" font-family="Cascadia, Segoe UI Emoji" font-size="36px" fill="#1864ab" text-anchor="middle" style="white-space: pre;" direction="ltr">EPL</text></g><g stroke-linecap="round"><g transform="translate(265 39.84241673767565) rotate(0 9.309034833274723 11.498043181300147)"><path d="M-1.0932703156024217 1.1485955554991958 C1.0479006510227922 5.078992187852661, 11.413552500928441 17.1927723168085, 14.256059501692652 21.448206206038595 M3.508715870976448 -0.6961920958757402 C6.431583881179491 3.678861748576164, 17.940547777613002 19.8084398239851, 19.711339982151983 23.692278458476068" stroke="#2b8a3e" stroke-width="4" fill="none"></path></g></g><g stroke-linecap="round"><g transform="translate(280 63.84241673767565) rotate(0 15.440771277509725 -26.19674468751998)"><path d="M2.303093967959285 1.4489273626357315 C7.098740083103379 -6.584115183477601, 26.70279855939249 -41.34407289835314, 30.77272178940475 -49.94650364331901 M0.10882076561450926 -0.23282302200794192 C4.6014504335323965 -8.879456291000048, 26.02109883924325 -44.764597555597625, 30.039904654622077 -53.84241673767567" stroke="#2b8a3e" stroke-width="4" fill="none"></path></g></g><g stroke-linecap="round"><g transform="translate(262.5 251.84241673767565) rotate(0 7.937708274908346 12.81658477216962)"><path d="M1.6287030894309282 0.7268299203366042 C4.384569311017792 5.011878806476792, 14.678968361889325 19.815130092824496, 16.807084568217398 23.57919242195785 M-0.9316680184006692 -1.3469162186980248 C1.4995869566003481 3.5753153887391096, 12.898617963095507 22.414363249838352, 15.007207227647305 26.980085763037206" stroke="#2b8a3e" stroke-width="4" fill="none"></path></g></g><g stroke-linecap="round"><g transform="translate(277.5 275.84241673767565) rotate(0 12.628031471334452 -26.397757552191592)"><path d="M0.7268299203366042 0.8070845682173968 C5.678545473143458 -8.398132558787863, 23.148463426157832 -44.521955935284495, 27.57919242195785 -53.602599672600626 M-2.3231294792890553 -1.2230947619676589 C2.410293035308519 -10.23822595576445, 20.537267490824064 -42.46761709829171, 25.112745059132575 -50.843250611424445" stroke="#2b8a3e" stroke-width="4" fill="none"></path></g></g><g stroke-linecap="round"><g transform="translate(190.5 176.84241673767565) rotate(0 96.69039221256975 1.4452998686581964)"><path d="M0.40892613641917697 -0.7264689099043607 C32.293565355862185 0.026626156643033028, 159.9006260306885 2.9857940305024386, 192.01925000660123 3.617068647220731 M-0.8355263713002206 1.5065309670567513 C31.3530271495382 1.9868686917424203, 162.00733582784733 1.334412684738636, 194.21631079643964 1.8184549382328987" stroke="#495057" stroke-width="4" fill="none"></path></g><g transform="translate(190.5 176.84241673767565) rotate(0 96.69039221256975 1.4452998686581964)"><path d="M164.77614645839677 10.337784433884135 C177.23403845396942 8.429142565297765, 186.44993667467708 6.515534602998222, 194.11090665601193 1.855192352309823 M165.20588675600484 12.331690273394397 C177.18887409362534 7.355687683973779, 186.30107548206828 4.106875699540437, 194.70858157996088 2.2214462917670605" stroke="#495057" stroke-width="4" fill="none"></path></g><g transform="translate(190.5 176.84241673767565) rotate(0 96.69039221256975 1.4452998686581964)"><path d="M164.8537580875802 -10.18327740074944 C177.12960064665413 -4.718754170215964, 186.31761420751414 0.7405384880738133, 194.11090665601193 1.855192352309823 M165.28349838518827 -8.189371561239177 C177.30262749739995 -5.621914113107795, 186.38629995728087 -1.327476287464294, 194.70858157996088 2.2214462917670605" stroke="#495057" stroke-width="4" fill="none"></path></g></g><g stroke-linecap="round"><g transform="translate(265.5 146.84241673767565) rotate(0 7.8723663602023635 12.887663530074065)"><path d="M-1.695094123110175 -2.288416651263833 C1.5621276988337436 1.599483736976981, 14.466852737839025 19.448508227492372, 17.43982684351504 24.281563314422964 M2.5801877108216287 2.6409890708327293 C5.78496275494496 6.95047728151083, 14.011353857417902 24.728718086183072, 15.983438166677953 28.063743711411952" stroke="#2b8a3e" stroke-width="4" fill="none"></path></g></g><g stroke-linecap="round"><g transform="translate(280.5 170.84241673767565) rotate(0 12.996573331579611 -25.208711322769545)"><path d="M-2.288416651263833 1.4398268435150383 C2.266150403643648 -6.9205323841422794, 22.781841560825704 -42.92601738236844, 28.281563314422964 -51.857249489054084 M1.6647758102416992 -0.24686382293701215 C5.785454928080241 -7.958499972025554, 21.411622327168782 -40.0053119023641, 26.196403007507325 -48.15042461395264" stroke="#2b8a3e" stroke-width="4" fill="none"></path></g></g><g stroke-linecap="round"><g transform="translate(193.5 381.34241673767565) rotate(0 94.48392031677065 1.132138025863071)"><path d="M-0.32148989550769325 -0.23874605186283593 C31.125244544818997 0.27942295782268045, 157.55306399948896 3.1523193310946227, 189.28933052904904 3.6739677261561154 M1.7105891800113024 -1.4096916744299233 C32.971337912697344 -1.2876161864586175, 157.127303730268 0.9783637681417168, 188.49318359317257 1.9052260336093605" stroke="#495057" stroke-width="4" fill="none"></path></g><g transform="translate(193.5 381.34241673767565) rotate(0 94.48392031677065 1.132138025863071)"><path d="M159.67770733936115 12.002116385763344 C171.12091268506245 10.050595141067388, 179.7834880935447 3.230458517125035, 189.0902751208283 0.11035750290378932 M160.19959606947734 12.09300782429969 C168.97455455665948 7.6292301450660975, 177.10196859973928 5.445358520710786, 188.31078873006626 1.5227890289016068" stroke="#495057" stroke-width="4" fill="none"></path></g><g transform="translate(193.5 381.34241673767565) rotate(0 94.48392031677065 1.132138025863071)"><path d="M160.14596230781876 -8.513749174099203 C171.52151780586362 -3.2707151942016726, 180.01985575418013 -2.8950420998765383, 189.0902751208283 0.11035750290378932 M160.66785103793495 -8.422857735562857 C169.36822229178978 -6.831763707206611, 177.3574740935728 -2.962270906554485, 188.31078873006626 1.5227890289016068" stroke="#495057" stroke-width="4" fill="none"></path></g></g><g stroke-linecap="round"><g transform="translate(265 348.34241673767565) rotate(0 6.634290680401023 12.565433637984086)"><path d="M-0.5570741210132839 0.6751045677810907 C2.1519869015862545 5.226393136754632, 14.85541177255412 23.04833962656558, 17.572591361030938 26.557588324323298 M-4.304010000228882 -1.4267210483551027 C-1.9449687608083086 2.466280355453491, 13.170844939549767 18.762743673324582, 16.18827485084534 22.935325155258177" stroke="#2b8a3e" stroke-width="4" fill="none"></path></g></g><g stroke-linecap="round"><g transform="translate(280 372.34241673767565) rotate(0 14.077327007688496 -25.340702614560712)"><path d="M0.6751045677810907 1.5725913610309359 C5.893059803421299 -7.043562383825581, 26.38167295989891 -43.46455271976689, 30.557588324323298 -52.25399659015238 M-2.402934308946133 -0.04202713876962694 C2.741258002022902 -8.148317685822647, 24.085647914310297 -39.396194994350274, 29.70798445135355 -48.762548712790014" stroke="#2b8a3e" stroke-width="4" fill="none"></path></g></g><g transform="translate(243 174.34241673767565) rotate(0 42 22)"><text x="0" y="35" font-family="Cascadia, Segoe UI Emoji" font-size="36px" fill="#000000" text-anchor="start" style="white-space: pre;" direction="ltr">code</text></g><g transform="translate(204 64.34241673767565) rotate(0 74 22)"><text x="0" y="35" font-family="Cascadia, Segoe UI Emoji" font-size="36px" fill="#000000" text-anchor="start" style="white-space: pre;" direction="ltr">license</text></g><g transform="translate(241 378.34241673767565) rotate(0 42 22)"><text x="0" y="35" font-family="Cascadia, Segoe UI Emoji" font-size="36px" fill="#000000" text-anchor="start" style="white-space: pre;" direction="ltr">code</text></g><g transform="translate(201 272.34241673767565) rotate(0 74 22)"><text x="0" y="35" font-family="Cascadia, Segoe UI Emoji" font-size="36px" fill="#000000" text-anchor="start" style="white-space: pre;" direction="ltr">license</text></g></svg>