<?xml version="1.0" encoding="UTF-8" standalone="no"?>
<!DOCTYPE svg PUBLIC "-//W3C//DTD SVG 1.1//EN"
 "http://www.w3.org/Graphics/SVG/1.1/DTD/svg11.dtd">
<!-- Generated by graphviz version 2.40.1 (20161225.0304)
 -->
<!-- Title: AppState Pages: 1 -->
<svg width="490pt" height="188pt"
 viewBox="0.00 0.00 490.00 188.00" xmlns="http://www.w3.org/2000/svg" xmlns:xlink="http://www.w3.org/1999/xlink">
<g id="graph0" class="graph" transform="scale(1 1) rotate(0) translate(4 184)">
<title>AppState</title>
<polygon fill="#ffffff" stroke="transparent" points="-4,4 -4,-184 486,-184 486,4 -4,4"/>
<!-- appstate -->
<g id="node1" class="node">
<title>appstate</title>
<polygon fill="none" stroke="#000000" points="308.5,-180 223.5,-180 223.5,-144 308.5,-144 308.5,-180"/>
<text text-anchor="middle" x="266" y="-158.3" font-family="Helvetica,sans-Serif" font-size="14.00" fill="#000000">app&#45;state</text>
</g>
<!-- config -->
<g id="node2" class="node">
<title>config</title>
<polygon fill="none" stroke="#000000" points="92,-108 0,-108 0,-72 92,-72 92,-108"/>
<text text-anchor="middle" x="46" y="-86.3" font-family="Times,serif" font-size="14.00" fill="#000000">config.edn</text>
</g>
<!-- appstate&#45;&gt;config -->
<g id="edge7" class="edge">
<title>appstate&#45;&gt;config</title>
<path fill="none" stroke="#000000" d="M223.3209,-148.0323C188.7947,-136.7328 139.8909,-120.7279 102.1832,-108.3872"/>
<polygon fill="#000000" stroke="#000000" points="102.9534,-104.9567 92.3608,-105.1726 100.7761,-111.6095 102.9534,-104.9567"/>
</g>
<!-- blogindex -->
<g id="node3" class="node">
<title>blogindex</title>
<polygon fill="none" stroke="#000000" points="201.5,-108 198.5,-112 177.5,-112 174.5,-108 110.5,-108 110.5,-72 201.5,-72 201.5,-108"/>
<text text-anchor="middle" x="156" y="-86.3" font-family="Times,serif" font-size="14.00" fill="#000000">blog index</text>
</g>
<!-- appstate&#45;&gt;blogindex -->
<g id="edge8" class="edge">
<title>appstate&#45;&gt;blogindex</title>
<path fill="none" stroke="#000000" d="M238.2424,-143.8314C224.303,-134.7074 207.2402,-123.539 192.2769,-113.7449"/>
<polygon fill="#000000" stroke="#000000" points="194.0326,-110.711 183.7488,-108.1628 190.199,-116.5679 194.0326,-110.711"/>
</g>
<!-- radardata -->
<g id="node4" class="node">
<title>radardata</title>
<polygon fill="none" stroke="#000000" points="312,-108 220,-108 220,-72 312,-72 312,-108"/>
<text text-anchor="middle" x="266" y="-86.3" font-family="Times,serif" font-size="14.00" fill="#000000">radar data</text>
</g>
<!-- appstate&#45;&gt;radardata -->
<g id="edge9" class="edge">
<title>appstate&#45;&gt;radardata</title>
<path fill="none" stroke="#000000" d="M266,-143.8314C266,-136.131 266,-126.9743 266,-118.4166"/>
<polygon fill="#000000" stroke="#000000" points="269.5001,-118.4132 266,-108.4133 262.5001,-118.4133 269.5001,-118.4132"/>
</g>
<!-- pages -->
<g id="node11" class="node">
<title>pages</title>
<polygon fill="none" stroke="#000000" points="389.5,-108 386.5,-112 365.5,-112 362.5,-108 330.5,-108 330.5,-72 389.5,-72 389.5,-108"/>
<text text-anchor="middle" x="360" y="-86.3" font-family="Times,serif" font-size="14.00" fill="#000000">pages</text>
</g>
<!-- appstate&#45;&gt;pages -->
<g id="edge10" class="edge">
<title>appstate&#45;&gt;pages</title>
<path fill="none" stroke="#000000" d="M289.7202,-143.8314C301.4094,-134.8779 315.6688,-123.9558 328.2809,-114.2955"/>
<polygon fill="#000000" stroke="#000000" points="330.4769,-117.0222 336.2874,-108.1628 326.2203,-111.4651 330.4769,-117.0222"/>
</g>
<!-- datomic -->
<g id="node12" class="node">
<title>datomic</title>
<path fill="none" stroke="#000000" d="M482,-104.7273C482,-106.5331 465.416,-108 445,-108 424.584,-108 408,-106.5331 408,-104.7273 408,-104.7273 408,-75.2727 408,-75.2727 408,-73.4669 424.584,-72 445,-72 465.416,-72 482,-73.4669 482,-75.2727 482,-75.2727 482,-104.7273 482,-104.7273"/>
<path fill="none" stroke="#000000" d="M482,-104.7273C482,-102.9214 465.416,-101.4545 445,-101.4545 424.584,-101.4545 408,-102.9214 408,-104.7273"/>
<text text-anchor="middle" x="445" y="-86.3" font-family="Times,serif" font-size="14.00" fill="#000000">datomic</text>
</g>
<!-- appstate&#45;&gt;datomic -->
<g id="edge11" class="edge">
<title>appstate&#45;&gt;datomic</title>
<path fill="none" stroke="#000000" d="M308.875,-144.7542C335.8909,-133.8875 370.7705,-119.8577 398.4589,-108.7204"/>
<polygon fill="#000000" stroke="#000000" points="399.9566,-111.8906 407.9281,-104.9116 397.3443,-105.3963 399.9566,-111.8906"/>
</g>
<!-- post1 -->
<g id="node5" class="node">
<title>post1</title>
<polygon fill="none" stroke="#000000" points="92,-36 42,-36 42,0 98,0 98,-30 92,-36"/>
<polyline fill="none" stroke="#000000" points="92,-36 92,-30 "/>
<polyline fill="none" stroke="#000000" points="98,-30 92,-30 "/>
<text text-anchor="middle" x="70" y="-14.3" font-family="Times,serif" font-size="14.00" fill="#000000">post1</text>
</g>
<!-- blogindex&#45;&gt;post1 -->
<g id="edge1" class="edge">
<title>blogindex&#45;&gt;post1</title>
<path fill="none" stroke="#000000" d="M134.2986,-71.8314C123.8079,-63.0485 111.0545,-52.3712 99.6806,-42.8489"/>
<polygon fill="#000000" stroke="#000000" points="101.6089,-39.8986 91.6945,-36.1628 97.1153,-45.2659 101.6089,-39.8986"/>
</g>
<!-- post2 -->
<g id="node6" class="node">
<title>post2</title>
<polygon fill="none" stroke="#000000" points="166,-36 116,-36 116,0 172,0 172,-30 166,-36"/>
<polyline fill="none" stroke="#000000" points="166,-36 166,-30 "/>
<polyline fill="none" stroke="#000000" points="172,-30 166,-30 "/>
<text text-anchor="middle" x="144" y="-14.3" font-family="Times,serif" font-size="14.00" fill="#000000">post2</text>
</g>
<!-- blogindex&#45;&gt;post2 -->
<g id="edge2" class="edge">
<title>blogindex&#45;&gt;post2</title>
<path fill="none" stroke="#000000" d="M152.9719,-71.8314C151.6885,-64.131 150.1624,-54.9743 148.7361,-46.4166"/>
<polygon fill="#000000" stroke="#000000" points="152.1653,-45.7018 147.0689,-36.4133 145.2606,-46.8526 152.1653,-45.7018"/>
</g>
<!-- post3 -->
<g id="node7" class="node">
<title>post3</title>
<polygon fill="none" stroke="#000000" points="240,-36 190,-36 190,0 246,0 246,-30 240,-36"/>
<polyline fill="none" stroke="#000000" points="240,-36 240,-30 "/>
<polyline fill="none" stroke="#000000" points="246,-30 240,-30 "/>
<text text-anchor="middle" x="218" y="-14.3" font-family="Times,serif" font-size="14.00" fill="#000000">post3</text>
</g>
<!-- blogindex&#45;&gt;post3 -->
<g id="edge3" class="edge">
<title>blogindex&#45;&gt;post3</title>
<path fill="none" stroke="#000000" d="M171.6452,-71.8314C178.8591,-63.454 187.557,-53.3531 195.4605,-44.1749"/>
<polygon fill="#000000" stroke="#000000" points="198.2711,-46.2748 202.1441,-36.4133 192.9667,-41.7071 198.2711,-46.2748"/>
</g>
<!-- page1 -->
<g id="node8" class="node">
<title>page1</title>
<polygon fill="none" stroke="#000000" points="318,-36 264,-36 264,0 324,0 324,-30 318,-36"/>
<polyline fill="none" stroke="#000000" points="318,-36 318,-30 "/>
<polyline fill="none" stroke="#000000" points="324,-30 318,-30 "/>
<text text-anchor="middle" x="294" y="-14.3" font-family="Times,serif" font-size="14.00" fill="#000000">page1</text>
</g>
<!-- page2 -->
<g id="node9" class="node">
<title>page2</title>
<polygon fill="none" stroke="#000000" points="396,-36 342,-36 342,0 402,0 402,-30 396,-36"/>
<polyline fill="none" stroke="#000000" points="396,-36 396,-30 "/>
<polyline fill="none" stroke="#000000" points="402,-30 396,-30 "/>
<text text-anchor="middle" x="372" y="-14.3" font-family="Times,serif" font-size="14.00" fill="#000000">page2</text>
</g>
<!-- page3 -->
<g id="node10" class="node">
<title>page3</title>
<polygon fill="none" stroke="#000000" points="474,-36 420,-36 420,0 480,0 480,-30 474,-36"/>
<polyline fill="none" stroke="#000000" points="474,-36 474,-30 "/>
<polyline fill="none" stroke="#000000" points="480,-30 474,-30 "/>
<text text-anchor="middle" x="450" y="-14.3" font-family="Times,serif" font-size="14.00" fill="#000000">page3</text>
</g>
<!-- pages&#45;&gt;page1 -->
<g id="edge4" class="edge">
<title>pages&#45;&gt;page1</title>
<path fill="none" stroke="#000000" d="M343.3454,-71.8314C335.5886,-63.3694 326.2198,-53.1489 317.739,-43.8971"/>
<polygon fill="#000000" stroke="#000000" points="320.2162,-41.4198 310.8788,-36.4133 315.0561,-46.1499 320.2162,-41.4198"/>
</g>
<!-- pages&#45;&gt;page2 -->
<g id="edge5" class="edge">
<title>pages&#45;&gt;page2</title>
<path fill="none" stroke="#000000" d="M363.0281,-71.8314C364.3115,-64.131 365.8376,-54.9743 367.2639,-46.4166"/>
<polygon fill="#000000" stroke="#000000" points="370.7394,-46.8526 368.9311,-36.4133 363.8347,-45.7018 370.7394,-46.8526"/>
</g>
<!-- pages&#45;&gt;page3 -->
<g id="edge6" class="edge">
<title>pages&#45;&gt;page3</title>
<path fill="none" stroke="#000000" d="M382.7108,-71.8314C393.796,-62.9632 407.2954,-52.1637 419.2852,-42.5718"/>
<polygon fill="#000000" stroke="#000000" points="421.6742,-45.1429 427.2965,-36.1628 417.3013,-39.6768 421.6742,-45.1429"/>
</g>
</g>
</svg>
