<svg id="Layer_1" data-name="Layer 1" xmlns="http://www.w3.org/2000/svg" viewBox="0 0 522.58 139.25"><title>Treasury Prime Assets</title><path d="M328.93,81.46h24.69v3H332.28V98.89h20.24V102H332.28v15.62h22.93l-1.41,3.08H328.93Z"/><path d="M165,81.46h12.64a22.7,22.7,0,0,1,7,.91A11,11,0,0,1,189,84.81a8.35,8.35,0,0,1,2.17,3.61,15.54,15.54,0,0,1,.6,4.37,16.74,16.74,0,0,1-.63,4.62,9,9,0,0,1-2.23,3.84,11,11,0,0,1-4.34,2.62,21.7,21.7,0,0,1-7,1h-9.24v15.89H165Zm12.59,20.45a19.14,19.14,0,0,0,5.39-.63,8,8,0,0,0,3.29-1.79,5.84,5.84,0,0,0,1.65-2.8,14.22,14.22,0,0,0,.44-3.74,12.87,12.87,0,0,0-.49-3.79,5.72,5.72,0,0,0-1.73-2.67,8.08,8.08,0,0,0-3.33-1.59,22.1,22.1,0,0,0-5.28-.53h-9.24v17.54Z"/><path d="M251.84,81.46h3.35v39.26h-3.35Z"/><path d="M273.53,81.46h4.34l14.19,35.35,14.41-35.35h4.12v39.26h-3.14V87.07c-.18.33-.76,1.74-1.75,4.23-.44,1.07-1,2.41-1.65,4s-1.48,3.63-2.45,6-2.12,5.14-3.44,8.33-2.84,6.87-4.56,11h-3.19L276.66,87.29v33.43h-3.13Z"/><path d="M174.84,24.19H161.2V21.11h30.57v3.08H178.19V60.36h-3.35Z"/><path d="M345.12,50.08a9.45,9.45,0,0,0,3.79,6.35c1.95,1.31,4.84,2,8.69,2a15.57,15.57,0,0,0,4.92-.66A8.35,8.35,0,0,0,365.63,56a6.31,6.31,0,0,0,1.65-2.59,9.82,9.82,0,0,0,.49-3.13,11,11,0,0,0-.3-2.61,5.58,5.58,0,0,0-1.15-2.26,7.23,7.23,0,0,0-2.45-1.78,15.53,15.53,0,0,0-4.18-1.21l-4.89-.83a33.21,33.21,0,0,1-5.09-1.26,12.65,12.65,0,0,1-3.76-2,7.87,7.87,0,0,1-2.34-3.11,11.6,11.6,0,0,1-.8-4.56A9.25,9.25,0,0,1,343.94,26a9.87,9.87,0,0,1,3-3.28,13.69,13.69,0,0,1,4.46-1.92,22.53,22.53,0,0,1,5.41-.63,20.41,20.41,0,0,1,6.16.79A12.39,12.39,0,0,1,367.06,23a9.72,9.72,0,0,1,2.47,3,17.94,17.94,0,0,1,1.38,3.38l-3.08.88a17.93,17.93,0,0,0-1.29-3.05,7.23,7.23,0,0,0-2-2.28,8.77,8.77,0,0,0-3.11-1.43,18.08,18.08,0,0,0-4.56-.5,18.58,18.58,0,0,0-5.06.58,9.23,9.23,0,0,0-3.3,1.59,5.91,5.91,0,0,0-1.82,2.42,8.32,8.32,0,0,0-.55,3,9.37,9.37,0,0,0,.39,2.86,5,5,0,0,0,1.32,2.09,7.66,7.66,0,0,0,2.5,1.48,22.81,22.81,0,0,0,3.93,1.05l5.56,1A26.06,26.06,0,0,1,365,40.52a11.64,11.64,0,0,1,3.6,2.22A8.21,8.21,0,0,1,370.71,46a12.7,12.7,0,0,1,.69,4.4,10.45,10.45,0,0,1-.88,4.26,9.52,9.52,0,0,1-2.61,3.49,12.75,12.75,0,0,1-4.32,2.36,18.62,18.62,0,0,1-6,.88,27.38,27.38,0,0,1-5.91-.6,14.28,14.28,0,0,1-4.79-2,11.05,11.05,0,0,1-3.38-3.49,12.36,12.36,0,0,1-1.65-5.23Z"/><path d="M387,21.11h3.35V45q0,6.66,2.59,10t8.52,3.36a13.37,13.37,0,0,0,5.09-.86A7.93,7.93,0,0,0,409.9,55a10.74,10.74,0,0,0,1.87-4.17,26.36,26.36,0,0,0,.58-5.81V21.11h3.35V45a25.39,25.39,0,0,1-1,7.45,13,13,0,0,1-2.81,5.09,11,11,0,0,1-4.51,2.91,18.16,18.16,0,0,1-6,.93,18.58,18.58,0,0,1-6.13-.93,10.86,10.86,0,0,1-4.51-2.94,13.27,13.27,0,0,1-2.8-5.17,26.23,26.23,0,0,1-1-7.56Z"/><path d="M487.11,43.38,473.36,21.11h4l11.49,19.41,11.71-19.41H504L490.46,43.38v17h-3.35Z"/><path d="M323.75,49.29l-1.42-3.12-10.75-23.6-1.84-4-1.84,4-10.75,23.6-1.42,3.12-5,11.07h3.68l5-11.07h20.66l5,11.07h3.69Zm-22.91-3.12,8.9-20.39,8.91,20.39Z"/><path d="M251.84,21.11h24.68v3H255.19V38.54h20.23v3.13H255.19V57.29h22.92l-1.4,3.07H251.84Z"/><path d="M235.52,120.72l-8.59-15.84s-.37-.64-.84-1.42c.28-.08.59-.15.85-.24a11.1,11.1,0,0,0,4.35-2.53A8.79,8.79,0,0,0,233.51,97a15.82,15.82,0,0,0,.64-4.49,14.68,14.68,0,0,0-.61-4.24,8,8,0,0,0-2.17-3.5,11,11,0,0,0-4.32-2.38,23.4,23.4,0,0,0-7-.88H207.37v39.26h3.3V104.16h12.05l8.87,16.56Zm-24.85-19.48v-.15h0V84.38h9.23a23.38,23.38,0,0,1,5.28.5,8.05,8.05,0,0,1,3.33,1.54A5.45,5.45,0,0,1,230.24,89a11.9,11.9,0,0,1,.5,3.64,13.65,13.65,0,0,1-.44,3.6,5.75,5.75,0,0,1-1.65,2.69,8.3,8.3,0,0,1-3.3,1.72,20,20,0,0,1-5.39.61Z"/><path d="M235.52,60.36l-8.59-15.83s-.37-.64-.84-1.42c.28-.08.59-.15.85-.24a11,11,0,0,0,4.35-2.54,8.73,8.73,0,0,0,2.22-3.74,15.7,15.7,0,0,0,.64-4.48,14.75,14.75,0,0,0-.61-4.25,8,8,0,0,0-2.17-3.5A11.15,11.15,0,0,0,227.05,22a23.4,23.4,0,0,0-7-.88H207.37V60.36h3.3V43.8h12.05l8.87,16.56ZM210.67,40.88v-.14h0V24h9.23a23.38,23.38,0,0,1,5.28.5,8.18,8.18,0,0,1,3.33,1.53,5.48,5.48,0,0,1,1.73,2.57,11.86,11.86,0,0,1,.5,3.64,13.52,13.52,0,0,1-.44,3.59,5.73,5.73,0,0,1-1.65,2.7,8.16,8.16,0,0,1-3.3,1.71,19.6,19.6,0,0,1-5.39.61Z"/><path d="M461.7,60.36l-8.6-15.83s-.36-.64-.84-1.42c.29-.08.59-.15.86-.24a10.94,10.94,0,0,0,4.34-2.54,8.65,8.65,0,0,0,2.23-3.74,15.7,15.7,0,0,0,.63-4.48,14.75,14.75,0,0,0-.6-4.25,8,8,0,0,0-2.18-3.5A11.1,11.1,0,0,0,453.23,22a23.43,23.43,0,0,0-7-.88H433.54V60.36h3.3V43.8H448.9l8.86,16.56ZM436.84,40.88v-.14h0V24h9.24a23.38,23.38,0,0,1,5.28.5,8.3,8.3,0,0,1,3.33,1.53,5.48,5.48,0,0,1,1.73,2.57,11.88,11.88,0,0,1,.49,3.64,13.12,13.12,0,0,1-.44,3.59,5.58,5.58,0,0,1-1.65,2.7,8,8,0,0,1-3.3,1.71,19.53,19.53,0,0,1-5.38.61Z"/><polygon points="61.41 53.18 77.06 26.08 92.7 53.18 96.58 53.18 77.06 19.37 57.53 53.18 61.41 53.18"/><polygon points="108.76 74.28 104.88 74.28 129.75 117.36 24.36 117.36 49.23 74.28 45.35 74.28 18.54 120.72 135.57 120.72 108.76 74.28"/></svg>