<?xml version="1.0" encoding="utf-8"?>
<!-- Generator: Adobe Illustrator 27.5.0, SVG Export Plug-In . SVG Version: 6.00 Build 0)  -->
<svg version="1.1" id="Layer_1" xmlns="http://www.w3.org/2000/svg" xmlns:xlink="http://www.w3.org/1999/xlink" x="0px" y="0px"
	 viewBox="0 0 2500 804" style="enable-background:new 0 0 2500 804;" xml:space="preserve">
<style type="text/css">
	.st0{fill-rule:evenodd;clip-rule:evenodd;fill:#FFFFFF;}
</style>
<g>
	<path class="st0" d="M2,355.6c1.8,11.1,11.4,19.2,22.6,19.2c0.3,0,0.7-0.1,1-0.1h326.7c12.6,0,22.8-10.2,22.9-22.8h0V24
		c0-0.1,0-0.1,0-0.2c0-0.1,0-0.2,0-0.3v-0.3h0C374.9,10.8,364.7,0.9,352.3,1l-4.6,0.4C163.2,14.8,15.8,161.9,2,346.3V355.6L2,355.6z
		"/>
	<path class="st0" d="M802.2,351.9c-0.1,12.6-10.3,22.8-22.9,22.8H452.5c-13.6,0.1-23.9-10.1-23.9-22.8c0-0.5,0-0.7,0-1.2
		c11.9-186.6,160.1-335.8,346-349.3l4.6-0.4c12.4,0,22.6,9.9,22.9,22.2C802.2,23.7,802.2,133.2,802.2,351.9L802.2,351.9z"/>
	<path class="st0" d="M2,449.1c1.5-11.3,11.2-19.8,22.7-19.8h0.1v0h326.7c0.3,0,0.7-0.1,1-0.1c12.6,0,22.9,10.2,22.9,22.9
		c0,0,0,0,0,0c0,0.5,0,0.8,0,1.3l0,0.2c-11.9,186.4-160.1,335.6-346,349.1l-4.6,0.4c-11.4,0-21.1-8.3-22.7-19.6L2,449.1L2,449.1z"/>
	<path class="st0" d="M802.2,780.5v0.3h0c-0.3,12.4-10.5,22.3-22.9,22.2l-4.6-0.4c-185.9-13.5-334.2-162.7-346-349.1l0-0.2
		c0-0.5,0-0.8,0-1.3c0-12.6,10.2-22.9,22.9-22.9c0.3,0,0.7,0.1,1,0.1h326.7v0h0.1c12.6,0,22.8,10.2,22.9,22.7h0v327.9
		c0,0.1,0,0.2,0,0.3C802.2,780.3,802.2,780.4,802.2,780.5L802.2,780.5z"/>
	<path class="st0" d="M983,105.8v78.3h128.5v58.7H983v131.7h-73.1V46.9h216.3v59H983z M1360.7,131v243.5h-65.9l-2-25.7
		c-7.8,9.8-17.2,17.2-28.1,22.4c-11,5.2-23.5,7.8-37.6,7.8c-25.4,0-45.2-7.4-59.6-22.1c-14.4-14.7-21.6-37.5-21.6-68.4V131h70.2v158
		c0,11.2,2.9,19.6,8.7,25.1c5.8,5.5,13.8,8.2,24,8.2c20,0,33.8-6.9,41.6-20.7V131H1360.7z M1594.2,148.6
		c13.4,14.7,20.1,38.8,20.1,72.2v153.7h-70.4V220.4c0-14.1-3-23.8-8.9-29.1c-5.9-5.3-15.2-8-27.8-8c-16.7,0-29.1,6.8-37.4,20.3v171
		h-70V131h65.7l2.5,28.1c8.4-10.7,18.5-18.8,30.3-24.3s24.9-8.3,39.3-8.3C1561.9,126.5,1580.8,133.9,1594.2,148.6L1594.2,148.6z
		 M1867.6,28.9v345.7h-63.2l-3.4-26.3c-15.9,20.6-36.2,30.8-61,30.8c-19.8,0-36.8-5.3-51.1-15.9c-14.3-10.6-25.1-25.2-32.5-43.8
		c-7.4-18.6-11.1-39.8-11.1-63.7V251c0-24.8,3.7-46.5,11.1-65.3s18.3-33.3,32.5-43.7c14.3-10.3,31.4-15.5,51.5-15.5
		c22.8,0,41.7,8.7,56.7,26.1V28.9H1867.6L1867.6,28.9z M1781.8,316.4c6.5-4,11.7-9.7,15.4-17.2v-92.7c-7.4-15.5-20.3-23.2-38.9-23.2
		c-14.9,0-25.7,6.1-32.5,18.2c-6.8,12.2-10.2,28.7-10.2,49.5v4.7c0,20.4,3.3,36.6,9.9,48.6c6.6,12,17.4,18,32.4,18
		C1767.2,322.3,1775.2,320.3,1781.8,316.4L1781.8,316.4z M1976.4,42.2c7.2,6.7,10.8,15.3,10.8,26c0,10.5-3.6,19.1-10.8,25.8
		c-7.2,6.7-16.6,10-28.4,10c-11.7,0-21.1-3.3-28.2-10c-7.1-6.7-10.7-15.3-10.7-25.8c0-10.7,3.6-19.3,10.7-26
		c7.1-6.7,16.5-10,28.2-10C1959.7,32.2,1969.2,35.6,1976.4,42.2L1976.4,42.2z M1913.2,374.5h70.4V131h-70.4V374.5z M2221.9,148.6
		c13.4,14.7,20.1,38.8,20.1,72.2v153.7h-70.4V220.4c0-14.1-3-23.8-8.9-29.1c-5.9-5.3-15.2-8-27.8-8c-16.6,0-29.1,6.8-37.4,20.3v171
		h-70V131h65.7l2.5,28.1c8.4-10.7,18.5-18.8,30.3-24.3s24.9-8.3,39.3-8.3C2189.6,126.5,2208.4,133.9,2221.9,148.6L2221.9,148.6z
		 M2500,131v234.3c0,22.1-5,41-15,56.8c-10,15.8-24,27.8-42.1,36c-18.1,8.2-39.1,12.3-63.1,12.3c-16.7,0-33.5-3.2-50.5-9.7
		c-17-6.5-30.4-15.5-40.2-27.2l30.4-43c7.1,7.8,15.6,14.1,25.2,18.6c9.8,4.6,20.5,6.9,32.2,6.9c16.8,0,29.8-4.4,39.1-13.3
		c9.2-8.8,13.8-21.4,13.8-37.6v-11.2c-15.1,16.8-34.3,25.2-57.4,25.2c-20,0-37.4-5.3-52.3-15.9c-14.9-10.6-26.4-25.2-34.4-44
		c-8-18.8-12-39.9-12-63.5V251c0-24.6,4-46.3,12-65c8-18.8,19.5-33.3,34.5-43.8c15-10.4,32.6-15.6,52.7-15.6
		c26.1,0,46.4,8.9,61,26.8l2.7-22.3L2500,131L2500,131z M2429.8,303V202.6c-8.1-12.9-21.2-19.4-39.2-19.4
		c-15.2,0-26.7,6.3-34.8,18.8c-8,12.5-12,28.8-12,49v4.7c0,19.7,3.9,35.7,11.8,48c7.9,12.4,19.4,18.6,34.5,18.6
		C2408.2,322.3,2421.4,315.9,2429.8,303L2429.8,303z M1152.4,713.5c-10.9,17.3-26.3,30.8-46,40.4c-19.7,9.6-42.8,14.4-69.2,14.4
		c-28.2,0-52.6-6.4-73.1-19.2c-20.6-12.8-36.3-31.2-47.3-55c-11-23.9-16.4-52.1-16.4-84.6v-18.9c0-32.3,5.6-60.4,16.9-84.4
		c11.3-24,27.2-42.5,47.8-55.4c20.6-12.9,44.7-19.4,72.1-19.4c27.2,0,50.4,5,69.8,15c19.4,10,34.4,23.8,45.1,41.4
		c10.7,17.6,17.1,37.9,19.2,60.9h-72.9c-1.2-19.5-6.5-33.9-15.8-43.3c-9.3-9.4-24.5-14.1-45.5-14.1c-21.5,0-37.3,7.9-47.5,23.6
		c-10.2,15.8-15.3,40.8-15.3,75.2v19.4c0,23.4,2.1,42.3,6.2,56.7c4.1,14.4,10.8,25.1,19.9,32c9.1,6.9,21.4,10.3,36.7,10.3
		c19.7,0,34.4-4.5,44.2-13.5c9.8-9,15.3-22.9,16.5-41.6h72.9C1169.6,676.1,1163.4,696.1,1152.4,713.5L1152.4,713.5z M1269.8,431.5
		c7.2,6.7,10.8,15.3,10.8,26c0,10.5-3.6,19.1-10.8,25.8c-7.2,6.7-16.7,10-28.4,10c-11.7,0-21.1-3.3-28.2-10
		c-7.1-6.7-10.7-15.3-10.7-25.8c0-10.7,3.6-19.3,10.7-26c7.1-6.7,16.5-10,28.2-10C1253.1,421.5,1262.6,424.8,1269.8,431.5
		L1269.8,431.5z M1206.5,763.8h70.4V520.3h-70.4L1206.5,763.8L1206.5,763.8z M1464.9,518.5l-0.9,68c-11.6-1.2-19.7-1.8-24.3-1.8
		c-12.3,0-22.3,1.9-30,5.8c-7.7,3.9-13.4,9.8-17,17.6v155.7h-70.2V520.3h65.9l2.3,29.9c6.1-11.1,13.8-19.6,22.8-25.5
		c9.1-5.9,19.4-8.9,30.9-8.9C1452.9,515.8,1459.7,516.7,1464.9,518.5L1464.9,518.5z M1693.2,677.8c0,17.6-4.5,33.2-13.5,46.9
		c-9,13.7-21.2,24.4-36.7,32.1c-15.5,7.7-32.7,11.5-51.8,11.5c-24.5,0-45.2-5.3-62.2-16c-17-10.7-29.8-25.2-38.3-43.8
		c-8.5-18.5-12.7-39.7-12.7-63.6v-5.6c0-23.9,4.2-45.1,12.7-63.7c8.5-18.6,21.2-33.2,38.2-43.9c17-10.7,37.7-16,62.1-16
		c20.1,0,37.8,3.9,53.2,11.6c15.4,7.7,27.4,18.9,36,33.5c8.6,14.6,12.9,31.9,12.9,51.9h-65.9c-0.2-11.9-3.5-21.5-10-29
		c-6.5-7.5-15.8-11.3-27.8-11.3c-15.9,0-26.7,6-32.5,17.9c-5.8,11.9-8.7,28.2-8.7,49v5.6c0,21.2,2.9,37.5,8.7,49.2
		c5.8,11.6,16.8,17.4,33,17.4c11.3,0,20.3-3,27-9.1c6.8-6.1,10.2-14.3,10.3-24.6L1693.2,677.8L1693.2,677.8z M1726.6,763.8h70.4
		V418.1h-70.4L1726.6,763.8L1726.6,763.8z M2058.4,665h-152.8c2.7,14.4,8.9,25.8,18.7,34.1c9.7,8.3,22.2,12.5,37.4,12.5
		c11.7,0,22.5-2.1,32.4-6.3c9.9-4.2,18.4-10.7,25.4-19.6l33.1,39.4c-8.6,12.2-21.1,22.4-37.6,30.7c-16.5,8.3-35.8,12.5-57.8,12.5
		c-25.1,0-46.9-5.3-65.5-15.9c-18.6-10.6-32.9-24.9-42.8-42.9c-9.9-18-14.9-37.8-14.9-59.4v-8.6c0-24.2,4.6-45.7,13.7-64.7
		c9.2-19,22.4-33.9,39.7-44.8c17.3-10.9,38-16.3,62-16.3c23,0,42.6,4.8,59,14.5c16.4,9.7,28.8,23.5,37.2,41.4
		c8.5,17.9,12.7,39,12.7,63.4L2058.4,665L2058.4,665z M1989.5,612.8c0-12.6-3.4-22.5-10.2-29.6c-6.8-7.1-16.9-10.7-30.3-10.7
		c-23.9,0-38.3,15.3-43.2,45.9h83.7V612.8L1989.5,612.8z"/>
</g>
</svg>
