<svg id="fastfood" xmlns="http://www.w3.org/2000/svg" width="79.825" height="72.945" viewBox="0 0 79.825 72.945">
  <path id="Path_28" data-name="Path 28" d="M78.322,16.576H58.679V2.813H53.174V16.576H31.153v5.505h3.083L35.3,30.339H16.013A13.778,13.778,0,0,0,2.25,44.1v2.753H50.422V44.1a13.772,13.772,0,0,0-9.491-13.08l-1.145-8.94h32.28L65.89,70.253H2.25v5.505H70.734l6.883-53.677h4.458V16.576ZM44.444,41.349H8.227a8.272,8.272,0,0,1,7.786-5.505H36.659a8.272,8.272,0,0,1,7.786,5.505Z" transform="translate(-2.25 -2.813)" fill="#f4901d"/>
  <path id="Path_29" data-name="Path 29" d="M49.044,28.005h1.378V22.5H2.25v5.505Z" transform="translate(-2.25 25.669)" fill="#f4901d"/>
  <path id="Path_30" data-name="Path 30" d="M49.044,31.943h1.378V26.438H2.25v5.505Z" transform="translate(-2.25 31.366)" fill="#f4901d"/>
</svg>
