<svg id="clock" xmlns="http://www.w3.org/2000/svg" width="88.367" height="88.367" viewBox="0 0 88.367 88.367">
  <path id="Path_26" data-name="Path 26" d="M44.184,82.844A38.661,38.661,0,1,0,5.523,44.184,38.661,38.661,0,0,0,44.184,82.844ZM88.367,44.184A44.184,44.184,0,1,1,44.184,0,44.184,44.184,0,0,1,88.367,44.184Z" transform="translate(0 0)" fill="#f4901d" fill-rule="evenodd"/>
  <path id="Path_27" data-name="Path 27" d="M18.511,6.75a2.761,2.761,0,0,1,2.761,2.761V38.287L39.211,48.538a2.761,2.761,0,0,1-2.739,4.794L17.142,42.286a2.761,2.761,0,0,1-1.392-2.4V9.511A2.761,2.761,0,0,1,18.511,6.75Z" transform="translate(22.911 9.819)" fill="#f4901d" fill-rule="evenodd"/>
</svg>
