<svg xmlns="http://www.w3.org/2000/svg" width="75.768" height="81.014" viewBox="0 0 75.768 81.014">
  <g id="Icon" transform="translate(4.727 3.294)">
    <path id="e5ce292c-377d-4382-b2e6-49276b78d003" d="M77.4,58.97V29.485a7.372,7.372,0,0,0-3.686-6.376L47.913,8.366a7.374,7.374,0,0,0-7.371,0l-25.8,14.743a7.37,7.37,0,0,0-3.686,6.376V58.97a7.373,7.373,0,0,0,3.686,6.377l25.8,14.742a7.37,7.37,0,0,0,7.371,0l25.8-14.742A7.375,7.375,0,0,0,77.4,58.97Z" transform="translate(-11.071 -7.11)" fill="none" stroke="#f4901d" stroke-linecap="round" stroke-linejoin="round" stroke-width="6.9"/>
    <path id="_0f60276f-5e6a-4a16-b170-e3d2717594c4" data-name="0f60276f-5e6a-4a16-b170-e3d2717594c4" d="M27.642,15.517,44.228,25.1l16.585-9.582" transform="translate(-11.071 -7.11)" fill="none" stroke="#f4901d" stroke-linecap="round" stroke-linejoin="round" stroke-width="6.9"/>
    <path id="_552c5210-37d4-43d6-808b-07a1e3f94598" data-name="552c5210-37d4-43d6-808b-07a1e3f94598" d="M27.642,72.939V53.81L11.057,44.228" transform="translate(-11.071 -7.11)" fill="none" stroke="#f4901d" stroke-linecap="round" stroke-linejoin="round" stroke-width="6.9"/>
    <path id="_7e54a2c2-8b8c-440a-b346-d8c082fefe39" data-name="7e54a2c2-8b8c-440a-b346-d8c082fefe39" d="M77.4,44.228,60.813,53.81V72.939" transform="translate(-11.071 -7.11)" fill="none" stroke="#f4901d" stroke-linecap="round" stroke-linejoin="round" stroke-width="6.9"/>
    <path id="a0f5e55e-3380-47fa-8716-d551b5861e17" d="M12.052,25.652,44.228,44.265,76.4,25.652" transform="translate(-11.071 -7.11)" fill="none" stroke="#f4901d" stroke-linecap="round" stroke-linejoin="round" stroke-width="6.9"/>
    <line id="_8874f666-728b-4a17-aea1-02bc7c14ec43" data-name="8874f666-728b-4a17-aea1-02bc7c14ec43" y1="37.151" transform="translate(33.157 37.118)" fill="none" stroke="#f4901d" stroke-linecap="round" stroke-linejoin="round" stroke-width="6.9"/>
  </g>
</svg>
