<svg id="heart" xmlns="http://www.w3.org/2000/svg" width="88.547" height="83.017" viewBox="0 0 88.547 83.017">
  <path id="Path_25" data-name="Path 25" d="M44.275,15.209l-3.968-4.078c-9.315-9.576-26.4-6.27-32.56,5.766C4.852,22.559,4.2,30.732,9.487,41.164,14.578,51.21,25.172,63.24,44.275,76.346c19.1-13.105,29.691-25.139,34.788-35.182C84.349,30.725,83.7,22.556,80.8,16.9,74.638,4.861,57.557,1.55,48.242,11.123Zm0,67.808C-40.584,26.942,18.147-16.824,43.3,6.327c.332.305.659.62.974.947q.468-.49.974-.942C70.4-16.836,129.133,26.937,44.275,83.017Z" transform="translate(0 0)" fill="#f4901d" fill-rule="evenodd"/>
</svg>
