<svg id="computer-line" xmlns="http://www.w3.org/2000/svg" width="85.468" height="65.473" viewBox="0 0 85.468 65.473">
  <path id="Path_13" data-name="Path 13" d="M12.029,43.953V13.029H49.3L53.277,9H8V43.953Z" transform="translate(9.627 1.073)" fill="#f4901d"/>
  <path id="Path_14" data-name="Path 14" d="M9.036,10.036H69.473V50.328H74.51V8.777A3.777,3.777,0,0,0,70.732,5H7.777A3.777,3.777,0,0,0,4,8.777v41.55H9.036Z" transform="translate(3.555 -5)" fill="#f4901d"/>
  <path id="Path_15" data-name="Path 15" d="M1,25v8.562a6.547,6.547,0,0,0,6.547,6.547H79.92a6.547,6.547,0,0,0,6.547-6.547V25Zm80.582,8.562a1.511,1.511,0,0,1-1.511,1.511H7.447a1.511,1.511,0,0,1-1.511-1.511V28.853H30.992a4.13,4.13,0,0,0,3.777,2.518H52.724A4.13,4.13,0,0,0,56.5,28.853H81.582Z" transform="translate(-1 25.364)" fill="#f4901d"/>
</svg>
