<svg id="operations-field" xmlns="http://www.w3.org/2000/svg" width="77.437" height="78.638" viewBox="0 0 77.437 78.638">
  <path id="Path_16" data-name="Path 16" d="M22.5,30.335V2.25h5.617V30.335Z" transform="translate(26.852 -2.25)" fill="#f4901d"/>
  <path id="Path_17" data-name="Path 17" d="M27,30.335V2.25h5.617V30.335Z" transform="translate(33.586 -2.25)" fill="#f4901d"/>
  <path id="Path_18" data-name="Path 18" d="M31.5,30.335V2.25h5.617V30.335Z" transform="translate(40.32 -2.25)" fill="#f4901d"/>
  <path id="Path_19" data-name="Path 19" d="M28.1,39.335A10.987,10.987,0,0,1,16.867,28.1,10.987,10.987,0,0,1,28.1,16.867V11.25A16.851,16.851,0,1,0,44.952,28.1H39.335A10.987,10.987,0,0,1,28.1,39.335Z" transform="translate(10.017 11.218)" fill="#f4901d"/>
  <path id="Path_20" data-name="Path 20" d="M77.06,48.462l-7.851-6.893-3.7,4.224,7.841,6.885L66.72,64.159,57.1,60.9a25.364,25.364,0,0,1-7.622,4.4l-2,9.973H34.221L32.226,65.3a25.544,25.544,0,0,1-7.569-4.414l-9.681,3.275L8.348,52.681,16,45.955a25.069,25.069,0,0,1-.02-8.785L8.348,30.457l6.628-11.479L24.6,22.237a25.361,25.361,0,0,1,7.627-4.4l1.995-9.971h6.628V2.25H34.221a5.617,5.617,0,0,0-5.507,4.515L27.3,13.839a30.8,30.8,0,0,0-3.727,2.117l-6.8-2.3a5.612,5.612,0,0,0-6.661,2.514L3.485,27.651a5.617,5.617,0,0,0,1.153,7.028l5.422,4.766c-.045.706-.1,1.408-.1,2.124s.027,1.44.08,2.152L4.643,48.462a5.617,5.617,0,0,0-1.161,7.028L10.11,66.97a5.612,5.612,0,0,0,6.668,2.514l6.835-2.314A30.822,30.822,0,0,0,27.3,69.3l1.413,7.072a5.617,5.617,0,0,0,5.51,4.514H47.477a5.617,5.617,0,0,0,5.507-4.515L54.4,69.3a30.8,30.8,0,0,0,3.727-2.114l6.793,2.3a5.612,5.612,0,0,0,6.666-2.511l6.628-11.481a5.617,5.617,0,0,0-1.153-7.028Z" transform="translate(-2.731 -2.25)" fill="#f4901d"/>
</svg>
