<?xml version="1.0" encoding="utf-8"?>
<!-- Generator: Adobe Illustrator 28.2.0, SVG Export Plug-In . SVG Version: 6.00 Build 0)  -->
<svg version="1.1" id="Circle_Button_SIZE_MEDIUM_STATE_DEFAULT_STYLE_STYLE2_"
	 xmlns="http://www.w3.org/2000/svg" xmlns:xlink="http://www.w3.org/1999/xlink" x="0px" y="0px" viewBox="0 0 148 143.8"
	 style="enable-background:new 0 0 148 143.8;" xml:space="preserve">
<style type="text/css">
	.st0{clip-path:url(#SVGID_00000130629008503340127890000007621061879794897034_);}
	.st1{fill-rule:evenodd;clip-rule:evenodd;fill:#F4901D;}
	.st2{fill:#F4901D;}
</style>
<g id="Mask_Group_1-2">
	<g>
		<g>
			<defs>
				<path id="SVGID_1_" d="M102.1,8.2L51.5,58.6c-21.2,21.2-37.1,46.9-46.7,75.1c-1,2.7-0.2,5.8,1.9,7.9l0,0
					c1.5,1.5,3.3,2.3,5.4,2.3c0.8,0,1.7-0.2,2.5-0.4c28.2-9.7,53.9-25.5,75.1-46.7l50.4-50.4c10.6-10.6,10.6-27.6,0-38.2
					S112.5-2.4,102.1,8.2L102.1,8.2z M82.8,89.7c-19.1,19.1-42.1,33.6-67.4,42.9c9.3-25.1,24.1-48.1,42.9-67.2l30.1-30.1l24.5,24.5
					L82.8,89.7L82.8,89.7z M133.2,39.3L119.7,53L95.3,28.5l13.5-13.5c6.6-6.8,17.4-7.1,24.3-0.4s7.1,17.4,0.4,24.3
					C133.4,39.1,133.4,39.3,133.2,39.3L133.2,39.3z"/>
			</defs>
			<clipPath id="SVGID_00000122707532627219224940000009837153857800530560_">
				<use xlink:href="#SVGID_1_"  style="overflow:visible;"/>
			</clipPath>
			<g style="clip-path:url(#SVGID_00000122707532627219224940000009837153857800530560_);">
				<g id="Mask_Group_2-2">
					<g id="_TEMP_SVG-2">
						<path id="Path_1-2" class="st1" d="M144.6-7.3c-3.1-3.1-7.9-3.1-11,0l0,0l-6.8,6.8c-8.9-4.4-19.5-2.5-26.5,4.6L17.5,86.8
							l44.2,44l82.6-82.6c7.1-7.1,8.9-17.6,4.6-26.5l6.8-6.8c3.1-3.1,3.1-7.9,0-11L144.6-7.3L144.6-7.3L144.6-7.3z M111.2,59
							l-49.8,49.8l-22-22.2l49.8-49.8L111.2,59L111.2,59z M125.5,44.9l7.7-7.7c3.1-3.1,3.1-7.9,0-11l0,0l-11-11
							c-3.1-3.1-7.9-3.1-11,0l0,0l-7.7,7.7L125.5,44.9L125.5,44.9L125.5,44.9z"/>
						<path id="Path_2-2" class="st2" d="M-5.5,153.6L11.1,93l44,44.2L-5.5,153.6L-5.5,153.6z"/>
					</g>
				</g>
			</g>
		</g>
	</g>
</g>
</svg>
