<?xml version="1.0" encoding="utf-8"?>
<!-- Generator: Adobe Illustrator 28.2.0, SVG Export Plug-In . SVG Version: 6.00 Build 0)  -->
<svg version="1.1" id="Layer_1" xmlns="http://www.w3.org/2000/svg" xmlns:xlink="http://www.w3.org/1999/xlink" x="0px" y="0px"
	 viewBox="0 0 119.1 100" style="enable-background:new 0 0 119.1 100;" xml:space="preserve">
<style type="text/css">
	.st0{fill:#F4901D;}
</style>
<g id="Circle_Button_SIZE_MEDIUM_STATE_DEFAULT_STYLE_STYLE2_" transform="translate(0 0)">
	<g id="Mask_Group_3" transform="translate(0 0)">
		<g id="speech" transform="translate(22.953 29.772)">
			<path id="Path_3" class="st0" d="M8.8,15.1h7.9v6.7H8.8V15.1z"/>
			<path id="Path_4" class="st0" d="M32.6,15.1h7.9v6.7h-7.9V15.1z"/>
			<path id="Path_5" class="st0" d="M56.4,15.1h7.9v6.7h-7.9V15.1z"/>
			<path id="Path_6" class="st0" d="M88.2-29.8H-15c-4.4,0-7.9,3.1-7.9,6.9v62.1c0,3.8,3.6,6.9,7.9,6.9H0.9v24.1l0,0l35.4-24.1h51.9
				c4.4,0,7.9-3.1,7.9-6.9v-62.1C96.1-26.7,92.6-29.8,88.2-29.8z M88.2,39.2H33l-24.2,21v-21H-15v-62.1H88.2V39.2z"/>
		</g>
	</g>
</g>
</svg>
