<svg id="people" xmlns="http://www.w3.org/2000/svg" width="84.68" height="62.098" viewBox="0 0 84.68 62.098">
  <path id="Path_21" data-name="Path 21" d="M32.352,36.674a13.547,13.547,0,0,1-9.881-4.559,17.614,17.614,0,0,1-4.586-10.761,14.738,14.738,0,0,1,3.728-11.248A14.4,14.4,0,0,1,32.352,5.625a14.41,14.41,0,0,1,10.708,4.5,14.7,14.7,0,0,1,3.751,11.225,17.661,17.661,0,0,1-4.586,10.761A13.512,13.512,0,0,1,32.352,36.674ZM44,21.148Z" transform="translate(24.101 -5.625)" fill="#f4901d"/>
  <path id="Path_22" data-name="Path 22" d="M63.86,45.654H17.348a4.888,4.888,0,0,1-3.881-1.882,5.332,5.332,0,0,1-.928-4.549,23.255,23.255,0,0,1,10.641-14.3A33.468,33.468,0,0,1,40.6,20.25a33.162,33.162,0,0,1,17.415,4.6A23.12,23.12,0,0,1,68.67,39.233a5.339,5.339,0,0,1-.938,4.549,4.883,4.883,0,0,1-3.871,1.872Z" transform="translate(15.849 16.444)" fill="#f4901d"/>
  <path id="Path_23" data-name="Path 23" d="M17.678,33.984c-6.207,0-11.667-5.773-12.174-12.866a12.437,12.437,0,0,1,3.176-9.459,12.115,12.115,0,0,1,9-3.784,12.071,12.071,0,0,1,8.985,3.806,12.348,12.348,0,0,1,3.176,9.441c-.507,7.093-5.964,12.861-12.161,12.861Z" transform="translate(5.432 -2.23)" fill="#f4901d"/>
  <path id="Path_24" data-name="Path 24" d="M35.82,21.862a26.764,26.764,0,0,0-11.582-2.276A27.294,27.294,0,0,0,10.025,23.4a19.146,19.146,0,0,0-8.751,11.77,4.832,4.832,0,0,0,.846,4.122A4.466,4.466,0,0,0,5.661,41.01H25.244a1.413,1.413,0,0,0,1.387-1.159c.02-.11.045-.223.073-.331A25.552,25.552,0,0,1,36.886,24.732a1.413,1.413,0,0,0-.11-2.361c-.276-.163-.595-.334-.956-.509Z" transform="translate(-1.125 15.442)" fill="#f4901d"/>
</svg>
